<?xml version="1.0" standalone="no"?>
<!DOCTYPE svg PUBLIC "-//W3C//DTD SVG 1.1//EN" "http://www.w3.org/Graphics/SVG/1.1/DTD/svg11.dtd" >
<svg xmlns="http://www.w3.org/2000/svg">
<metadata></metadata>
<defs>
<font id="uicons__communications_and_Rg" horiz-adv-x="2254" >
<font-face units-per-em="2048" ascent="1536" descent="-512" />
<missing-glyph horiz-adv-x="1024" />
<glyph horiz-adv-x="2048" />
<glyph horiz-adv-x="2048" />
<glyph unicode="&#xd;" horiz-adv-x="2048" />
<glyph unicode=" "  horiz-adv-x="1024" />
<glyph unicode="&#x09;" horiz-adv-x="1024" />
<glyph unicode="&#xa0;" horiz-adv-x="1024" />
<glyph unicode="!" horiz-adv-x="2152" d="M-6 563q0 200 76 380.5t204.5 310t305.5 206t372 76.5q198 0 377 -76.5t307.5 -206t204.5 -310t76 -380.5q0 -112 -26.5 -220.5t-74 -203t-116 -178t-150.5 -149t-179.5 -113t-201 -72t-216.5 -24.5t-224 28l-197 -200q-18 -25 -55 -25q-12 0 -24.5 7.5t-16.5 17.5v327 q-205 129 -323.5 341.5t-118.5 463.5zM596 778q0 -23 7 -38t26 -35q1 0 25.5 -8.5t41.5 -8.5q44 0 56 12q7 3 32 37q4 6 8.5 21.5t8.5 19.5q6 14 16.5 30t11.5 17q5 9 12 15t19.5 12.5t16.5 9.5q15 21 67 21q77 0 111 -37q35 -44 35 -94q0 -34 -19 -64q-21 -21 -53 -49 q-35 -35 -51 -45q-24 -18 -68 -53q-29 -37 -41 -66q-29 -29 -29 -74q0 -26 29 -71q30 -27 68 -27q41 0 57 10q3 4 12.5 13.5t14.5 15.5q3 5 8 20.5t12 24.5q0 21 12 33q16 26 39 39q4 3 54 41q49 37 65 47q8 8 25 28t26 29q9 7 16 17.5t15.5 26.5t13.5 24q9 18 9 80 q0 74 -25 141q-10 17 -40 46.5t-40 41.5q-54 21 -129 53q-41 8 -135 8q-78 0 -125 -18q-76 -30 -106 -57q-48 -32 -76 -84q-33 -53 -33 -105zM811 88q0 -53 39 -78q36 -39 76 -39q30 0 50 8.5t42 30.5q37 37 37 78q0 45 -37 82q-20 23 -38.5 29t-53.5 6q-24 0 -41 -6.5 t-35 -28.5q-39 -25 -39 -82z" />
<glyph unicode="#" horiz-adv-x="2635" d="M1.5 -211q-2.5 38 21.5 72l1005 1620q40 61 98 55.5t82 -55.5l994 -1620q36 -54 5.5 -114t-96.5 -56h-1429l-283 -275q-18 -22 -37 -22q-15 0 -23.5 6.5t-8.5 15.5l6 275h-223q-45 0 -77 30t-34.5 68zM1022 37q0 -43 29.5 -70.5t74.5 -27.5q42 0 69.5 27.5t27.5 70.5 t-28 73.5t-69 30.5q-44 0 -74 -30.5t-30 -73.5zM1032 946l33 -622q0 -28 16.5 -49t40.5 -21q25 0 38.5 20t13.5 50l34 622q0 103 -82 103q-37 0 -59.5 -20t-28.5 -41t-6 -42z" />
<glyph unicode="0" horiz-adv-x="2414" d="M-4 512q0 167 52 324t147 283.5t221.5 221.5t283.5 147t324 52q208 0 398.5 -81.5t328 -219t219.5 -328t82 -399.5t-82 -399.5t-219.5 -328t-328 -219t-398.5 -81.5q-167 0 -324 52t-283.5 147t-221.5 221.5t-147 283.5t-52 324zM258 444h510v131h-510v-131zM1024 -344 q173 2 330 70.5t271 183t181.5 272t67.5 330.5t-67.5 330.5t-181.5 272t-271 183t-330 70.5v-1712zM1163 444v131h189v187h133v-187h188v-131h-188v-190h-133v190h-189z" />
<glyph unicode="1" horiz-adv-x="2459" d="M-4 180v711h825q-49 -112 -49 -207q0 -128 64.5 -237.5t175 -173.5t239.5 -64q199 0 327 137.5t134 337.5q3 98 -51 205h453v-709q0 -74 -52 -127t-127 -53h-1759q-74 0 -127 53t-53 127zM-4 946v154q0 75 53 128.5t127 53.5h1759q75 0 127 -53.5t52 -128.5v-154h-478 q-63 96 -167.5 154.5t-225.5 58.5q-118 0 -220.5 -58t-172.5 -155h-854zM242 1341l30 117h232l24 -117h-286zM700 1341l101 197h504l94 -197h-699zM905 690q0 146 101.5 247t246.5 101q142 0 243 -101.5t101 -246.5q0 -141 -101.5 -242.5t-242.5 -101.5q-144 0 -246 101.5 t-102 242.5zM963 1399h178v76h-178v-76zM1055 690q0 -79 59 -136.5t139 -57.5q81 0 138 57t57 137q0 82 -56.5 138.5t-138.5 56.5q-80 0 -139 -57t-59 -138zM1597 1341l31 123h244l35 -123h-310z" />
<glyph unicode="2" horiz-adv-x="2664" d="M-2 109v1126q0 43 32.5 75.5t75.5 32.5h506q25 87 99.5 142t169.5 55h501q94 0 169.5 -55t105.5 -142h483q43 0 76 -32.5t33 -75.5v-1126q0 -43 -33 -76t-76 -33h-2034q-43 0 -75.5 33t-32.5 76zM633 719q0 -134 66 -248t180 -181t249 -67t249 67t180.5 181t66.5 248 q0 135 -66.5 249.5t-180.5 181.5t-249 67t-249 -67t-180 -181.5t-66 -249.5zM811 719q0 -133 93.5 -225.5t223.5 -92.5q134 0 226 92.5t92 225.5q0 130 -93 224.5t-225 94.5q-129 0 -223 -95t-94 -224z" />
<glyph unicode="3" horiz-adv-x="2813" d="M0 502q0 95 80.5 169.5t211 114t283.5 39.5v-82q-411 -57 -411 -192q0 -82 119 -147t301 -89v136l352 -207l-352 -221l-2 132v-1q-158 1 -291.5 47t-212 125.5t-78.5 175.5zM641 520v635q0 23 19 42.5t42 19.5h263q17 52 59.5 93.5t93.5 41.5h297q50 0 93.5 -42t60.5 -93 h297q24 0 43.5 -19.5t19.5 -42.5v-635q0 -29 -18 -45t-45 -16h-1164q-25 0 -43 16t-18 45zM985 879q0 -123 81.5 -205t205.5 -82q117 0 202 83t85 204q0 117 -85.5 202.5t-201.5 85.5q-123 0 -205 -84.5t-82 -203.5zM1087 879q0 78 54 132t131 54t130.5 -54t53.5 -132 q0 -76 -53.5 -129.5t-130.5 -53.5t-131 53.5t-54 129.5zM1663 131v193q222 -12 405.5 21.5t287.5 102t104 156.5q0 123 -222 164v-145l-278 225l278 176v-154q179 -30 283.5 -123t104.5 -204q0 -112 -101 -206.5t-276.5 -150t-382.5 -55.5h-203z" />
<glyph unicode="4" horiz-adv-x="2762" d="M-2 125v1014q0 49 37.5 88t91.5 39h70v188q0 39 18 60.5t64 21.5h991q40 0 61 -24t21 -66v-180h444q54 0 91.5 -39t37.5 -88v-353l381 168q21 0 38 -17t17 -38v-627q0 -20 -16.5 -32.5t-38.5 -12.5l-381 172v-274q0 -49 -37.5 -89t-91.5 -40h-1669q-54 0 -91.5 40 t-37.5 89zM256 399q0 -9 1 -10.5t9 -1.5h1065q6 0 7 1.5t1 10.5v668q0 18 -8 18h-1065q-10 0 -10 -18v-668zM319 1313q0 -21 12.5 -34t33.5 -13h815q21 0 34 13t13 34v61q0 20 -13.5 33.5t-33.5 13.5h-815q-20 0 -33 -13.5t-13 -33.5v-61zM1518 981q0 -36 24 -62t68 -30 q44 -1 69 27t25 65q0 39 -23 66.5t-71 27.5q-43 0 -67.5 -28t-24.5 -66z" />
<glyph unicode="5" horiz-adv-x="2729" d="M-2 135q0 72 50.5 123t123.5 51h1958q70 0 120 -51t50 -123v-473q0 -72 -50 -123t-120 -51h-342v125h-1280v-125h-336q-73 0 -123.5 51t-50.5 123v473zM512 522v928q0 36 26 62t60 26h926l325 -338v-678q0 -34 -25.5 -58t-62.5 -24h-1163q-34 0 -60 24.5t-26 57.5z M690 696h981v78h-981v-78zM690 885h981v69h-981v-69zM690 1083h619v78h-619v-78zM690 1276h619v80h-619v-80zM1386 1204q-3 -66 28.5 -98.5t90.5 -24.5h189l-308 332v-209zM1528 63h276v130h-276v-130zM1919 63h117v130h-117v-130z" />
<glyph unicode="6" horiz-adv-x="2455" d="M-4 358q98 -83 142 -119.5t129 -103.5t151 -112l-223 -408l286 358q65 -51 93 -72.5t109 -78.5t132.5 -86t116.5 -55t108 -25q48 1 106.5 22t109 49t114.5 73t104 77t97 78q15 12 22 18l281 -358l-213 408q49 39 106 86.5t96 81.5t102 88.5t91 78.5v-815q0 -23 -16 -39 t-41 -16h-1950q-22 0 -37.5 16t-15.5 39v815zM-4 481v37q0 23 15.5 38t37.5 15l703 4v-229q0 -68 41.5 -118t105.5 -50h244q68 0 108.5 49.5t40.5 118.5v229l707 -4q25 0 41 -15t16 -38v-37q-3 -3 -160.5 -139.5t-250.5 -208.5q-5 -4 -49 -38.5t-62.5 -49t-66 -50.5 t-75.5 -55.5t-73 -50.5t-78 -50t-71 -39.5t-70.5 -32.5t-59.5 -17q-29 0 -74.5 20t-105.5 58.5t-94 62t-88 62.5q-101 69 -238.5 175t-211 165t-232.5 188zM530.5 765q2.5 18 8.5 28l450 716q13 25 51 25q31 0 37 -25l463 -716q16 -37 -2 -60t-47 -20h-287v-387 q0 -26 -17 -45t-44 -19h-236q-25 0 -44 19.5t-19 44.5v387h-269q-26 0 -36.5 17t-8 35z" />
<glyph unicode="7" horiz-adv-x="3686" d="M0 961v124h1079v-124h-1079zM188 709v125h891v-125h-891zM379 457v118h700v-118h-700zM580 195v124h499v-124h-499zM1221 53v805q32 -31 66 -60.5t55.5 -48t68.5 -53.5t61 -45t79.5 -57t80.5 -57l-207 -424l295 362q149 -111 316.5 -211t238.5 -100q73 0 255.5 102 t301.5 209l287 -362l-197 430q98 72 148.5 110t119 95t122.5 110v-805q0 -55 -56 -55h-1978q-57 0 -57 55zM1221 975v55q0 60 57 60h1978q56 0 56 -60v-55q-25 -21 -90.5 -76t-108.5 -91t-106 -87t-117 -92q-23 -16 -100 -71t-106 -75t-94.5 -62.5t-106 -64.5t-98 -49.5 t-110.5 -46.5q-96 45 -205 110t-228 148t-209 149t-221 165t-191 143z" />
<glyph unicode="8" horiz-adv-x="3076" d="M-4 -352q0 28 24.5 55t57.5 27h672l-207 190q264 27 491 66l137 -269v293q76 1 187.5 19t228.5 59t156 92q48 63 97.5 261t74.5 362l340 -37l-326 137q9 67 38 220t36 243l561 -543q19 -20 19 -44.5t-19 -43.5l-1022 -1005h670q35 0 58.5 -26.5t23.5 -55.5v-82 q0 -28 -24 -55t-58 -27h-2134q-33 0 -57.5 27.5t-24.5 54.5v82zM391 98q0 24 19 43l1376 1375q44 40 84 0l67 -84q-12 -100 -33 -234.5t-55.5 -327.5t-82.5 -366.5t-97 -265.5q-77 -39 -177 -72.5t-189.5 -54.5t-212.5 -42t-204 -32t-209 -27t-185 -24l-82 69q-19 19 -19 43 z" />
<glyph unicode="9" horiz-adv-x="3045" d="M-2 92q0 11 11 18t26 7h219v387q0 32 23.5 55t54.5 23h876v325h-229q-12 0 -19.5 9.5t-7.5 17.5v569q0 29 27 29h573q14 0 24.5 -8t10.5 -21v-569q0 -7 -11.5 -17t-23.5 -10h-227v-325h875q33 0 60.5 -23.5t27.5 -54.5v-119v-268h223q29 0 29 -25v-584q0 -7 -8.5 -16.5 t-20.5 -9.5h-574q-5 0 -14.5 10t-9.5 16v584q0 11 9 18t15 7h240v348h-852v-348h227q14 0 24.5 -7t10.5 -18v-584q0 -7 -11.5 -16.5t-23.5 -9.5h-573q-12 0 -19.5 9t-7.5 17v584q0 25 27 25h229v348h-839v-348h229q27 0 27 -25v-584q0 -7 -8 -16.5t-19 -9.5h-563 q-13 0 -25 9.5t-12 16.5v584z" />
<glyph unicode="@" horiz-adv-x="2764" d="M8.5 -407q-5.5 41 16.5 79l1103 1807q41 61 113 61q57 0 98 -61l1106 -1807q37 -53 1.5 -118t-99.5 -64h-2226q-42 -1 -74.5 30.5t-38 72.5zM1100 -190q0 -43 32.5 -78t81.5 -35q42 0 79.5 36t37.5 77q0 52 -33.5 88t-76.5 36q-51 0 -86 -35t-35 -89zM1116 915l25 -786 q0 -30 20 -52t56 -22q27 0 47 23t20 51l62 786q0 38 -29 77.5t-86 39.5q-58 0 -86.5 -39.5t-28.5 -77.5z" />
<glyph unicode="A" horiz-adv-x="2447" d="M-4 -436q56 185 82 233q8 22 14 33.5t18.5 28t33.5 26t51 13.5q12 3 63.5 12t79.5 16q22 7 47.5 12t60.5 10t46 7q0 4 1 6t2 2h1q14 18 27.5 57t13.5 78q-8 8 -24.5 21t-25 21.5t-18 29.5t-14.5 53q-13 65 -19 145q-2 35 -2 62q0 35 4 57q-41 23 -41 111v4q0 19 0.5 33.5 t5.5 47.5t14.5 60t29.5 62t47.5 60.5t72.5 49t101 35.5h12q19 4 44.5 4t37.5 -4h16q55 -12 99 -35t71 -48t46.5 -59.5t28.5 -60t14 -60t5 -48v-34.5v-7q0 -90 -30 -111q2 -19 2 -49t-2 -72q-5 -83 -17 -143q-12 -40 -26.5 -61.5t-36 -38t-29.5 -25.5q0 -39 16 -77.5 t33 -57.5q1 0 9 -8q9 -2 63.5 -11t87.5 -18q24 -7 72.5 -16t58.5 -12q26 -3 45 -10t31.5 -19t19 -21t16.5 -26t15 -25q13 -32 40 -114.5t32 -118.5l8 -8q-3 -3 -16 -18t-23 -25.5t-25 -20.5t-26 -10h-19h-620h-627h-16q-22 0 -49 28.5t-33 45.5v8zM1018 1137q0 108 75 199 t203 142.5t279 51.5q152 0 280 -51.5t203.5 -142.5t75.5 -199q0 -106 -75.5 -194.5t-203.5 -138.5t-280 -50h-74q-19 2 -39 -1.5t-43.5 -15.5t-40.5 -21.5t-44 -30t-38 -29t-38.5 -32t-30.5 -26.5q-10 -8 -15.5 -8t-5.5 8q0 5 21 78q13 52 13 88q0 61 -36 82 q-86 58 -136 133t-50 158z" />
<glyph unicode="B" horiz-adv-x="1411" d="M6 78l443 422l-443 420l113 110l338 -323v833l624 -620l-417 -420l417 -402l-618 -624l2 815l-346 -330zM618 -129l228 227l-228 224v-451zM618 684l228 236l-228 225v-461z" />
<glyph unicode="C" d="M-8 762q0 -31 23.5 -50.5t56.5 -19.5h268v787h-268q-32 0 -56 -22.5t-24 -51.5v-643zM449 684v758l385 71q106 11 233 11q106 7 225.5 7t173.5 -18q44 -11 86 -51.5t64 -79.5q12 -26 12 -51q0 -9 -2 -19q-6 -34 -2 -42q6 -18 31.5 -38t46 -43.5t20.5 -55.5 q0 -44 -19.5 -84t-19.5 -52q2 -18 22 -35.5t38 -40t18 -53.5q0 -42 -22 -69q-6 -12 -18 -25t-17.5 -22t-1.5 -19q0 -18 29.5 -55t29.5 -51v-7q1 -39 -39 -97q-44 -63 -82 -79q-22 -14 -66.5 -20.5t-76.5 -7t-102 -0.5q-60 0 -129.5 5t-109.5 10l-40 5q-6 -13 -6 -30 q0 -28 16 -67q26 -64 68.5 -139t50.5 -98q28 -67 28 -151q0 -13 -1 -27q-5 -100 -47 -153q-33 -41 -83 -63q-43 -18 -74 -19q-6 1 -10 1q-34 4 -34 25q-10 144 -33 235t-51 132t-74 74q-10 10 -29 27t-30 27.5t-23.5 27.5t-19.5 34q-51 141 -86 205q-107 207 -193 207h-36z " />
<glyph unicode="D" horiz-adv-x="2326" d="M-12 -188q0 -31 23 -54.5t55 -23.5h270v790h-270q-32 0 -55 -24.5t-23 -55.5v-632zM444 -236v756h35q86 0 195 207q61 132 84 207q9 23 29.5 46.5t36 36.5t48.5 40q41 32 67.5 73t50 133.5t34.5 235.5q0 18 36 22q6 1 11 1q33 0 73 -18q48 -21 77 -64q46 -59 53 -154 q1 -15 1 -29q0 -79 -32 -151q-8 -24 -36 -75.5t-52 -96.5q-24 -44 -38 -92q-7 -25 -7 -44q0 -18 6 -30q142 23 279 23q44 4 81 3q109 0 160 -30q38 -12 83.5 -76.5t45.5 -103.5q-4 -16 -33.5 -54.5t-29.5 -54.5q-4 -11 1 -20.5t20.5 -25t21.5 -23.5q1 -8 10.5 -31t9.5 -41 q0 -25 -12.5 -44.5t-27.5 -30t-29 -23t-17 -23.5q0 -12 21.5 -51.5t21.5 -83.5q0 -27 -12.5 -49t-28.5 -34.5t-34 -27.5t-25 -26q-4 -10 4 -44q2 -10 2 -21q0 -24 -12 -48q-21 -43 -63.5 -84.5t-88.5 -52.5q-72 -19 -214 -19q-79 0 -179 6l-240 13z" />
<glyph unicode="E" horiz-adv-x="1404" d="M2 522q0 101 37 174q6 20 18 43t19.5 35t28.5 42.5t26 37.5q18 22 55 65t56 66q26 21 78 68.5t79 70.5q-45 153 -45 287q0 68 19 176q23 78 63 148q33 67 84 92q36 18 66 18q27 0 63 -18q63 -35 97 -128.5t34 -234.5q0 -134 -58 -274t-192 -260l45 -203h37q78 0 148 -31 q55 -24 102 -71q40 -40 76 -121q16 -37 16 -129q0 -106 -55 -195q-75 -88 -166 -121q46 -206 58 -239q6 -18 6 -66t-10.5 -92t-26.5 -65q-51 -70 -119 -93q-73 -28 -149 -28q-110 0 -195 55q-92 65 -92 158q0 24 20 86q21 36 64 61q26 29 84 29q31 0 82 -19q9 -8 18 -17 t20 -20.5t17 -17.5q20 -54 20 -82q0 -57 -38 -92q-34 -39 -93 -39q30 -27 93 -27q50 0 83 9q6 4 35.5 19.5t38.5 27.5q39 35 39 55q17 45 17 92q0 14 -5.5 41t-5.5 41q-12 40 -26 103q-13 64 -27 92q-39 -8 -111 -8q-126 0 -202 36q-128 52 -178 113q-68 68 -111 166 q-37 73 -37 184zM131 412q0 -67 29 -121q22 -45 82 -92q42 -43 129.5 -73t175.5 -30q14 0 42 5t44 5l-103 426q-40 -14 -84 -55q-47 -47 -47 -112q0 -27 29 -74q30 -45 74 -64q8 0 18 -10q10 0 10 -18q0 -5 -5 -10t-5 -9h-18q-80 10 -158 84q-63 77 -63 156q13 104 63 176 q54 65 148 111l-37 176q-133 -107 -230 -221q-94 -126 -94 -250zM455 1382q0 -44 28 -202q0 7 1.5 8.5t7.5 1.5q15 25 38 45q46 46 64 82q29 39 65 113q19 83 19 100q0 31 -10 47q0 18 -9 29q-10 16 -47 16q-14 0 -30 -6t-39 -22.5t-44 -56.5t-34 -99q0 -1 -5 -20t-5 -36z M586 549l108 -453h11q64 21 120 92q27 53 27 150v8q0 39 -35 111q-45 48 -92 75q-51 37 -123 37h-16v-20z" />
<glyph unicode="F" horiz-adv-x="1861" d="M-4 -293q0 88 80.5 152.5t175.5 64.5q66 0 143 -41v1483q123 45 280 78.5t293 50t255 26t189 11.5l69 2v-1651q0 -87 -78 -155t-170 -68q-95 0 -175.5 68t-80.5 155t80.5 151t175.5 64q22 0 44 -6.5t32 -11t43 -21.5v1006q-57 0 -114 -3t-115.5 -10.5t-104 -13.5 t-105.5 -18.5t-92.5 -19t-92 -22t-76.5 -20t-74 -20.5t-58 -16v-1215q0 -85 -87 -150t-181 -65t-175 64.5t-81 150.5z" />
<glyph unicode="G" horiz-adv-x="1527" d="M-2 -295q0 94 86 164t186 70q92 0 168 -39v1618h30q104 0 188 -18q96 -21 155.5 -58t106.5 -86t73 -100.5l52 -103t46.5 -93.5t54 -71t77.5 -36q-10 -7 -27.5 -16.5t-68.5 -21.5q-29 -7 -57 -7q-20 0 -40 4q-48 12 -84 35.5t-57.5 51.5t-40.5 59.5t-40.5 62.5t-50 57.5 t-76.5 47t-112 28.5v-1548q0 -92 -97 -162.5t-200 -70.5q-100 0 -186 69.5t-86 163.5z" />
<glyph unicode="H" horiz-adv-x="2805" d="M4 -10v-176h895v176h-895zM4 188h1505v185h-1505v-185zM4 582h1505v178h-1505v-178zM4 975h1505v184h-1505v-184zM4 1354h1505v186h-1505v-186zM1133 -248q0 65 52.5 122t131 88.5t156.5 31.5q32 0 101.5 -26.5t82.5 -30.5v1603q114 0 205.5 -16.5t153 -45t109 -65 t78.5 -78t56.5 -83t49 -80.5t49 -70.5t62.5 -52.5t85 -27q-12 -7 -33.5 -18t-83.5 -25q-40 -9 -77 -9q-21 0 -42 3q-59 12 -100.5 35t-63.5 49.5t-38.5 55.5t-32.5 55.5t-38.5 48t-64.5 34.5t-102 13v-1536q0 -64 -57 -121.5t-139 -89t-160 -31.5q-171 0 -255.5 75.5 t-84.5 190.5z" />
<glyph unicode="I" horiz-adv-x="2011" d="M2 -387l139 309l-47 17q-21 24 -21 51q0 11 3 22l121 258h-136v166h199l279 604q-1 3 -11 23t-12 26t-9.5 24.5t-8.5 31t-3.5 33t-0.5 42.5t6 48q17 103 108 189t215 114v213q0 65 41 65q26 0 35.5 -16.5t9.5 -48.5v-213q121 -19 206.5 -116.5t103.5 -192.5 q4 -20 6 -37.5t3.5 -31t0 -28t-1.5 -22.5t-4.5 -21.5t-5 -17.5t-8 -18.5t-8.5 -16t-10.5 -17.5t-10.5 -18l270 -598h211v-166h-156l129 -276q6 -20 1 -39t-19 -27l-47 -26l129 -289l-64 -129l-168 371l-65 -27q-12 -6 -31.5 5t-32.5 32l-166 405h-288v-149h-68v149h-266 l-176 -397q-7 -21 -26 -28t-40 -1l-55 29l-176 -389zM594 1182v-15q0 -111 54 -185q58 -79 155 -97l-189 -449h201v139h68v-139h231l-170 447q86 27 135 105q44 69 44 169q0 12 -1 25q-6 102 -88 172q-79 68 -165 67h-5q-103 -2 -185 -74t-85 -165zM682 1153 q0 -74 53.5 -124t124.5 -50t123.5 49.5t52.5 124.5q0 69 -53.5 122.5t-122.5 53.5t-123.5 -53.5t-54.5 -122.5z" />
<glyph unicode="J" horiz-adv-x="2263" d="M6 113h146v55h-146v240h146v55h-146v239h146v58h-146v241h146v56h-146v237h146v54h-146v497l1905 -2357h-340v147h-58v-147h-237v147h-57v-147h-240v147h-53v-147h-240v147h-55v-147h-240v147h-53v-147h-332v332h146v53h-146v240zM338 -180h874l-874 1122v-1122z" />
<glyph unicode="K" horiz-adv-x="2555" d="M-2 1214l297 297l666 -665l-308 -297l-159 168l131 129l-56 51l-129 -139l-209 213l127 129l-43 51l-125 -127zM10 -498l221 43l-30 31q-4 10 -12.5 18t-21.5 17t-22 18q-27 30 -61 64l-31 18zM61 -254l33 -20q26 -18 74 -66q16 -15 39 -39.5t35 -34.5l20 -41l254 54 l-22 30q-11 21 -24 41.5t-30 43.5t-27.5 36.5t-33.5 41.5t-31 38q-18 19 -37.5 35.5t-44 34t-38 26t-45 28t-38.5 23.5l-30 23zM145 43l1270 1268l33 -33q-17 17 -17 35.5t17 27.5q14 16 30 16t33 -16l347 -348q17 -9 17 -28.5t-17 -36.5q-14 -7 -30 -7t-32 7l33 -21 l-1280 -1278q-62 124 -170 232q-78 82 -234 182zM340 15q0 -10 8 -15q7 -10 20.5 -8t20.5 16l1090 1092q8 10 8 43q-10 10 -51 -15l-1078 -1085q-18 -11 -18 -28zM514 -150q-2 -5 -1 -9q0 -6 3 -11q9 -8 22.5 -6t20.5 16l1090 1078q15 38 15 41q0 4 -5 4q-8 6 -21.5 6 t-19.5 -6l-1090 -1092q-10 -9 -14 -21zM1065 147l297 295l668 -663l-297 -297l-211 211l127 127l-54 41l-127 -127l-211 213l140 127l-58 51l-125 -125zM1487 1350l172 172q15 15 37 15t37 -15l297 -297q16 -26 16 -46.5t-16 -35.5l-158 -162l-14 12l-347 348q-11 9 -24 9z " />
<glyph unicode="L" horiz-adv-x="1531" d="M6 1130q0 35 19 35h391q4 0 7.5 -0.5t5.5 -1.5t3.5 -1.5t2.5 -3t2 -3.5t1 -5v-5.5v-6.5v-8q0 -30 -30 -30h30v-1284q-99 24 -209 24q-116 0 -215 -24v1284h23q-11 0 -21 9t-10 21zM18 1165v140q0 19 11 30t30 11h332q39 0 39 -41v-140h-14h-391h-7zM23 -221q79 25 208 25 t207 -25l-116 -154h-203zM131 -78q0 -12 6.5 -22.5t12.5 -10.5q5 0 10.5 11t5.5 22v1096q0 11 -5.5 21t-10.5 10q-6 0 -12.5 -9.5t-6.5 -21.5v-1096zM131 -406h174l-88 -122zM285 -78q0 -33 24 -33q6 0 11.5 10.5t5.5 22.5v1096q0 12 -5.5 21.5t-11.5 9.5q-24 0 -24 -31 v-1096zM647 -512v2054h354v-225h-151v-57h151v-248h-151v-58h151v-249h-151v-56h151v-250h-151v-57h151v-252h-151v-57h151v-238h-151v-59h151v-248h-354z" />
<glyph unicode="M" horiz-adv-x="1683" d="M0 903q0 129 50.5 248.5t135 207.5t201.5 140.5t244 52.5q129 0 246.5 -52.5t202.5 -140.5t135.5 -207.5t50.5 -248.5q0 -37 -7.5 -77t-17.5 -73t-29.5 -75t-33.5 -69t-40.5 -69t-39.5 -61t-41 -59t-35 -51q-25 -36 -39.5 -97t-16.5 -104l-1 -43q-8 -49 -42.5 -84 t-80.5 -35h-414q-52 0 -82 34t-37 85q0 17 -1.5 45.5t-16 94t-39.5 104.5q0 1 -49 70t-71 106t-59.5 106.5t-55 132t-17.5 119.5zM147 938q0 -150 70 -260q-14 77 -14 106q0 125 48.5 240t130 198.5t194 133t235.5 49.5l6 -6q-90 41 -178 41q-134 0 -247.5 -68t-179 -183.5 t-65.5 -250.5zM348 -139q0 -51 80 -51h414q76 0 76 51q0 31 -22 52t-54 21h-414q-35 0 -57.5 -21t-22.5 -52zM348 -313q0 -28 23 -49t57 -21h414q32 0 54 21t22 49q0 26 -22 43.5t-54 17.5h-414q-35 0 -57.5 -17.5t-22.5 -43.5zM526 -438h219q-7 -31 -29.5 -57.5 t-51.5 -26.5h-64q-29 0 -51.5 27.5t-22.5 56.5z" />
<glyph unicode="N" horiz-adv-x="1630" d="M17 1211q16 35 57 53l663 256q15 4 29 4q22 0 44 -10q36 -17 54 -52q5 -18 5 -34q0 -22 -9 -43q-16 -36 -51 -50l-664 -252q-16 -8 -39 -8q-64 0 -86 62q-10 21 -10 41q0 17 7 33zM41 489q-4 15 -4 30q-1 23 9 46q16 39 52 51l824 332q18 9 37 9q17 1 34 -7 q36 -16 56 -57q4 -15 4 -29q0 -22 -10 -44q-17 -36 -54 -54l-598 -236q11 -12 27 -28.5t26.5 -28.5t16.5 -22q32 -52 55 -123.5t23 -89.5h-205q0 4 -3 7.5t-3 6.5t-17 41q-10 51 -63 94q-30 30 -55 39q-2 0 -20.5 4t-27.5 4q0 -4 -2 -6t-4 -2h-2q-30 0 -56.5 17t-39.5 46z M41 815q-4 15 -4 29q0 22 9 44q16 36 52 54l824 330q15 5 30 5q20 0 41 -9q36 -16 56 -51q4 -14 4 -28q-1 -23 -11 -47q-18 -39 -53 -52l-821 -330q-6 -8 -31 -8q-30 0 -56.5 17t-39.5 46zM176 106q0 31 22 54.5t56 23.5h577q31 0 55.5 -24.5t24.5 -53.5v-284 q0 -31 -24.5 -55.5t-55.5 -24.5h-67v-84q0 -70 -48.5 -118t-119.5 -48h-111q-67 0 -116.5 48.5t-49.5 117.5v84h-65q-34 0 -56 24t-22 56v284zM596 238q0 92 41 174q18 49 59 97.5t97 82.5q21 18 48 18q11 0 23 -3q42 -10 66 -48q9 -21 9 -43q1 -14 -3 -28q-10 -36 -39 -62 q-65 -44 -88 -94q-2 -8 -6.5 -29t-7 -36t-2.5 -29h-197z" />
<glyph unicode="O" horiz-adv-x="1517" d="M-10 365v235h106v-227q0 -170 120.5 -289t287.5 -119q170 0 287.5 118t117.5 290v227h107v-235q0 -194 -129.5 -342t-319.5 -173v-219h285v-145h-690v145h284v219q-190 25 -323 173t-133 342zM184 365v235v16l11 9l-11 8v57l33 -41l49 49l-49 41l-33 -41v58l11 8l-11 8 v55l33 -32l49 41l-49 41l-33 -33v57l11 8l-11 9v57l33 -41l49 49l-49 41l-33 -41v57l11 9l-11 8v55l33 -31l49 39l-49 41l-33 -33v58l11 8l-11 8v41v17l33 -41l49 49l-49 41l-33 -41q21 87 27 106l6 -8l49 41l-24 23q16 16 24 32l25 -24l41 41l-17 24q17 17 33 17l17 -17 l41 49q12 4 35.5 8.5t35.5 8.5l-14 -17l41 -49l47 41l-16 25q13 -4 36.5 -8.5t36.5 -8.5v-8l41 -41l17 17q15 0 32 -17l-24 -24l49 -41l25 24q8 -16 24 -32l-24 -23l38 -41l17 8q1 -2 26 -106l-43 41l-38 -41l38 -49l43 41v-17v-41l-10 -8l10 -8v-58l-43 33l-38 -41l38 -39 l43 31v-55l-10 -8l10 -9v-57l-43 41l-38 -41l38 -49l43 41v-57l-10 -9l10 -8v-57l-43 33l-38 -41l38 -41l43 32v-55l-10 -8l10 -8v-58l-43 41l-38 -41l38 -49l43 41v-57l-10 -8l10 -9v-16v-235q0 -134 -95 -226t-230 -92q-131 0 -225.5 92.5t-94.5 225.5zM250 625l16 -25h49 l17 25l-41 41zM250 764l41 -41l41 41l-41 47zM250 909l41 -41l41 41l-41 41zM250 1049l41 -41l41 41l-41 38zM250 1194l41 -41l41 41l-41 41zM250 1333l41 -41l41 41l-41 41zM324 698l41 -49l41 49l-41 41zM324 836l41 -41l41 41l-41 41zM324 983l41 -49l41 49l-41 41z M324 1120l41 -39l41 39l-41 41zM324 1268l41 -49l41 49l-41 41zM324 1407l41 -41l41 41l-41 39zM389 625l25 -25h49l14 25l-39 41zM389 764l49 -41l39 41l-39 47zM389 909l49 -41l39 41l-39 41zM389 1049l49 -41l39 41l-39 38zM389 1194l49 -41l39 41l-39 41zM389 1333 l49 -41l39 41l-39 41zM389 1479l49 -41l39 41l-39 41zM463 698l41 -49l47 49l-47 41zM463 836l41 -41l47 41l-47 41zM463 983l41 -49l47 49l-47 41zM463 1120l41 -39l47 39l-47 41zM463 1268l41 -49l47 49l-47 41zM463 1407l41 -41l47 41l-47 39zM535 625l16 -25h49l16 25 l-41 41zM535 764l40 -41l41 41l-41 47zM535 909l40 -41l41 41l-41 41zM535 1049l40 -41l41 41l-41 38zM535 1194l40 -41l41 41l-41 41zM535 1333l40 -41l41 41l-41 41zM535 1479l40 -41l41 41l-41 41zM608 698l41 -49l41 49l-41 41zM608 836l41 -41l41 41l-41 41zM608 983 l41 -49l41 49l-41 41zM608 1120l41 -39l41 39l-41 41zM608 1268l41 -49l41 49l-41 41zM608 1407l41 -41l41 41l-41 39zM674 625l24 -25h50l16 25l-41 41zM674 764l49 -41l41 41l-41 47zM674 909l49 -41l41 41l-41 41zM674 1049l49 -41l41 41l-41 38zM674 1194l49 -41l41 41 l-41 41zM674 1333l49 -41l41 41l-41 41z" />
<glyph unicode="P" horiz-adv-x="2680" d="M8 662v104q0 54 34.5 87.5t88.5 33.5h10q7 59 22 106t27 65l11 17h790q-7 -16 -17 -45t-27 -121t-17 -186q0 -95 15 -185.5t31 -133.5l15 -44h-131q8 -25 8 -77q0 -8 1 -24t0.5 -24t-4.5 -24t-13 -35q-30 -64 -34 -146q-1 -15 0 -29q0 -66 13 -125q16 -72 36 -134.5 t37 -99.5l18 -37q8 -14 -2.5 -30.5t-32.5 -25.5l-228 -59q-14 0 -29.5 11t-23.5 24q-1 23 -4 62t-15 140.5t-26.5 181t-40 150.5t-55.5 84q-71 38 -101 88t-30 129h-133q-5 6 -12.5 19t-24 58.5t-23.5 99.5h-10q-54 0 -88.5 35t-34.5 90zM1012 723q0 59 7 117t17 98.5 t20.5 72.5t17.5 48l7 16q95 0 195 22.5t183 58t161.5 79t137.5 87t104 79t68 57.5l24 23q-9 -11 -23.5 -32.5t-52 -95.5t-66 -156t-52 -211.5t-23.5 -264.5q0 -115 12 -219.5t31 -179.5t42.5 -139t46.5 -105t42 -69.5t31 -40.5l12 -13q-9 8 -24.5 23t-66.5 57t-105.5 80 t-136.5 85t-163 80.5t-181.5 56.5t-195.5 23q-8 17 -19.5 47.5t-30.5 125.5t-19 190zM1972 -47q7 8 18 24.5t40 81t51.5 143.5t40.5 217t18 296q0 160 -17.5 297.5t-42 219.5t-49 141t-41.5 83l-18 23q54 -7 104.5 -66.5t89.5 -157.5t62 -237.5t23 -296.5q0 -189 -36 -360 t-100.5 -282.5t-142.5 -125.5z" />
<glyph unicode="Q" horiz-adv-x="2557" d="M-6 -344v1321q0 21 16 37t37 16h604l-268 393h-16q-35 0 -58.5 24t-23.5 58t23.5 58t58.5 24t58.5 -24t23.5 -58q0 -38 -9 -45l293 -430h68l469 668q-8 8 -8 47q0 40 25 69t63 29q36 0 65 -29.5t29 -68.5q0 -35 -29.5 -64.5t-64.5 -29.5q-4 0 -13 6t-12 6l-442 -633h1224 q21 0 38.5 -16t17.5 -37v-1321q0 -24 -16.5 -36.5t-39.5 -12.5h-174v-109h-161v109h-1469v-109h-162v109h-94q-22 0 -37.5 12t-15.5 37zM125 -139q0 -47 47 -47h1395q14 0 24.5 13t10.5 34v923q0 20 -10.5 32.5t-24.5 12.5h-1395q-47 0 -47 -45v-923zM715 -242v-73h344v73 h-344zM1702 18v-45h356v45h-356zM1702 47h356v49h-356v-49zM1702 -72v-43h356v43h-356zM1702 150h356v38h-356v-38zM1739 492q0 -61 40.5 -103.5t96.5 -42.5q60 0 101.5 42.5t41.5 103.5q0 42 -25.5 79t-64.5 50v-146h-98v146q-41 -13 -66.5 -50t-25.5 -79zM1831 836 q0 -14 7.5 -22.5t19.5 -8.5q13 0 21.5 8.5t8.5 22.5q0 30 -30 30q-13 0 -20 -9t-7 -21zM1858 510h43v158h-43v-158zM1907 836q0 -13 8 -22t20 -9q13 0 22 8.5t9 22.5q0 30 -31 30q-13 0 -20.5 -9.5t-7.5 -20.5zM1987 836q0 -13 8 -22t20 -9q13 0 22 8.5t9 22.5q0 30 -31 30 q-13 0 -20.5 -9.5t-7.5 -20.5z" />
<glyph unicode="R" horiz-adv-x="2770" d="M-49 145v11h86v-11v-8l-76 -22q-10 10 -10 30zM-49 193l86 -19zM-49 193q10 10 10 30l88 -30q0 -5 -6 -10t-6 -9zM-39 223l88 -30zM-29 76l78 39zM-29 76l78 39q0 -4 5 -9t5 -10l-69 -49q-5 6 -10 15.5t-9 13.5zM-20 250q0 4 16 31l70 -39q0 -4 -3.5 -14t-3.5 -15zM8 18 l66 58zM8 18l66 58q0 -4 3 -6t8.5 -5t8.5 -6l-57 -71q-5 5 -14.5 15t-14.5 15zM18 309q0 8 19 27l57 -55q0 -5 -4 -10.5t-4 -10.5zM59 -31l58 70q2 0 6.5 -5t11.5 -5l-49 -76q-19 16 -27 16zM59 356q3 3 7 15t8 16l61 -68q0 -6 -8 -10.5t-10 -7.5zM83 504q7 -54 34 -80 q22 -22 107 -35q58 -9 118 -9q27 0 55 2q88 6 115 34q20 22 50 87t55.5 126t59.5 110t64 49q13 0 96 7t204 14.5t227 7.5q108 0 230 -7.5t205 -14.5t97 -7q32 0 60.5 -45.5t47 -102.5t44.5 -119t51 -87q33 -33 115 -43q35 -4 71 -4q45 0 89 7q78 13 110 40q42 49 42 113v15 q-6 72 -52 138q-63 78 -129 137.5t-130 96t-124 60t-125.5 35.5t-120 17.5t-120.5 9.5q-35 2 -52 3q-1 0 -42.5 2.5t-107 4.5t-124.5 3q-81 0 -194 -5t-118 -5q-189 -10 -328 -37t-231.5 -76t-133 -79.5t-102.5 -91.5q-11 -10 -16 -15q-56 -58 -80 -130q-18 -55 -19 -100 q0 -14 2 -26zM104 408l31 -43l-31 43q13 8 19 8q12 0 12 -8l45 -52q-2 -2 -6 -4.5t-6 -4t-4 -4.5t-2 -7zM104 408zM117 -70l35 78q5 0 14.5 -5t13.5 -5l-45 -76q-5 0 -9.5 2t-6.5 4zM117 -70l35 78zM135 408l45 -52zM162 -98l39 82q4 0 14.5 -7.5t13.5 -7.5l-36 -73 q-6 0 -16 3t-15 3zM223 -127l37 80q8 0 10.5 -1.5t8.5 -10.5l-31 -72q-6 0 -14 2t-11 2zM248 -131l31 72zM279 -143l28 73q3 0 13 -4t16 -4l-37 -74q-8 1 -20 9zM279 -143l28 73zM324 -172l41 84zM324 -172l41 84q7 0 12 -5t8 -5l-29 -84q-10 10 -32 10zM324 -172zM403 -16 q0 45 88.5 222.5t180 336t106.5 168.5q10 3 107 5q73 1 168 1q32 -1 66 -1q137 0 268.5 -1.5t237.5 -2.5t116 -1v20q28 0 120.5 -167t173.5 -351t81 -229v-484h-1713v484zM838 68q0 -60 47 -60h127q19 0 28 17.5t9 42.5q0 75 -37 75h-127q-28 0 -37.5 -20t-9.5 -55zM866 276 q0 -57 47 -57h113q53 0 53 57q0 35 -12 64t-41 29h-113q-26 0 -36.5 -29t-10.5 -64zM885 520q0 -65 39 -65h125q28 0 37.5 17t9.5 48q0 62 -47 62h-125q-39 0 -39 -62zM1165 68q0 -24 9.5 -42t27.5 -18h123q20 0 30.5 18t10.5 42q0 32 -10.5 53.5t-30.5 21.5h-123 q-18 0 -27.5 -22t-9.5 -53zM1165 276q0 -15 1 -22.5t6.5 -17t18.5 -13.5t34 -4h100q41 0 41 57q0 32 -10.5 62.5t-30.5 30.5h-123q-17 0 -27 -30.5t-10 -62.5zM1165 520q0 -28 9.5 -46.5t27.5 -18.5h123q41 0 41 65q0 26 -10.5 44t-30.5 18h-123q-18 0 -27.5 -18.5 t-9.5 -43.5zM1436 520q0 -65 45 -65h127q18 0 27.5 18.5t9.5 46.5q0 25 -9.5 43.5t-27.5 18.5h-127q-45 0 -45 -62zM1452 276q0 35 10.5 64t36.5 29h119q25 0 35 -29t10 -64q0 -57 -45 -57h-119q-47 0 -47 57zM1481 68q0 -60 49 -60h98q31 0 46.5 10t17.5 20t2 30 q0 75 -49 75h-115q-49 0 -49 -75z" />
<glyph unicode="S" horiz-adv-x="1638" d="M2 -338v1856q0 64 42.5 106.5t105.5 42.5h665q14 80 38.5 129t53.5 49q34 0 61.5 -49t41.5 -129h57q56 0 96.5 -42.5t40.5 -106.5v-1856q0 -51 -202.5 -99t-374.5 -48q-122 0 -268 21.5t-251.5 56.5t-105.5 69zM123 748q0 -64 27.5 -93.5t85.5 -29.5h737q63 0 90 29 t27 94v677q0 58 -27.5 85.5t-89.5 27.5h-737q-113 0 -113 -113v-677zM150 -41q0 -26 24.5 -50t50.5 -24h92q29 0 47.5 23t18.5 51q0 59 -66 59h-92q-30 0 -52.5 -15t-22.5 -44zM150 193q0 -26 24.5 -50t50.5 -24h92q29 0 47.5 23t18.5 51q0 32 -18 55.5t-48 23.5h-92 q-27 0 -51 -24.5t-24 -54.5zM150 428q0 -27 23 -42t52 -15h92q66 0 66 57q0 31 -18 53.5t-48 22.5h-92q-27 0 -51 -23.5t-24 -52.5zM383 -283q0 -6 9 -16t20 -10h391q8 0 19.5 10.5t11.5 15.5q0 14 -10.5 26.5t-20.5 12.5h-391q-12 0 -20.5 -12t-8.5 -27zM487 -41 q0 -26 24 -50t50 -24h94q26 0 46 23.5t20 50.5q0 29 -19 44t-47 15h-94q-29 0 -51.5 -15t-22.5 -44zM487 193q0 -26 24 -50t50 -24h94q26 0 46 23.5t20 50.5q0 31 -20 55t-46 24h-94q-27 0 -50.5 -24.5t-23.5 -54.5zM487 428q0 -27 22.5 -42t51.5 -15h94q28 0 47 14.5 t19 42.5q0 29 -20 52.5t-46 23.5h-94q-27 0 -50.5 -23.5t-23.5 -52.5zM825 -41q0 -27 22.5 -50.5t49.5 -23.5h94q26 0 46 23.5t20 50.5q0 29 -19 44t-47 15h-94q-30 0 -51 -15t-21 -44zM825 193q0 -27 22.5 -50.5t49.5 -23.5h94q26 0 46 23.5t20 50.5q0 31 -20 55t-46 24 h-94q-28 0 -50 -24t-22 -55zM825 428q0 -28 21 -42.5t51 -14.5h94q28 0 47 14.5t19 42.5q0 29 -20 52.5t-46 23.5h-94q-28 0 -50 -23.5t-22 -52.5z" />
<glyph unicode="T" horiz-adv-x="1759" d="M4 -301v1946q0 80 59 139t140 59h983h-15q83 0 150.5 -60t67.5 -138v-1946q0 -81 -60.5 -140t-142.5 -59h-983q-82 0 -140.5 58.5t-58.5 140.5zM180 -74h1039v1620h-1039v-1620zM532 1714q0 -26 17 -26h276q17 0 17 26q0 7 -5.5 14t-11.5 7h-276q-7 0 -12 -6.5t-5 -14.5z M573 -266q0 -45 35.5 -77t77.5 -32q51 0 82 30.5t31 78.5q0 41 -32 71.5t-81 30.5q-41 0 -77 -31.5t-36 -70.5z" />
<glyph unicode="U" horiz-adv-x="1830" d="M0 -330v1997q0 84 46 130t130 46h1038h-18q91 0 140.5 -45.5t49.5 -130.5v-1997q0 -172 -172 -172h-1038q-83 0 -129.5 45t-46.5 127zM172 739q0 -20 17.5 -36.5t37.5 -16.5h930q28 0 44 15.5t16 37.5v867q0 53 -60 53h-930q-22 0 -38.5 -13.5t-16.5 -39.5v-867zM297 74 q0 -163 112.5 -278t276.5 -115q170 0 285.5 114.5t115.5 278.5q0 167 -115.5 285t-285.5 118q-163 0 -276 -118t-113 -285zM520 74q0 68 49.5 121t116.5 53q73 0 123.5 -52.5t50.5 -121.5q0 -70 -50 -118t-124 -48q-68 0 -117 48.5t-49 117.5z" />
<glyph unicode="V" horiz-adv-x="1677" d="M-2 -315v1988q0 85 44.5 129.5t127.5 44.5h1006q172 0 172 -174v-1988q0 -174 -172 -174h-1006q-83 0 -127.5 45.5t-44.5 128.5zM152 41q0 -15 11 -27t25 -12h220q14 0 25 12t11 27v125q0 14 -11.5 25.5t-24.5 11.5h-220q-13 0 -24.5 -11.5t-11.5 -25.5v-125zM152 -141 v-135q0 -14 11.5 -25.5t24.5 -11.5h220q13 0 24.5 11.5t11.5 25.5v135q0 14 -11.5 25.5t-24.5 11.5h-220q-13 0 -24.5 -11.5t-11.5 -25.5zM152 326q0 -14 11.5 -25.5t24.5 -11.5h220q13 0 24.5 11.5t11.5 25.5v147q0 14 -11.5 25.5t-24.5 11.5h-220q-13 0 -24.5 -11.5 t-11.5 -25.5v-147zM152 721q0 -39 36 -39h220q36 0 36 39v63q0 14 -11.5 25.5t-24.5 11.5h-220q-13 0 -24.5 -11.5t-11.5 -25.5v-63zM172 1055q0 -26 16.5 -41t38.5 -15h889q58 0 58 56v557q0 22 -15 38.5t-43 16.5h-889q-20 0 -37.5 -17.5t-17.5 -37.5v-557zM545 41 q0 -39 37 -39h211q11 0 21.5 12t10.5 27v125q0 13 -10.5 25t-21.5 12h-211q-19 0 -28 -11t-9 -26v-125zM545 -141v-135q0 -15 9 -26t28 -11h211q11 0 21.5 12t10.5 25v135q0 13 -10.5 25t-21.5 12h-211q-19 0 -28 -11t-9 -26zM545 326q0 -15 9 -26t28 -11h211q11 0 21.5 12 t10.5 25v147q0 13 -10.5 25t-21.5 12h-211q-19 0 -28 -11t-9 -26v-147zM545 721q0 -22 8.5 -30.5t28.5 -8.5h211q12 0 22 9.5t10 29.5v63q0 13 -10.5 25t-21.5 12h-211q-19 0 -28 -11t-9 -26v-63zM930 41q0 -15 11.5 -27t25.5 -12h209q36 0 36 39v125q0 37 -36 37h-209 q-13 0 -25 -11.5t-12 -25.5v-125zM930 -141v-135q0 -14 12 -25.5t25 -11.5h209q36 0 36 37v135q0 37 -36 37h-209q-13 0 -25 -12t-12 -25zM930 326q0 -14 12 -25.5t25 -11.5h209q36 0 36 37v147q0 37 -36 37h-209q-13 0 -25 -12t-12 -25v-147zM930 721q0 -20 11 -29.5 t26 -9.5h209q21 0 28.5 8.5t7.5 30.5v63q0 37 -36 37h-209q-13 0 -25 -11.5t-12 -25.5v-63z" />
<glyph unicode="W" horiz-adv-x="3397" d="M141 846q57 73 133 160q253 255 587.5 394.5t705.5 139.5q375 0 708 -139t590 -395q7 -8 131 -160l-200 -189q-212 282 -533.5 442.5t-695.5 160.5q-370 0 -691.5 -160.5t-535.5 -442.5zM545 446q180 247 445 386t577 139q314 0 581.5 -139t450.5 -386l-205 -190 q-137 205 -354.5 325.5t-472.5 120.5q-251 0 -469 -121t-355 -325zM954 43q86 169 250.5 270t362.5 101q201 0 366.5 -101t249.5 -270l-201 -209q-43 134 -157 217.5t-258 83.5q-142 0 -254 -84t-146 -217zM1368 -289q0 83 58.5 142t140.5 59q85 0 143.5 -59t58.5 -142 q0 -84 -59 -143.5t-143 -59.5q-82 0 -140.5 60t-58.5 143z" />
<glyph unicode="X" horiz-adv-x="2336" d="M2 104v291q95 29 196 30q84 0 170 -21q190 -45 334 -181q91 -94 144 -220q52 -127 58 -251q1 -18 0 -36q0 -106 -27 -210h-275q40 80 40 174q0 45 -9 94q-29 149 -131 249q-64 67 -152 99q-76 28 -154 28q-12 0 -24 -1q-91 -5 -170 -45zM2 686v283q102 18 205 18 q189 0 380 -60q294 -92 509 -311q218 -213 310 -515q60 -198 61 -393q0 -102 -17 -202h-281q20 98 20 198q0 144 -41 292q-69 252 -241 430q-181 174 -425 244q-138 39 -274 39q-104 0 -206 -23zM2 1247v289q30 0 98 4t109 4q347 0 682 -137t600 -395q258 -266 395 -598 t137 -680q0 -40 -4 -119.5t-4 -108.5h-289q16 112 16 223q0 239 -75 479q-110 350 -371 609q-260 262 -602 372q-233 75 -468 75q-112 0 -224 -17zM12 -270.5q0 81.5 60 135.5q58 59 138 59t134 -59q60 -54 60 -135.5t-60 -139.5q-54 -58 -134 -58t-138 58q-60 58 -60 139.5 z" />
<glyph unicode="Y" horiz-adv-x="1679" d="M0 946q0 88 58 143.5t143 55.5t141.5 -55.5t56.5 -143.5q0 -62 -37.5 -115.5t-95.5 -68.5v-146q0 -74 45 -141q14 -36 62 -84v-10q10 0 20 -10q10 0 35 -25q16 -9 48.5 -37t43.5 -37q45 -25 47 -28v1292h-139l190 313l193 -313h-133v-864q122 110 260 258v16q10 27 10 72 v29h-108v305h317v-305h-90v-29q0 -46 -8 -62q0 -45 -8 -65q-5 -7 -12.5 -20.5t-16.5 -24.5q-1 -1 -36 -35.5t-77 -76.5t-78 -79q-31 -30 -82.5 -86t-70.5 -71v-572q68 -22 110.5 -77t42.5 -125q0 -88 -62 -148.5t-151 -60.5q-87 0 -146.5 60.5t-59.5 148.5q0 68 45 123.5 t110 78.5v172q-44 29 -127.5 90t-120.5 93q-8 4 -12.5 9t-7 10t-4.5 7q-31 13 -86 103q-64 97 -64 206v140q-60 20 -102.5 75t-42.5 115z" />
<glyph unicode="Z" horiz-adv-x="2519" d="M-4 930q0 164 81.5 304t223 223t309.5 83q130 0 249 -51t198 -137q195 188 452 188q163 0 302.5 -82.5t221 -223.5t81.5 -304q0 -169 -62 -293q-119 72 -274 72q-142 0 -263.5 -69t-192.5 -188t-71 -259q0 -111 44 -208.5t122 -166.5q-88 -81 -178 -158.5t-136 -114.5 l-46 -37q-14 11 -37.5 30t-96 81t-142.5 126t-165.5 160t-177.5 188t-166 204t-143 214.5t-96 213t-37 205.5zM1343 193q0 181 128.5 302t306.5 121q182 0 312 -121t130 -302q0 -117 -60.5 -217.5t-162.5 -159t-219 -58.5q-115 0 -215 58.5t-160 159t-60 217.5zM1509 193 q0 -32 20 -51t44 -19h133v-129q0 -32 20.5 -51t51.5 -19q34 0 59 19.5t25 50.5v129h112q32 0 55 19t23 51t-23.5 55.5t-54.5 23.5h-112v119q0 34 -25 53t-59 19q-32 0 -52 -19t-20 -53v-119h-133q-23 0 -43.5 -24t-20.5 -55z" />
<glyph unicode="a" horiz-adv-x="2963" d="M-2 -430v1376q0 30 20 51t52 21h1820q6 12 22.5 24.5t18.5 14.5l-1097 579q-30 -21 -64 -21q-24 0 -51 11q-37 24 -49 64q-4 14 -4 28q0 26 14 49q22 41 62 53q15 5 30 4q26 0 51 -14q60 -28 60 -90l1169 -622q54 0 96.5 -21.5t59.5 -58.5h325q32 0 57 -21.5t25 -50.5 v-1376q0 -30 -24.5 -50t-57.5 -20h-2463q-32 0 -52 19.5t-20 50.5zM152 14l49 -53l112 113l-120 121l-41 -39v-142zM152 -231v-101h149l25 29l-125 123zM152 379l41 -41l108 113l-119 124l-30 -24v-172zM152 745l30 -28l101 100h-131v-72zM254 643l119 -121l112 113 l-120 119zM264 266l121 -121l111 111l-123 123zM272 -111l123 -120l111 112l-121 123zM446 451l121 -123l113 112l-123 125zM446 817l111 -110l113 110h-224zM457 74l121 -121l112 108l-123 123zM467 -303l18 -29h205l8 10l-120 134zM631 635l121 -123l110 111l-121 122z M639 256l123 -121l112 111l-122 123zM649 -119l121 -123l113 113l-121 119zM815 817l119 -123l113 113l-11 10h-221zM823 440l123 -123l111 113l-123 121zM834 61l120 -118l111 110l-119 121zM844 -322l8 -10h223l-121 131zM1004 623l124 -121l113 110l-123 123zM1018 246 l119 -121l112 113l-121 120zM1028 -129l119 -123l113 113l-123 121zM1188 807l125 -123l108 113l-18 20h-203zM1200 430l121 -121l113 113l-121 119zM1208 53l123 -121l113 111l-123 123zM1221 -332h223l-113 121zM1384 612l70 -61v133zM1393 238l61 -54v115zM1403 -139 l51 -49v88zM1616 90q0 -189 131.5 -318.5t318.5 -129.5q120 0 222 58.5t162.5 162t60.5 227.5q0 182 -131.5 311t-313.5 129q-186 0 -318 -128.5t-132 -311.5zM1739 90q0 -135 97 -230.5t230 -95.5q128 0 221 95t93 231q0 130 -93 223t-221 93q-133 0 -230 -93t-97 -223z M2066 700q0 -31 24.5 -56.5t57.5 -25.5q28 0 53 26t25 56q0 32 -25 57t-53 25q-33 0 -57.5 -24.5t-24.5 -57.5zM2351 700q0 -31 25 -56.5t57 -25.5q28 0 53 26t25 56q0 32 -25 57t-53 25q-32 0 -57 -25t-25 -57z" />
<glyph unicode="b" d="M3 78q0 68 40 115l1145 1132l614 -620l-1134 -1135q-50 -47 -116.5 -47t-107.5 47l-401 393q-40 47 -40 115zM90 90.5q0 -61.5 41 -104.5l332 -338q46 -41 105.5 -41t105.5 41l1034 1038l-545 539l-1032 -1032q-41 -41 -41 -102.5zM118 89.5q0 51.5 29 86.5l1016 1008 l504 -498l-1016 -1014q-37 -35 -84 -35t-82 35l-338 332q-29 34 -29 85.5zM534 124.5q0 -36.5 29 -65.5q25 -25 61.5 -25t65.5 25q24 30 24 60q0 24 -16 49l172 166h95h112q3 0 11 3t12 3q4 6 11.5 10.5t10.5 7.5q0 3 7 7t10 8q0 4 2 6t4 2h2l31 -31l96 101l-96 96l-101 -96 l37 -31l-6 -6l-25 -25h-6h-157l249 242l41 -37l45 158l-155 -41l39 -39l-379 -377v22q-6 16 -6 48q0 16 -9 16v8v6q1 25 9 41q12 47 32 62l37 41q25 -12 47 -12q32 0 56 26q25 25 25 60.5t-25 58.5q-30 26 -61.5 26t-63.5 -26q-25 -30 -25 -59q0 -22 15 -44l-46 -39 q-25 -25 -38 -79q-9 -35 -9 -56v-14q15 -58 15 -127l-45 -55q-24 15 -55.5 11.5t-49.5 -26.5q-29 -23 -29 -59.5zM1288 1217l332 321l401 -399l-331 -324zM1546 1325l96 -92l72 70l-102 94zM1714 1161l94 -96l72 74l-104 94z" />
<glyph unicode="c" horiz-adv-x="2478" d="M22 698q35 202 148 373q89 138 216.5 239.5t273.5 154.5t302 64q33 2 66 2q124 -1 248 -33q158 -42 295 -132q138 -92 240 -219.5t155.5 -274t63.5 -301.5q2 -31 3 -62q0 -123 -34 -249q-42 -156 -133 -294.5t-218.5 -240.5t-274 -155.5t-301.5 -63.5q-31 -2 -62 -3 q-124 0 -250 34q-157 42 -295 133q-172 111 -285.5 280.5t-153.5 357.5q-21 100 -20 203q0 92 16 187zM219 -20q110 -170 270 -269q158 -116 355 -143l65 584q-51 12 -96 43q-62 43 -80 69zM688 444q30 -134 148 -211q74 -51 164 -55q8 0 17 -1q81 0 155 37q81 40 131 114 q56 85 56 180q0 38 -9 78q-31 138 -150 209q-74 51 -164 57q-11 1 -22 0q-78 0 -150 -35q-82 -40 -131 -117q-54 -86 -54 -180q0 -37 9 -76zM769 462q-6 27 -6 53q0 71 42 138q59 88 162 109q27 5 52 5q72 0 134 -44q88 -51 111 -155q7 -31 6 -61q0 -70 -37 -132 q-60 -89 -164 -110q-27 -6 -54 -6q-74 0 -141 44q-84 61 -105 159zM857 482q14 -64 75 -107q38 -25 82 -25q18 0 37 4q65 14 102 70q27 43 27 91q0 17 -3 35q-13 68 -73 103q-38 27 -84 27q-16 0 -34 -4q-66 -14 -103 -72q-30 -44 -30 -90q0 -16 4 -32zM1120 883 q53 -10 105 -49q54 -34 86 -78l514 291q-107 158 -277 276q-167 106 -370 143z" />
<glyph unicode="d" horiz-adv-x="2416" d="M-6 -487v1988l57 39h209v-63h1335v63h258l138 -137v-1890h-1997zM76 -238v-104h104v104h-104zM76 1243h104v96h-104v-96zM260 -391h1491v270h-1112v103h1112v141h-1266v123h1266v413h-1491v-1050zM260 776h1335v133h-1077v518h-258v-651zM1137 1001h262v426h-262v-426z M1829 -238v-104h98v104h-98z" />
<glyph unicode="e" horiz-adv-x="3084" d="M0 55v994q139 -114 317 -261q65 -47 199 -153l-266 -492l348 439q123 -111 274 -205q137 -91 232 -141q63 -32 88 -39q31 -15 90 -15q47 0 76 15q171 59 418 241q21 14 58.5 42.5t69.5 50.5t64 38l334 -426l-268 492q252 184 510 414v-994q0 -29 -21 -48t-51 -19h-2402 q-24 0 -47 20t-23 47zM0 1196v72q0 22 24 46.5t46 24.5h2402q28 0 50 -24t22 -47v-72q-66 -57 -147.5 -123.5t-206 -165.5t-173.5 -139q-264 -203 -461 -334q-123 -78 -176 -98q-67 -34 -89 -34q-6 0 -9 3q-33 0 -49 6q-63 19 -167 81t-222 151q-331 229 -762 596 q-36 21 -82 57z" />
<glyph unicode="f" horiz-adv-x="2983" d="M-10 197v759q0 83 60.5 140t144.5 57h1980q87 0 147 -57t60 -140v-116h20h23q70 0 118 -47t48 -117v-205q0 -71 -48.5 -119.5t-117.5 -48.5h-23h-20v-106q0 -84 -60.5 -144.5t-146.5 -60.5h-1980q-83 0 -144 61t-61 144zM123 283q0 -66 49 -117t119 -51h1800 q67 0 114.5 51t47.5 117v567q0 70 -47 119t-115 49h-1800q-71 0 -119.5 -49t-48.5 -119v-567zM319 313v496h562l-275 -496h-287zM797 313l270 496h475l-270 -496h-475zM1462 313l264 496h332v-496h-596zM2359 395h109q10 0 10 19v301q0 7 -3.5 10t-7.5 3.5t-13 0.5h-95v-334 z" />
<glyph unicode="g" horiz-adv-x="2963" d="M-10 197v759q0 83 60.5 140t144.5 57h1980q87 0 147 -57t60 -140v-116h20h23q70 0 118 -47t48 -117v-205q0 -71 -48.5 -119.5t-117.5 -48.5h-23h-20v-106q0 -84 -60.5 -144.5t-146.5 -60.5h-1980q-83 0 -144 61t-61 144zM123 283q0 -66 49 -117t119 -51h1800 q67 0 114.5 51t47.5 117v567q0 70 -47 119t-115 49h-1800q-71 0 -119.5 -49t-48.5 -119v-567zM319 313v496h562l-275 -496h-287zM797 313l270 496h475l-270 -496h-475zM2359 395h109q10 0 10 19v301q0 7 -3.5 10t-7.5 3.5t-13 0.5h-95v-334z" />
<glyph unicode="h" horiz-adv-x="3094" d="M-10 197v759q0 83 60.5 140t144.5 57h1980q87 0 147 -57t60 -140v-116h20h23q70 0 118 -47t48 -117v-205q0 -71 -48.5 -119.5t-117.5 -48.5h-23h-20v-106q0 -84 -60.5 -144.5t-146.5 -60.5h-1980q-83 0 -144 61t-61 144zM123 283q0 -66 49 -117t119 -51h1800 q67 0 114.5 51t47.5 117v567q0 70 -47 119t-115 49h-1800q-71 0 -119.5 -49t-48.5 -119v-567zM319 313v496h562l-275 -496h-287zM2359 395h109q10 0 10 19v301q0 7 -3.5 10t-7.5 3.5t-13 0.5h-95v-334z" />
<glyph unicode="i" horiz-adv-x="1597" d="M-4 -334v1555q0 61 44 89.5t116 28.5h77v4v50q0 55 38 100t89 45h158q53 0 91 -44.5t38 -100.5v-50v-4h78q72 0 116 -28.5t44 -89.5v-1555q0 -66 -47 -113t-113 -47h-569q-66 0 -113 47t-47 113zM98 -262q0 -54 37 -91.5t90 -37.5h428q54 0 91.5 37.5t37.5 91.5v1370 q0 54 -37.5 90.5t-91.5 36.5h-428q-53 0 -90 -36.5t-37 -90.5v-1370zM195 387h260l-195 -561l426 702h-262l199 564zM313 1339h256v80q0 8 -10 8h-240q-6 -8 -6 -12v-76z" />
<glyph unicode="j" horiz-adv-x="2447" d="M-4 276q0 12 10.5 22.5t22.5 10.5h542q19 0 25 -16q7 -18 -8 -33l-187 -197q107 -134 274.5 -216.5t338.5 -82.5q148 0 284.5 57.5t243.5 164.5q150 150 197 348q12 40 49 67t78 27q81 0 110 -66q11 -23 11 -52q0 -20 -5 -42q-52 -222 -197.5 -394.5t-361.5 -274.5 q-199 -86 -409 -86q-186 0 -363 61q-117 47 -226.5 129t-193.5 184l-186 -186q-7 -8 -18 -10t-15 2q-10 7 -12 11t-2 17zM29 758q53 220 199.5 394t359.5 269q198 95 409 95q177 0 365 -70q238 -87 410 -293l14 -16l182 190q19 19 33 12q14 -6 14 -36v-560q0 -11 -10 -17.5 t-23 -6.5h-542q-19 0 -25 16q-8 15 8 31l189 192q-64 81 -157.5 148.5t-194.5 110.5q-46 18 -122.5 31.5t-140.5 13.5q-153 0 -295 -61.5t-247 -174.5q-119 -127 -183 -332q-15 -47 -63 -76q-34 -21 -67 -21q-14 0 -27 3q-47 12 -73 58q-17 31 -17 66q0 17 4 34z" />
<glyph unicode="k" horiz-adv-x="3074" d="M121 535v1105q0 58 44.5 105t106.5 47h2081q60 0 106 -47.5t46 -104.5v-1105q0 -61 -45.5 -106.5t-106.5 -45.5h-809v-190h348q27 0 42.5 -17.5t15.5 -40.5v-123h-1248v123q0 21 17.5 39.5t40.5 18.5h315v190h-803q-64 0 -107.5 45t-43.5 107zM246 -410l123 326l8 8h1874 l170 -334v-18q0 -21 -17.5 -39t-40.5 -18h-2060q-23 0 -40 18t-17 39v18zM262 649q0 -57 38 -94t97 -37h1858q59 0 97 37t38 94v891q0 49 -39 89t-96 40h-1858q-57 0 -96 -40t-39 -89v-891zM350 -360h361l10 45h-354zM385 -281h344l14 60h-335zM424 -180h328l8 47h-322z M752 -360h356v45h-348zM768 -281h344v60h-336zM786 -180h330l2 47h-323zM1147 -221v-60h346l-8 60h-338zM1147 -315v-45h360l-6 45h-354zM1149 -133v-47h334l-8 47h-326zM1516 -133l6 -47h329h-6l-10 47h-319zM1524 -221l6 -60h350l-18 60h-338zM1540 -315l8 -45h353l-17 45 h-344zM1874 -133l18 -47h324l-27 47h-315zM1901 -221l22 -60h332l-25 60h-329zM1931 -315l19 -45h352l-27 45h-344z" />
<glyph unicode="l" horiz-adv-x="3004" d="M0 -281l315 445v1372h2122v-1372l307 -455v-45q0 -65 -44.5 -113.5t-106.5 -48.5h-2441q-58 0 -105 49t-47 113v55zM143 -311v-78h43v78h-43zM227 -311v-78h45v78h-45zM272 -117h2206l-205 271h-1827v-11zM371 -84l32 41h291l-6 -41h-317zM414 -8l32 53h283l-22 -53h-293 zM434 297h1884v1128h-1884v-1128zM469 78l33 43h262l-25 -43h-270zM707 -84l22 41h303l-10 -41h-315zM739 -8l25 53h278l-10 -53h-293zM774 78l21 43h262l-15 -43h-268zM1042 -84l15 41h303l12 -41h-330zM1067 -8v53h293v-53h-293zM1077 78l10 43h261l12 -43h-283z M1087 -250v-74h576v74q0 57 -43 57h-487q-18 0 -32 -16t-14 -41zM1382 -8v53h281l25 -53h-306zM1382 78v43h258l23 -43h-281zM1393 -43h303l10 -41h-313v41zM1675 121h262l29 -43h-278zM1696 45h282l23 -53h-295zM1718 -43h305l21 -41h-315zM1966 121h264l41 -43h-280z M2013 45h283l31 -53h-293zM2044 -43h303l47 -41h-319zM2230 -311v-37h238v37h-238zM2511 -311v-78h45v78h-45zM2601 -311v-78h31v78h-31z" />
<glyph unicode="m" horiz-adv-x="3377" d="M6 55v1313q0 68 50 121t120 53h2390q73 0 123.5 -53t50.5 -121v-1313q0 -70 -50 -119t-124 -49h-889v-223h318q29 0 46 -17t17 -42v-105h-1368v105q0 23 20 41t44 18h323v223h-901q-72 0 -121 49.5t-49 118.5zM176 199q0 -65 43 -108.5t111 -43.5h2087q65 0 107 43.5 t42 108.5v1013q0 59 -42.5 104.5t-106.5 45.5h-2087q-67 0 -110.5 -45.5t-43.5 -104.5v-1013z" />
<glyph unicode="n" horiz-adv-x="2922" d="M-6 395v129q0 163 112 262t289 99h1733q165 0 280 -119.5t115 -284.5v-86q0 -166 -114.5 -281.5t-280.5 -115.5h-1733q-173 0 -287 115t-114 282zM252 346q0 -43 30.5 -71.5t98.5 -28.5t98.5 28.5t30.5 71.5v29q0 18 -10 18h-51q-7 0 -7 -18v-23q0 -22 -14 -29.5 t-47 -7.5q-30 0 -43.5 7.5t-13.5 29.5v172q0 24 14 33.5t43 9.5q32 0 46.5 -9.5t14.5 -33.5v-18q0 -6 1 -7t6 -1h51q8 0 9 1t1 7v29q0 45 -31 76.5t-98 31.5t-98 -31.5t-31 -76.5v-189zM557 963l436 530q122 113 271 113q130 0 256 -113l430 -530h-125l-385 467 q-37 37 -85.5 57t-90.5 20q-113 0 -193 -77l-379 -467h-135zM623 268q0 -8 7.5 -15t14.5 -7h162q5 0 12.5 7t7.5 15v37q0 10 -20 10h-121v310q0 7 -1 8.5t-7 1.5h-33q-22 0 -22 -10v-357zM905 346q0 -42 35.5 -71t103.5 -29q66 0 98 29t32 71v189q0 44 -32.5 76t-97.5 32 q-67 0 -103 -32.5t-36 -75.5v-189zM985 352v172q0 24 13.5 33.5t45.5 9.5q58 0 58 -43v-172q0 -37 -58 -37q-33 0 -46 7.5t-13 29.5zM1163 1270q0 44 27 70t74 26q36 0 60 -26.5t24 -69.5q0 -39 -25 -70t-59 -31q-45 0 -73 30.5t-28 70.5zM1278 346q0 -100 133 -100 q67 0 97 28.5t30 71.5v39q0 22 -6 34t-15 17t-27 11q-2 0 -3.5 0.5t-3.5 1.5l-105 40q-6 0 -13 8t-7 23v4q0 43 53 43q30 0 43.5 -9.5t13.5 -33.5v-4q0 -12 2.5 -17t12.5 -5h47q8 0 8 22v15q0 44 -30.5 76t-96.5 32q-71 0 -102 -31.5t-31 -76.5v-37q0 -23 17.5 -43.5 t39.5 -26.5l84 -10q49 -16 49 -43v-23q0 -47 -57 -47q-61 0 -61 47v23q0 13 -2 15.5t-13 2.5h-49q-6 0 -7 -2.5t-1 -15.5v-29zM1647 268q0 -22 8 -22h198q11 0 11 22v37q0 7 -1.5 8.5t-9.5 1.5h-124v107h112q6 0 11 -6q1 2 1 4v47q0 18 -12 18h-112v82h124q11 21 11 29v29 l-11 10h-198q-8 0 -8 -10v-357zM1974 268q0 -22 8 -22h119q74 0 109 28.5t35 71.5v189q0 43 -35 71.5t-109 28.5h-119q-8 0 -8 -10v-357zM2042 315v252h59q28 0 47 -13.5t19 -33.5v-153q0 -23 -19 -37.5t-47 -14.5h-59z" />
<glyph unicode="o" horiz-adv-x="2942" d="M2 389v31q0 162 115.5 277.5t277.5 115.5h1727q169 0 282 -114.5t113 -278.5v-31q0 -162 -113.5 -276.5t-281.5 -114.5h-1727q-161 0 -277 115.5t-116 275.5zM442 289q0 -49 36.5 -80t117.5 -31q93 0 134.5 31t41.5 80v200q0 44 -41.5 72.5t-134.5 28.5q-80 0 -117 -28.5 t-37 -72.5v-200zM528 297v170q0 45 68 45q43 0 63.5 -9t20.5 -36v-170q0 -22 -23 -35.5t-61 -13.5q-27 0 -47.5 14t-20.5 35zM575 899l429 533q117 108 258 108q147 0 264 -108l432 -533h-133l-377 465q-36 36 -87.5 57t-98.5 21t-97.5 -21t-83.5 -57l-383 -465h-123z M891 197q0 -19 10 -19h57q8 0 13.5 6.5t5.5 12.5v133h72q153 0 153 108v35q0 117 -153 117h-148q-7 0 -8.5 -3.5t-1.5 -13.5v-376zM977 401v111h72q30 0 49.5 -12t19.5 -33v-14q0 -24 -19.5 -38t-49.5 -14h-72zM1167 1206q0 -36 29.5 -67t65.5 -31q41 0 67.5 30.5t26.5 67.5 q0 43 -26 71t-68 28q-38 0 -66.5 -28.5t-28.5 -70.5zM1323 197q0 -19 23 -19h229q18 0 18 19v43q0 5 -0.5 8t-5 5.5t-12.5 2.5h-158v117h146q9 0 10.5 1t1.5 7v39q0 18 -12 18h-146v74h158q6 0 7 3t1 22v36q0 17 -8 17h-229q-16 0 -19.5 -3.5t-3.5 -13.5v-376zM1735 197 q0 -6 5.5 -12.5t14.5 -6.5h43q23 0 23 19v256q3 -25 26 -52l129 -211q0 -12 19 -12h47q8 0 16 7t8 12v376q0 17 -24 17h-47q-13 0 -16 -3.5t-3 -13.5v-231q-10 16 -18 39l-137 205q-13 4 -23 4h-43q-20 0 -20 -17v-376z" />
<glyph unicode="p" horiz-adv-x="2760" d="M-10 61v736q0 67 48 114t116 47h243v422q0 65 56 109.5t125 44.5h895q69 0 122.5 -44.5t53.5 -109.5v-422h247q68 0 116 -47t48 -114v-762q0 -65 -48 -109.5t-116 -44.5h-307q0 3 4 7.5t4 9.5v436h-1146v-436q0 -6 5 -10t5 -7h-307q-66 0 -115 56t-49 124zM516 774h1020 v518q0 54 -38.5 90.5t-92.5 36.5h-758q-57 0 -94 -36.5t-37 -90.5v-518zM528 238h996v-600q0 -50 -38.5 -86.5t-92.5 -36.5h-734q-56 0 -93.5 36.5t-37.5 86.5v600zM643 18h741v48h-741v-48zM643 -61v-39h741v39h-741zM643 -186v-45h741v45h-741zM643 -330v-41h741v41h-741z " />
<glyph unicode="q" horiz-adv-x="2678" d="M-10 373v796q0 100 74 174t174 74h1957q104 0 176 -73.5t72 -174.5v-796q0 -100 -71.5 -170t-176.5 -70h-895q-116 0 -257 -130t-240 -310q-25 -45 -43 -45q-12 0 -21 16q-13 23 -42 146q-42 179 -92 249q-53 74 -128 74h-239q-101 0 -174.5 70.5t-73.5 169.5zM313 504 h1784v69h-1784v-69zM313 762h1784v67h-1784v-67zM313 1014h1784v65h-1784v-65z" />
<glyph unicode="r" horiz-adv-x="3418" d="M283 492v698q0 96 62.5 160.5t154.5 64.5h1784q91 0 159 -65t68 -160v-698q0 -95 -68 -161.5t-159 -66.5h-826q-108 0 -228.5 -111t-211.5 -276q-22 -42 -39 -42q-10 0 -19 16q-12 21 -41 136q-43 168 -96 228q-43 48 -98 49h-225q-92 0 -154.5 65.5t-62.5 162.5z M594 567h1610v64h-1610v-64zM594 823h1610v68h-1610v-68zM594 1085h1610v64h-1610v-64zM1268 10q41 42 66 66t63.5 55.5t73 46.5t65.5 15h840q95 0 161 68t66 159v731v8h229q90 0 152.5 -61.5t62.5 -151.5v-702q0 -89 -64 -161.5t-151 -72.5h-219q-100 0 -155 -152 q-11 -29 -45 -158q-22 -84 -43 -89h-3q-18 0 -45 43q-83 150 -200.5 253t-220.5 103h-633z" />
<glyph unicode="s" horiz-adv-x="2291" d="M2 41v817l573 559h840l557 -559v-817l-557 -559h-840zM61 70l537 -541h795l516 541v759l-516 525h-795l-537 -525v-759zM143 104v693l492 485h725l487 -485v-693l-487 -495h-725zM324 340q0 -63 41 -104q23 -23 110 -23q88 0 121 23q41 34 41 108v49q0 19 -16 29 q-3 3 -12 14.5t-13 16.5q-7 4 -21.5 11t-21.5 11l-78 29q-4 2 -9 5l-7.5 4.5t-6.5 4t-6 5t-5 5.5t-5 7q-2 12 -2 32v25l2 12q4 4 7.5 9t5.5 7.5t6 2.5q1 0 10.5 2t17.5 2q29 0 37 -23q6 -5 12.5 -20.5t6.5 -28.5h82v12q0 46 -7 60q-5 10 -16 23t-16 20q-32 14 -43 20 q-8 0 -28.5 3t-35.5 3q-50 0 -106 -34q-37 -43 -37 -101q0 -15 2 -33.5t2 -23.5q5 -5 14 -19t15 -18l11.5 -11.5t12.5 -10.5t12 -5q9 -9 54 -24q37 -15 47 -15q12 -16 18 -16q19 -14 19 -25v-28q0 -33 -19 -41q-6 -12 -37 -12h-28q-3 2 -11.5 5.5t-9.5 6.5q0 3 -5 12t-5 16 v25v16h-100v-20zM686 604h102v-389h93v389h102v78h-297v-78zM1034 453q0 -68 6 -99q0 -56 25 -84q11 -28 45 -49q27 -8 86 -8q61 0 82 8q40 24 49 49q18 30 31 84v99v102q-1 2 -12.5 30t-18.5 42q-4 17 -18 31t-31 18q-23 20 -82 20q-57 0 -86 -20q-35 -9 -45 -49 q-25 -32 -25 -72q-6 -37 -6 -102zM1130 371v82v75q0 38 11 56q7 16 24 30q13 13 31 13q12 0 35 -13q2 -2 6 -5.5t5.5 -5.5t4 -5t3.5 -6.5t1 -7.5q2 -16 2 -56q9 -28 9 -75q0 -56 -9 -82q0 -40 -2 -52q0 -22 -20 -34q-14 -6 -35 -6q-23 0 -31 6q-16 8 -24 34q-11 13 -11 52z M1430 215h102v186h45q11 0 30.5 3.5t26.5 3.5q39 13 47 32q6 1 10 3.5t7 7.5t4.5 8.5t4.5 12t5 13.5q17 30 17 62q0 35 -9 51q-18 36 -18 47q-4 2 -20 15t-25 16q-14 6 -60 6h-167v-467zM1532 475v139h39q13 0 45 -16q14 -14 14 -51q0 -48 -14 -58q-12 -14 -45 -14h-39z" />
<glyph unicode="t" horiz-adv-x="1695" d="M8 98h289v209q-289 246 -289 400v8h289v231q-106 91 -156 145q-133 146 -133 253v8h289v51q0 53 40.5 94t96.5 41h541q58 0 96.5 -40.5t38.5 -94.5v-51h279l7 -16q3 -10 3 -21q0 -73 -107 -198q-69 -82 -182 -179v-223h279l7 -16q3 -10 3 -21q0 -73 -107 -196 q-71 -81 -182 -175v-209h279l7 -15q3 -9 3 -20q0 -70 -109 -194q-70 -81 -180 -176v-66q0 -54 -38.5 -94.5t-96.5 -40.5h-541q-56 0 -96.5 41t-40.5 94v66q-289 247 -289 397v8zM375 -100q0 -142 84 -239t203 -97h81q121 0 207 97.5t86 238.5v1222q0 138 -86.5 237 t-206.5 99h-81q-118 0 -202.5 -99t-84.5 -237v-1222zM471 -119q0 97 68 165.5t163 68.5q96 0 165 -69t69 -165q0 -99 -69 -168t-165 -69t-163.5 69t-67.5 168zM471 492q0 95 68 162t163 67q96 0 165 -67t69 -162q0 -96 -69 -165t-165 -69q-95 0 -163 68.5t-68 165.5z M471 1104q0 97 68 165t163 68q96 0 165 -68.5t69 -164.5q0 -100 -69 -169t-165 -69t-163.5 68.5t-67.5 169.5z" />
<glyph unicode="u" horiz-adv-x="2537" d="M68 1444q0 29 4 51q35 39 67 39h2204q37 0 67 -39q4 -22 4 -51t-4 -41l-1105 -1901q-14 -14 -20 -19.5t-19.5 -11.5t-28.5 -6q-26 0 -59 37l-1106 1901q-4 12 -4 41zM139 1464l1098 -1925l1106 1925h-2204zM244 1399q4 0 50 -1t52 -1h1790q6 0 36 1h56t25 1 q-18 0 -88 -133l-895 -1497q-11 -15 -33 -15q-14 0 -25 15l-895 1497zM721 993q0 -46 8 -75q7 -7 16 -24t13 -20q26 -22 57 -38q38 -19 64 -19q14 0 30 5t17 5q38 17 47 37l6 -37h39v174h-139v-47h86v-36q-4 -4 -7 -7.5t-6.5 -10t-7.5 -11.5q-11 -15 -24 -15 q-12 -10 -41 -10q-10 0 -27 5t-21 5q-26 10 -26 29q-19 27 -19 43q-6 8 -6 47q0 27 6 45q0 8 6 19.5t13 17.5q0 16 26 29q10 8 48 8h28q6 -4 15.5 -8t15.5 -8q6 -11 16 -21q0 -4 5.5 -12.5t5.5 -13.5h53q-3 7 -8 24t-9 23q-15 24 -28 37q-6 2 -21.5 11t-25.5 9q-18 8 -47 8 q-39 0 -64 -22q-7 0 -14.5 -2.5t-12 -5.5t-15 -9.5t-15.5 -9.5q-23 -46 -29 -53q-8 -31 -8 -66zM893 629l86 -146l-35 168h-37l58 -221h36l46 166l45 -166h38l56 221h-35l-39 -168l-47 168zM1092 827h59v326h-59v-326zM1186 430h45l18 53h86l17 -53h47l-86 221h-43z M1196 1153l109 -326h67l109 326h-51l-89 -264h-6l-75 264h-64zM1260 510l24 94h14l27 -94h-65zM1380 651l84 -141v-80h37v80l74 141h-39l-55 -102l-51 102h-50zM1528 827h231v47h-178v101h172v45h-172v84h178v49h-231v-326z" />
<glyph unicode="v" horiz-adv-x="2654" d="M8 -410l1118 1932q6 11 24 22.5t32 11.5q20 0 39 -11t26 -23l1118 -1932q8 -12 7.5 -31t-7.5 -44q-1 -1 -9.5 -8t-11 -8.5t-9.5 -6.5t-11 -6.5t-10 -3.5t-12 -2h-2230q-17 0 -36.5 11t-27.5 24q-8 26 -8 44.5t8 30.5zM72 -446h2230l-1120 1933zM250 -315l905 1572 q7 11 27 11q28 0 28 -11l904 -1572q8 -3 8 -15.5t-8 -21.5q0 -4 -8 -9.5t-19 -5.5h-1811q-3 0 -12 6.5t-14 8.5v37zM1044 -47q0 -62 38.5 -101.5t99.5 -39.5q67 0 103 38.5t36 102.5q0 66 -37 103.5t-102 37.5q-62 0 -100 -38t-38 -103zM1067 823l33 -608h168l37 608h-238z " />
<glyph unicode="w" horiz-adv-x="2226" d="M35 907l725 -387l33 74q-17 38 -17 59q0 29 23 53.5t57 24.5q31 0 51.5 -24.5t20.5 -53.5q0 -32 -20.5 -58t-51.5 -26h-14l-33 -73l684 -371q0 -5 -5 -8t-5 -4q-150 -155 -361 -207q-96 -23 -194 -23q-116 -1 -234 33q-218 62 -385 225q-161 155 -233 359 q-50 143 -50 285q0 61 9 122zM117 -518l202 522q164 -121 379 -158l193 -364h-774zM137 756q-6 -35 -5 -71q0 -228 233 -470q-26 49 -46 96t-32 86t-20.5 75t-11.5 64.5t-4 52.5t0.5 42.5t3.5 30.5t3 20l2 8zM205 -469q115 217 219 344q-30 8 -78 43zM801 1546h90 q154 -14 306 -85.5t271 -190.5q127 -124 198 -276t77 -312v-88l-121 6q2 26 2 52q0 130 -50 258q-60 154 -183 278q-121 120 -275 180q-134 52 -267 52q-20 0 -40 -1zM817 1294q26 2 52 3q105 1 209 -39q130 -48 229 -154q102 -104 150 -234q38 -104 39 -207q0 -26 -3 -51 l-121 4q4 29 4 59q0 78 -27 155q-37 107 -122 192q-85 88 -192 124q-70 24 -139 24q-36 0 -71 -7zM831 1036q35 8 71 8q47 0 96 -14q87 -24 151 -90q63 -63 88 -148q14 -48 14 -94q0 -35 -8 -69l-137 8q23 39 23 82q0 15 -3 31q-11 60 -59 110q-49 44 -115 58q-23 5 -43 5 q-38 0 -67 -16z" />
<glyph unicode="x" horiz-adv-x="2486" d="M-4 797q0 214 78.5 402.5t224.5 332.5l61 -64q-133 -134 -204.5 -305t-71.5 -366q0 -188 71.5 -358t200.5 -296l-63 -65q-141 138 -219 325t-78 394zM244 797q0 327 231 561l57 -66q-93 -98 -146.5 -227t-53.5 -268q0 -137 51.5 -263.5t148.5 -224.5l-63 -57 q-105 105 -165 248t-60 297zM492 797q0 233 159 383l56 -64q-129 -129 -129 -319q0 -176 129 -312l-64 -63q-151 167 -151 375zM643 -504l254 1030q-84 34 -137 113.5t-53 173.5q0 126 90.5 214.5t222.5 88.5q126 0 217.5 -89.5t91.5 -213.5q0 -94 -48 -169t-126 -109 l254 -1039h-766zM1337 1124l64 64q73 -71 117.5 -175t44.5 -216q0 -109 -42 -206t-120 -169l-53 55v8q127 130 127 312q0 195 -127 319q-4 0 -7 2t-3 4zM1513 309h9q198 218 198 488q0 139 -53 268t-145 227q-4 0 -6 2t-2 4l-1 2l56 66q115 -110 177 -256t62 -313 q0 -160 -61 -301t-172 -252zM1692 135q131 127 203.5 299.5t72.5 362.5q0 195 -71.5 366t-204.5 305v9l53 63q147 -145 229 -338t82 -405q0 -205 -81 -396.5t-220 -330.5z" />
<glyph unicode="y" horiz-adv-x="2510" d="M2 1143l360 358l123 -119l-364 -360zM242 901l364 361l119 -119l-363 -363zM565 563q0 163 115 278t278 115q162 0 278 -115.5t116 -277.5q0 -161 -116.5 -278t-277.5 -117q-162 0 -277.5 116.5t-115.5 278.5zM709 -8h505v-174h-505v174zM709 -338h505v-182h-505v182z M748 563q0 -86 60 -146.5t150 -60.5q85 0 146 61t61 146t-61 147t-146 62q-89 0 -149.5 -61.5t-60.5 -147.5zM1190 1135l399 401l365 -362l-402 -402z" />
<glyph unicode="z" horiz-adv-x="2809" d="M-8 397v881q0 105 74 176.5t188 71.5h2034q114 0 189 -71.5t75 -176.5v-832q-10 146 -89.5 268.5t-209.5 193.5t-281 71q-158 0 -291.5 -79t-210.5 -213.5t-77 -291.5q0 -137 37 -229l-68 -29q-133 0 -276.5 -118t-243.5 -302q-28 -48 -48 -48q-11 0 -21 14 q-14 22 -43 139q-43 170 -92 238q-54 77 -134 77h-250q-113 0 -187.5 76.5t-74.5 183.5zM1493 395q0 204 137.5 343t341.5 139q133 0 243 -63.5t173 -174t63 -244.5q0 -128 -63 -237.5t-173.5 -174.5t-242.5 -65q-133 0 -243.5 65t-173 174.5t-62.5 237.5zM1673 395 q0 -32 21 -56t57 -24h139v-137q0 -39 21.5 -59.5t60.5 -20.5q37 0 58.5 20.5t21.5 59.5v137h137q38 0 60 24t22 56q0 40 -22 66t-60 26h-137v129q0 39 -22 65t-58 26q-37 0 -59.5 -26t-22.5 -65v-129h-139q-37 0 -57.5 -26t-20.5 -66z" />
<glyph unicode="~" d="M0 575q0 198 79 378t211.5 309t314 205.5t378.5 76.5q199 0 378.5 -76t309.5 -205.5t206.5 -309t76.5 -378.5q0 -114 -27 -224t-75 -205.5t-117.5 -180t-152.5 -150.5t-181.5 -113.5t-203 -72.5t-219 -24.5t-226.5 28.5l-203 -198q-27 -31 -41 -31q-12 0 -28.5 10 t-16.5 21v315q-211 136 -337 353.5t-126 471.5zM766 602q50 48 123 55q24 3 29 -24t-5.5 -81t-25.5 -111.5t-34 -135.5t-28 -133q0 -62 41 -97.5t101 -35.5q25 0 50.5 5t42.5 10.5t48 16.5t49 17l14 55q-9 -9 -65.5 -10.5t-65.5 10.5q-12 0 -14 33t13 121t48 223 q25 88 -9 153.5t-124 65.5q-61 0 -188 -37v-100zM889 987q0 -54 33.5 -86.5t87.5 -32.5q56 0 89.5 32.5t33.5 86.5q0 60 -31 93.5t-92 33.5q-52 0 -86.5 -34t-34.5 -93z" />
<glyph unicode="&#x2000;" horiz-adv-x="924" />
<glyph unicode="&#x2001;" horiz-adv-x="1849" />
<glyph unicode="&#x2002;" horiz-adv-x="924" />
<glyph unicode="&#x2003;" horiz-adv-x="1849" />
<glyph unicode="&#x2004;" horiz-adv-x="616" />
<glyph unicode="&#x2005;" horiz-adv-x="462" />
<glyph unicode="&#x2006;" horiz-adv-x="308" />
<glyph unicode="&#x2007;" horiz-adv-x="308" />
<glyph unicode="&#x2008;" horiz-adv-x="231" />
<glyph unicode="&#x2009;" horiz-adv-x="369" />
<glyph unicode="&#x200a;" horiz-adv-x="102" />
<glyph unicode="&#x202f;" horiz-adv-x="369" />
<glyph unicode="&#x205f;" horiz-adv-x="462" />
<glyph unicode="&#xe000;" horiz-adv-x="1536" d="M0 0v1536h1536v-1536h-1536z" />
</font>
</defs>
</svg>
