<?xml version="1.0" standalone="no"?>
<!DOCTYPE svg PUBLIC "-//W3C//DTD SVG 1.1//EN" "http://www.w3.org/Graphics/SVG/1.1/DTD/svg11.dtd" >
<svg xmlns="http://www.w3.org/2000/svg">
<metadata></metadata>
<defs>
<font id="uicons_business_and_financeRg" horiz-adv-x="2455" >
<font-face units-per-em="2048" ascent="1536" descent="-512" />
<missing-glyph horiz-adv-x="1024" />
<glyph horiz-adv-x="2048" />
<glyph horiz-adv-x="2048" />
<glyph unicode="&#xd;" horiz-adv-x="2048" />
<glyph unicode=" "  horiz-adv-x="1024" />
<glyph unicode="&#x09;" horiz-adv-x="1024" />
<glyph unicode="&#xa0;" horiz-adv-x="1024" />
<glyph unicode="#" horiz-adv-x="2347" d="M-4 111v1108q0 44 32 76t78 32h150v-141q0 -44 25.5 -76.5t64.5 -32.5h137q37 0 61.5 28t24.5 71v151h781v-151q0 -42 29.5 -70.5t68.5 -28.5h102q41 0 73 33t32 76v141h110q42 0 70.5 -31.5t28.5 -76.5v-1108q0 -44 -32 -77.5t-75 -33.5h-1651q-45 0 -77.5 33t-32.5 78z M66 111q0 -18 11 -29.5t25 -11.5h1645q18 0 29.5 11.5t11.5 29.5v831q0 11 -12 21t-29 10h-1645q-13 0 -24.5 -10t-11.5 -21v-831zM307 1176v329q0 15 11.5 27t23.5 12h129q13 0 25 -12t12 -27v-329q0 -19 -11.5 -30t-25.5 -11h-129q-13 0 -24 11t-11 30zM358 1282 q0 -15 13 -27t30 -12q15 0 26 12t11 27q0 18 -11 29.5t-26 11.5q-18 0 -30.5 -11.5t-12.5 -29.5zM594 621q0 21 17 32.5t59 22.5q18 1 32.5 15t23.5 30.5t23.5 29.5t32.5 13q30 0 41 -9t11 -38v-404q-2 -35 -12.5 -49t-45.5 -14q-34 0 -47.5 12.5t-13.5 50.5v267h-80 q-21 0 -29 8q-12 12 -12 33zM686 1098h561v63h-561v-63zM901 711q0 20 13.5 33.5t33.5 13.5h289h6.5h9t10.5 -0.5t11 -2t10 -4t7.5 -6.5t4.5 -10t0 -14q-4 -23 -78.5 -193t-101.5 -225q-18 -38 -46.5 -48.5t-49.5 -4.5q-15 4 -23.5 27t4.5 65q11 28 69.5 147t82.5 156h-207 q-45 0 -45 66zM1409 1176v329q0 15 12 27t27 12h102q17 0 28 -11.5t11 -27.5v-329q0 -41 -39 -41h-102q-16 0 -27.5 11t-11.5 30zM1458 1282q0 -15 12.5 -27t30.5 -12q15 0 25 12t10 27q0 18 -10 29.5t-25 11.5q-19 0 -31 -11t-12 -30z" />
<glyph unicode="$" horiz-adv-x="2504" d="M0 -571v2107h582v-2107h-582zM766 -571v2107h582v-2107h-582zM1532 -571v2107h582v-2107h-582z" />
<glyph unicode="%" horiz-adv-x="2664" d="M0 -571v1271h584v-1271h-584zM0 956v582h584v-582h-1h-1h-1h-1h-1h-1h-1h-1h-1h-1h-1h-1h-1h-1h-1h-1h-1h-1h-1h-1h-1h-1h-1h-1h-1h-1h-1h-1h-1h-1h-1h-1h-1h-1h-1h-1h-1h-1h-1h-1h-1h-1h-1h-1h-1h-1h-1h-1h-1h-1h-1h-1h-1h-1h-1h-1h-1h-1h-1h-1h-1h-1h-1h-1h-1h-1h-1h-1 h-1h-1h-1h-1h-1h-1h-1h-1h-1h-1h-1h-1h-1h-1h-1h-1h-1h-1h-1h-1h-1h-1h-1h-1h-1h-1h-1h-1h-1h-1h-1h-1h-1h-1h-1h-1h-1h-1h-1h-1h-1h-1h-1h-1h-1h-1h-1h-1h-1h-1h-1h-1h-1h-1h-1h-1h-1h-1h-1h-1h-1h-1h-1h-1h-1h-1h-1h-1h-1h-1h-1h-1h-1h-1h-1h-1h-1h-1h-1h-1h-1h-1h-1h-1 h-1h-1h-1h-1h-1h-1h-1h-1h-1h-1h-1h-1h-1h-1h-1h-1h-1h-1h-1h-1h-1h-1h-1h-1h-1h-1h-1h-1h-1h-1h-1h-1h-1h-1h-1h-1h-1h-1h-1h-1h-1h-1h-1h-1h-1h-1h-1h-1h-1h-1h-1h-1h-1h-1h-1h-1h-1h-1h-1h-1h-1h-1h-1h-1h-1h-1h-1h-1h-1h-1h-1h-1h-1h-1h-1h-1h-1h-1h-1h-1h-1h-1h-1h-1 h-1h-1h-1h-1h-1h-1h-1h-1h-1h-1h-1h-1h-1h-1h-1h-1h-1h-1h-1h-1h-1h-1h-1h-1h-1h-1h-1h-1h-1h-1h-1h-1h-1h-1h-1h-1h-1h-1h-1h-1h-1h-1h-1h-1h-1h-1h-1h-1h-1h-1h-1h-1h-1h-1h-1h-1h-1h-1h-1h-1h-1h-1h-1h-1h-1h-1h-1h-1h-1h-1h-1h-1h-1h-1h-1h-1h-1h-1h-1h-1h-1h-1h-1h-1 h-1h-1h-1h-1h-1h-1h-1h-1h-1h-1h-1h-1h-1h-1h-1h-1h-1h-1h-1h-1h-1h-1h-1h-1h-1h-1h-1h-1h-1h-1h-1h-1h-1h-1h-1h-1h-1h-1h-1h-1h-1h-1h-1h-1h-1h-1h-1h-1h-1h-1h-1h-1h-1h-1h-1h-1h-1h-1h-1h-1h-1h-1h-1h-1h-1h-1h-1h-1h-1h-1h-1h-1h-1h-1h-1h-1h-1h-1h-1h-1h-1h-1h-1h-1 h-1h-1h-1h-1h-1h-1h-1h-1h-1h-1h-1h-1h-1h-1h-1h-1h-1h-1h-1h-1h-1h-1h-1h-1h-1h-1h-1h-1h-1h-1h-1h-1h-1h-1h-1h-1h-1h-1h-1h-1h-1h-1h-1h-1h-1h-1h-1h-1h-1h-1h-1h-1h-1h-1h-1h-1h-1h-1h-1h-1h-1h-1h-1h-1h-1h-1h-1h-1h-1h-1h-1h-1h-1h-1h-1h-1h-1h-1h-1h-1h-1h-1h-1h-1 h-1h-1h-1h-1h-1h-1h-1h-1h-1h-1h-1h-1h-1h-1h-1h-1h-1h-1h-1h-1h-1h-1h-1h-1h-1h-1h-1h-1h-1h-1h-1h-1h-1h-1h-1h-1h-1h-1h-1h-1h-1h-1h-1h-1h-1h-1h-1h-1h-1h-1h-1h-1h-1h-1h-1h-1h-1h-1h-1h-1h-1h-1h-1h-1h-1h-1h-1h-1h-1h-1h-1h-1h-1h-1h-1h-1h-1h-1h-1h-1h-1h-1h-1h-1 h-1h-1h-1h-9zM768 -571v1271h584v-1271h-584zM768 956v582h584v-582h-1h-1h-1h-1h-1h-1h-1h-1h-1h-1h-1h-1h-1h-1h-1h-1h-1h-1h-1h-1h-1h-1h-1h-1h-1h-1h-1h-1h-1h-1h-1h-1h-1h-1h-1h-1h-1h-1h-1h-1h-1h-1h-1h-1h-1h-1h-1h-1h-1h-1h-1h-1h-1h-1h-1h-1h-1h-1h-1h-1h-1h-1h-1 h-1h-1h-1h-1h-1h-1h-1h-1h-1h-1h-1h-1h-1h-1h-1h-1h-1h-1h-1h-1h-1h-1h-1h-1h-1h-1h-1h-1h-1h-1h-1h-1h-1h-1h-1h-1h-1h-1h-1h-1h-1h-1h-1h-1h-1h-1h-1h-1h-1h-1h-1h-1h-1h-1h-1h-1h-1h-1h-1h-1h-1h-1h-1h-1h-1h-1h-1h-1h-1h-1h-1h-1h-1h-1h-1h-1h-1h-1h-1h-1h-1h-1h-1h-1 h-1h-1h-1h-1h-1h-1h-1h-1h-1h-1h-1h-1h-1h-1h-1h-1h-1h-1h-1h-1h-1h-1h-1h-1h-1h-1h-1h-1h-1h-1h-1h-1h-1h-1h-1h-1h-1h-1h-1h-1h-1h-1h-1h-1h-1h-1h-1h-1h-1h-1h-1h-1h-1h-1h-1h-1h-1h-1h-1h-1h-1h-1h-1h-1h-1h-1h-1h-1h-1h-1h-1h-1h-1h-1h-1h-1h-1h-1h-1h-1h-1h-1h-1h-1 h-1h-1h-1h-1h-1h-1h-1h-1h-1h-1h-1h-1h-1h-1h-1h-1h-1h-1h-1h-1h-1h-1h-1h-1h-1h-1h-1h-1h-1h-1h-1h-1h-1h-1h-1h-1h-1h-1h-1h-1h-1h-1h-1h-1h-1h-1h-1h-1h-1h-1h-1h-1h-1h-1h-1h-1h-1h-1h-1h-1h-1h-1h-1h-1h-1h-1h-1h-1h-1h-1h-1h-1h-1h-1h-1h-1h-1h-1h-1h-1h-1h-1h-1h-1 h-1h-1h-1h-1h-1h-1h-1h-1h-1h-1h-1h-1h-1h-1h-1h-1h-1h-1h-1h-1h-1h-1h-1h-1h-1h-1h-1h-1h-1h-1h-1h-1h-1h-1h-1h-1h-1h-1h-1h-1h-1h-1h-1h-1h-1h-1h-1h-1h-1h-1h-1h-1h-1h-1h-1h-1h-1h-1h-1h-1h-1h-1h-1h-1h-1h-1h-1h-1h-1h-1h-1h-1h-1h-1h-1h-1h-1h-1h-1h-1h-1h-1h-1h-1 h-1h-1h-1h-1h-1h-1h-1h-1h-1h-1h-1h-1h-1h-1h-1h-1h-1h-1h-1h-1h-1h-1h-1h-1h-1h-1h-1h-1h-1h-1h-1h-1h-1h-1h-1h-1h-1h-1h-1h-1h-1h-1h-1h-1h-1h-1h-1h-1h-1h-1h-1h-1h-1h-1h-1h-1h-1h-1h-1h-1h-1h-1h-1h-1h-1h-1h-1h-1h-1h-1h-1h-1h-1h-1h-1h-1h-1h-1h-1h-1h-1h-1h-1h-1 h-1h-1h-1h-1h-1h-1h-1h-1h-1h-1h-1h-1h-1h-1h-1h-1h-1h-1h-1h-1h-1h-1h-1h-1h-1h-1h-1h-1h-1h-1h-1h-1h-1h-1h-1h-1h-1h-1h-1h-1h-1h-1h-1h-1h-1h-1h-1h-1h-1h-1h-1h-1h-1h-1h-1h-1h-1h-1h-1h-1h-1h-1h-1h-1h-1h-1h-1h-1h-1h-1h-1h-1h-1h-1h-1h-1h-1h-1h-1h-1h-1h-1h-1h-1 h-1h-1h-1h-1h-1h-1h-1h-1h-9zM1538 -571v1271h584v-1271h-584zM1538 956v582h584v-582h-1h-1h-1h-1h-1h-1h-1h-1h-1h-1h-1h-1h-1h-1h-1h-1h-1h-1h-1h-1h-1h-1h-1h-1h-1h-1h-1h-1h-1h-1h-1h-1h-1h-1h-1h-1h-1h-1h-1h-1h-1h-1h-1h-1h-1h-1h-1h-1h-1h-1h-1h-1h-1h-1h-1h-1h-1 h-1h-1h-1h-1h-1h-1h-1h-1h-1h-1h-1h-1h-1h-1h-1h-1h-1h-1h-1h-1h-1h-1h-1h-1h-1h-1h-1h-1h-1h-1h-1h-1h-1h-1h-1h-1h-1h-1h-1h-1h-1h-1h-1h-1h-1h-1h-1h-1h-1h-1h-1h-1h-1h-1h-1h-1h-1h-1h-1h-1h-1h-1h-1h-1h-1h-1h-1h-1h-1h-1h-1h-1h-1h-1h-1h-1h-1h-1h-1h-1h-1h-1h-1h-1 h-1h-1h-1h-1h-1h-1h-1h-1h-1h-1h-1h-1h-1h-1h-1h-1h-1h-1h-1h-1h-1h-1h-1h-1h-1h-1h-1h-1h-1h-1h-1h-1h-1h-1h-1h-1h-1h-1h-1h-1h-1h-1h-1h-1h-1h-1h-1h-1h-1h-1h-1h-1h-1h-1h-1h-1h-1h-1h-1h-1h-1h-1h-1h-1h-1h-1h-1h-1h-1h-1h-1h-1h-1h-1h-1h-1h-1h-1h-1h-1h-1h-1h-1h-1 h-1h-1h-1h-1h-1h-1h-1h-1h-1h-1h-1h-1h-1h-1h-1h-1h-1h-1h-1h-1h-1h-1h-1h-1h-1h-1h-1h-1h-1h-1h-1h-1h-1h-1h-1h-1h-1h-1h-1h-1h-1h-1h-1h-1h-1h-1h-1h-1h-1h-1h-1h-1h-1h-1h-1h-1h-1h-1h-1h-1h-1h-1h-1h-1h-1h-1h-1h-1h-1h-1h-1h-1h-1h-1h-1h-1h-1h-1h-1h-1h-1h-1h-1h-1 h-1h-1h-1h-1h-1h-1h-1h-1h-1h-1h-1h-1h-1h-1h-1h-1h-1h-1h-1h-1h-1h-1h-1h-1h-1h-1h-1h-1h-1h-1h-1h-1h-1h-1h-1h-1h-1h-1h-1h-1h-1h-1h-1h-1h-1h-1h-1h-1h-1h-1h-1h-1h-1h-1h-1h-1h-1h-1h-1h-1h-1h-1h-1h-1h-1h-1h-1h-1h-1h-1h-1h-1h-1h-1h-1h-1h-1h-1h-1h-1h-1h-1h-1h-1 h-1h-1h-1h-1h-1h-1h-1h-1h-1h-1h-1h-1h-1h-1h-1h-1h-1h-1h-1h-1h-1h-1h-1h-1h-1h-1h-1h-1h-1h-1h-1h-1h-1h-1h-1h-1h-1h-1h-1h-1h-1h-1h-1h-1h-1h-1h-1h-1h-1h-1h-1h-1h-1h-1h-1h-1h-1h-1h-1h-1h-1h-1h-1h-1h-1h-1h-1h-1h-1h-1h-1h-1h-1h-1h-1h-1h-1h-1h-1h-1h-1h-1h-1h-1 h-1h-1h-1h-1h-1h-1h-1h-1h-1h-1h-1h-1h-1h-1h-1h-1h-1h-1h-1h-1h-1h-1h-1h-1h-1h-1h-1h-1h-1h-1h-1h-1h-1h-1h-1h-1h-1h-1h-1h-1h-1h-1h-1h-1h-1h-1h-1h-1h-1h-1h-1h-1h-1h-1h-1h-1h-1h-1h-1h-1h-1h-1h-1h-1h-1h-1h-1h-1h-1h-1h-1h-1h-1h-1h-1h-1h-1h-1h-1h-1h-1h-1h-1h-1 h-1h-1h-1h-1h-1h-1h-1h-1h-1h-1h-1h-1h-1h-1h-9z" />
<glyph unicode="&#x26;" horiz-adv-x="2353" d="M0 -563v2085l12 12h924q5 0 8 -3t4 -6v-3v-2085q0 -9 -1.5 -10.5t-10.5 -1.5h-924q-12 0 -12 12zM172 707q0 -13 25 -13h563q26 0 26 13v620q0 12 -26 12h-563q-25 0 -25 -12v-620zM178 258v-575q0 -13 25 -13h551q26 0 26 13v575q0 12 -26 12h-551q-25 0 -25 -12z M262.5 1008.5q-2.5 18.5 6 32.5t22 24t31 8.5t32.5 -14.5l64 -60l180 183q33 16 49 0l37 -37q9 -9 9 -24.5t-9 -24.5l-242 -244q-10 -10 -15 -12t-15 6l-131 129q-16 15 -18.5 33.5zM282.5 -42.5q-2.5 18.5 6 32.5t22.5 24t31.5 8.5t32.5 -14.5l63 -59l180 182q34 16 50 0 l37 -37q9 -9 9 -24.5t-9 -24.5l-242 -244q-19 -19 -31 -6l-131 129q-16 15 -18.5 33.5zM1161 -563v2085l13 12h927l13 -12v-2085q0 -5 -3 -8t-7 -3l-3 -1h-927q-13 0 -13 12zM1337 705q0 -5 3.5 -8.5t7.5 -4.5h4h569q9 0 10.5 2t1.5 11v620q0 9 -1.5 10.5t-10.5 1.5h-569 q-15 0 -15 -12v-620zM1346 258v-575q0 -13 24 -13h535q22 0 22 13v575q0 12 -22 12h-535q-24 0 -24 -12zM1429.5 -54.5q-2.5 18.5 6 32.5t22.5 24t31.5 8.5t32.5 -14.5l63 -59l180 182q34 16 50 0l36 -37q9 -9 9 -24.5t-9 -24.5l-241 -244q-18 -19 -31 -6l-131 129 q-16 15 -18.5 33.5zM1464 1149q16 29 53 29q32 -2 52 -29l69 -74l80 80q23 25 55 18t39.5 -34t-20.5 -64l-82 -84l72 -71q23 -31 11.5 -58.5t-38 -31t-49.5 15.5l-68 72l-71 -74q-36 -26 -68 -12.5t-33 43.5t27 55l61 61l-61 72q-52 45 -29 86z" />
<glyph unicode="(" horiz-adv-x="2357" d="M10 631.5q21 159.5 84.5 302.5t180 269t274.5 210q193 105 413 120t416 -50t362.5 -207.5t258.5 -339.5q114 -229 105.5 -491t-136.5 -488q-165 -286 -474 -429.5t-632 -82.5q-179 30 -330 113.5t-255 199.5t-172.5 261.5t-92 299t-2.5 313zM265.5 608.5 q-36.5 -233.5 58.5 -446.5q66 -149 182 -257.5t257 -159.5t290.5 -54t297 56t261.5 173q170 178 213.5 419.5t-56.5 465.5q-55 125 -148.5 221.5t-205.5 153t-241.5 77.5t-254.5 2.5t-245.5 -80t-214.5 -161.5q-157 -176 -193.5 -409.5zM592 969h262l184 -361q9 22 23 48 t61 112t107 201h262l-285 -455h199v-135h-256v-62h256v-137h-256v-243h-236v243h-256v137h256v62h-256v135h197z" />
<glyph unicode=")" horiz-adv-x="2459" d="M11 633q21 160 84.5 303t180.5 269t275 210q193 105 412.5 120t416 -50t363 -207t260.5 -338q114 -232 104 -493.5t-141 -487.5q-107 -189 -283 -319.5t-390 -182t-431 -12.5q-178 30 -328.5 113.5t-255 199.5t-172.5 262t-92 299.5t-3 313.5zM268 609q-38 -235 58 -445 q55 -122 146 -217.5t200 -152.5t234.5 -80.5t247.5 -9.5t242 69.5t216 148.5q173 174 217.5 417t-57.5 468q-57 125 -152 221.5t-208 153.5t-242 78t-253.5 2.5t-243.5 -80.5t-210 -164q-157 -174 -195 -409zM639 -6v106q0 27 25.5 58t56 56.5t57 65t27.5 80.5q1 27 -4 43.5 t-18.5 22.5t-23 7t-32.5 1h-78v152h137q-21 109 2 211t97 179.5t188 96.5q22 3 63 4t107.5 -9.5t106.5 -37.5q1 -1 -6.5 -45.5t-17.5 -101t-17 -86.5q-75 44 -143 48t-109.5 -38t-36.5 -123q5 -66 20 -83t72 -17h117v-140h-193q10 -52 3 -107t-29.5 -98t-46.5 -42h391 q2 1 2.5 -50t-0.5 -102v-51h-717z" />
<glyph unicode="*" horiz-adv-x="2390" d="M7.5 634.5q20.5 159.5 84.5 302.5t181 269t276 211q155 83 327 109.5t336.5 -3.5t314 -105t272 -198.5t198.5 -279.5q111 -234 101 -493t-136 -484q-168 -289 -473 -432.5t-631 -85.5q-178 32 -328.5 116t-255 200t-172.5 261.5t-91.5 299t-3 313zM268.5 644 q-49.5 -233 36.5 -447q51 -128 141 -229.5t199.5 -163.5t237.5 -88.5t253 -14t248.5 68.5t221.5 152q165 171 211.5 401t-41.5 451q-49 127 -138 227t-198 161.5t-236.5 87.5t-252.5 13t-248 -69t-220 -152q-165 -165 -214.5 -398zM496 307l34 144h64v114h-98l34 137h95 q57 173 193 262t317 89q40 0 85 -7t75 -15.5t54.5 -16.5t26.5 -8l-47 -195q-114 39 -186 39q-199 0 -273 -148h381l-34 -137h-381q-9 -33 -9 -114h424l-34 -144h-359q65 -176 285 -176q129 0 186 35l35 -197q-77 -47 -256 -47q-205 0 -332 103t-170 282h-110z" />
<glyph unicode="+" horiz-adv-x="2467" d="M16 633.5q21 159.5 84 302t179.5 268t273.5 209.5q127 67 268.5 96.5t278.5 21.5t272 -52.5t250.5 -119t211.5 -183t157 -240.5q112 -230 102 -490t-135 -481q-106 -191 -280.5 -322.5t-387 -183.5t-428.5 -14q-178 32 -327.5 116t-253 200t-171.5 261.5t-91.5 298.5 t-2.5 312.5zM267.5 609.5q-35.5 -232.5 60.5 -445.5q53 -122 143 -217.5t198.5 -152t234.5 -79.5t248 -8t241 71.5t213 151.5q172 169 216.5 411t-55.5 466q-56 123 -150 218.5t-206.5 152t-241.5 78t-253.5 3.5t-244 -79t-212.5 -162q-156 -176 -191.5 -408.5zM680 72 l49 186q132 -70 264 -70q72 0 117 27t45 78q0 43 -42 77t-136 64q-67 23 -116 48t-90 59t-62 79.5t-21 102.5q0 109 74.5 189.5t198.5 105.5v137h135v-129q79 0 149.5 -14.5t108.5 -34.5l-39 -186q-1 0 -28 11t-41.5 15.5t-43.5 12t-60 11t-65 3.5q-75 0 -107 -25t-32 -61 q0 -43 42.5 -73.5t147.5 -68.5q150 -50 213.5 -122.5t63.5 -184.5q0 -114 -85 -204.5t-226 -108.5l4 -135h-146v137q-165 12 -272 74z" />
<glyph unicode="," horiz-adv-x="2037" d="M-4 -449v1862q0 34 12.5 59t31 36t36.5 18t30 8h13h1112l375 -373v-1610q0 -5 -0.5 -13t-7.5 -28.5t-18 -36.5t-36 -29t-59 -13h-1366zM119 -12h1366v80h-1366v-80zM119 -184v-68h1366v68h-1366zM119 252h1366v80h-1366v-80zM119 516h1366v66h-1366v-66zM119 756h1366v73 h-1366v-73zM119 1032h895v66h-895v-66zM1141 1161q0 -37 0.5 -52.5t4.5 -34.5t10 -24.5t21.5 -12t33.5 -7t51 -0.5h223l-344 383v-252z" />
<glyph unicode="-" horiz-adv-x="2154" d="M-4 -395v1933h127v-1726l336 536l223 -299l209 457l489 -111l334 551l-192 135l520 160v-518l-176 119l-400 -654l-462 105l-281 -602l-250 338l-215 -408h1784v-129h-1847h-199v113z" />
<glyph unicode="." horiz-adv-x="2326" d="M0 -408h217l70 840l432 215v-317h184v245q1 1 434 218v-463h176l70 749q0 3 0.5 8t4.5 17t11 21.5t22 17.5t36 8h215q33 0 51.5 -18t20.5 -36l2 -18l69 -1487h217v-170h-2232v170zM487 63v-131v-3v-3v-3v-3v-3v-3v-3v-3v-3v-3v-3v-3v-3v-3v-3v-3v-3v-3v-2v-3v-3v-9h218v1 v1v1v1v1v1v1v1v1v1v1v1v1v1v1v1v1v1v1v1v1v1v1v1v1v1v1v1v1v1v1v1v1v1v1v1v1v1v1v1v1v1v1v1v1v1v1v1v1v1v1v1v1v1v1v1v1v1v1v1v1v1v9v131v70h-218v-70zM647 1585q70 -127 258.5 -187t403.5 -9q83 18 147.5 6.5t109 -42.5t68 -65.5t23.5 -62.5q0 34 -54.5 61t-120 31.5 t-120.5 -14.5q-86 -37 -184 -48.5t-189.5 5t-167.5 55.5t-123.5 109t-50.5 161zM840 63v-131q0 -54 8.5 -62.5t60.5 -8.5h109q3 0 8 0.5t17 4t21.5 10t17.5 21.5t8 35v131q0 31 -18 48.5t-36 19.5l-18 2h-109q-52 0 -60.5 -8.5t-8.5 -61.5zM936 1655q60 -44 126.5 -59 t131.5 -10.5t133 10t154.5 -6.5t171.5 -51q57 -26 100.5 -67.5t65 -82.5t34.5 -78.5t16 -61.5l3 -23q-134 270 -645 239q-64 -4 -130.5 19t-113 69.5t-47.5 102.5zM1217 63v-131q0 -32 17.5 -50t34.5 -20l17 -1h193v1v1v1v1v1v1v1v1v1v1v1v1v1v1v1v1v1v1v1v1v1v1v1v1v1v1v1 v1v1v1v1v1v1v1v1v1v1v1v1v1v1v1v1v1v1v1v1v1v1v1v1v1v1v1v1v1v1v1v1v1v1v1v9v131v70h-193q-3 0 -7.5 -0.5t-16.5 -4t-21 -10.5t-16.5 -21t-7.5 -34zM1593 63v-131v-3v-3v-3v-3v-3v-3v-3v-3v-3v-3v-3v-3v-3v-3v-3v-3v-3v-3v-2v-3v-3v-9h209v1v1v1v1v1v1v1v1v1v1v1v1v1v1v1v1 v1v1v1v1v1v1v1v1v1v1v1v1v1v1v1v1v1v1v1v1v1v1v1v1v1v1v1v1v1v1v1v1v1v1v1v1v1v1v1v1v1v1v1v1v1v1v9v131v70h-209v-70z" />
<glyph unicode="0" horiz-adv-x="2357" d="M6 520q0 201 75.5 384t204 318.5t307 220.5t376.5 97v-2048q-198 12 -376.5 98.5t-307 223t-204 321t-75.5 385.5zM1100 465l915 364q45 -155 45 -309q0 -201 -75.5 -385.5t-203.5 -321t-306 -223t-375 -98.5v973zM1100 604v936q286 -15 518.5 -176t347.5 -418z" />
<glyph unicode="1" d="M-4 438q0 195 76.5 373.5t206 308t308 206.5t374.5 77v-965h964q0 -198 -76.5 -376.5t-206 -307.5t-308 -204.5t-373.5 -75.5q-196 0 -374.5 75.5t-308 204.5t-206 307.5t-76.5 376.5zM1090 567v965q196 0 374.5 -76.5t307.5 -206t205.5 -308t76.5 -374.5h-964z" />
<glyph unicode="2" horiz-adv-x="2449" d="M-2 -522v2056h131v-1925h1925v-131h-2056zM383 -391v1026h322v-1026h-322zM963 -391v1605h319v-1605h-319zM1540 311h318v-702h-318v702z" />
<glyph unicode="3" d="M2 -510v2048h129v-1921h1919v-127h-2048zM385 -383h322v1344h-322v-1344zM963 -383h319v834h-319v-834zM1538 2v-385h320v385h-320z" />
<glyph unicode="4" d="M-4 -516v2050h127v-1919h1923v-131h-2050zM123 -131v321h1730v-321h-1730zM123 446v322h1091v-322h-1091zM123 1022v319h639v-319h-639z" />
<glyph unicode="5" horiz-adv-x="2449" d="M-6 -514v2066h129v-1937h1937v-129h-2066zM0 125l588 516l647 -524l606 839l135 -98l-706 -977l-682 549l-475 -428zM422 496q0 72 52 125t124 53q71 0 119.5 -52.5t48.5 -125.5q0 -72 -48 -120t-120 -48q-73 0 -124.5 48.5t-51.5 119.5zM1073 27q0 73 52.5 122.5 t125.5 49.5q72 0 120 -49t48 -123q0 -72 -48 -120t-120 -48q-73 0 -125.5 48.5t-52.5 119.5zM1710 899q0 67 53.5 118.5t124.5 51.5t121.5 -51.5t50.5 -118.5q0 -73 -50.5 -125.5t-121.5 -52.5q-72 0 -125 53t-53 125z" />
<glyph unicode="6" d="M-2 -516v2044h129v-1313l655 743l674 -528l473 408l113 -127l-586 -512l-649 520l-680 -770v-336h1923v-129h-2052zM47 477v187l488 118l8 -8l-193 -215zM631 438l121 135l280 -280l72 121l137 -113l-168 -289zM1257 664l482 784l141 -96l-487 -801z" />
<glyph unicode="7" d="M0 -516h451v1796h-451v-1796zM424 1376q161 80 310 114.5t266 28.5t225 -46t187 -94.5t151 -132.5t118 -145.5t87.5 -147t59.5 -123t34 -87.5l192 41l-264 -467l-428 328l211 41q-7 32 -19 70.5t-36.5 98.5t-58.5 114.5t-84.5 120t-114.5 114t-148.5 96.5t-186 68.5 t-228 29t-273.5 -21.5zM770 -516h451v1345h-451v-1345zM1540 188v-704h451v704h-451z" />
<glyph unicode="8" horiz-adv-x="2461" d="M135 4h432v-520h-432v520zM150 111q-94 615 290 913q235 183 609 223q52 6 106 8l23 193l356 -379l-426 -301l16 209q-27 -2 -70 2.5t-101.5 -6t-123 -21t-135 -43.5t-138.5 -73.5t-133 -109.5t-118 -152.5t-94 -202.5t-61 -260zM891 -516v1098h399v-1098h-399z M1655 -516v1716h397v-1716h-397z" />
<glyph unicode="9" horiz-adv-x="2357" d="M0 455h332v-969h-332v969zM440 655v17v16q6 14 31 14h170v338q0 14 12 27.5t29 13.5h127q12 0 25.5 -14.5t13.5 -26.5v-338h170q22 0 22 -14q9 0 9 -16q-1 -9 -9 -17l-272 -424q-8 -8 -25 -8q-22 0 -30 8zM569 -121h338v-393h-338v393zM1137 324h344v-838h-344v838z M1679 -514v1786h371v-1786h-371z" />
<glyph unicode=":" horiz-adv-x="2441" d="M2 -317v895h840v-125h368v125h830v-895h-119h-1919zM2 651v508h1919h119v-508h-830v176h-368v-176h-840zM524 1159v250q0 50 27.5 89.5t87.5 39.5h719q33 0 57 -12.5t34.5 -30t16.5 -35.5t6 -30l1 -13v-258h-181v199h-575v-199h-193zM907 510v252h228v-252h-228z" />
<glyph unicode=";" horiz-adv-x="2349" d="M2 123v1104q0 52 35.5 85.5t87.5 33.5h1808q49 0 85 -34t36 -85v-1104q0 -50 -36.5 -86.5t-84.5 -36.5h-1808q-51 0 -87 36t-36 87zM49 891h1946v205h-1946v-205zM178 260h557v74h-557v-74zM178 451h883v67h-883v-67zM774 260h287v74h-287v-74zM1343 268q0 -8 7.5 -17 t17.5 -9h516q8 0 18.5 9.5t10.5 16.5v215q0 7 -10.5 14t-18.5 7h-516q-10 0 -17.5 -6.5t-7.5 -14.5v-215z" />
<glyph unicode="&#x3c;" horiz-adv-x="2041" d="M-8 274v207q0 -77 110.5 -142t300 -102.5t412.5 -37.5q227 0 418 37.5t301.5 102.5t110.5 142v-207q0 -76 -110.5 -141t-302 -103t-417.5 -38q-222 0 -412 38t-300.5 103t-110.5 141zM-8 596v209q0 -80 110.5 -147t299.5 -104.5t413 -37.5q170 0 323.5 22.5t264.5 60.5 t176.5 92t65.5 114v-209q0 -78 -110.5 -143.5t-301.5 -103.5t-418 -38q-223 0 -412.5 38t-300 103.5t-110.5 143.5zM-8 932v213q0 -82 111 -150t299.5 -106.5t412.5 -38.5q228 0 418 38.5t301 106.5t111 150v-213q0 -79 -110.5 -146t-302 -106t-417.5 -39q-223 0 -412.5 39 t-300 106t-110.5 146zM-8 1253q0 78 110.5 144t300 104.5t412.5 38.5q227 0 418 -38.5t301.5 -104.5t110.5 -144q0 -79 -110.5 -145.5t-301.5 -105.5t-418 -39q-223 0 -412.5 39t-300 105.5t-110.5 145.5z" />
<glyph unicode="=" horiz-adv-x="2052" d="M4 561q10 164 72 320q75 188 211.5 330.5t308.5 220.5l176 -558q-117 -84 -162 -208q-38 -83 -33.5 -172t37.5 -167.5t97.5 -141.5t148.5 -95q166 -66 330 -3t235 218l543 -192q-62 -153 -167 -277t-238.5 -204t-284.5 -120t-313 -29.5t-314 71.5q-156 62 -283 167 t-209 239t-123.5 285.5t-31.5 315.5zM668 1456q170 68 357 69t378 -69q171 -71 305 -193t219 -278l-502 -289q-79 158 -231 224q-92 36 -185.5 31.5t-174.5 -46.5zM1456 377q41 122 0 254l506 289q73 -174 84 -358t-51 -378z" />
<glyph unicode="&#x3e;" horiz-adv-x="2043" d="M-2 272v217q0 -9 4.5 -20t14 -23.5t16.5 -21t20.5 -23.5t18.5 -20v-201q-6 6 -23 22t-25.5 25t-17 22t-8.5 23zM-2 602v201q0 -11 8 -24t17 -22t26 -24.5t23 -21.5v-199q-23 14 -47 39.5t-27 50.5zM-2 936v188q0 -14 10.5 -29t33.5 -37t30 -30l2 -199q-5 6 -23 23.5 t-27 27t-17.5 26t-8.5 30.5zM-2 1253q0 80 112.5 146t301 102.5t411.5 36.5q227 0 416.5 -36.5t300.5 -102.5t111 -146q0 -57 -65.5 -112t-175.5 -97t-265 -68t-322 -26q-164 0 -317.5 26t-264 68t-177 97t-66.5 112zM133 154v186q15 -11 52 -31.5t59 -27.5v-177 q-79 13 -111 50zM133 465v199q16 -14 52 -35.5t59 -26.5v-186q-83 27 -111 49zM133 788v205q79 -47 111 -59l-2 -180q-27 0 -60.5 10.5t-48.5 23.5zM322 63v177q68 -15 122 -21v-186q-85 8 -122 30zM322 389v182q84 -27 122 -32v-183q-67 11 -122 33zM322 719v184 q11 -6 52.5 -18t69.5 -13v-202q-30 1 -70 17.5t-52 31.5zM365 1229q0 -23 41 -23h81q34 -69 172 -69h41q103 0 144 37q11 16 69 94q11 11 20.5 16t14.5 5.5t17 0.5h32q27 0 38.5 -12.5t11.5 -28.5q0 -53 -50 -53h-32q-29 0 -29 -10v-49q0 -11 29 -11h32q130 0 172 80h84 q14 0 21.5 7t7.5 16v49q0 8 -6 10t-23 2h-84q-21 40 -71.5 60t-100.5 20h-61q-54 0 -86.5 -14.5t-56.5 -46.5q-14 -14 -24.5 -27t-23.5 -31t-24 -32q-1 0 -17 -6.5t-34 -6.5h-11q-61 0 -61 43q0 15 16.5 28t44.5 13h23q14 0 21.5 2t8.5 4l1 2v52q0 8 -4 9t-27 1h-23 q-138 0 -172 -70h-81h-20t-12 -1.5t-7.5 -3.5t-1.5 -7v-49zM522 10v201q93 -6 107 -6l2 -205q-70 0 -109 10zM522 334v196q57 -8 107 -8l2 -200q-69 0 -109 12zM522 653v203q64 -10 109 -10l-2 -205q-51 0 -107 12zM721 -6v209h119v-207q-22 0 -61 -1t-58 -1zM721 313v197 h119v-197h-119zM721 844h119l-2 -203h-115zM915 -2v205h119v-205q-68 -6 -119 0zM915 313v197h119v-197h-119zM915 641v203h119l-2 -203h-117zM1098 0v205q84 0 112 6v-205q-13 -4 -32.5 -5t-44 -0.5t-35.5 -0.5zM1098 641l2 193q77 8 112 20v-203q-17 -5 -34.5 -7.5t-26 -3 t-29.5 0t-24 0.5zM1100 315v201q58 3 110 21v-201q-51 -21 -110 -21zM1292 33v196q67 9 113 29v-188q-77 -37 -113 -37zM1292 356v201q36 9 105 43v-211q-33 -22 -105 -33zM1292 668v198q36 9 105 43v-188q-58 -45 -105 -53zM1460 104v179q27 14 74 51v-187q-47 -37 -74 -43 zM1460 418v203q11 4 38.5 21.5t35.5 21.5l2 -197q-54 -49 -76 -49zM1460 754v196q8 2 14.5 5t15 9t12.5 9t16 12.5t16 13.5v-211q-19 -12 -44.5 -22t-29.5 -12zM1585 829v191q9 16 27 38.5t28.5 39t10.5 30.5v-192q0 -45 -66 -107zM1587 180v201q64 64 64 108v-188 q0 -22 -20 -61t-44 -60zM1587 504v184q64 56 64 98v-194q0 -36 -64 -88z" />
<glyph unicode="?" horiz-adv-x="2052" d="M2 -539v2038q0 11 10.5 23t22.5 12h461q0 50 18 61q9 4 18 4h107v2v1v65q0 80 47 134t135 54q93 0 142 -53.5t49 -134.5v-65v-3h114q9 0 16 -2t11.5 -5t7.5 -9t4.5 -10t2.5 -11t1 -10v-10v-8h449q12 0 22.5 -12t10.5 -23v-2038q0 -12 -10.5 -22t-22.5 -10h-1583 q-12 0 -22.5 10t-10.5 22zM178 -379q0 -4 2 -8.5t4 -6.5l2 -3h1291q8 10 8 18v1786q0 4 -2 6t-4 2h-2h-308v-39q0 -13 -12 -23t-31 -10h-583q-19 0 -31 10t-12 23v39h-314q-8 0 -8 -8v-1786zM330 8h65v-65h-65v65zM330 199v65h65v-65h-65zM330 449v69h65v-69h-65zM330 707 v65h65v-65h-65zM330 958v68h65v-68h-65zM477 8h811v-65h-811v65zM477 199v65h811v-65h-811zM477 449v69h811v-69h-811zM477 707v65h811v-65h-811zM477 958v68h811v-68h-811zM748 1681q0 -38 22 -57.5t55 -19.5q34 0 56 21t22 56q0 31 -21 53.5t-57 22.5q-37 0 -57 -22 t-20 -54z" />
<glyph unicode="A" horiz-adv-x="1845" d="M-4 -414v1854q0 41 27.5 68.5t68.5 27.5h1354q37 0 66.5 -28t29.5 -68v-1563l-379 -387h-1071q-41 0 -68.5 27.5t-27.5 68.5zM418 268q0 -54 58 -95.5t134 -41.5q72 0 125.5 33t61.5 80q6 10 6 16v410l168 184q29 -29 73 -39q28 -7 49.5 -3t34.5 12l13 7 q-33 4 -54.5 31.5t-42.5 77.5q0 -5 7 -14q-43 88 -66 119q-86 114 -253 114h-17v-778q-39 25 -105 25q-77 0 -134.5 -41.5t-57.5 -96.5zM803 670v319q42 -6 72 -22.5t42.5 -32.5t28.5 -42.5t25 -37.5zM1077 -123v-256l342 371h-256q-39 0 -62.5 -35t-23.5 -80z" />
<glyph unicode="B" horiz-adv-x="1839" d="M-2 -412v1850q0 43 27 70.5t71 27.5h1342q41 0 68.5 -27.5t27.5 -70.5v-1563l-383 -385h-1055q-44 0 -71 27.5t-27 70.5zM358 666q0 -160 120 -280t282 -120q119 0 225 66l70 -74h121v121l-72 74q63 99 63 213q0 169 -119 288t-288 119q-164 0 -283 -119.5t-119 -287.5z M530 666q0 103 67 172t163 69q95 0 153 -49l66 66l39 -39l-64 -68q47 -59 47 -151q0 -96 -70 -164t-171 -68q-95 0 -162.5 68.5t-67.5 163.5zM705 666q0 -24 15.5 -39t39.5 -15q30 0 47.5 15t17.5 39v24l129 127l-41 41l-129 -127h-24q-25 0 -40 -17.5t-15 -47.5zM735 666 q0 12 9 21t16 9l16 -6l8 -6q7 -8 7 -18q0 -6 -10 -15.5t-21 -9.5q-6 0 -15.5 10t-9.5 15zM1077 -123v-256l342 371h-256q-39 0 -62.5 -35t-23.5 -80z" />
<glyph unicode="C" horiz-adv-x="1851" d="M0 -436v1874q0 44 27 72t71 28h1350h6q37 0 63.5 -28.5t26.5 -71.5v-1588l-373 -370h-1073q-46 0 -72 21t-26 63zM356 39h17q309 0 473 391h246v211h-156q89 196 235 196q10 0 21 -1h18v229h-10h-17q-168 0 -296 -115q-135 -121 -219 -366q-110 -326 -295 -326h-8h-9 v-219zM1077 -123v-256l342 371h-256q-39 0 -62.5 -35t-23.5 -80z" />
<glyph unicode="D" horiz-adv-x="2301" d="M4 1468q12 30 40 45q16 8 32 8q13 0 26 -5l187 -25q32 -8 57 -47l68 -322l1583 8q7 0 17 -10t22 -24.5t18 -20.5q20 -17 20 -38q0 -8 -3 -17l-74 -707q0 -32 -21.5 -52.5t-52.5 -20.5l-1202 -154l-90 -139h1317q38 0 61 -19t23 -53q0 -32 -23.5 -53t-60.5 -21l-1399 -8 q-32 0 -57 25q-25 29 -25 57v96q0 18 16 39l99 142q-277 680 -312 809q-16 56 -40 149.5t-40 159.5l-16 65l-113 35q-31 4 -47 34q-12 22 -12 46q0 9 2 18zM428 952h25l-17 -14zM428 952l293 -721l1130 140l64 581h-1487zM453 897l77 -80l109 105l-31 30h152l-33 -30 l109 -105l112 105l-35 30h156l-31 -30l107 -105l112 105l-34 30h155l-32 -30l106 -105l115 105l-35 30h154l-31 -30l108 -105l119 105l-31 30h64l-8 -80l-97 -102l72 -84l-8 -164l-64 -63l48 -58l-7 -30l-41 -11l-57 60l-67 -76l-144 -14l-90 90l-106 -115l-107 -16l18 16 l-112 115l-107 -115l31 -35l-82 -8l-98 -16l59 59l-112 115l-109 -115l74 -65l-80 -9l-66 146l25 -25l113 107l-113 114l-72 -75l-26 67l57 49l-109 113l-6 -10zM502 -385q0 54 41 95.5t96 41.5q53 0 92 -41t39 -96q0 -56 -38 -93.5t-93 -37.5q-56 0 -96.5 37.5t-40.5 93.5z M575 770l105 -108l113 108l-113 111zM582 -385q0 -20 17 -35.5t40 -15.5q19 0 34 15.5t15 35.5q0 23 -15 39t-34 16q-23 0 -40 -16t-17 -39zM727 614l109 -106l112 106l-112 113zM883 459l104 -107l117 107l-117 114zM883 770l104 -108l117 108l-117 111zM1038 614l107 -106 l112 106l-112 113zM1192 459l106 -107l113 107l-113 114zM1192 770l106 -108l113 108l-113 111zM1346 614l106 -106l115 106l-115 113zM1501 459l96 -107l125 107l-116 114zM1501 770l105 -108l116 108l-116 111zM1638 -385q0 55 38 96t93 41q54 0 96 -41.5t42 -95.5 q0 -56 -41.5 -93.5t-96.5 -37.5q-56 0 -93.5 37t-37.5 94zM1655 614l108 -106l111 106l-111 113zM1722 -385q0 -20 14.5 -35.5t32.5 -15.5q23 0 40.5 15.5t17.5 35.5q0 23 -17 39t-41 16q-18 0 -32.5 -16t-14.5 -39z" />
<glyph unicode="E" horiz-adv-x="2035" d="M111 815h1824l-430 -883h-966zM111 879v165h290q-9 -25 0 -43q1 -6 4 -11.5t5 -9t7.5 -8.5t7 -6.5t9 -7t8.5 -6.5l60 -30q6 -4 37 -4q57 0 77 38l58 88h698l55 -88q23 -38 74 -38q29 0 41 4l57 30q37 22 43 49q0 4 2 12.5t2 16t-4 14.5h293v-165h-1824zM289 688l2 -8 l61 -57l66 65l-23 23h-86zM381 496l20 -45l17 8zM395 573l72 -63l63 63l-63 66zM438 385l70 -154l-27 72l49 47l-63 66zM438 1001v9v4q-6 8 -6 17.5t6 19.5l314 493q3 8 18 14.5t25 6.5q21 0 26 -9l49 -26q31 -10 31 -35q0 -13 -8 -29l-305 -493q-10 -21 -49 -21 q-17 0 -21 4l-59 31h-8v6h-9v8h-4zM508 238l65 -66l64 66l-64 65zM508 459l65 -62l64 62l-64 73zM508 688l65 -65l70 65l-27 23h-86zM594 68l8 -31h14zM623 125l63 -62l66 62l-66 72zM623 350l63 -61l66 61l-66 66zM623 573l63 -63l66 63l-66 66zM737 238l64 -66l63 66 l-63 65zM737 459l64 -62l63 68l-63 67zM737 688l64 -65l63 65l-20 23h-88zM756 37h88l-43 45zM844 125l63 -62l68 62l-68 72zM844 350l63 -61l72 61l-72 66zM844 573l63 -63l72 63l-72 66zM958 238l64 -66l63 66l-63 65zM958 465l64 -68l63 68l-63 67zM958 688l64 -65l63 65 l-20 23h-86zM979 37h86l-43 45zM1069 125l66 -62l67 68l-67 66zM1069 350l66 -61l67 61l-67 66zM1069 573l66 -63l67 63l-67 66zM1149 1466q-7 16 -7 28q0 25 32 36l47 26q9 9 28 9q29 0 43 -21l307 -493q13 -27 7 -37v-4v-9h-7v-8h-6v-6h-8l-55 -31q-8 -4 -29 -4 q-37 0 -45 21zM1178 238l67 -66l68 66l-68 65zM1178 465l67 -68l68 68l-68 67zM1178 688l67 -65l68 65l-29 23h-76zM1202 37h82l-39 45zM1292 131l66 -68l63 62l-63 72zM1292 350l66 -61l63 61l-63 66zM1292 573l66 -63l63 63l-63 66zM1409 238l61 -66l66 66l-66 65z M1409 465l61 -68l66 68l-66 67zM1409 688l61 -65l66 65l-20 23h-89zM1427 37h17l192 409l-30 -61l-29 31l-61 -66l49 -47l-115 -240zM1516 573l61 -63l74 63l-74 66zM1626 465l16 -14l121 260l-6 -23l-22 23h-84l-25 -23l68 -65l55 57l-84 -184z" />
<glyph unicode="F" horiz-adv-x="2205" d="M2 -4h1753v-510h-1753v510zM2 37l197 723h1337l211 -723h-1745zM119 -115v-284h1493v284h-1493zM137 156h1467l-129 542h-1211zM170 -176h1382v-154h-1382v154zM193 190l20 86h184l-14 -86h-190zM199 782v179h598v120h-406v453h1004v-453h-447v-120h584v-179h-1333z M225 326l19 77h172l-10 -77h-181zM256 444l20 76h158l-12 -76h-166zM285 563l20 94h154l-13 -94h-161zM422 190l12 86h189l-9 -86h-192zM446 326l11 77h176l-6 -77h-181zM463 444l12 76h170l-6 -76h-176zM487 563l15 94h153l-6 -94h-162zM496 1204h768v219h-768v-219z M659 190l7 86h184v-86h-191zM674 324l6 77l170 2v-79h-176zM682 444l8 76h160v-76h-168zM690 563l8 94h152v-94h-160zM709 1284q0 -24 32 -24v-35h7h18v35q15 0 24 6.5t9 17.5v14q0 8 -15 17l-34 14l-9 8v6q0 9 11 9q13 0 15.5 -1.5t2.5 -7.5v-6v-8h23q3 0 4.5 2t1.5 4v2v6 q0 14 -9 23.5t-24 9.5v10v19h-23v-19v-10q-15 0 -24.5 -8t-9.5 -20v-7q0 -14 20 -26l41 -23v-8q0 -4 -2 -5t-16 -1q-17 0 -17 6v8q0 8 -6 8h-14q-3 0 -4.5 -2t-1.5 -4v-2v-8zM844 1284q0 -24 33 -24v-35h6h20v35q15 0 24 6.5t9 17.5v14q0 8 -16 17l-35 14l-8 8v6q0 9 12 9 q13 0 15.5 -1.5t2.5 -7.5v-6v-8h21q4 0 6 2t2 4v2v6q0 14 -9 23.5t-24 9.5v10v19h-24v-19v-10q-15 0 -25 -8t-10 -20v-7q0 -14 20 -26l43 -23v-8q0 -4 -2.5 -5t-15.5 -1q-19 0 -19 6v8q0 8 -6 8h-12q-4 0 -6 -2t-2 -4v-2v-8zM891 190v86h186l10 -86h-196zM891 326v77h178 l8 -77h-186zM891 444v76h164l6 -76h-170zM891 563v94h156l6 -94h-162zM903 838h551v67h-551v-67zM979 1284q0 -24 31 -24v-35h8h18v35q33 0 33 24v14q0 8 -16 17l-33 14l-10 8v6q0 9 10 9q14 0 17 -1.5t3 -7.5v-6v-8h23q3 0 4.5 2t1.5 4v2v6q0 33 -33 33v10v19h-24v-19v-10 q-14 0 -23.5 -8t-9.5 -20v-7q0 -13 18 -26l43 -23v-8q0 -4 -2.5 -5t-17.5 -1q-14 0 -14 6v8q-1 8 -9 8h-12q-3 0 -4.5 -2t-1.5 -4v-2v-8zM1087 657h152l16 -94h-161zM1102 520h162l16 -76h-170zM1110 403h174l16 -77h-182zM1118 276h189l16 -86h-197zM1278 657h156l20 -94 h-158zM1307 520h159l25 -76h-168zM1331 403h164l25 -77h-170zM1354 276h174l24 -86h-178z" />
<glyph unicode="G" horiz-adv-x="2922" d="M4 2v1542h2499v-1542h-2499zM147 180h500v262h-500v-262zM147 498h500v262h-500v-262zM147 829h500v256h-500v-256zM147 1155h500v246h-500v-246zM715 180h510v262h-510v-262zM715 498h510v262h-510v-262zM715 829h510v256h-510v-256zM715 1155h510v246h-510v-246z M1292 180h494v262h-494v-262zM1292 498h494v262h-494v-262zM1292 829h494v256h-494v-256zM1292 1155h494v246h-494v-246zM1862 180h514v260h-514v-260zM1862 500h514v256h-514v-256zM1862 834h514v247h-514v-247zM1862 1157h514v242h-514v-242z" />
<glyph unicode="H" horiz-adv-x="2842" d="M4 2v1542h2499v-1542h-2499zM147 180h500v262h-500v-262zM147 498h500v262h-500v-262zM147 829h500v256h-500v-256zM147 1155h500v246h-500v-246zM201 236v157h387v-157h-387zM201 553v158h387v-158h-387zM201 874v158h387v-158h-387zM201 1196v158h387v-158h-387z M715 180h510v262h-510v-262zM715 498h510v262h-510v-262zM715 829h510v256h-510v-256zM715 1155h510v246h-510v-246zM780 1196v158h387v-158h-387zM1292 180h494v262h-494v-262zM1292 498h494v262h-494v-262zM1292 829h494v256h-494v-256zM1292 1155h494v246h-494v-246z M1350 1196v158h387v-158h-387zM1862 180h514v260h-514v-260zM1862 500h514v256h-514v-256zM1862 834h514v247h-514v-247zM1862 1157h514v244h-514v-244zM1921 1196v158h387v-158h-387z" />
<glyph unicode="I" horiz-adv-x="2881" d="M-2 51v1432q0 20 17.5 37.5t37.5 17.5h97q25 0 40 -16.5t15 -38.5v-1432q0 -22 -15 -38.5t-40 -16.5h-97q-20 0 -37.5 17.5t-17.5 37.5zM317 242v1056q0 56 60 56h78q57 0 57 -56v-1056q0 -56 -57 -56h-78q-60 0 -60 56zM647 342v832q0 43 30.5 75.5t74.5 32.5h997 q42 0 73 -32.5t31 -75.5v-832q0 -42 -30 -68t-74 -26h-997q-45 0 -75 26t-30 68zM1989 238v1056q0 56 57 56h78q59 0 59 -56v-1056q0 -56 -59 -56h-78q-57 0 -57 56zM2296 49v1432q0 22 15 38.5t40 16.5h96q20 0 38 -17.5t18 -37.5v-1432q0 -20 -18 -37.5t-38 -17.5h-96 q-25 0 -40 16.5t-15 38.5z" />
<glyph unicode="J" horiz-adv-x="2760" d="M2 45v551q0 16 14 33.5t35 17.5h555q15 0 32 -18.5t17 -32.5v-551q0 -20 -16.5 -35.5t-32.5 -15.5h-555q-23 0 -36 14.5t-13 36.5zM2 938v551q0 16 14 33.5t35 17.5h555q15 0 32 -18.5t17 -32.5v-551q0 -20 -16.5 -35.5t-32.5 -15.5h-555q-23 0 -36 14.5t-13 36.5z M815 -6v211h1559v-211h-1559zM815 442v205h1559v-205h-1559zM815 887v211h1559v-211h-1559zM815 1335v205h1559v-205h-1559z" />
<glyph unicode="K" horiz-adv-x="2416" d="M0 45v1458q0 11 13.5 26t33.5 15h555q16 0 30.5 -15t14.5 -26v-1458q0 -19 -14 -36t-31 -17h-555q-21 0 -34 16.5t-13 36.5zM784 43v156q0 20 12.5 34.5t26.5 14.5h1188q19 0 36 -14.5t17 -34.5v-156q0 -23 -16 -36t-37 -13h-1188q-15 0 -27 13t-12 36zM784 430v412 q0 20 12.5 36.5t26.5 16.5h1188q19 0 36 -16.5t17 -36.5v-412q0 -22 -16.5 -38.5t-36.5 -16.5h-1188q-14 0 -26.5 16.5t-12.5 38.5zM784 1055v448q0 10 13 25.5t26 15.5h1188q17 0 35 -15.5t18 -25.5v-448q0 -18 -16.5 -30.5t-36.5 -12.5h-1188q-14 0 -26.5 12.5t-12.5 30.5 z" />
<glyph unicode="L" horiz-adv-x="2457" d="M0 123v1288q0 50 39 88.5t86 38.5h151v-184q0 -42 35 -72.5t78 -30.5h103q47 0 78.5 30t31.5 73v184h957v-184q0 -43 31 -74t75 -31h102q43 0 76 31.5t33 73.5v184h158q56 0 91.5 -37.5t35.5 -89.5v-1288q0 -55 -35 -89t-92 -34h-1909q-48 0 -86.5 35t-38.5 88zM133 182 q0 -43 43 -43h1825q21 0 33 12t12 31v920q0 19 -12 31t-33 12h-1825q-43 0 -43 -43v-920zM264 252h336v184h-336v-184zM264 508h336v188h-336v-188zM264 764h336v205h-336v-205zM338 1352v383q0 19 13 31t32 12h119q20 0 33.5 -12t13.5 -31v-383q0 -19 -13.5 -31t-33.5 -12 h-119q-19 0 -32 12t-13 31zM393 1479q0 -19 13.5 -32t33.5 -13t32.5 13t12.5 32q0 22 -12.5 34.5t-32.5 12.5q-21 0 -34 -13t-13 -34zM696 252h342v184h-342v-184zM696 508h342v188h-342v-188zM696 764h342v205h-342v-205zM762 1292h645v109h-645v-109zM1137 252h329v184 h-329v-184zM1137 508h329v188h-329v-188zM1137 764h329v205h-329v-205zM1561 252h335v184h-335v-184zM1561 508h335v188h-335v-188zM1561 764h335v205h-335v-205zM1614 1354v381q0 18 12.5 30.5t30.5 12.5h129q19 0 30 -12t11 -31v-381q0 -19 -11 -31t-30 -12h-129 q-18 0 -30.5 12.5t-12.5 30.5zM1675 1481q0 -19 13 -33t32 -14q20 0 34.5 14t14.5 33q0 21 -14 34t-35 13q-19 0 -32 -13t-13 -34z" />
<glyph unicode="M" horiz-adv-x="2660" d="M-6 0v1540h2382v-1540h-2382zM98 766q0 -133 50 -252.5t136 -205t205.5 -135.5t253.5 -50q124 0 237.5 43t201.5 121q83 -78 196 -121t240 -43q133 0 252 50t205 135.5t136 205t50 252.5q0 130 -50.5 251.5t-135.5 211.5t-205 144t-252 54q-124 0 -237 -49t-199 -131 q-91 82 -204.5 131t-234.5 49q-177 0 -326 -91.5t-234 -243.5t-85 -326zM166 639l53 324h88l8 -205l66 205h113l-58 -324h-65l41 254l-97 -254h-39v254h-8l-43 -254h-59zM475 705q0 46 33 72t90 26h25v20q0 13 -7 16t-34 3q-44 0 -60 -6h-6h-8l14 57q68 14 76 14 q94 0 94 -84v-43l-22 -104v-10v-21l-8 -6h-56l10 20v7l-10 -7q-25 -28 -71 -28q-60 0 -60 74zM539 715q0 -31 32 -31q20 0 32.5 19.5t12.5 46.5q-10 8 -18 8q-32 0 -45.5 -13t-13.5 -30zM678 639l14 55q25 -10 62 -10q45 0 45 31q0 15 -33 26q-28 11 -42.5 31.5t-14.5 40.5 q0 39 23 66.5t81 27.5q6 0 29.5 -4t36.5 -4l-11 -57h-49q-39 0 -39 -19q0 -15 4.5 -20t28.5 -15q26 -6 40.5 -24t14.5 -37q0 -96 -114 -96h-27h-10q-4 0 -7 2t-4 4l-1 2h-13h-14zM879 684v21v10l6 26v17l26 176h64v-35h31l-9 -63h-28l-21 -109q-8 0 -8 -12q0 -14 6 -17.5 t23 -3.5h14l-8 -55q-16 -8 -45 -8q-28 0 -39.5 12t-11.5 41zM1006 557h354q-7 -27 -41 -80h-281q-19 30 -32 80zM1006 750q0 70 31.5 113.5t86.5 43.5q43 0 68 -27t25 -77q0 -35 -11 -62h-139v-8q0 -18 14.5 -33.5t48.5 -15.5q30 0 72 21l-8 -66q-20 -8 -70 -8 q-64 0 -91 27.5t-27 91.5zM1006 989q26 53 32 84h281q4 -12 20.5 -39t20.5 -45h-354zM1032 494zM1067 418h223q-5 -7 -28.5 -37.5t-32.5 -48.5h-99q-10 15 -32.5 43.5t-30.5 42.5zM1079 797h74v16q0 18 -8 29.5t-21 11.5q-45 0 -45 -57zM1079 1135q6 11 30 38.5t34 45.5h74 q34 -39 63 -84h-201zM1217 639l47 260h65l-10 -37q39 37 53 37h10q-12 -28 -22 -76q-31 0 -43 -32.5t-27 -151.5h-73zM1372 766q0 93 45 145t117 52h25l38 -9h9l-9 -77q-26 22 -63 22q-38 0 -66 -33t-28 -86q0 -39 20 -62.5t51 -23.5q39 0 60 21l-12 -76q-25 -8 -68 -8 q-51 0 -85 37.5t-34 97.5zM1577 705q0 46 34 72t99 26h27v20q0 13 -8.5 16t-36.5 3q-52 0 -60 -6h-10h-4l4 57q13 2 41.5 8t46.5 6q90 0 90 -84q0 -20 -10 -43l-6 -104l-8 -10v-21v-6h-54v20v7v-7q-32 -28 -82 -28q-27 0 -45 20.5t-18 53.5zM1640 715q0 -13 11.5 -22 t19.5 -9q22 0 38.5 20t16.5 46q-2 4 -6 6t-7 2h-3q-37 0 -53.5 -13t-16.5 -30zM1800 639l49 260h56l-13 -37h13q21 37 53 37h20q-27 -37 -41 -76h-8q-19 0 -31 -34t-32 -150h-66zM1937 741q0 64 32.5 115t80.5 51q34 0 66 -37v-8v8l18 93h70l-58 -324h-67l8 20v7l-8 -7 q-25 -28 -54 -28q-42 0 -65 30t-23 80zM2005 750q0 -24 11.5 -40t23.5 -16q55 0 55 94q0 54 -35 54q-21 0 -38 -27t-17 -65z" />
<glyph unicode="N" horiz-adv-x="2902" d="M-6 -477v1724q0 41 28 65.5t68 24.5h121v-1908h-121q-39 0 -67.5 27t-28.5 67zM317 -571v2021q0 36 26 64t63 28h2000q37 0 67 -28.5t30 -63.5v-1927q0 -40 -29.5 -67t-67.5 -27h-2089zM500 53v-233h325v233h-325zM500 451h325v247h-325v-247zM500 903h1792v494h-1792 v-494zM621 1277q4 1 6.5 1h5.5t5.5 -1t4.5 -3q9 -17 10.5 -23.5t1.5 -31.5v-103v-74q-4 -7 -6 -13.5t-2.5 -8.5t-2.5 -3t-7 -1v-29h108v29q-30 0 -40.5 5t-10.5 21v74l-2 117l201 -242h37v185v84q0 12 6 14t35 2v29h-125v-29q13 0 20 -1t15 -6t12 -16v-77v-111l-199 240h-67 l-13 -19q-3 -6 -3 -8t10 -1zM971 266h1321v432h-1321v-432zM973 57v-428h1319v428h-1319zM1083 997h244q0 1 2 15.5t4 31t2 21.5h-8q-30 -42 -31 -43q-1 -4 -51 -4h-63v35v88h39q31 0 38 -4.5t7 -28.5h20v98h-20q0 -24 -8.5 -32.5t-36.5 -8.5h-39v90q0 14 2 16.5t14 2.5h35 q39 0 51 -14q1 -2 2 -3t2 -1t1.5 -0.5t1 -1.5l2 -4l3.5 -7h15v62h-215v-19q32 0 37.5 -5.5t5.5 -37.5v-190q0 -26 -7 -32t-49 -15v-9zM1434 1286q9 0 14.5 -9t15.5 -34q11 -32 38 -120t44 -138h19q8 0 77 234q21 -75 87 -234h14q65 190 84 258q9 24 19 33.5t30 9.5v14h-107 v-14q20 0 24.5 -7.5t4.5 -27.5q0 -1 -11 -45t-21.5 -78.5t-22.5 -62.5q-63 177 -80 229h-25q-10 -43 -33 -122t-30 -107q-10 25 -59 186v13t1.5 9t4 7.5t8 3.5t14.5 2v14h-110v-14zM1976 1075q0 -13 4.5 -42.5t4.5 -31.5t32 -2q10 0 20.5 -7t22.5 -7q44 0 71.5 27t27.5 63 q0 25 -12.5 44t-25.5 28t-40 24q-51 26 -51 72q0 51 51 51q12 0 21 -4t15.5 -13t10 -14.5t8 -17t4.5 -12.5h8q0 37 -6 55q-10 21 -67 21q-45 0 -66.5 -24.5t-21.5 -65.5q0 -22 14 -41.5t24 -26.5t35 -23q32 -16 47 -33t15 -42q0 -18 -15 -32.5t-36 -14.5q-54 0 -84 69h-11z " />
<glyph unicode="O" horiz-adv-x="3033" d="M0 -123h152l245 463h-102v121h-68v-135h-75v135h-152v-74v-510zM276 -109l332 -124l-131 -146l-192 74zM285 -379l123 -49l-123 -100v149zM307 -41l529 1012l333 -152l-524 -991zM809 -123l252 584h61v-123h70v123h74v-201h69v201h70v-125h86v125h74v-197h69v172h78 l156 -559h-1059zM889 1063l72 160q14 30 39 37t43 -1l18 -8l194 -96q20 -8 30 -21t10 -26.5t-2.5 -26t-6.5 -20.5l-4 -8l-70 -144zM1358 1532h1q5 0 15 -6q12 -6 72 -76t149 -199l684 -1177l-268 -172l-125 260l-446 993q-18 39 -35 91t-28 100t-19 92q-7 42 -7 65 q0 26 7 29zM2042 -162q13 -80 41 -143t63.5 -101t78 -64.5t86 -36.5t85.5 -14q20 -2 39 -2q21 1 41 3q37 4 65.5 9t44.5 10l17 5q-2 0 -5.5 1t-14.5 4.5t-21 8t-23 14t-23 21t-19 29.5t-13.5 39.5t-3 50.5t9.5 62q7 32 7 59q-1 27 -7 49q-12 46 -41.5 75t-60.5 47t-54 25 l-24 7zM2218 340l178 -272l207 -191h70v572h-142v-109h-69l-11 109h-75v-109h-158z" />
<glyph unicode="P" horiz-adv-x="3053" d="M-8 186l129 564h276q33 0 62.5 -10.5t54.5 -33.5q26 -24 34 -60q4 -16 3 -34q0 -24 -6 -53q-15 -85 -81 -137.5t-153 -52.5h-118l-43 -183h-158zM213 485h86q35 0 60.5 21t25.5 53q14 31 -2.5 52.5t-50.5 21.5h-76zM512 328q16 83 90.5 116t210.5 33q5 30 -15.5 45 t-58.5 8q-73 0 -151 -34l12 116q90 21 168 21q46 0 81 -5.5t67 -20.5q30 -15 42 -46q6 -15 6 -34t-6 -42l-61 -299h-149l10 43q-28 -32 -76 -46q-31 -9 -60 -9q-16 0 -31 2q-44 8 -69 48q-16 25 -16 59q0 21 6 45zM662 338q-6 -11 -6 -22q0 -14 9 -24q16 -20 42 -20 q55 0 73 66q0 4 5.5 14t5.5 17h-43q-63 0 -86 -31zM981 -10h170l352 643h-151l-146 -264l-20 264h-164l65 -457zM1450 186l125 564h280q34 0 64 -10.5t55 -33.5q24 -24 32 -60q3 -15 3 -33q0 -25 -6 -54q-15 -86 -80 -138t-156 -52h-112l-45 -183h-160zM1686 485h75 q30 0 57.5 21t36.5 53q7 32 -12 53t-53 21h-74zM1970 328q18 83 94.5 116t216.5 33q9 30 -14 45q-16 10 -43 10q-13 0 -29 -2q-37 0 -83.5 -12t-63.5 -22l18 116q86 21 172 21q25 0 46.5 -1.5t45 -5.5t40.5 -11t33 -18.5t22.5 -27t9.5 -36.5t-6 -48l-64 -299h-149l10 43 q-32 -32 -80 -46q-31 -9 -60 -9q-16 0 -31 2q-43 8 -69 48q-19 29 -19 70q0 16 3 34zM2120 338q-7 -12 -7 -23q-1 -13 7 -23q14 -20 43 -20q70 0 88 66q0 19 10 31h-45q-76 0 -96 -31zM2429 186l129 564h160l-127 -564h-162z" />
<glyph unicode="Q" horiz-adv-x="2357" d="M0 39v502q0 19 11 30t30 11h498q14 0 28.5 -12t14.5 -29v-502q0 -16 -14.5 -27.5t-28.5 -11.5h-498q-19 0 -30 11t-11 28zM0 817v496q0 12 12 26.5t29 14.5h498q12 0 27.5 -15t15.5 -26v-496q0 -19 -14.5 -31t-28.5 -12h-498q-19 0 -30 11.5t-11 31.5zM713 39v502 q0 19 11 30t30 11h497q14 0 28.5 -12t14.5 -29v-502q0 -16 -14.5 -27.5t-28.5 -11.5h-497q-19 0 -30 11t-11 28zM713 817v496q0 12 12 26.5t29 14.5h497q12 0 27.5 -15t15.5 -26v-496q0 -19 -14.5 -31t-28.5 -12h-497q-19 0 -30 11.5t-11 31.5zM1415 39v502q0 19 11 30 t30 11h498q14 0 28.5 -12t14.5 -29v-502q0 -16 -14.5 -27.5t-28.5 -11.5h-498q-19 0 -30 11t-11 28zM1415 817v496q0 12 12 26.5t29 14.5h498q12 0 27.5 -15t15.5 -26v-496q0 -19 -14.5 -31t-28.5 -12h-498q-19 0 -30 11.5t-11 31.5z" />
<glyph unicode="R" horiz-adv-x="2351" d="M-2 0v199h2050v-199h-2050zM-2 381v192h2050v-192h-2050zM-2 762v192h2050v-192h-2050zM-2 1145v196h2050v-196h-2050z" />
<glyph unicode="S" horiz-adv-x="2363" d="M2 606h74l205 520q11 23 43 23l526 145v25q0 87 78 141l-21 70q-6 14 0 31.5t21 27.5q5 2 11 2q9 0 18 -5q16 -9 26 -25l25 -76h8q55 0 100 -28.5t62 -74.5l534 148h10q26 0 41 -21l205 -526h80q0 -70 -97 -131t-229 -61q-128 0 -224.5 61.5t-96.5 130.5h72l176 447 l-463 -127q-6 -56 -38.5 -98.5t-84.5 -55.5v-895h115q30 0 47.5 -20.5t17.5 -49.5v-10h496q52 0 92.5 -45t40.5 -104v-25h-1702v25q0 58 41 103.5t94 45.5h498v10q0 29 17 49.5t46 20.5h101v905q-37 9 -84 53l-506 -133l192 -473h88q-6 -75 -102.5 -136.5t-222.5 -61.5 q-129 0 -229.5 62t-100.5 136zM147 606h345l-168 424zM938 1319q0 -38 22 -63t56 -25q38 0 63 25t25 63q0 36 -25.5 63t-62.5 27q-33 0 -55.5 -27t-22.5 -63zM1544 983h346l-168 428z" />
<glyph unicode="T" horiz-adv-x="2144" d="M2 0v582l424 690h999l414 -690h-2v-582h-1835zM74 575h694v-8v-186q0 -27 18.5 -46.5t44.5 -19.5h195q26 0 45 20t19 46v180v14h679l-366 633h-957zM246 772h1360v-123h-578v-211q0 -29 -18.5 -47t-46.5 -18h-70q-28 0 -46 18t-18 47v211h-575v123h-8zM383 846h1085v108 h-1085v-108zM518 1016h828v125h-828v-125z" />
<glyph unicode="U" horiz-adv-x="2189" d="M-8 -4v584l422 690h309v-53h-287l-364 -637h676v-13v-233q0 -26 22.5 -47t50.5 -21h221q26 0 46 21t20 47v233v13h670l-373 637h-272v53h297l421 -690h9v-584h-1868zM483 1073h299v459v8h17h260q14 0 14 -8v-459h295l-434 -479h-6h-6h-7z" />
<glyph unicode="V" horiz-adv-x="2351" d="M-2 -2v315h2056v-315h-2056zM-2 1026v309h2056v-309h-2056zM197 918v4h219q25 0 39.5 -18t16.5 -36l1 -18l55 -279l11 -8v8l135 349h129l-211 -504h-133q-115 428 -115 434t-67 37t-80 31zM786 416l80 504h125l-84 -504h-121zM1010 424l14 104q51 -28 127 -28q92 0 92 53 q0 37 -69 80q-117 51 -117 129q0 46 23.5 81t59.5 52.5t70 26t64 8.5q89 0 123 -21l-17 -100q-57 25 -114 25q-27 0 -47 -11.5t-27 -22.5l-6 -12q0 -20 9.5 -32t38 -29t32.5 -20q59 -30 77 -47q31 -31 31 -78q0 -113 -90 -158q-60 -18 -133 -18q-29 0 -62.5 4.5t-55.5 9 t-23 4.5zM1380 418q6 18 94.5 220t96.5 232q8 22 22.5 34.5t25.5 13.5l11 2h115l110 -502h-120l-9 61h-188l-22 -61h-136zM1571 582h129l-41 196l-4 19v-19z" />
<glyph unicode="W" horiz-adv-x="2457" d="M-2 406v59q0 89 61.5 166.5t143.5 89.5q20 89 116.5 146t223.5 57h37q61 139 204 241.5t308 102.5q174 0 312.5 -87t199.5 -220h18q126 0 227 -84t123 -181q90 -8 155.5 -75.5t65.5 -155.5v-59q0 -99 -73 -182t-168 -83h-699v135h170q43 0 62 19q8 8 8 33q0 26 -8 34 l-334 367q-27 27 -51 27q-33 0 -60 -27l-325 -367q-17 -8 -17 -34q0 -24 11 -33q15 -19 59 -19h170v-135h-702q-93 0 -165.5 83t-72.5 182zM774 340l318 346h8l315 -346h-225v-336h-4h-10h-154h-16v336h-232z" />
<glyph unicode="X" horiz-adv-x="2457" d="M0 401v62q0 93 60.5 169.5t144.5 86.5q20 90 118 148.5t226 58.5h37q59 137 203 240.5t309 103.5q174 0 314.5 -88t201.5 -221h14q128 0 227 -83.5t130 -187.5q90 -5 155.5 -70.5t65.5 -156.5v-62q0 -99 -74.5 -185.5t-167.5 -86.5h-600l139 197q19 19 19 34q0 5 -5.5 17 t-5.5 16q-13 13 -59 13h-172v272q0 40 -35 59q-15 11 -53 11h-152q-20 0 -53 -11q-24 -15 -24 -59v-272h-172h-12.5h-12t-10 -0.5t-10 -2t-8.5 -4t-9 -6.5q-16 -16 -16 -33q0 -18 16 -34l137 -197h-626q-93 0 -166.5 86.5t-73.5 185.5zM799 344h229v340h12h158h16v-340h226 l-318 -346h-6h-10z" />
<glyph unicode="Y" horiz-adv-x="2467" d="M-2 399v62q0 90 58 166t139 88q20 92 116.5 150.5t225.5 58.5h36q68 140 210.5 241t310.5 101q170 0 312 -88t200 -220h18q124 0 224 -84.5t120 -183.5q91 -6 157 -73t66 -156v-62q0 -98 -72 -180t-167 -82h-1723q-94 0 -162.5 81.5t-68.5 180.5zM727 367l8 -21h8h19 l51 62q76 -72 145 -103h9q41 -14 112 -14q88 0 144 22q70 33 119 94t69 138q6 13 6 21.5t-6 23.5q-29 22 -33 24h-12q-36 0 -49 -45q-7 -49 -60 -102q0 -3 -2 -4.5t-4 -1.5h-2q-71 -68 -170 -68q-61 0 -88 6q-60 26 -100 78q-10 0 -10 10l59 41q10 8 10 27l-18 6h-189 q-6 0 -11 -4t-5 -10v-180zM735 715q-2 -7 -2 -14q0 -13 7 -25q12 -19 36 -19q0 -10 10 -10q39 0 52 43q11 64 59 115q79 76 182 76q19 0 76 -17q73 -32 109 -76l-60 -61v-20q11 -9 19 -9h180q24 0 24 19v182q0 6 -5 10t-11 4h-8h-10l-52 -57q-64 64 -145 102h-8q-4 0 -5 1.5 t-1 7.5q-79 18 -103 18q-63 0 -147 -37q-75 -30 -125.5 -91t-71.5 -142z" />
<glyph unicode="Z" horiz-adv-x="2457" d="M-4 403v62q0 92 57.5 169t139.5 89q20 91 118.5 150t227.5 59h34q63 138 208.5 241t316.5 103q168 0 308.5 -88.5t207.5 -222.5h18q122 0 223 -85.5t123 -183.5q89 -5 156.5 -73t67.5 -158v-62q0 -98 -74 -180t-170 -82h-1731q-94 0 -162.5 81.5t-68.5 180.5zM807 629 q0 -32 22 -55t54 -23h121v-127q0 -32 30.5 -55t63.5 -23t56.5 22.5t23.5 55.5v127h125q35 0 57 22.5t22 55.5q0 36 -22.5 66t-56.5 30h-125v111q0 38 -23 61t-57 23t-64 -23.5t-30 -60.5v-111h-121q-31 0 -53.5 -30.5t-22.5 -65.5z" />
<glyph unicode="[" horiz-adv-x="2041" d="M2 -539v2038q0 11 10.5 23t22.5 12h457q0 50 18 61q9 4 18 4h111v2v1v65q0 80 47 134t135 54q93 0 142 -53.5t49 -134.5v-65v-3h114q9 0 16 -2t11.5 -5t7.5 -9t4.5 -10t2.5 -11t1 -10v-10v-8h449q12 0 22.5 -12t10.5 -23v-2038q0 -12 -10.5 -22t-22.5 -10h-1583 q-12 0 -22.5 10t-10.5 22zM178 -379q0 -4 2 -8.5t4 -6.5l2 -3h1291q8 10 8 18v1786q0 4 -2 6t-4 2h-2h-308v-39q0 -13 -12 -23t-31 -10h-587q-19 0 -31 10t-12 23v39h-310q-8 0 -8 -8v-1786zM458 469q0 28 19 47l64 62q20 20 46.5 20t45.5 -20l102 -105l320 320 q20 19 48.5 19t47.5 -19l61 -62q20 -20 20 -48.5t-20 -47.5l-426 -428q-19 -19 -48 -19t-48 19l-4 8q0 4 -8 4l-201 203q-19 19 -19 47zM748 1681q0 -38 22 -57.5t55 -19.5q34 0 56 21t22 56q0 31 -21 53.5t-57 22.5q-37 0 -57 -22t-20 -54z" />
<glyph unicode="]" horiz-adv-x="2041" d="M2 -539v2038q0 11 10.5 23t22.5 12h457q0 50 18 61q9 4 18 4h111v2v1v65q0 80 47 134t135 54q93 0 142 -53.5t49 -134.5v-65v-3h114q9 0 16 -2t11.5 -5t7.5 -9t4.5 -10t2.5 -11t1 -10v-10v-8h449q12 0 22.5 -12t10.5 -23v-2038q0 -12 -10.5 -22t-22.5 -10h-1583 q-12 0 -22.5 10t-10.5 22zM178 -379q0 -4 2 -8.5t4 -6.5l2 -3h1291q8 10 8 18v1786q0 4 -2 6t-4 2h-2h-308v-39q0 -13 -12 -23t-31 -10h-587q-19 0 -31 10t-12 23v39h-310q-8 0 -8 -8v-1786zM512 264q0 47 37 78l139 145l-135 134q-37 38 -37 85.5t37 81.5q34 37 84 37 t84 -37l133 -135l135 135q31 37 81 37t85 -37q37 -34 37 -81.5t-37 -85.5l-133 -134l137 -145q37 -31 37 -78t-37 -88q-35 -31 -85 -31t-81 31l-139 146l-137 -146q-34 -31 -84 -31t-84 31q-37 41 -37 88zM748 1681q0 -38 22 -57.5t55 -19.5q34 0 56 21t22 56q0 31 -21 53.5 t-57 22.5q-37 0 -57 -22t-20 -54z" />
<glyph unicode="^" horiz-adv-x="2562" d="M-2 16v162h10h565h7v-162h-7h-565h-10zM-2 -127h10h565h7v-180h-7h-565h-10v180zM-2 338v160h582v-160h-582zM-2 -446h10h565h7v-134h-7h-565h-10v134zM-2 655v164h582v-164h-582zM-2 954v584h582v-584h-582zM762 954v584h581v-584h-1h-1h-1h-1h-1h-1h-1h-1h-1h-1h-1h-1 h-1h-1h-1h-1h-1h-1h-1h-1h-1h-1h-1h-1h-1h-1h-1h-1h-1h-1h-1h-1h-1h-1h-1h-1h-1h-1h-1h-1h-1h-1h-1h-1h-1h-1h-1h-1h-1h-1h-1h-1h-1h-1h-1h-1h-1h-1h-1h-1h-1h-1h-1h-1h-1h-1h-1h-1h-1h-1h-1h-1h-1h-1h-1h-1h-1h-1h-1h-1h-1h-1h-1h-1h-1h-1h-1h-1h-1h-1h-1h-1h-1h-1h-1h-1 h-1h-1h-1h-1h-1h-1h-1h-1h-1h-1h-1h-1h-1h-1h-1h-1h-1h-1h-1h-1h-1h-1h-1h-1h-1h-1h-1h-1h-1h-1h-1h-1h-1h-1h-1h-1h-1h-1h-1h-1h-1h-1h-1h-1h-1h-1h-1h-1h-1h-1h-1h-1h-1h-1h-1h-1h-1h-1h-1h-1h-1h-1h-1h-1h-1h-1h-1h-1h-1h-1h-1h-1h-1h-1h-1h-1h-1h-1h-1h-1h-1h-1h-1h-1 h-1h-1h-1h-1h-1h-1h-1h-1h-1h-1h-1h-1h-1h-1h-1h-1h-1h-1h-1h-1h-1h-1h-1h-1h-1h-1h-1h-1h-1h-1h-1h-1h-1h-1h-1h-1h-1h-1h-1h-1h-1h-1h-1h-1h-1h-1h-1h-1h-1h-1h-1h-1h-1h-1h-1h-1h-1h-1h-1h-1h-1h-1h-1h-1h-1h-1h-1h-1h-1h-1h-1h-1h-1h-1h-1h-1h-1h-1h-1h-1h-1h-1h-1h-1 h-1h-1h-1h-1h-1h-1h-1h-1h-1h-1h-1h-1h-1h-1h-1h-1h-1h-1h-1h-1h-1h-1h-1h-1h-1h-1h-1h-1h-1h-1h-1h-1h-1h-1h-1h-1h-1h-1h-1h-1h-1h-1h-1h-1h-1h-1h-1h-1h-1h-1h-1h-1h-1h-1h-1h-1h-1h-1h-1h-1h-1h-1h-1h-1h-1h-1h-1h-1h-1h-1h-1h-1h-1h-1h-1h-1h-1h-1h-1h-1h-1h-1h-1h-1 h-1h-1h-1h-1h-1h-1h-1h-1h-1h-1h-1h-1h-1h-1h-1h-1h-1h-1h-1h-1h-1h-1h-1h-1h-1h-1h-1h-1h-1h-1h-1h-1h-1h-1h-1h-1h-1h-1h-1h-1h-1h-1h-1h-1h-1h-1h-1h-1h-1h-1h-1h-1h-1h-1h-1h-1h-1h-1h-1h-1h-1h-1h-1h-1h-1h-1h-1h-1h-1h-1h-1h-1h-1h-1h-1h-1h-1h-1h-1h-1h-1h-1h-1h-1 h-1h-1h-1h-1h-1h-1h-1h-1h-1h-1h-1h-1h-1h-1h-1h-1h-1h-1h-1h-1h-1h-1h-1h-1h-1h-1h-1h-1h-1h-1h-1h-1h-1h-1h-1h-1h-1h-1h-1h-1h-1h-1h-1h-1h-1h-1h-1h-1h-1h-1h-1h-1h-1h-1h-1h-1h-1h-1h-1h-1h-1h-1h-1h-1h-1h-1h-1h-1h-1h-1h-1h-1h-1h-1h-1h-1h-1h-1h-1h-1h-1h-1h-1h-1 h-1h-1h-1h-1h-1h-1h-1h-1h-1h-1h-1h-1h-1h-1h-1h-1h-1h-1h-1h-1h-1h-1h-1h-1h-1h-1h-1h-1h-1h-1h-1h-1h-1h-1h-1h-1h-1h-1h-1h-1h-1h-1h-1h-1h-1h-1h-1h-1h-1h-1h-1h-1h-1h-1h-1h-10zM768 16v162h16h549h6v-162h-6h-549h-16zM768 -127h16h549h6v-180h-6h-549h-16v180z M768 338v160h16h549h6v-160h-6h-549h-16zM768 -446h16h549h6v-134h-6h-549h-16v134zM768 655v164h571v-164h-571zM1528 16v162h16h545h16v-162h-16h-545h-16zM1528 -127h16h545h16v-180h-16h-545h-16v180zM1528 338v160h16h545h16v-160h-16h-545h-16zM1528 -446h16h545h16 v-134h-16h-545h-16v134zM1528 655v164h577v-164h-577zM1528 954v584h581v-584h-1h-1h-1h-1h-1h-1h-1h-1h-1h-1h-1h-1h-1h-1h-1h-1h-1h-1h-1h-1h-1h-1h-1h-1h-1h-1h-1h-1h-1h-1h-1h-1h-1h-1h-1h-1h-1h-1h-1h-1h-1h-1h-1h-1h-1h-1h-1h-1h-1h-1h-1h-1h-1h-1h-1h-1h-1h-1h-1h-1 h-1h-1h-1h-1h-1h-1h-1h-1h-1h-1h-1h-1h-1h-1h-1h-1h-1h-1h-1h-1h-1h-1h-1h-1h-1h-1h-1h-1h-1h-1h-1h-1h-1h-1h-1h-1h-1h-1h-1h-1h-1h-1h-1h-1h-1h-1h-1h-1h-1h-1h-1h-1h-1h-1h-1h-1h-1h-1h-1h-1h-1h-1h-1h-1h-1h-1h-1h-1h-1h-1h-1h-1h-1h-1h-1h-1h-1h-1h-1h-1h-1h-1h-1h-1 h-1h-1h-1h-1h-1h-1h-1h-1h-1h-1h-1h-1h-1h-1h-1h-1h-1h-1h-1h-1h-1h-1h-1h-1h-1h-1h-1h-1h-1h-1h-1h-1h-1h-1h-1h-1h-1h-1h-1h-1h-1h-1h-1h-1h-1h-1h-1h-1h-1h-1h-1h-1h-1h-1h-1h-1h-1h-1h-1h-1h-1h-1h-1h-1h-1h-1h-1h-1h-1h-1h-1h-1h-1h-1h-1h-1h-1h-1h-1h-1h-1h-1h-1h-1 h-1h-1h-1h-1h-1h-1h-1h-1h-1h-1h-1h-1h-1h-1h-1h-1h-1h-1h-1h-1h-1h-1h-1h-1h-1h-1h-1h-1h-1h-1h-1h-1h-1h-1h-1h-1h-1h-1h-1h-1h-1h-1h-1h-1h-1h-1h-1h-1h-1h-1h-1h-1h-1h-1h-1h-1h-1h-1h-1h-1h-1h-1h-1h-1h-1h-1h-1h-1h-1h-1h-1h-1h-1h-1h-1h-1h-1h-1h-1h-1h-1h-1h-1h-1 h-1h-1h-1h-1h-1h-1h-1h-1h-1h-1h-1h-1h-1h-1h-1h-1h-1h-1h-1h-1h-1h-1h-1h-1h-1h-1h-1h-1h-1h-1h-1h-1h-1h-1h-1h-1h-1h-1h-1h-1h-1h-1h-1h-1h-1h-1h-1h-1h-1h-1h-1h-1h-1h-1h-1h-1h-1h-1h-1h-1h-1h-1h-1h-1h-1h-1h-1h-1h-1h-1h-1h-1h-1h-1h-1h-1h-1h-1h-1h-1h-1h-1h-1h-1 h-1h-1h-1h-1h-1h-1h-1h-1h-1h-1h-1h-1h-1h-1h-1h-1h-1h-1h-1h-1h-1h-1h-1h-1h-1h-1h-1h-1h-1h-1h-1h-1h-1h-1h-1h-1h-1h-1h-1h-1h-1h-1h-1h-1h-1h-1h-1h-1h-1h-1h-1h-1h-1h-1h-1h-1h-1h-1h-1h-1h-1h-1h-1h-1h-1h-1h-1h-1h-1h-1h-1h-1h-1h-1h-1h-1h-1h-1h-1h-1h-1h-1h-1h-1 h-1h-1h-1h-1h-1h-1h-1h-1h-1h-1h-1h-1h-1h-1h-1h-1h-1h-1h-1h-1h-1h-1h-1h-1h-1h-1h-1h-1h-1h-1h-1h-1h-1h-1h-1h-1h-1h-1h-1h-1h-1h-1h-1h-1h-1h-1h-1h-1h-1h-1h-1h-1h-1h-1h-1h-1h-1h-1h-1h-1h-1h-1h-1h-1h-1h-1h-1h-1h-1h-1h-1h-1h-1h-1h-1h-1h-1h-1h-1h-1h-1h-1h-1h-1 h-1h-1h-1h-1h-1h-1h-1h-10z" />
<glyph unicode="_" horiz-adv-x="2015" d="M215 115v174h78v1460h639v98h125v-98h639v-1460h78v-174h-512l221 -621h-125l-127 359l-174 -234v-260h-125v270l-174 224l-127 -349h-125l223 611h-514zM399 387l203 434l117 -194l104 280l234 -65l168 338l-119 67l280 127l31 -311l-108 67l-203 -415l-223 59 l-144 -368l-116 202l-136 -319h1104v1353h-1192v-1255zM786 -90l146 -193v193h-146zM795 -39h137v154h-78zM1057 -39h137l-59 154h-78v-154zM1057 -90v-203l147 203h-147z" />
<glyph unicode="a" d="M2 70v1398q0 30 22.5 49t55.5 19h1997h34q33 0 55.5 -19t22.5 -49v-1398q0 -30 -22.5 -49t-55.5 -19h-395v68l70 -2v67v64l-258 2v-56v-75h71v-68h-1032v68h64v75v58h-240l2 -58v-75h72v-68h-385q-33 0 -55.5 19t-22.5 49zM129 401q0 -33 18.5 -55t49.5 -22h888 q29 0 48.5 22.5t19.5 54.5v934q0 32 -19.5 53t-48.5 21h-888q-32 0 -50 -20.5t-18 -53.5v-934zM260 543v8q5 11 22 66.5t21 62.5q18 44 55 53q10 0 38 4t40 4q54 15 68 15l10 10q7 7 16 32.5t9 45.5q-2 2 -9.5 8t-10.5 9t-8 10t-8 16.5t-5 21.5q-19 97 -19 123 q-14 28 -14 60q0 16 3 32t14 47t42.5 54.5t79.5 31.5q0 6 1 7.5t7 1.5h45l9 -9q133 -22 133 -165q0 -26 -21 -60q0 -82 -8 -123q-5 -15 -11.5 -26.5t-11.5 -16.5t-13 -12t-11 -10q0 -21 9 -46.5t18 -31.5q0 -10 6 -10q24 0 75 -15q13 0 36.5 -4t31.5 -4q15 -3 26.5 -9.5 t16.5 -12t13 -16t12 -15.5q2 -6 14 -61t18 -68h9v-8q-6 -10 -23 -21.5t-27 -11.5h-10q-3 0 -52.5 2t-124.5 4t-140 2q-67 0 -143 -2t-125 -4t-52 -2h-8q-11 0 -27 12t-16 21zM1282 881q0 -73 28.5 -145t75.5 -130q74 -74 142.5 -112.5t163.5 -38.5t176 34q88 23 153 82 l-34 60l-19 -8q-35 -35 -92 -58q-67 -33 -176 -33q-46 0 -87 14.5t-61 28t-67 48.5q-60 44 -96.5 111t-36.5 140q0 120 116 236q51 51 108.5 74.5t143.5 23.5q98 0 166 -32q117 -58 117 -201q0 -108 -35 -160q-56 -59 -92 -59q-10 0 -33 18q-10 6 -10 35v14q6 4 11 20t9 23 l58 226h-90l-17 -68q-10 23 -35 51q-12 13 -35.5 24t-47.5 11q-79 0 -152 -86q-66 -75 -66 -176q0 -77 41 -115q56 -53 109 -53q39 0 102 45q3 4 14.5 14.5t18 20t10.5 20.5v-6v-8q0 -21 23 -57q29 -29 76 -29q41 0 77.5 21.5t81.5 64.5q64 89 64 201q0 156 -107 233 q-104 78 -268 78q-98 0 -165 -27t-138 -92q-125 -132 -125 -278zM1587 844q0 70 31 123q35 65 92 65q33 0 45 -18q14 -6 14 -39q0 -64 -34 -131q-20 -45 -41.5 -66.5t-51.5 -21.5q-18 0 -40 18q-15 15 -15 70z" />
<glyph unicode="b" horiz-adv-x="2246" d="M0 -6v1546h137v-1546h-137zM205 -6v1546h49v-1546h-49zM399 338v1202h187v-1202h-187zM406 92q0 28 2 45.5t9 37t23 29t41 9.5q67 0 70 -57h-37q0 18 -33 18q-8 0 -19 -4.5t-11 -13.5v-41q13 22 38 22q39 0 54 -22q16 -16 16 -54q0 -33 -22 -54t-56 -21q-35 0 -55 32 t-20 74zM451 61q0 -36 30 -36q35 0 35 41q0 38 -35 38q-30 0 -30 -43zM600 -6v39q3 18 51.5 54t48.5 56q0 31 -24 31q-23 0 -30 -9t-5 -28h-41q0 76 76 76q28 0 50 -20t22 -50q0 -17 -13 -39l-78 -71h91v-39h-148zM641 338v1202h66v-1202h-66zM778 39v39l82 135h55v-143h21 v-31h-21v-45h-47v45h-90zM817 70h51v98zM829 338v1202h127v-1202h-127zM1075 168v39h150v-33q-21 -31 -28.5 -42t-22.5 -39t-20 -51.5t-3 -47.5h-47q-1 5 -1 10q-1 31 21 76q24 52 54 88h-103zM1083 338v1202h68v-1202h-68zM1214 338v1202h70v-1202h-70zM1262 -6v39 q3 12 20 27t35.5 27t33.5 27.5t15 28.5q0 31 -29 31q-34 0 -28 -37h-47q0 36 19.5 56t55.5 20q30 0 52 -20t22 -50q0 -14 -6 -26t-6 -13l-80 -71h92v-39h-149zM1423 338v1202h176v-1202h-176zM1446 61h43q-1 -13 7.5 -24.5t19.5 -11.5q43 0 43 28q0 21 -23 33h-33v35h33 q12 12 12 35q0 8 -9.5 13t-18.5 5q-18 0 -24.5 -6.5t-6.5 -24.5h-39q-2 31 16.5 50.5t53.5 19.5q25 0 43.5 -12.5t23.5 -28.5q5 -8 3 -32.5t-23 -30.5q30 0 30 -58q1 -30 -21 -47.5t-56 -17.5q-37 0 -53 19t-21 56zM1739 -6v1546h229v-1546h-229z" />
<glyph unicode="c" horiz-adv-x="1349" d="M-2 408q0 78 27 176.5t77.5 197t115.5 181t150 134.5t171 52q106 0 209 -79t174 -194t115 -242t44 -226q0 -126 -73.5 -223.5t-196.5 -149t-272 -51.5q-151 0 -273.5 51.5t-195 149t-72.5 223.5zM264 1462q-29 21 -29 36q0 19 50 28q21 4 53 6h8q33 0 109 -28 q86 -32 114 -31q27 0 74 28q42 25 72 25h6q68 -6 90 -22q8 -6 8 -15q0 -15 -22 -39q-55 -44 -97 -101.5t-69.5 -104.5t-46.5 -64q-9 -5 -16.5 -5t-18 2.5t-19.5 2.5q-13 0 -24.5 -1.5t-16.5 -3t-10 -0.5t-10 5q-20 20 -46 68.5t-65 107.5t-94 106zM365 434q0 -37 35.5 -65.5 t101.5 -32.5v-80q0 -12 14 -12h39q10 0 12 4t2 16v78q127 23 127 107v47q-11 59 -86 79l-133 48q-13 0 -23 9.5t-10 29.5v16q-6 20 15.5 31.5t60.5 11.5q84 0 84 -39v-27q0 -12 21 -12h45q12 0 12 19v20q0 38 -31.5 66t-95.5 34v78q0 21 -16 21l-43 -9q-13 0 -13 -12v-78 q-60 -11 -89 -43t-29 -71v-25q0 -32 21.5 -57.5t49.5 -30.5l133 -47q45 -7 45 -39v-20q0 -46 -84 -52q-84 0 -94 45v23q0 10 -14 10h-45q-8 0 -10 -4t-2 -16v-21z" />
<glyph unicode="d" horiz-adv-x="2441" d="M-12 731q59 -20 168 -20l272 -633q25 -3 56 -2q124 0 346 44q278 56 495 177q157 87 357 135q137 33 235 34q44 0 80 -7q59 -143 71 -184t17 -52q-3 3 -9.5 7.5t-35.5 13.5q-28 8 -66 12q-16 2 -40 2q-29 0 -68 -2q-70 -4 -154 -21t-210.5 -55t-272.5 -94 q-265 -102 -513 -152q-165 -33 -281 -32q-59 0 -105 8zM98 1065q12 -6 34.5 -15t98.5 -24q76 -16 160 -16h3q83 0 212 26q131 26 266 86q117 50 232.5 90.5t208.5 66t175 42.5t140 23q46 5 79 5q7 -1 15 -1q36 -2 47 -9q33 -68 122.5 -276.5t162.5 -383.5l74 -175 q-9 6 -26.5 14t-83.5 18q-47 7 -100 8q-24 0 -48 -2q-80 -4 -217.5 -40.5t-292.5 -106.5q-261 -119 -497 -173q-162 -37 -275 -37q-52 0 -94 8zM739 737q0 -131 97 -224t229 -93t225.5 92.5t93.5 224.5q0 133 -94 229.5t-225 96.5t-228.5 -97t-97.5 -229zM912 849 q14 39 53 73l-25 57l51 18l25 -51q15 3 34.5 8t33 8t24.5 3l8 -70q-51 0 -92 -16q-29 -10 -37.5 -29.5t4.5 -36.5q6 -17 23.5 -21t68.5 -4q63 0 97 -15t53 -52q12 -25 12 -50q-1 -19 -7 -37q-14 -44 -62 -73l32 -57l-49 -27l-26 60q-43 -19 -109 -19l-8 68q67 0 100 16 q49 21 49 54q0 11 -6 24q-11 31 -94 31q-22 -3 -41 -3q-34 0 -56 8q-36 12 -53 54q-9 22 -9 44q0 17 6 35z" />
<glyph unicode="e" horiz-adv-x="1761" d="M-4 74q0 6 6 16q7 35 39.5 119.5t46.5 109.5q3 5 11.5 22t12.5 23.5t14.5 19.5t21 20t28 15t39.5 13q17 5 64 14.5t75 16.5q32 3 88 15t72 14l18 6q19 19 31 82q-78 -26 -148 -28q-6 0 -11 -1q-62 0 -106 16q-48 17 -84.5 43.5t-54.5 52t-22 44.5q14 -3 31.5 -4.5t41 1 t45.5 9t44 22.5t37 39q16 22 24 60q7 30 7 68v18q-1 18 -1 37q0 66 13 156q17 116 55 208q87 219 310 219h4h3.5h2.5h10h18q92 0 155 -33q102 -54 155 -186q38 -95 58 -211q16 -93 16 -158q0 -17 -1 -32t-1 -28q0 -38 8 -70q11 -42 32 -65.5t47 -38.5t54 -19t49.5 -3.5 t36.5 4.5q-3 -24 -30.5 -53.5t-80.5 -56.5q-54 -28 -130 -32q-11 -1 -23 0q-68 0 -152 22q3 -10 8 -28.5t9 -33.5t7 -20q3 0 13 -3t12 -3q19 -3 74.5 -14.5t85.5 -14.5q28 -7 75.5 -16.5t65.5 -14.5q22 -5 39.5 -13t28 -15t21 -20t14.5 -19.5t12.5 -23.5t11.5 -22 q13 -26 45.5 -110.5t40.5 -118.5l6 -16q-13 -22 -43.5 -49t-54.5 -27h-19h-657h-657h-19q-24 0 -54.5 27t-43.5 49z" />
<glyph unicode="f" horiz-adv-x="1843" d="M0 76q0 6 6 12q5 13 25 71.5t37 105.5t26 63q2 4 10.5 21.5t12.5 23t14.5 19t21.5 20t29 14.5t41 12q11 2 64.5 13t81.5 14q148 32 161 37q13 0 13 6q15 10 32 51t17 82q-10 9 -28 22.5t-27 22t-20.5 31t-18.5 55.5q-13 67 -20 153q-4 55 -4 91q0 20 1 35q-39 50 -39 110 q0 310 293 369h16q13 4 41 4t48 -4h18q60 -12 107 -36t76.5 -50t51 -62.5t31.5 -63.5t15 -63t5.5 -51t0.5 -37v-6q0 -72 -41 -110q4 -24 4 -61q0 -29 -2 -67q-7 -84 -23 -151q-6 -33 -16.5 -55.5t-20.5 -31.5t-27 -21.5t-26 -22.5q0 -41 16 -82t31 -51q0 -6 15 -6 q20 -8 153 -37q24 -3 53.5 -8t59.5 -11t41 -8q27 -5 46.5 -13.5t33 -21.5t20 -22t17 -27.5t14.5 -25.5q8 -19 42 -117.5t44 -122.5l6 -12q-2 -3 -18 -19.5t-26 -26.5t-26 -20t-28 -10h-21q-26 -4 -230 -4t-439 4q-300 -6 -468.5 -6t-205.5 6h-19q-9 0 -19 4.5t-18.5 10.5 t-19 16t-16 16t-14.5 16.5t-11 12.5z" />
<glyph unicode="g" horiz-adv-x="1761" d="M-8 74v6v14q6 16 41 116.5t45 121.5q2 4 10 18t11.5 19t11.5 16.5t16 17.5t20.5 14t28 13.5t35.5 9.5q120 22 145 25q89 21 160 35q3 0 6 3t6 3q45 68 45 141q-6 6 -31 24.5t-38 39.5t-21 61q-14 65 -19 150q-3 45 -3 78q0 31 2 51q-39 26 -39 114q0 307 291 363h12 q15 4 42.5 4t41.5 -4h25q61 -12 109.5 -37t78 -52t51 -65.5t31 -64.5t14.5 -63t5.5 -49t0.5 -32q0 -34 -12 -66.5t-27 -47.5q1 -13 1 -31q0 -36 -5 -92q-8 -84 -22 -156q-7 -31 -18.5 -52.5t-21 -30t-28 -21.5t-26.5 -21q0 -41 17 -82.5t34 -58.5q10 -6 16 -6 q8 -2 64.5 -14.5t87.5 -20.5q36 -4 151 -25q78 -17 109 -71q5 -9 14 -29l4 -8q28 -52 86 -238q3 -3 4.5 -6.5t1.5 -5.5v-2v-6q-1 -1 -7 -7.5t-11 -11t-13 -12t-16 -13t-16.5 -11t-17.5 -8.5t-17 -3h-14q-33 -6 -516 -6l-58 401v64l-96 -18l-94 18l-6 -64l-53 -401 q-490 0 -519 6h-18q-11 0 -26.5 9t-26.5 19t-23.5 23t-15.5 15zM670 -63l69 452l35 -18l37 18l63 -452l-108 -101l-90 101h-6z" />
<glyph unicode="h" horiz-adv-x="2004" d="M0 70q0 8 6 16q5 16 21 117t30 121q2 4 9 19t10.5 20.5t11 17.5t15 17.5t18.5 14t25.5 13.5t31.5 8q19 3 70 15t76 16q14 3 49.5 10.5t57 13t38.5 11.5h18q39 90 39 135q-6 7 -27.5 28.5t-33.5 43.5t-21 61q-27 158 -27 240q0 26 3 43q-39 45 -39 116q0 18 0.5 30.5 t5.5 48.5t14 63.5t30 66t49 65.5t74.5 52t104.5 37h23q6 8 37 8q29 0 41 -8h12q58 -11 104.5 -35t75.5 -50.5t49.5 -62.5t30.5 -63.5t15 -62.5t5.5 -50t0.5 -34v-3v-2q0 -80 -39 -116q3 -22 3 -53.5t-3 -73.5q-6 -84 -21 -156q-6 -31 -16.5 -53t-17.5 -30.5t-27.5 -26 t-26.5 -23.5q0 -37 16 -76.5t35 -58.5h9q22 -8 153 -35q18 -4 70.5 -16t71.5 -15q15 -3 28 -8t22 -9t18 -13.5t13 -13t11 -16.5t8.5 -15.5t8.5 -18t7 -16.5q17 -24 47 -108.5t41 -129.5v-16q-2 -2 -14 -16t-22.5 -25t-25.5 -21t-26 -10h-20q-4 0 -54.5 -2t-134 -4t-166.5 -2 q-190 0 -282 8q-96 -8 -275 -8q-85 0 -171 2t-138 4t-55 2h-14q-16 0 -29.5 15t-23.5 34.5t-13 22.5zM1044 739q4 4 6 9t4.5 14t4.5 14q22 126 22 275q37 60 37 133q0 72 -18 131q62 34 114 47h11q6 4 19 4t28.5 -2t19.5 -2h13q217 -45 217 -289q0 -61 -35 -92q3 -14 3 -40 q0 -23 -2 -57q-4 -70 -15 -124q-6 -32 -17 -49.5t-26 -30t-21 -21.5q0 -30 11.5 -64t21.5 -44h10q7 -1 48 -13t69 -16q65 -12 112 -22q30 -7 50.5 -22t29.5 -29t19 -37q4 -12 28.5 -88.5t34.5 -100.5v-6q-42 -59 -74 -59h-6q-20 -6 -256 -6q-14 61 -36.5 123t-36.5 85l-4 17 q-48 99 -146 123q-12 3 -40.5 6.5t-47.5 7.5q-14 4 -31 7.5t-26 6.5q-23 0 -66 17h-20q3 0 6 3t6 3h8q12 9 23.5 43t11.5 65q-5 8 -30.5 29t-33.5 51z" />
<glyph unicode="i" horiz-adv-x="2465" d="M2 211l6 10q49 169 62 187q2 4 8 17t9 17.5t10.5 14.5t15.5 15t21 11.5t30 10.5q12 3 49.5 8t58.5 12q19 3 60 14t57 11l6 8q39 39 39 104q-9 11 -26 25.5t-28 30t-20 43.5q-9 123 -9 182q0 34 3 47q-15 11 -27 35t-12 47v25.5t4 38t11 50.5t23 52t38.5 52.5t58.5 42.5 t82 32h15h65h6q79 -22 111 -54q-4 -55 -4 -124v-7q0 -91 31 -131q-2 -16 -2 -40q0 -76 20 -226q8 -23 8 -35q-4 -23 -11 -36.5t-25.5 -30.5t-20.5 -19q0 -13 2.5 -26.5t6.5 -26t7.5 -20.5t8.5 -18.5t6 -12.5q8 0 8 -8h18h-18q-48 -19 -68 -19q-14 -6 -59 -6q-42 -20 -78 -20 q-63 -15 -94.5 -45t-50.5 -72q0 -7 -4 -12.5t-4 -8.5q-44 -90 -72 -206h-246h-18q-17 0 -40 22.5t-28 38.5zM381 74v16q34 108 84 234q2 4 8.5 18t9.5 20t10.5 18t15 18.5t18.5 15t25.5 14t31.5 8.5q9 2 37 7.5t53.5 9.5t50.5 6q29 10 147 35q3 0 4.5 2t1.5 4l1 2 q17 19 35 59.5t18 79.5q-8 8 -26 21.5t-26 22t-18 31t-16 56.5q-14 72 -24 155q-5 48 -6 80q0 24 3 40q-37 55 -37 110v25t2 35t6 46.5t13.5 49.5t22.5 54t34.5 50t48.5 47.5t65.5 37t84.5 26.5h8q18 8 43 8q33 0 45 -8h19q55 -12 99.5 -37t71.5 -52t46.5 -66t28 -66t13 -65 t5 -50.5t0.5 -34.5q0 -67 -37 -110q4 -29 4 -67q0 -27 -2 -59q-5 -77 -17 -149q-13 -43 -27.5 -65.5t-36 -40t-28.5 -25.5q0 -40 16.5 -81.5t32.5 -57.5l9 -8q125 -28 147 -35q23 -2 146 -23q19 -4 35 -12t25.5 -14t20.5 -21.5t13.5 -20t12 -24t9.5 -20.5q9 -15 25 -62.5 t33 -102.5t22 -69v-16q-49 -78 -84 -78h-16h-355h-276h-274h-351h-20q-20 0 -47 29.5t-37 48.5zM1438 539h18q0 4 2 6t4 2h2q1 3 8.5 17t12.5 24.5t9.5 28.5t4.5 34q-3 2 -11 9.5t-10 10t-8.5 8.5t-9 10.5t-7 12t-8 16t-7.5 19.5q0 12 6 35q14 56 20 135q3 38 3 69 q0 34 -3 62q41 57 41 131v7q0 69 -16 124q33 33 110 54h11h61h15q46 -11 82 -32t58.5 -42.5t38.5 -52.5t23 -52t11 -50.5t4 -38v-25.5q0 -23 -10.5 -47t-24.5 -35q3 -18 3 -44q-1 -25 -3 -57q-6 -66 -19 -128q-4 -28 -12 -43.5t-24 -30.5t-23 -25q0 -65 35 -104l6 -8 q14 0 55 -11t62 -14q23 -6 59.5 -11t48.5 -9q33 -8 53.5 -23.5t26.5 -27t16 -35.5q14 -16 33.5 -83t24.5 -104l12 -10q-4 -4 -19 -22.5t-27.5 -28.5t-23.5 -10h-14h-242q-51 156 -81 206q0 7 -7 21q-17 42 -47 72t-90 45q-26 0 -88 20q-41 0 -61 6q-20 0 -58 19h-26z" />
<glyph unicode="j" horiz-adv-x="1740" d="M-6 47h4h-4q4 8 4 14q4 10 17.5 52t26 74.5t21.5 43.5q17 44 35 59q20 18 52 23q66 15 110 19q14 3 52.5 12.5t52.5 11.5q6 0 14 6q10 12 19.5 41.5t9.5 55.5q-7 9 -23 22t-25 28t-14 42q-20 116 -20 172q0 17 2 29q-25 41 -25 82q0 228 199 266l12 4h64q6 0 12 -4 q203 -38 203 -266q0 -38 -27 -82q3 -14 3 -36t-3 -52q-6 -61 -21 -113q-4 -27 -13 -42t-24 -28t-22 -22q0 -43 31 -97q4 -6 12 -6q14 -2 55 -12t52 -12q49 -5 106 -19q28 -5 48 -20t27 -28t15 -34q12 -17 62 -170l4 -14q-1 -1 -8.5 -9t-13 -13t-14 -12t-16.5 -11t-14 -4h-12 q-28 -6 -146 -6t-327 6q-164 -4 -308 -4t-163 4h-13q-11 0 -24.5 9t-28.5 24.5t-16 15.5zM774 1247q0 119 122 205t296 86t298 -86t124 -205q0 -120 -124 -206.5t-298 -86.5q-34 0 -53 7q-25 1 -58 -13t-54 -28t-59.5 -43.5t-45.5 -34.5q-7 -7 -10 -7q-2 0 -2 4q0 6 8 29 q21 62 21 101q0 24 -8 39q-7 14 -20 22q-64 37 -100.5 94.5t-36.5 122.5z" />
<glyph unicode="k" horiz-adv-x="2510" d="M-2 68v6v12q14 42 46.5 126.5t45.5 111.5q9 23 15.5 35.5t20.5 30t36.5 29t54.5 17.5q21 6 76 15.5t72 13.5q46 6 159 37h19q1 2 13 28t21 54.5t9 52.5q-6 6 -32.5 26t-38.5 41t-19 64q-31 155 -31 232q0 26 4 44q-37 51 -37 123v22t2 33t6.5 45t14 48t23.5 53t36.5 49.5 t51 48t69.5 38.5t90 30h18h37h47h19q61 -14 109 -39t78 -51.5t52 -63t32 -63.5t15.5 -61.5t6 -49t0.5 -34.5v-5q0 -82 -47 -123q4 -21 3 -55q0 -29 -2 -67q-6 -83 -20 -154q-8 -43 -20.5 -64.5t-38.5 -40.5t-33 -26q0 -38 16.5 -78.5t32.5 -56.5h6q9 -2 73.5 -17t98.5 -20 q19 -4 72.5 -14t73.5 -15q33 -6 55.5 -20t31 -23.5t23 -35.5t19.5 -33q16 -33 46.5 -117t37.5 -121l6 -12v-6l-23 -20q-23 -21 -43 -33.5t-37 -12.5h-6q-31 -8 -391 -8h-293h-293q-353 0 -378 8h-19q-24 0 -52.5 24.5t-39.5 41.5zM1073 600q31 24 51.5 58t34.5 94 q19 55 19 127l292 227l586 -469v-643h-434q0 4 1.5 6t2.5 2h2q0 10 12 10l37 37l-12 6h12l-18 49h6v314h-139q-16 24 -31 40t-47.5 35t-75.5 27q-10 2 -27 4.5t-33 6t-32 8.5h-10h164v90h-172v-90q-9 0 -24 3t-24 3q-8 0 -18.5 3t-24.5 8t-20 7q-17 0 -38.5 6t-27.5 6 q0 3 -6 12.5t-6 12.5zM1190 977v49q37 76 37 141l237 191l508 -406v99h-37v84h146v-84h-37v-164l287 -221l-84 -84l-783 622zM1262 692h172v94h-172v-94zM1501 539h164v90h-164v-90zM1501 692h164v94h-164v-94z" />
<glyph unicode="l" horiz-adv-x="2357" d="M-2 1464v72q47 0 83.5 -15.5t51.5 -41.5q0 -3 2.5 -6.5t4.5 -6.5l3 -2q125 23 191 23q124 0 196 -45q16 -9 40.5 -32t43 -41.5t21.5 -18.5h-105l-8 8q-4 0 -8 2t-9.5 6.5t-10.5 7.5q-60 33 -160 33q-102 0 -172 -16v-25q0 -69 26 -115q10 -7 26 -21t26.5 -21t21.5 -9 q26 -15 57.5 -23t49.5 -9l18 -1v-77q-53 0 -96 18q-34 10 -56.5 19.5t-52.5 32t-49 54.5q-45 57 -45 160v8v9q0 31 -8 41q-11 11 -18.5 16.5t-24 10.5t-39.5 5zM444 569v717h732l864 -829q10 -11 10 -28.5t-10 -29.5l-697 -700q-12 -13 -32.5 -13t-30.5 13zM520 1133.5 q0 -33.5 25 -58.5q25 -23 58.5 -23t64.5 23q26 25 26 58.5t-26 56.5q-31 25 -64.5 25t-58.5 -25q-25 -23 -25 -56.5zM567 1133q0 11 13 22.5t28 11.5q13 0 24 -11.5t11 -22.5t-11 -20t-24 -9q-15 0 -28 9t-13 20zM750 905q-10 -14 -10 -26q0 -17 20 -29l61 -74 q-41 -62 -50 -120q-3 -22 -3 -42q0 -32 9 -56q15 -38 44 -66l41 -43q40 -42 102 -49q15 -2 29 -2q44 0 76 18l225 108q32 12 43.5 15.5t27 2t26.5 -13.5l18 -14q15 -16 18.5 -33t-4.5 -36t-21 -36.5t-34 -39.5q-59 -57 -104 -57q-24 0 -43 16l-15 16q-9 18 -22.5 18 t-32.5 -18l-82 -86q-23 -17 0 -53l25 -23q36 -34 79 -46q20 -6 44 -5q27 0 58 7q59 14 124 59l76 -62q12 -18 25.5 -17.5t29.5 17.5l96 84q13 19 13 31q0 13 -19 29l-76 73q63 98 63 170q0 73 -53 115l-57 57q-41 45 -101 45q-54 0 -124 -37l-228 -100q-22 -11 -35.5 -11 t-35.5 17l-17 6q-15 23 -15 44q1 9 3 18q10 29 53 67q47 58 88 58q21 0 39 -15l21 -24q15 -14 25.5 -14t27.5 14l82 88q39 25 0 47l-25 25q-31 30 -69 44q-24 9 -55 10q-17 0 -39 -4q-56 -8 -119 -50l-72 75q-11 15 -23 17h-3q-12 0 -29 -10z" />
<glyph unicode="m" horiz-adv-x="2045" d="M82 102q-2 24 -2 49q0 37 6 73q8 60 28.5 107.5t40 84t35.5 56.5l15 20l381 389l676 -672q-371 -369 -385 -385q-3 -5 -22 -20.5t-56 -36.5t-83.5 -40.5t-106.5 -27.5q-32 -4 -64 -4q-27 0 -57 3q-62 7 -133 42.5t-136 99.5q-62 62 -96.5 131t-40.5 131zM651 948 q72 78 144 150q6 6 34 37t47.5 50.5t54.5 43.5q35 25 65 31q11 2 24 2q21 0 45 -6q39 -10 76 -46l190 -192l-377 -377zM1018 578l377 370l192 -192q21 -21 33 -43.5t17 -42.5t0.5 -42.5t-10 -39.5t-20.5 -38t-25 -34t-30 -32t-28.5 -26.5t-27 -23t-19.5 -16.5l-154 -144z M1434 1059q15 134 80 224t172 120q94 23 137 66t43 110q0 24 17.5 39.5t41.5 15.5q22 0 34.5 -17t12.5 -38q0 -59 -22 -107t-51 -76.5t-70.5 -51t-67 -31t-53.5 -15.5q-147 -38 -160 -249q0 -17 -18.5 -32.5t-36.5 -15.5q-22 0 -39 17q-20 13 -20 41z" />
<glyph unicode="n" horiz-adv-x="2258" d="M-6 412v24q0 135 92.5 227.5t232.5 92.5h1416q134 0 228.5 -93.5t94.5 -226.5v-24q0 -135 -95 -234.5t-228 -99.5h-1416q-138 0 -231.5 99t-93.5 235zM197 332q0 -35 24.5 -58.5t79.5 -23.5t80 23.5t25 58.5v22q0 17 -7 17h-43q-4 0 -4 -17v-18q0 -29 -51 -29 q-25 0 -36 6t-11 23v162q0 19 11 26.5t36 7.5q26 0 38.5 -7.5t12.5 -26.5v-15q0 -8 4 -8h43q5 0 6 1t1 7v23q0 35 -25 58.5t-80 23.5t-79.5 -23.5t-24.5 -58.5v-174zM455 829l354 433q102 92 221 92q105 0 207 -92l354 -433h-104l-313 379q-30 31 -69.5 48.5t-74.5 17.5 q-92 0 -158 -66l-311 -379h-106zM487 268q0 -7 6 -12.5t11 -5.5h145q5 0 10 5.5t5 12.5v31q0 8 -15 8h-100v266q0 9 -4 9h-41q-17 0 -17 -9v-305zM729 332q0 -34 29.5 -58t85.5 -24q53 0 78.5 24t25.5 58v174q0 34 -25.5 58t-78.5 24q-56 0 -85.5 -24t-29.5 -58v-174z M793 336v162q0 20 12 27t39 7q45 0 45 -34v-162q0 -29 -45 -29q-27 0 -39 6t-12 23zM948 1077q0 39 21.5 60.5t60.5 21.5q30 0 49 -22t19 -60q0 -32 -19.5 -56t-48.5 -24q-38 0 -60 23.5t-22 56.5zM1034 332q0 -82 107 -82q55 0 79.5 23.5t24.5 58.5v30q0 61 -47 74l-84 33 q-4 0 -10 6.5t-6 18.5v4q0 34 43 34q26 0 36.5 -7t10.5 -27v-4q0 -19 10 -19h39q8 0 8 19v12q0 35 -24.5 58.5t-79.5 23.5q-107 0 -107 -82v-31q0 -18 13 -33.5t32 -23.5l70 -29q39 -12 39 -35v-18q0 -37 -47 -37q-49 0 -49 37v18q0 12 -2 14.5t-11 2.5h-39q-4 0 -5 -2.5 t-1 -14.5v-22zM1335 268q0 -18 4 -18h164q6 0 6 18v31q0 6 -0.5 7t-5.5 1h-104v86h94q10 0 10 19v24q0 15 -10 15h-94v81h104q6 1 6 9v32q0 4 -1.5 6t-3.5 3h-1h-164q-4 0 -4 -9v-305zM1599 268q0 -18 9 -18h96q61 0 89 23.5t28 58.5v174q0 76 -117 76h-96q-6 0 -7.5 -1.5 t-1.5 -7.5v-305zM1655 307v225h49q24 0 39.5 -10.5t15.5 -27.5v-146q0 -18 -15.5 -29.5t-39.5 -11.5h-49z" />
<glyph unicode="o" horiz-adv-x="2246" d="M2 399v25q0 132 95 226.5t227 94.5h1407q137 0 229 -94t92 -227v-25q0 -132 -92.5 -225.5t-228.5 -93.5h-1407q-132 0 -227 94t-95 225zM324 305q0 -90 125 -90q137 0 137 90v201q0 84 -137 84q-125 0 -125 -84v-201zM393 313v176q0 37 56 37q33 0 48 -7.5t15 -29.5v-176 q0 -41 -63 -41q-23 0 -39.5 11.5t-16.5 29.5zM469 815l350 434q97 88 209 88q118 0 215 -88l352 -434h-106l-309 379q-29 29 -71 46t-81 17q-37 0 -77.5 -17t-67.5 -46l-314 -379h-100zM715 229q0 -14 8 -14h47q7 0 10.5 5t3.5 9v121h60q125 0 125 90v54q0 96 -125 96h-121 q-8 0 -8 -15v-346zM784 410v116h60q24 0 39.5 -10t15.5 -27v-38q0 -20 -15.5 -30.5t-39.5 -10.5h-60zM952 1065q0 -30 23.5 -55t52.5 -25q34 0 56 24.5t22 55.5q0 35 -21.5 57.5t-56.5 22.5q-30 0 -53 -23t-23 -57zM1079 229q0 -14 19 -14h186q16 0 16 14v35q0 5 -0.5 7.5 t-4 5t-11.5 2.5h-129v106h119q8 0 9 0.5t1 5.5v33q0 16 -10 16h-119v86h129q4 0 5 2.5t1 16.5v30q0 15 -6 15h-186q-9 0 -13 -2t-5 -4.5t-1 -8.5v-346zM1415 229q0 -4 4 -9t11 -5h36q19 0 19 14v222q4 -21 20 -41l107 -185q0 -10 14 -10h39q7 0 12.5 5t5.5 9v346 q0 15 -18 15h-39q-10 0 -12 -3t-2 -12v-215q-9 15 -17 31l-110 195q-11 4 -19 4h-36q-15 0 -15 -15v-346z" />
<glyph unicode="p" horiz-adv-x="2351" d="M14 537q6 9 18 16.5t33 19.5q21 11 33 18t30.5 19.5t32 27t23.5 30.5q-14 39 -14 127q0 84 41.5 171t119.5 163.5t180.5 137t233 95.5t267.5 35q310 0 475 -94q43 54 107 80q45 18 94 18q23 0 47 -4q41 -5 52 -17.5t-2 -35.5t-33.5 -48.5t-43 -65t-29.5 -75.5 q152 -140 201 -281l152 -38q27 -9 27 -33q0 -7 -3 -17l-80 -280q-10 -31 -41 -31l-118 37q-102 -164 -336 -287v-200q0 -12 -9.5 -22.5t-21.5 -10.5h-244q-12 0 -22 10.5t-10 22.5v104q-41 -8 -130 -8h-69v-31q0 -14 -6.5 -23.5t-18.5 -9.5h-114q-7 0 -15 10t-8 23v53 q-39 0 -57 11v-129q0 -13 -11.5 -23t-29.5 -10h-244q-12 0 -22.5 10.5t-10.5 22.5v272q-134 95 -188 201q-50 -23 -105 -23t-102 23q-22 11 -29 20q-4 5 -4 10t4 9zM760 1220q-3 -7 -3 -16q0 -12 7 -24q18 -31 47 -31q8 6 16 6q1 0 27 8.5t72 16.5t96 8q63 0 135 -14 q5 -2 12 -4.5t11 -4t7 -4t3 -6.5h6h10q10 -3 18 -3q28 0 46 28q7 20 0.5 39.5t-23.5 25.5q-9 5 -32 13t-77.5 17t-115.5 9q-41 0 -79 -3.5t-64 -8t-46.5 -9.5t-31.5 -8.5t-13 -3.5q-20 -11 -28 -31zM1509 907q0 -35 26.5 -61.5t61.5 -26.5q37 0 64 26.5t27 61.5q0 36 -27 62 t-64 26q-36 0 -62 -26t-26 -62z" />
<glyph unicode="q" horiz-adv-x="1703" d="M-6 2v510h510v-510h-510zM-6 733v17v86v22v14v19v43v22h12h19h41h12h24h43v-43v-22v-14h7h24h39v-19v-16v-23v-12v-43v-14v-17h-12h-39h-19v-26v-9v-43v-8v-22v-58h-12h-27h-18h-10h-12q6 5 0 11v34v13v22v8v25v41v12h-5h-24h-43zM-6 1028v1v1v1v1v1v1v1v1v1v1v1v1v1v1v1 v1v1v1v1v1v1v1v1v1v1v1v1v1v1v1v1v1v1v1v1v1v1v1v1v1v1v1v1v1v1v1v1v1v1v1v1v1v1v1v1v1v1v1v1v2v1v1v1v1v1v1v1v1v1v1v2v1v1v1v1v1v2v1v1v1v1v2v1v1v1v1v2v1v1v2v1v1v1v2v1v1v2v1v1v2v1v1v2v1v1v2v1v1v2v1v2v1v1v2v1v2v1v2v1v2v1v1v2v1v2v1v2v1v2v2v1v2v1v2v1v2v1v2v2v1v2v1 v2v2v1v2v1v2v2v1v2v2v1v2v2v1v2v2v2v1v2v2v1v2v2v2v1v2v2v2v2v1v2v2v2v2v1v2v2v2v2v2v2v1v2v2v2v2v2v2v2v2v2v2v2v2v2v2v2v2v2v2v2v2v2v2v2v2v2v2v2v2v2v2v3v2v2v2v2v2v3v2v2v2v2v3v2v2v2v3v2v2v3v2v2v3v2v3v2v2v3v2v3v2v3v2v3v2v3v3v2v3v2v3v3v3v2v3v3v3v3v3v3v3v3v3v3v3v4 v3v4v3v4v4v4v4v5v5v5v7v7v12h12h1h1h1h1h1h1h1h1h1h1h1h1h1h1h1h1h1h1h1h1h1h1h1h1h1h1h1h1h1h1h1h1h1h1h1h1h1h1h1h1h1h1h1h1h1h1h1h1h1h1h1h1h1h1h1h1h1h1h1h1h1h1h1h2h1h1h1h1h1h1h1h1h1h1h1h2h1h1h1h1h1h2h1h1h1h1h1h2h1h1h1h2h1h1h1h2h1h1h1h2h1h1h1h2h1h1h2h1h1h2h1h1 h2h1h2h1h1h2h1h1h2h1h2h1h2h1h1h2h1h2h1h2h1h2h1h2h1h2h1h2h1h2h1h2h1h2h1h2h1h2h2h1h2h1h2h2h1h2h1h2h2h1h2h2h1h2h1h2h2h2h1h2h2h1h2h2h1h2h2h2h1h2h2h2h1h2h2h2h2h1h2h2h2h2h1h2h2h2h2h2h2h1h2h2h2h2h2h2h2h2h2h1h2h2h2h2h2h2h2h2h2h2h2h2h2h2h2h3h2h2h2h2h2h2h2h2h2h3h2 h2h2h2h2h3h2h2h2h3h2h2h2h3h2h2h3h2h2h3h2h3h2h2h3h2h3h2h3h2h3h3h2h3h3h2h3h3h3h2h3h3h3h3h3h3h4h3h4h3h4h4h4h5h5h8v-25v-20v-10v-23v-6v-24v-13v-43v-12v-16v-11v-18v-12v-43v-13v-18v-12v-21v-14v-43v-6v-41v-13v-24v-19v-10h-1h-1h-1h-1h-1h-1h-1h-1h-1h-1h-1h-1h-1h-1 h-1h-1h-1h-1h-1h-1h-1h-1h-1h-1h-1h-1h-1h-1h-1h-1h-1h-1h-1h-1h-1h-1h-1h-1h-1h-1h-1h-1h-1h-1h-1h-1h-1h-1h-1h-1h-1h-1h-1h-1h-1h-1h-1h-1h-2h-1h-1h-1h-1h-1h-1h-1h-1h-1h-1h-1h-2h-1h-1h-1h-1h-1h-1h-2h-1h-1h-1h-1h-2h-1h-1h-1h-2h-1h-1h-1h-2h-1h-1h-1h-2h-1h-1h-2 h-1h-1h-2h-1h-1h-2h-1h-1h-2h-1h-1h-2h-1h-2h-1h-1h-2h-1h-2h-1h-2h-1h-2h-1h-1h-2h-1h-2h-1h-2h-1h-2h-1h-2h-1h-2h-2h-1h-2h-1h-2h-1h-2h-2h-1h-2h-1h-2h-2h-1h-2h-1h-2h-2h-1h-2h-2h-1h-2h-2h-2h-1h-2h-2h-1h-2h-2h-2h-1h-2h-2h-2h-1h-2h-2h-2h-2h-1h-2h-2h-2h-2h-2h-1 h-2h-2h-2h-2h-2h-2h-1h-2h-2h-2h-2h-2h-2h-2h-2h-2h-2h-2h-2h-2h-2h-2h-2h-2h-2h-2h-2h-2h-2h-2h-2h-2h-3h-2h-2h-2h-2h-2h-2h-2h-3h-2h-2h-2h-2h-3h-2h-2h-2h-3h-2h-2h-3h-2h-2h-3h-2h-2h-3h-2h-3h-2h-2h-3h-2h-3h-2h-3h-2h-3h-3h-2h-3h-2h-3h-3h-3h-2h-3h-3h-3h-3h-2h-3 h-3h-3h-3h-4h-3h-3h-3h-4h-3h-3h-4h-4h-4h-4h-4h-5h-5h-5h-7h-9zM55 1096h355h30v364v19h-8h-37h-43h-82h-178h-24h-13v-6v-25v-12v-37v-43v-82v-178zM66 74h376v372h-376v-372zM145 139v236h232v-236h-232zM145 1165v238h228v-238h-228zM215 655v13v12v12v41h12h19h12h23h6 v6v25v67h14h23h43v11v2v-8v41v14v22v43h16h12h25h8h21h20h23h12h18h15h-3h1h12h10v-10v-24v-19v-12v-14q-10 8 -10 0h-19h-2h1h10h-27h-6h-25h-18h-23h-10v-5v-24v-17h10h23h43h6h27h20v-12v-43v-43h10h37h12h23h45h41v-12v-23v-18v-12v-13q-2 0 -7 2q-4 0 -5 -2h-23h-18 h-13h-20h-23h-12h-37h-10v-8v-22v-58h-22h-7h-6h-18h-12h-23h-20h-11h-18h-25h-12h-16v11v34v43h-15h-22h-43h-6h-23h-18h-13h-12zM557 2v12v19v24v13v16v25v18v1v-1v-1v-1v-10v12q4 -6 10 0h37h43v-12v-1v1v1v1v10v-18v-15v-22v-4v-25v-25v-6v-12h-8h-23h-59zM557 393v17 v26v21v12v18v43v25v-10v22h10h37h43h12h39h15h12v-10v-2v-43h-12h-23h-43v-12v-23v-41h25h12h14h27h6h45h19h12h22h41h-2v41v10v13v12h-4h-18h-17q-2 0 -6 -2q-3 1 -4 2v6v27v22h27h168h-1h-2h-1h-9h7h12v11v59v10v8h10h19h41v-8v-22v-13v-34v-11v-22v-27v-6h24h43v-25v-10 v-20v-11v-18v-10v-8v-11v-39v-41v-4h14h19h10h23h43h18h12q7 6 13 0q-6 -6 0 -6v-43v-22h-13h-24h-43v-13v-61v-10v-25q5 0 3 -3l-3 -3h12h12h43h19h12h21h6h22v-12v-1v1v1v1v10v-18v-15v-22h-10h-12h-17h-10h-18h-13h-24h-6h-25h-12v-4v-50v-6v-12h-6h-23h-43v18v50v16v10 v19v20v25v10v37v12h-24h-43v47v43v6v6v-2v19v10v45v17v12v6v8h-5h-24h-41v-26v-17h-19h-1h-1h1h1h1h1h2h9h-39h-17v-33v-22v-6v-3v1v-64v-47h-10h-24h-2h-39h-15q8 6 0 12v23v12v43v6v6v-2v41v33h-20h-2h-17h-10v-33v-22v-19v-1v1v1v1v9v-15q-6 6 -12 0h-19h-63v15v1v-1v-1 v-1v-9v19v10v45h-12h-23h-43h-8h-23h-59zM557 1028v10v15v4v41h10h37h43v-4v-25v-41h-8h-61h-11h-10zM557 1151v14v19v20v13v18v12v19v12v12v13h10h37h43v18v96v43v23v10v20v13v12h1h1h1h1h1h1h1h1h1h1h1h1h1h1h1h1h1h1h1h1h1h1h1h1h1h1h1h1h1h1h1h1h1h1h1h1h1h1h1h1h1h1h1 h1h1h1h1h2h1h1h1h1h1h1h1h1h2h1h1h1h1h2h1h1h1h1h2h1h1h1h2h1h1h2h1h1h1h2h1h2h1h1h2h1h1h2h1h2h1h1h2h1h2h1h2h1h2h1h2h1h2h1h2h1h2h1h2h1h2h1h2h2h1h2h1h2h2h1h2h2h1h2h2h1h2h2h1h2h2h2h1h2h2h2h1h2h2h2h1h2h2h2h2h2h1h2h2h2h2h2h2h2h2h1h2h2h2h2h2h2h2h2h2h2h2h2h2h3h2h2 h2h2h2h2h3h2h2h2h2h3h2h2h3h2h2h3h2h3h2h3h2h3h3h3h3h3h3h3h8v-12v-8v-41h-43h-27h-12h-15v-7v-24v-19v-12q0 -2 2 -7q2 -3 1.5 -5t-3.5 -2h-4h-24h-62v14v19v43h-12h1h1h-43v-19v-12v-19v-12v-24v-13v-32v-25v-18h6h25h12h-1h-1h41h61v-13v-24v-43h15h14h59v-39v-74v-41 v-16v-15v-22v-82v-43v-19v-14v-22v22v-27h-10h-12h-37h1h1h1h1h2h1h1h1h2h1h2h9h-52v11v16v-1v-9v10v19v14v22v9v24v10h-18h-62h-63v-10v-24v-9v-22v-43v-17h-12h-23h-43v27v14v19v12v19v24v10v17v22v6v27h12h13h18h8h27v82v25v18v-1v-1v18v15v20v19h-41h-12h-13h-12v-6v-23 v-25v-4v-14h-8h-23h-59zM647 129v6v25v59v12v23v25v30v6h12h13h18h8h27v-61v-23v-12h6h64h12h12v-12v-37v-41h-12h-19h-47h-10h-18h-15h-14h-12h-25zM778 733v6v25v67h10h19h61v-12v-69v-11v-6h-4h-14h-10h-62zM819 2v43v25v4h10h19h12h4h4v-17v-12v-43h2h-10h-41zM932 2v43 v25v4h4h39h12h21h12v-17v-12v-25v-18h-19h-14h-55zM956 733v6v11v26v31v24h5h12h14h14h19v-12v-43v-43h-12h-35h-12q-5 -6 -5 0zM1001 1028v25v16v12v17v12v25v6v43v14v21v12v18v13v43v12v18v11v16v12v43v13v40v13v18v25v12h1h1h1h1h1h1h1h1h1h1h1h1h1h1h1h1h1h1h1h1h1h1h1 h1h1h1h1h1h1h1h1h1h1h1h1h1h1h1h1h1h1h1h1h1h1h1h1h1h1h1h1h1h1h1h1h1h1h1h1h1h1h1h1h1h1h1h2h1h1h1h1h1h1h1h1h1h2h1h1h1h1h1h2h1h1h1h1h1h2h1h1h1h2h1h1h1h2h1h1h1h2h1h1h2h1h1h2h1h1h2h1h1h2h1h1h2h1h2h1h1h2h1h2h1h2h1h1h2h1h2h1h2h1h2h1h2h1h2h1h2h1h2h1h2h1h2h2h1h2h1 h2h1h2h2h1h2h1h2h2h1h2h2h1h2h2h1h2h2h1h2h2h1h2h2h2h1h2h2h2h1h2h2h2h1h2h2h2h2h1h2h2h2h2h2h1h2h2h2h2h2h2h2h2h1h2h2h2h2h2h2h2h2h2h2h2h2h2h2h2h2h2h2h2h2h2h2h2h3h2h2h2h2h2h2h2h3h2h2h2h2h2h3h2h2h2h3h2h2h3h2h2h2h3h2h3h2h2h3h2h3h2h2h3h2h3h3h2h3h2h3h2h3h3h2h3h3h3 h3h2h3h3h3h3h3h3h3h3h4h3h3h4h3h4h4h4h4h5h5h5h6h9v-1v-1v-1v-1v-1v-1v-1v-1v-1v-1v-1v-1v-1v-1v-1v-1v-1v-1v-1v-1v-1v-1v-1v-1v-1v-1v-1v-1v-1v-1v-1v-1v-1v-1v-1v-1v-1v-1v-1v-1v-1v-1v-1v-1v-1v-1v-1v-1v-1v-1v-1v-1v-1v-1v-1v-1v-1v-1v-1v-1v-1v-1v-1v-1v-1v-1v-1v-1 v-1v-1v-2v-1v-1v-1v-1v-1v-1v-1v-2v-1v-1v-1v-1v-2v-1v-1v-1v-1v-2v-1v-1v-1v-2v-1v-1v-1v-2v-1v-1v-2v-1v-1v-2v-1v-1v-2v-1v-1v-2v-1v-1v-2v-1v-1v-2v-1v-2v-1v-1v-2v-1v-2v-1v-2v-1v-2v-1v-2v-1v-1v-2v-1v-2v-1v-2v-2v-1v-2v-1v-2v-1v-2v-1v-2v-1v-2v-2v-1v-2v-1v-2v-2 v-1v-2v-2v-1v-2v-2v-1v-2v-2v-1v-2v-2v-1v-2v-2v-1v-2v-2v-2v-1v-2v-2v-2v-1v-2v-2v-2v-1v-2v-2v-2v-2v-2v-1v-2v-2v-2v-2v-2v-1v-2v-2v-2v-2v-2v-2v-2v-2v-2v-2v-1v-2v-2v-2v-2v-2v-2v-2v-2v-2v-2v-2v-2v-2v-3v-2v-2v-2v-2v-2v-2v-2v-2v-2v-3v-2v-2v-2v-2v-2v-3v-2v-2v-2 v-3v-2v-2v-2v-3v-2v-2v-3v-2v-2v-3v-2v-2v-3v-2v-3v-2v-3v-2v-3v-2v-3v-2v-3v-2v-3v-3v-2v-3v-3v-2v-3v-3v-3v-3v-2v-3v-3v-3v-3v-4v-3v-3v-3v-4v-3v-4v-4v-3v-4v-5v-4v-6v-6v-7v-3h-518h-11zM1020 129v6v25v59h10h19h41v-12v-60v-12q6 -6 0 -6q0 -5 -2 -3l-3 3h-24h-41z M1020 831v11v16v14v5q0 5 6 2q3 -2 4 -2h19h41v-5v-24v-17h-5h-24h-41zM1081 1098h379h19v344v18h-6h-25h-72h-80h-159h-43h-13v-6v-24v-13v-18v-43v-82v-176zM1145 1165v19v47v18v13v18v57v23v10v19v10h14h19h34h11h18h12h19h24h37h13h20h6h23v-23v-39v-32v-13v-18v-25v-18 v-12v-21v-14v-19h-23h-39h-37h-12h-18h-25h-18h-11h-34h-15h-18zM1157 655v13v24v6v23v12v17v14v43v12v23v16v-1v-9v10v19v14v22v43h14h19h39h12h43h12h13v-10v-24v-45h-13h-24h-43v-5v-24v-17h43h24h13h39h6h49h6h25h18v-24v-31v-26v-43v-15v-12v-25h10h13h18h12h25v-8v-63 v-6v-11h-12h-13h-12h-41v-10v-2v-43v-12v-43v-11v-10h-6h-25h-45v-8v-6v-12v-17h-10h-18h-39h-13h-24h-43v6v23v6v8v41v10v13v12h12h25h43v6v27v22h-13h-24h-43v11v34v43h-6h-23h-24h-5h-14zM1376 2v12v19v41h15h43h12h6q4 0 2 -2l-2 -2v-25v-43h-6h-25h-45zM1376 129v6v37 v72h15h18h43h10h43h13h12v-13v-61v-41h-25h-43h-16h-12h-25h-6h-27zM1376 315v15v-1v3v61h15h43h12h6q3 -4 3 -12t-1 -15l-2 -6v-22v-23h-6h-25h-45z" />
<glyph unicode="r" horiz-adv-x="1845" d="M0 -410v1852q0 41 26.5 67.5t69.5 26.5h1340q41 0 68.5 -26.5t27.5 -67.5v-1563l-385 -383h-1051q-43 0 -69.5 26.5t-26.5 67.5zM1077 -123v-256l342 371h-256q-39 0 -62.5 -35t-23.5 -80z" />
<glyph unicode="s" horiz-adv-x="2144" d="M-4 -408v1856q0 39 28.5 64.5t69.5 25.5h1403q42 0 71 -25.5t29 -64.5v-1567l-387 -387h-1116q-40 0 -69 29t-29 69zM248 1671v29q0 39 29.5 68.5t68.5 29.5h1405q39 0 68.5 -29.5t29.5 -68.5v-1567l-125 -125v1565q0 41 -30 69.5t-70 28.5h-1376zM1077 -123v-256 l342 371h-256q-39 0 -62.5 -35t-23.5 -80z" />
<glyph unicode="t" horiz-adv-x="1941" d="M-2 -410v1848q0 43 26.5 69.5t69.5 26.5h541v-127h127v-127h-127v-129h127v-127h-127v-127h127v-127h129v127h-129v127h129v127h-129v129h129v127h-129v127h670q43 0 69.5 -26.5t26.5 -69.5v-1561l-383 -383h-1051q-43 0 -69.5 26.5t-26.5 69.5zM635 258h256v383h-256 v-383zM698 324v127h129v-127h-129zM1077 -123v-256l342 371h-256q-39 0 -62.5 -35t-23.5 -80z" />
<glyph unicode="u" horiz-adv-x="2252" d="M-2 -410v1848q0 43 26.5 69.5t69.5 26.5h541v-127h127v-127h-127v-129h127v-127h-127v-127h127v-127h129v127h-129v127h129v127h-129v129h129v127h-129v127h670q43 0 69.5 -26.5t26.5 -69.5v-1561l-383 -383h-1051q-43 0 -69.5 26.5t-26.5 69.5zM256 1671v29q0 40 29 69 t69 29h1413q40 0 69.5 -29t29.5 -69v-1575l-125 -127v1573q0 41 -30.5 70.5t-72.5 29.5h-1382zM635 258h256v383h-256v-383zM698 324v127h129v-127h-129zM1077 -123v-256l342 371h-256q-39 0 -62.5 -35t-23.5 -80z" />
<glyph unicode="v" horiz-adv-x="2045" d="M-2 -418v1862q0 41 27.5 68.5t68.5 27.5h1348q43 0 70.5 -27.5t27.5 -68.5v-1575l-387 -385h-1059q-41 0 -68.5 27.5t-27.5 70.5zM117 49q9 -36 33 -57q16 -14 38 -14q11 0 25 4q54 26 129 88q20 17 40 42t34.5 48t41.5 67t48 76q310 121 502 137q181 -104 309 -104 q43 0 59 8q13 7 31 31.5t18 40.5q0 23 -23 43.5t-50 27.5q-37 17 -166 17q-33 0 -154 -17q-55 34 -110 80q-133 109 -193 307q46 132 58 218q6 40 6 70q0 35 -8 57q-14 41 -50 63q-2 4 -9 6q-6 2 -14 2h-4q-11 0 -22.5 -4.5t-24.5 -17.5t-22 -33q0 -14 -4 -49t-4 -56 q0 -115 41 -256q-38 -151 -129 -339q-21 -42 -48.5 -91.5t-44.5 -78.5l-18 -29q-173 -92 -247 -158q-68 -62 -68 -120v-9zM182 61v6q0 18 15 35q3 2 80.5 67t121.5 93q-40 -86 -129 -168q-39 -39 -57 -39q-28 -18 -31 6zM543 393q14 21 26 52t23 51q17 36 47 93t46.5 92.5 t27.5 72.5q28 -71 65.5 -124t93.5 -104q24 -21 50 -39q-16 -3 -64.5 -11.5t-66.5 -12t-57.5 -12t-64 -15.5t-59 -18.5t-67.5 -24.5zM678 1147q0 31 18 63q4 7 14 8h1q8 0 16 -8t8 -24q0 -25 -4 -53t-12.5 -73.5t-13.5 -74.5q-27 106 -27 162zM1077 -123v-256l342 371h-256 q-39 0 -62.5 -35t-23.5 -80zM1128 440q8 0 29 4.5t29 4.5q77 0 147 -17q12 0 13 -16q-3 -20 -23 -23q-92 0 -195 47z" />
<glyph unicode="w" horiz-adv-x="2150" d="M0 -430v1876q0 40 28.5 69t63.5 29h1358q40 0 70 -28.5t30 -69.5v-1579l-387 -389h-1071q-34 0 -63 29t-29 63zM123 51q5 -37 33 -57q18 -13 41 -14q12 0 26 4q69 25 127 86q25 21 45 49.5t54.5 87.5t56.5 94q317 116 520 137q176 -100 293 -100q55 0 65 8q23 8 38 29 t8 45q0 21 -20.5 41.5t-55.5 32.5q-35 10 -158 10q-20 0 -72 -5t-80 -5q-60 31 -110 75q-138 111 -193 303q45 133 57 222q6 43 6 75q0 35 -8 57q-14 42 -48 62q-2 3 -9 5t-18.5 0.5t-24 -7t-26.5 -19.5t-25 -34q0 -8 -3 -40.5t-3 -53.5q0 -127 45 -267q-43 -140 -141 -340 q-20 -42 -45.5 -90.5t-41.5 -75.5l-16 -28q-173 -99 -245 -163t-72 -124zM188 72q4 16 17 24q34 36 93 87t108 81q-16 -32 -36 -63t-33 -47.5t-33 -40t-23 -27.5q-11 -3 -32.5 -19t-25.5 -16q-23 -8 -31 -1q-6 5 -5 13q0 4 1 9zM256 1671v29q0 40 29 69t69 29h1413 q40 0 69.5 -29t29.5 -69v-1575l-125 -127v1573q0 41 -30.5 70.5t-72.5 29.5h-1382zM543 391q14 17 21.5 31.5t16 34.5t17.5 37q5 9 20 39.5t19.5 39t16.5 32.5t16 33t12 28t12 30.5t9 26t8 27.5q37 -72 75.5 -122.5t92.5 -95.5q19 -24 45 -45q-222 -34 -381 -96zM692 1149 q0 47 8 63q6 10 16 10v1q10 0 20 -10t12 -27q0 -16 -1.5 -31.5t-6.5 -39t-7 -34.5t-11 -45.5t-11 -44.5q-19 67 -19 158zM1077 -123v-256l342 371h-256q-39 0 -62.5 -35t-23.5 -80zM1147 438q2 0 21.5 4t27.5 4q30 0 82 -4t70 -4q11 -5 11 -20q-1 -2 -1 -6q-2 -20 -21 -21 q-91 0 -190 47z" />
<glyph unicode="x" horiz-adv-x="2054" d="M-2 -391v1851q0 26 28 53t68 27h1348q38 0 67 -27t29 -53v-1562l-387 -410h-1057q-44 0 -70 30.5t-26 90.5zM111 1282h41v-336h127l88 168v-168h118l172 336h39v66h-176v-66h33l-90 -158v224h-96l-129 -234v168h41v66h-168v-66zM127 0v-61h704v61h-704zM127 129h1282v64 h-1282v-64zM127 -193v-63h704v63h-704zM127 322h1282v65h-1282v-65zM127 512h1282v68h-1282v-68zM127 707h1282v63h-1282v-63zM831 899h578v62h-578v-62zM831 1092h578v63h-578v-63zM831 1282h578v66h-578v-66zM1022 -123v-256l342 371h-256q-39 0 -62.5 -35t-23.5 -80z" />
<glyph unicode="y" horiz-adv-x="2054" d="M0 -393v1857q0 23 28.5 48.5t67.5 25.5h1354q38 0 68 -25.5t30 -48.5v-1570l-391 -416h-1061q-44 0 -70 33t-26 96zM129 -10v-62h707v62h-707zM129 123h1286v63h-1286v-63zM129 -199v-63h707v63h-707zM129 317h1286v64h-1286v-64zM129 506h645v452h-645v-452zM129 1087 h1286v256h-1286v-256zM836 506h579v63h-579v-63zM836 702h579v62h-579v-62zM836 893h579v65h-579v-65zM1026 -123v-256l342 371h-256q-39 0 -62.5 -35t-23.5 -80z" />
<glyph unicode="z" horiz-adv-x="2054" d="M-2 -416v1858q0 41 27.5 68.5t68.5 27.5h1346q41 0 68.5 -27.5t27.5 -68.5v-1569l-385 -385h-1057q-41 0 -68.5 27.5t-27.5 68.5zM190 332h361h47h745v1026h-1153v-205v-47v-145v-48v-143v-47v-148v-47v-196zM238 385v143h301v-143h-301zM238 575v148h301v-148h-301z M238 770v143h301v-143h-301zM238 961v145h301v-145h-301zM238 1155v137h301v-137h-301zM621 528h297v-143h-281h-12zM621 575v148h297v-148h-297zM621 770v143h297v-143h-297zM621 961v145h297v-145h-297zM621 1155v137h297v-137h-297zM1012 385v143h282v-143h-282z M1012 575v148h282v-148h-282zM1012 770v143h282v-143h-282zM1012 961v145h282v-145h-282zM1012 1155v137h282v-137h-282zM1077 -123v-256l342 371h-256q-39 0 -62.5 -35t-23.5 -80z" />
<glyph unicode="&#xad;" horiz-adv-x="2154" d="M-4 -395v1933h127v-1726l336 536l223 -299l209 457l489 -111l334 551l-192 135l520 160v-518l-176 119l-400 -654l-462 105l-281 -602l-250 338l-215 -408h1784v-129h-1847h-199v113z" />
<glyph unicode="&#x2000;" horiz-adv-x="927" />
<glyph unicode="&#x2001;" horiz-adv-x="1855" />
<glyph unicode="&#x2002;" horiz-adv-x="927" />
<glyph unicode="&#x2003;" horiz-adv-x="1855" />
<glyph unicode="&#x2004;" horiz-adv-x="618" />
<glyph unicode="&#x2005;" horiz-adv-x="463" />
<glyph unicode="&#x2006;" horiz-adv-x="309" />
<glyph unicode="&#x2007;" horiz-adv-x="309" />
<glyph unicode="&#x2008;" horiz-adv-x="231" />
<glyph unicode="&#x2009;" horiz-adv-x="371" />
<glyph unicode="&#x200a;" horiz-adv-x="103" />
<glyph unicode="&#x2010;" horiz-adv-x="2154" d="M-4 -395v1933h127v-1726l336 536l223 -299l209 457l489 -111l334 551l-192 135l520 160v-518l-176 119l-400 -654l-462 105l-281 -602l-250 338l-215 -408h1784v-129h-1847h-199v113z" />
<glyph unicode="&#x2011;" horiz-adv-x="2154" d="M-4 -395v1933h127v-1726l336 536l223 -299l209 457l489 -111l334 551l-192 135l520 160v-518l-176 119l-400 -654l-462 105l-281 -602l-250 338l-215 -408h1784v-129h-1847h-199v113z" />
<glyph unicode="&#x2012;" horiz-adv-x="2154" d="M-4 -395v1933h127v-1726l336 536l223 -299l209 457l489 -111l334 551l-192 135l520 160v-518l-176 119l-400 -654l-462 105l-281 -602l-250 338l-215 -408h1784v-129h-1847h-199v113z" />
<glyph unicode="&#x2013;" horiz-adv-x="1132" d="M-4 -395v1933h64v-1726l168 536l111 -299l105 457l245 -111l167 551l-96 135l260 160v-518l-88 119l-200 -654l-232 105l-140 -602l-125 338l-108 -408h893v-129h-924h-100v113z" />
<glyph unicode="&#x2014;" horiz-adv-x="2156" d="M-4 -395v1933h127v-1726l336 536l224 -299l209 457l489 -111l335 551l-193 135l521 160v-518l-176 119l-401 -654l-462 105l-281 -602l-251 338l-215 -408h1786v-129h-1849h-199v113z" />
<glyph unicode="&#x202f;" horiz-adv-x="371" />
<glyph unicode="&#x205f;" horiz-adv-x="463" />
<glyph unicode="&#xe000;" horiz-adv-x="1536" d="M0 0v1536h1536v-1536h-1536z" />
</font>
</defs>
</svg>
