<?xml version="1.0" standalone="no"?>
<!DOCTYPE svg PUBLIC "-//W3C//DTD SVG 1.1//EN" "http://www.w3.org/Graphics/SVG/1.1/DTD/svg11.dtd" >
<svg xmlns="http://www.w3.org/2000/svg">
<metadata></metadata>
<defs>
<font id="uicons__social_mediaregular" horiz-adv-x="2248" >
<font-face units-per-em="2048" ascent="1638" descent="-410" />
<missing-glyph horiz-adv-x="1024" />
<glyph horiz-adv-x="2048" />
<glyph horiz-adv-x="2048" />
<glyph unicode="&#xd;" horiz-adv-x="2048" />
<glyph unicode=" "  horiz-adv-x="1024" />
<glyph unicode="&#x09;" horiz-adv-x="1024" />
<glyph unicode="&#xa0;" horiz-adv-x="1024" />
<glyph unicode="!" horiz-adv-x="2453" d="M0 510q0 147 39 287t108.5 258.5t169 218.5t218 169.5t259 108.5t287.5 39q220 0 420 -86t345 -230.5t231 -344.5t86 -420t-86 -420.5t-231 -345t-345 -230t-420 -85.5t-420.5 85.5t-345 230t-230 345t-85.5 420.5zM694 418q0 -255 152 -375q93 -61 196 -61h15h4h371 q39 0 67.5 32.5t28.5 77.5v33q0 43 -29.5 82t-66.5 39h-297q-102 0 -168 94q-21 41 -21 137v4v86h477q46 0 79.5 35t33.5 88q0 43 -35.5 89t-77.5 46h-477v168q0 47 -27.5 77t-72.5 30h-45q-45 0 -76 -31t-31 -76v-549v-26z" />
<glyph unicode="#" horiz-adv-x="2451" d="M0 510q0 147 39 287t108.5 258.5t169 218.5t218 169.5t259 108.5t287.5 39q220 0 420 -86t345 -230.5t231 -344.5t86 -420t-86 -420.5t-231 -345t-345 -230t-420 -85.5t-420.5 85.5t-345 230t-230 345t-85.5 420.5zM610 102.5q1 -39.5 28.5 -72t74.5 -32.5q49 0 77 32.5 t29 72t-27 72t-79 32.5q-49 0 -76.5 -32.5t-26.5 -72zM647 358q60 3 110 -8.5t83 -33t60 -51.5t40 -63t22 -67.5t8 -66.5t-3 -58h137q0 251 -111 372.5t-346 127.5v-152zM647 690q143 0 262 -54.5t197.5 -147.5t121 -216.5t40.5 -261.5h147q-3 131 -32 249.5t-90 225 t-148.5 184t-215 122.5t-282.5 45v-146zM649 981q147 12 287.5 -24.5t257.5 -119.5t204 -201.5t132 -280.5t37 -345h162q12 165 -17.5 320t-93.5 284.5t-162.5 235t-220.5 174.5t-272.5 100.5t-313.5 16.5v-160z" />
<glyph unicode="$" horiz-adv-x="2459" d="M2 510q0 147 39 287t108.5 258.5t169 218.5t218 169.5t259 108.5t287.5 39q220 0 420 -86t345 -230.5t231 -344.5t86 -420t-86 -420.5t-231 -345t-345 -230t-420 -85.5t-420.5 85.5t-345 230t-230 345t-85.5 420.5zM563 752.5q-3 -66.5 18.5 -129t76.5 -122t139 -104.5 v127q-58 49 -83.5 108t-19 114.5t39 107t84.5 89t124.5 57.5t151.5 14q237 -14 321 -154q62 -105 18 -240q-39 -121 -141 -194q-127 -91 -272 -49l-8 2q-13 3 -5.5 122.5t17.5 119.5q32 0 58 54t6.5 111.5t-97.5 65.5q-66 6 -104 -40.5t-32.5 -102.5t48.5 -76 q-7 -46 -36 -210.5t-53 -318t-40 -280.5q55 -15 96.5 24t63 105.5t34 135t18.5 119.5t9 52q130 -40 246.5 -5t203.5 111t135.5 178t41.5 195q-15 211 -157.5 318t-381.5 112q-84 1 -163 -21t-141.5 -61t-110.5 -93t-75 -114.5t-30 -127z" />
<glyph unicode="%" horiz-adv-x="1945" d="M3.5 897q-6.5 117 44.5 233t146 205t233.5 143t291.5 52q327 -6 522.5 -154.5t216.5 -437.5q6 -85 -22.5 -178.5t-84.5 -177.5t-136.5 -157t-178.5 -116.5t-209.5 -56t-230.5 23.5q-3 -1 -7.5 -39t-12.5 -95.5t-20 -126.5t-34.5 -134.5t-52 -117t-75 -76t-101.5 -9.5 q41 323 178 1115q-36 15 -53.5 52.5t-12.5 80.5t25 83t63.5 65t98.5 20q119 -14 140 -111q17 -73 -24 -148q-35 -58 -71 -61q-13 0 -24 -164.5t8 -167.5q187 -59 356 45q131 81 199 228q74 160 32 308q-47 166 -230 241q-104 43 -245 51q-109 7 -208 -20.5t-170.5 -78 t-116 -121.5t-53 -147t26.5 -157.5t114 -149.5v-174q-153 82 -234.5 197.5t-88 232.5z" />
<glyph unicode="&#x26;" horiz-adv-x="2461" d="M0 510q0 147 39 287t108.5 258.5t169 218.5t218 169.5t259 108.5t287.5 39q220 0 420 -86t345 -230.5t231 -344.5t86 -420t-86 -420.5t-231 -345t-345 -230t-420 -85.5t-420.5 85.5t-345 230t-230 345t-85.5 420.5zM438 188h1301v588q-37 -45 -84 -96.5t-75 -79.5 l-28 -29l105 -383l-193 314q-83 -75 -207.5 -147.5t-156.5 -69.5q-29 -3 -140 64.5t-233 152.5l-203 -314l121 400q-4 3 -25 18t-37.5 28t-41.5 33.5t-51.5 44.5t-51.5 50v-574zM438 885q159 -139 388 -308t278 -169q60 0 259 146t376 337h-1h-1h-1h-1h-1h-1h-1h-1h-1h-1h-1 h-1h-1h-1h-1h-1h-1h-1h-1h-1h-1h-1h-1h-1h-1h-1h-1h-1h-1h-1h-1h-1h-1h-1h-1h-1h-1h-1h-1h-1h-1h-1h-1h-1h-1h-1h-1h-1h-1h-1h-1h-1h-1h-1h-1h-1h-1h-1h-1h-1h-1h-1h-1h-1h-1h-1h-1h-1h-1h-1h-1h-1h-1h-1h-1h-1h-1h-1h-1h-1h-1h-1h-1h-1h-1h-1h-1h-1h-1h-1h-1h-1h-1h-1h-1 h-1h-1h-1h-1h-1h-1h-1h-1h-1h-1h-1h-1h-1h-1h-1h-1h-1h-1h-1h-1h-1h-1h-1h-1h-1h-1h-1h-1h-1h-1h-1h-1h-1h-1h-1h-1h-1h-1h-1h-1h-1h-1h-1h-1h-1h-1h-1h-1h-1h-1h-1h-1h-1h-1h-1h-1h-1h-1h-1h-1h-1h-1h-1h-1h-1h-1h-1h-1h-1h-1h-1h-1h-1h-1h-1h-1h-1h-1h-1h-1h-1h-1h-1h-1 h-1h-1h-1h-1h-1h-1h-1h-1h-1h-1h-1h-1h-1h-1h-1h-1h-1h-1h-1h-1h-1h-1h-1h-1h-1h-1h-1h-1h-1h-1h-1h-1h-1h-1h-1h-1h-1h-1h-1h-1h-1h-1h-1h-1h-1h-1h-1h-1h-1h-1h-1h-1h-1h-1h-1h-1h-1h-1h-1h-1h-1h-1h-1h-1h-1h-1h-1h-1h-1h-1h-1h-1h-1h-1h-1h-1h-1h-1h-1h-1h-1h-1h-1h-1 h-1h-1h-1h-1h-1h-1h-1h-1h-1h-1h-1h-1h-1h-1h-1h-1h-1h-1h-1h-1h-1h-1h-1h-1h-1h-1h-1h-1h-1h-1h-1h-1h-1h-1h-1h-1h-1h-1h-1h-1h-1h-1h-1h-1h-1h-1h-1h-1h-1h-1h-1h-1h-1h-1h-1h-1h-1h-1h-1h-1h-1h-1h-1h-1h-1h-1h-1h-1h-1h-1h-1h-1h-1h-1h-1h-1h-1h-1h-1h-1h-1h-1h-1h-1 h-1h-1h-1h-1h-1h-1h-1h-1h-1h-1h-1h-1h-1h-1h-1h-1h-1h-1h-1h-1h-1h-1h-1h-1h-1h-1h-1h-1h-1h-1h-1h-1h-1h-1h-1h-1h-1h-1h-1h-1h-1h-1h-1h-1h-1h-1h-1h-1h-1h-1h-1h-1h-1h-1h-1h-1h-1h-1h-1h-1h-1h-1h-1h-1h-1h-1h-1h-1h-1h-1h-1h-1h-1h-1h-1h-1h-1h-1h-1h-1h-1h-1h-1h-1 h-1h-1h-1h-1h-1h-1h-1h-1h-1h-1h-1h-1h-1h-1h-1h-1h-1h-1h-1h-1h-1h-1h-1h-1h-1h-1h-1h-1h-1h-1h-1h-1h-1h-1h-1h-1h-1h-1h-1h-1h-1h-1h-1h-1h-1h-1h-1h-1h-1h-1h-1h-1h-1h-1h-1h-1h-1h-1h-1h-1h-1h-1h-1h-1h-1h-1h-1h-1h-1h-1h-1h-1h-1h-1h-1h-1h-1h-1h-1h-1h-1h-1h-1h-1 h-1h-1h-1h-1h-1h-1h-1h-1h-1h-1h-1h-1h-1h-1h-1h-1h-1h-1h-1h-1h-1h-1h-1h-1h-1h-1h-1h-1h-1h-1h-1h-1h-1h-1h-1h-1h-1h-1h-1h-1h-1h-1h-1h-1h-1h-1h-1h-1h-1h-1h-1h-1h-1h-1h-1h-1h-1h-1h-1h-1h-1h-1h-1h-1h-1h-1h-1h-1h-1h-1h-1h-1h-1h-1h-1h-1h-1h-1h-1h-1h-1h-1h-1h-1 h-1h-1h-1h-1h-1h-1h-1h-1h-1h-1h-1h-1h-1h-1h-1h-1h-1h-1h-1h-1h-1h-1h-1h-1h-1h-1h-1h-1h-1h-1h-1h-1h-1h-1h-1h-1h-1h-1h-1h-1h-1h-1h-1h-1h-1h-1h-1h-1h-1h-1h-1h-1h-1h-1h-1h-1h-1h-1h-1h-1h-1h-1h-1h-1h-1h-1h-1h-1h-1h-1h-1h-1h-1h-1h-1h-1h-1h-1h-1h-1h-1h-1h-1h-1 h-1h-1h-1h-1h-1h-1h-1h-1h-1h-1h-1h-1h-1h-1h-1h-1h-1h-1h-1h-1h-1h-1h-1h-1h-1h-1h-1h-1h-1h-1h-1h-1h-1h-1h-1h-1h-1h-1h-1h-1h-1h-1h-1h-1h-1h-1h-1h-1h-1h-1h-1h-1h-1h-1h-1h-1h-1h-1h-1h-1h-1h-1h-1h-1h-1h-1h-1h-1h-1h-1h-1h-1h-1h-1h-1h-1h-1h-1h-1h-1h-1h-1h-1h-1 h-1h-1h-1h-1h-1h-1h-1h-1h-1h-1h-1h-1h-1h-1h-1h-1h-1h-1h-1h-1h-1h-1h-1h-1h-1h-1h-1h-1h-1h-1h-1h-1h-1h-1h-1h-1h-1h-1h-1h-1h-1h-1h-1h-1h-1h-1h-1h-1h-1h-1h-1h-1h-1h-1h-1h-1h-1h-1h-1h-1h-1h-1h-1h-1h-1h-1h-1h-1h-1h-1h-1h-1h-1h-1h-1h-1h-1h-1h-1h-1h-1h-1h-1h-1 h-1h-1h-1h-1h-1h-1h-1h-1h-1h-1h-1h-1h-1h-1h-1h-1h-1h-1h-1h-1h-1h-1h-1h-1h-1h-1h-1h-1h-1h-1h-1h-1h-1h-1h-1h-1h-1h-1h-1h-1h-1h-1h-1h-1h-1h-1h-1h-1h-1h-1h-1h-1h-1h-1h-1h-1h-1h-1h-1h-1h-1h-1h-1h-1h-1h-1h-1h-1h-1h-1h-1h-1h-1h-1h-1h-1h-1h-1h-1h-1h-1h-1h-1h-1 h-1h-1h-1h-1h-1h-1h-1h-1h-1h-1h-1h-1h-1h-1h-1h-1h-1h-1h-1h-1h-1h-1h-1h-1h-1h-1h-1h-1h-1h-1h-1h-1h-1h-1h-1h-1h-1h-1h-1h-1h-1h-1h-1h-1h-1h-1h-1h-1h-1h-1h-1h-1h-1h-1h-1h-1h-1h-1h-1h-1h-1h-1h-1h-1h-1h-1h-1h-1h-1h-1h-1h-1h-1h-1h-1h-1h-1h-1h-1h-1h-1h-1h-1h-1 h-1h-1h-1h-1h-1h-1h-1h-1h-1h-1h-1h-1h-1h-1h-1h-1h-1h-1h-1h-1h-1h-1h-1h-1h-1h-1h-1h-1h-1h-1h-1h-1h-1h-1h-1h-1h-1h-1h-1h-1h-1h-1h-1h-1h-1h-1h-1h-1h-1h-1h-1h-1h-1h-1h-1h-1h-1h-1h-1h-1h-1h-1h-1h-1h-1h-1h-1h-1h-1h-1h-1h-1h-1h-1h-1h-1h-1h-1h-1h-1h-1h-1h-1h-1 h-1h-1h-1h-1h-1h-1h-1h-1h-1h-1h-1h-1h-1h-1h-1h-1h-1h-1h-1h-1h-1h-1h-1h-1h-1h-1h-1h-1h-1h-1h-1h-1h-1h-1h-1h-1h-1h-1h-1h-1h-1h-1h-1h-1h-1h-1h-1h-1h-1h-1h-1h-1h-1h-1h-1h-1h-1h-1h-1h-1h-1h-1h-1h-1h-1h-1h-1h-1h-1h-1h-1h-1h-1h-1h-1h-1h-1h-1h-1h-1h-1h-1h-1h-1 h-1h-1h-1h-1h-1h-1h-1h-1h-1h-1h-1h-1h-1h-1h-1h-1h-1h-1h-1h-1h-1h-1h-1h-1h-1h-1h-1h-1h-1h-1h-1h-1h-1h-1h-1h-1h-1h-1h-1h-1h-1h-1h-1h-1h-1h-1h-1h-1h-1h-1h-1h-1h-1h-1h-1h-1h-1h-1h-1h-1h-1h-1h-1h-1h-1h-1h-1h-1h-1h-1h-1h-1h-1h-1h-1h-1h-1h-1h-1h-1h-1h-1h-1h-1 h-1h-1h-1h-1h-1h-1h-1h-1h-1h-1h-1h-1h-1h-1h-1h-1h-1h-1h-1h-1h-10v-6z" />
<glyph unicode="(" horiz-adv-x="2459" d="M2 510q0 147 39 287t108.5 258.5t169 218.5t218 169.5t259 108.5t287.5 39q220 0 420 -86t345 -230.5t231 -344.5t86 -420t-86 -420.5t-231 -345t-345 -230t-420 -85.5t-420.5 85.5t-345 230t-230 345t-85.5 420.5zM408 510q0 -188 92 -346.5t251.5 -250t348.5 -91.5 t348.5 91.5t251.5 250t92 346.5q0 143 -54.5 272t-147 221.5t-220.5 146.5t-270 54t-270 -54t-220.5 -146.5t-147 -221.5t-54.5 -272zM518 487h84q293 0 520 86q6 -11 17.5 -38.5t19.5 -40.5q-293 -98 -487 -373q-138 151 -154 366zM528 600q20 137 102.5 250.5t205.5 173.5 q150 -176 237 -344q-244 -84 -471 -84q-13 0 -38 2t-36 2zM766 43q75 120 187 209t243 133q69 -212 86 -420q-91 -31 -182 -31q-183 0 -334 109zM948 1069q102 27 152 27q224 0 405 -166q-162 -137 -325 -205q-104 200 -232 344zM1233 618q191 90 344 220q100 -141 100 -324 q-100 25 -217 25q-110 0 -190 -17q-6 17 -19 50t-18 46zM1313 416q105 14 147 14q98 0 207 -31q-25 -123 -96 -222.5t-180 -160.5q-27 227 -78 400z" />
<glyph unicode=")" horiz-adv-x="2459" d="M2 510q0 147 39 287t108.5 258.5t169 218.5t218 169.5t259 108.5t287.5 39q220 0 420 -86t345 -230.5t231 -344.5t86 -420t-86 -420.5t-231 -345t-345 -230t-420 -85.5t-420.5 85.5t-345 230t-230 345t-85.5 420.5zM371 492q0 -144 97.5 -241t238.5 -97q139 0 235 97 t96 241q0 137 -96.5 234t-234.5 97q-139 0 -237.5 -97t-98.5 -234zM1147 492q0 -144 96.5 -241t235.5 -97q140 0 234.5 97t94.5 241q0 137 -95 234t-234 97q-138 0 -235 -97t-97 -234z" />
<glyph unicode="*" horiz-adv-x="2461" d="M2 510q0 147 39 287t108.5 258.5t169 218.5t218 169.5t259 108.5t287.5 39q220 0 420 -86t345 -230.5t231 -344.5t86 -420t-86 -420.5t-231 -345t-345 -230t-420 -85.5t-420.5 85.5t-345 230t-230 345t-85.5 420.5zM453 659l49 -67q2 2 5 4.5t13 11t19.5 16.5t23.5 18 t26.5 18t26.5 15t25 10t21 1.5t16 -8.5q14 -20 55.5 -149.5t87 -277t58.5 -181.5q20 -47 57 -82t87.5 -46t104.5 25q41 26 97 71.5t131.5 122t140.5 161.5t119.5 195.5t73.5 217.5q27 148 -71 225q-78 61 -192 49t-177 -88q-62 -73 -46 -180q133 35 148 -65q11 -81 -54 -202 q-54 -103 -112 -137q-21 -12 -37 -11q-33 3 -56 58t-35.5 134.5t-29 168.5t-35 161t-55.5 109.5t-88 17.5q-43 -8 -99.5 -43t-106.5 -80t-94.5 -89t-70.5 -74z" />
<glyph unicode="+" horiz-adv-x="2457" d="M2 510q0 147 39 287t108.5 258.5t169 218.5t218 169.5t259 108.5t287.5 39q220 0 420 -86t345 -230.5t231 -344.5t86 -420t-86 -420.5t-231 -345t-345 -230t-420 -85.5t-420.5 85.5t-345 230t-230 345t-85.5 420.5zM586 387h360v-399h275v399h383v242h-383v409h-275v-409 h-360v-242z" />
<glyph unicode="," horiz-adv-x="2367" d="M-6 -309h2044v1708h-2044v-1708zM311 193l76 75q32 -24 93 -50.5t150.5 -54t213 -42t250.5 -8.5q0 45 1.5 75t8 81t24.5 92t46 69h-398q-4 70 3 145.5t18.5 140.5t38.5 146t48 138.5t63.5 144t67.5 136t77.5 140t76.5 131.5t80 134l80 -80q-339 -450 -471 -1100h391v-76 q-75 -110 -75 -317q88 6 163.5 21.5t120.5 30.5t88.5 39t57 34.5t36.5 29.5l80 -75q1 0 -10.5 -8.5t-35.5 -22.5t-58 -30.5t-81 -33.5t-100.5 -31t-121.5 -23t-139 -9q0 -55 15 -123t31 -116.5t53 -150.5t56 -159h-80q-62 128 -108.5 283.5t-46.5 265.5q-14 -2 -40.5 -5 t-110 -1.5t-170.5 14t-214 51t-248 99.5zM451 901v232h129v-232h-129zM1337 901v232h138v-232h-138z" />
<glyph unicode="." horiz-adv-x="2418" d="M18 477q-1 204 56.5 378t157 297.5t232.5 211.5t283.5 130t309.5 42q324 0 558.5 -124.5t358.5 -352t133 -539.5q4 -127 -36 -271.5t-104 -264t-144 -209.5t-154 -119q79 56 158.5 190t131.5 304t52 315q0 453 -252 710.5t-702 260.5q-195 1 -370.5 -75t-304 -210 t-202 -327t-69.5 -414q4 -204 111.5 -409t279.5 -355q-132 71 -229 168.5t-151 208t-79 223t-25 231.5zM317 547q0 144 50.5 279.5t142 245t234 178.5t313.5 75q157 -2 294.5 -62t234.5 -161t154 -240t60 -295q4 -224 -121 -403.5t-319 -229.5v20v9v3v2v1v1v-1v-1v-1v-1v-1 v-1v-1v-2v-1v-1v-2v-1v-2v-1v-10q162 78 257 255t85 398q-8 174 -96.5 319.5t-234 228.5t-314.5 81q-172 -2 -316 -89t-228.5 -240t-84.5 -339q0 -221 91.5 -389.5t230.5 -218.5v5v4v4v2v2v2v2v1v1v1v1v1v1v1v1v-1v-1v-1v-1v-1v-1v-1v-1v-1v-1v-1v-1v-1v-1v-1v-1v-1v-1v-1 v-1v-1v-1v-1v-1v-1v-10q-210 56 -321.5 216t-111.5 388zM616 651q0 114 50 210.5t151 158.5t236 67q195 7 322 -113t118 -292q-4 -71 -17 -124.5t-27.5 -85t-41.5 -58t-44.5 -37.5t-51.5 -29v8q62 67 84 118t22 157q0 170 -97.5 272.5t-266.5 102.5q-57 0 -119.5 -26.5 t-117 -73t-89.5 -117.5t-35 -152q0 -105 26 -169t81 -124q-98 51 -140.5 119t-42.5 188zM831 627q0 -43 24 -92.5t78 -91t124 -44.5q52 -2 93.5 13.5t65.5 40.5t40 58t22 61.5t6 54.5q8 98 -51.5 170t-169.5 73q-95 2 -163.5 -66t-68.5 -177zM850 250q0 42 21.5 73t52 44.5 t60.5 21.5t52 9l21 1q21 0 32.5 -0.5t35.5 -2t38.5 -5.5t35.5 -10.5t34 -17.5t26 -26t19 -37.5t6 -49.5q0 -117 -15 -295t-40.5 -323t-50.5 -144l-25 2l-152 -2h-34q-36 0 -61 86t-36 220.5t-15.5 244.5t-4.5 211z" />
<glyph unicode="1" horiz-adv-x="2633" d="M82 666q29 -28 40 -38t50 -42t66 -48t76.5 -41.5t96 -38.5t110 -24t130.5 -12q74 0 162 24t160.5 58t134 68.5t96.5 58.5l35 24q-263 248 -326 318q-59 59 -33 56q11 -1 29 -11l101 -66q-11 16 -70 84q-42 50 -18 46l18 -7l111 -67q-70 77 -101 116q-33 33 -14 35 q15 1 41 -14q15 -9 130.5 -96.5t224.5 -170.5l108 -83l405 321q10 8 26.5 19t63.5 26t88 6q62 -12 113.5 -48t80.5 -78.5t49 -83.5t27 -68l7 -27l174 -74q-117 -49 -178 -67q-60 -191 -185 -365q-11 53 -40 80q-65 73 -200 48t-257 -130q-123 -109 -166.5 -237t16.5 -203 q-237 -31 -503 59q-93 34 -192 91t-182.5 120t-163 132t-140 130.5t-106.5 111t-71 78.5zM1161 1082q5 -2 13 -5l120 -59q-29 43 -80 80q-41 37 -22 37q10 -1 31 -9l106 -51q-62 64 -117 113q-32 25 -22 28.5t37 -4.5q3 -1 5 -1.5t4.5 -1t4.5 -1t4 -0.5q33 -18 197 -112.5 t190 -110.5l-192 -151q-111 77 -217 163q-45 45 -52 54q-37 37 -10 31zM1498 113.5q39 109.5 144 210.5q111 95 229 117.5t179 -42.5q30 -24 33 -71q-114 -156 -232 -256q-179 -123 -340 -138q-52 70 -13 179.5zM2032 897q-9 -41 6 -80t45 -45q35 -6 64 19t40 69 q13 41 -3 78t-50 45q-29 7 -58.5 -18t-43.5 -68z" />
<glyph unicode="2" horiz-adv-x="2373" d="M109 -416v1882q7 31 33.5 50.5t60.5 19.5h381v-303h1581v-1649q0 -41 -30 -70.5t-71 -29.5h-1855q-41 0 -70.5 29.5t-29.5 70.5zM496 252h518v-514h252v514h512v254h-512v518h-252v-518h-518v-254zM666 1311v225h430v-225h-430zM1178 1311v225h434v-225h-434zM1694 1311 v225h370q41 0 71 -29.5t30 -70.5v-125h-471z" />
<glyph unicode="3" horiz-adv-x="3368" d="M80 735q0 79 60 138t143 59q54 0 108 -35q96 49 197 49q50 0 98 -10v10q0 85 57.5 144t141.5 59q83 0 139.5 -59t56.5 -144v-4q66 37 162 37q132 0 221 -82q56 78 140.5 124t185.5 46t188 -52.5t144 -142.5q48 25 102 25q53 0 115 -45q130 84 246 84q153 0 249 -78 q62 55 127 55t111.5 -49.5t46.5 -115.5q0 -53 -26.5 -94t-71.5 -56q10 -39 10 -106q0 -187 -129 -316t-317 -129q-110 0 -246 70q-113 -72 -240 -72h-61q-3 -74 -61.5 -130t-131.5 -56q-75 0 -132.5 47.5t-67.5 120.5h-9q-12 -95 -80 -159.5t-157 -64.5q-84 0 -151.5 56 t-82.5 135h-6q-92 0 -173.5 38.5t-139.5 110.5q-121 -86 -258 -86q-178 0 -305 128.5t-127 314.5q0 52 2 75q-78 52 -78 160zM297 348q0 -22 14 -55q28 -28 62 -45q39 -20 84 -23q56 -16 104 -16q40 0 80 16q52 3 80 25q5 4 13.5 11.5t12.5 10.5t9.5 8.5t8.5 9.5t5.5 8.5 t3.5 8.5q19 27 19 64v-82q0 -36 30 -62q9 -18 58 -18q30 0 45 18q32 25 32 62v117l52 49l149 -213q15 -15 25 -17q19 -16 39 -16q44 0 63 24q1 2 9 13.5t12 21t4 19.5q0 8 -2 18t-2 17q-10 3 -13.5 6.5t-3.5 11.5l-172 213l121 125q14 7 16 20q0 -17 19 -51l162 -463 q-3 -22 -9 -24q-12 -9 -12 -17l-16 -8h-19h-18q-38 0 -49 -18q-23 -8 -23 -39q0 -28 23 -51q31 -31 80 -31q14 0 33.5 7t21.5 7q15 1 27 8.5t14.5 10.5t11.5 16q8 2 23.5 22t21.5 25q1 17 25 70l182 518q1 9 4.5 20t3.5 17v-637q0 -25 5.5 -39.5t23.5 -28.5q5 -1 24 -8.5 t31 -7.5q10 0 58 16q2 4 6.5 14t7 16t4.5 16.5t2 21.5v209q11 -25 23.5 -37.5t35.5 -18.5q41 -24 99 -24q63 0 104 24q46 24 78 70t39 90q5 10 8.5 22t4.5 18.5t3.5 25t3.5 26.5q0 -30 17 -92q16 -58 53 -90q41 -51 90 -70q49 -24 137 -24q53 0 76 6q21 6 49 15t37 12 q17 6 64 47q24 24 24 59q0 17 -22 45q-9 17 -43 17q-22 0 -37 -15q-13 -2 -35 -24q-18 -22 -43 -29q-1 0 -26 -7t-44 -7q-74 0 -102 47q-37 27 -37 102h354q19 0 32.5 5t15.5 10q20 12 20 53q0 40 -20 94q-2 8 -6 16.5t-7.5 14.5t-10 14.5t-10 12t-11.5 12.5t-9 10 q-11 13 -24.5 22t-35 20t-28.5 15q-60 29 -121 29q-58 0 -129 -29q-4 -2 -14 -6.5t-13.5 -6t-11.5 -5.5t-12 -6.5t-10.5 -6.5t-11 -7.5t-10.5 -8.5t-11 -10q-37 -55 -57 -96q-1 -12 -9 -48.5t-8 -56.5q-1 8 -3 25t-3.5 26t-4 22t-6.5 24t-9 20q-17 65 -51 96q-28 35 -74 45 q-50 29 -98 29t-105 -31q-38 -24 -61 -72v19q0 39 -18 61.5t-48 22.5q-34 0 -55.5 -19t-24.5 -49v15q-6 2 -16 22q-16 16 -21 19q-16 12 -36 12q-38 0 -52 -29q-20 -7 -24 -41l-101 -360l-100 373q-4 4 -14 17t-17 19q-21 21 -49 21t-57 -29l-3 -2l-6 -4t-6 -6t-4 -10 q0 12 -3 16.5t-13 5.5q-29 29 -53 29q-21 0 -31 -12q-7 -14 -33 -23l-164 -195v361q0 34 -32 55q-12 25 -45 25q-51 0 -58 -25q-30 -23 -30 -55v-512q0 14 -9 45q-14 21 -53 45q-26 22 -59 33q-29 10 -68 14l-74 23q-7 2 -24.5 8.5t-28.5 7.5q-24 3 -24 39q0 15 24 33 q20 8 74 8q33 0 53 -8q7 -4 21.5 -14t15.5 -11q21 -14 31 -24q12 -5 35 -5q33 0 47 17q18 11 18 45q0 37 -18 55q-6 5 -24 15.5t-28 19.5q-14 3 -40.5 11t-45.5 12q-29 12 -90 12q-48 0 -73 -12q-47 -12 -80 -35q-33 -10 -62 -53q-14 -58 -14 -78q0 -52 12 -68 q2 -11 12.5 -27.5t20.5 -23.5q38 -21 53 -23q6 -3 17.5 -10t22.5 -12t22 -6l98 -17q38 -14 61 -18q25 -17 25 -47q0 -31 -25 -39q-22 -14 -61 -14q-52 0 -72 14q-10 3 -17.5 7.5t-16.5 14.5t-13 13q-28 24 -37 30q-21 21 -39 21q-32 0 -51 -27q-12 -24 -12 -47zM1911 508 q0 10 1 31t1 28q15 46 31 60q6 25 36 32q25 19 58 19q40 0 49 -19q29 -6 49 -32q1 -4 5.5 -13.5t8 -21t4.5 -25.5q0 -7 6.5 -28t6.5 -31q0 -37 -13 -64q-5 -38 -14 -51q-16 -28 -41 -45q-40 -20 -61 -20q-18 0 -58 20q-16 6 -43 39q-5 9 -12 28.5t-12 28.5q0 13 -1 34t-1 30 zM2480 561q3 62 43 94q20 17 40.5 22t55.5 5q64 0 93 -27q31 -31 43 -94h-275z" />
<glyph unicode="4" horiz-adv-x="3026" d="M133 -424q-26 85 9.5 152t99.5 67q2 0 15 1t23 -0.5t21 -6.5q-23 143 21 281q8 18 26 33.5t43 15.5q32 0 52.5 -26t27.5 -60q22 -65 4.5 -196t-61.5 -240q7 -14 13.5 -22.5t12 -10t9.5 3.5q57 29 75 74v6q13 4 19 12l6 27q36 82 39 90q-39 17 -39 82q-3 35 39 51 q24 0 47 -24.5t27 -65.5q14 -2 81 -6q28 -9 39.5 -27t8.5 -53q-19 -152 24 -162q24 -6 78 55v64q0 26 4 75l4 48q9 19 23 12q10 0 30 -10q20 -13 13 -47q0 -16 -1.5 -45.5t-1.5 -53.5t3 -43q0 -33 9 -46t30 -13q9 0 20 10t25.5 32t22.5 35.5t24 41.5h2l12 12q3 4 9.5 15 t12.5 19.5t13 12.5q-7 79 -0.5 164.5t30 149t58.5 63.5q24 0 43.5 -14.5t21.5 -32.5q20 -58 -14.5 -163.5t-85.5 -199.5q0 -79 14 -104q7 -31 21 -50t24 -23.5t17 -4.5q36 0 57 51q20 27 10 53q-26 19 -50 74q-30 72 3 84l13 2q31 0 62 -45.5t34 -83.5q0 -6 14 -6q3 0 5.5 5 t2.5 9q0 6 1 10l2 3q0 3 18 12l6 14q8 0 8 8q3 20 17 25q-3 82 5 165.5t31 147.5t58 64q38 0 63 -47q32 -89 -102 -363q0 -79 14 -104q9 -31 23.5 -50t24 -23.5t16.5 -4.5q18 0 34.5 14.5t24.5 36.5q17 29 8 53q-25 21 -48 75q-32 76 9 84l9 1q27 0 57 -45.5t37 -83.5 q0 -6 14 -6q8 0 8 10q0 2 2 9t2 8l13 12q19 33 30 47q0 85 9.5 166t34.5 146t61 65t61 -47q28 -97 -102 -363q0 -77 12 -104q11 -31 25.5 -50t23.5 -23.5t17 -4.5q26 0 61 51q14 20 10 53q-30 17 -54 75q-28 66 -3 82q6 3 14 3q32 0 64 -45t39 -84q0 -6 12 -6q27 0 35 14v11 q-10 61 -10 155q2 127 33 215.5t88 81.5q46 -8 73.5 -77t16.5 -181q-2 -46 -17.5 -86.5t-31 -62t-54.5 -70.5q11 -24 15 -32.5t13.5 -25.5t19 -23.5t20.5 -6.5q55 -6 94 25q-6 20 -6 51q-6 74 41.5 136t118.5 62q43 0 73.5 -28t30.5 -74q0 -47 -47 -100t-113 -64 q50 -24 76 -24q110 -3 176 92q2 9 8 9t9 -9q6 -3 11.5 -14.5t8.5 -14.5q3 -2 2 -17.5t-10 -21.5q-73 -102 -205 -102q-79 0 -139 63q-62 -51 -129 -51q-44 0 -82 32t-55 87q-25 -17 -50 -17q-1 0 -12.5 2.5t-13.5 2.5q0 -3 -2 -9.5t-5 -16.5t-5 -17q-31 -80 -99 -80 q-91 0 -143 135q0 10 -2 18q-5 -3 -24.5 -19t-35.5 -16q-1 0 -10 2.5t-16 2.5q0 -3 -2 -9.5t-5 -16.5t-5 -17q-31 -80 -95 -80q-95 0 -147 135q0 3 -2 8.5t-2 9.5q-2 -2 -8.5 -10t-11 -12.5t-14 -8.5t-21.5 -4l-10 2q-9 3 -15 3q0 -16 -12 -43q-34 -80 -93 -80 q-103 0 -145 135q0 3 -3 8.5t-3 9.5l-9 -5q-9 -5 -10 -7q-20 -39 -58 -82t-71 -43q-57 0 -90 55q-59 -55 -98 -55q-56 0 -83.5 57t-16.5 174q0 15 -2.5 19.5t-14.5 5.5q-10 0 -25 7t-18 7q-11 -22 -29 -67t-30 -68l-2 -6q-5 -6 -24 -32.5t-30.5 -40t-32 -27t-40.5 -13.5 q-21 0 -42.5 10.5t-31.5 28.5q-53 -73 -121 -73q-48 0 -85 30.5t-52 73.5zM195 -424q11 -43 63 -43q31 0 50 18.5t40 63.5q-2 2 -3 5.5t-3 9.5l-4 12q-18 65 -19 79q-24 21 -61 21q-39 0 -61 -48.5t-2 -117.5zM370 -258q1 -11 1 -16q3 -2 4.5 -6t1.5 -8v-3q28 84 37 180.5 t-8 143.5q0 18 -7 18q-4 0 -8 -10q-40 -46 -21 -299zM883 -78q0 28 17 41.5t34 13.5q25 0 43 -16.5t18 -40.5q0 -26 -16.5 -41.5t-36.5 -15.5q-21 0 -40 16t-19 43zM885 981q0 154 78 284.5t208.5 205.5t282.5 75t283 -75t209.5 -205.5t78.5 -284.5q0 -113 -46.5 -218 t-123.5 -181t-182.5 -122t-218.5 -46t-218 46t-182 122t-123 181t-46 218zM975 956q6 -163 135 -299q147 224 389 306q-6 12 -18 37.5t-15 31.5q-214 -82 -422 -82q-12 0 -33 3t-36 3zM979 1053q13 0 33 -1t32 -1q187 0 383 61q-77 161 -196 291q-99 -55 -165.5 -146 t-86.5 -204zM1180 596q126 -90 274 -90q19 0 39.5 3t33.5 6.5t38 11t37 10.5q-14 166 -70 342q-219 -70 -352 -283zM1200 -141q20 29 35.5 97t5.5 95q-12 -17 -26.5 -84t-14.5 -108zM1329 1442q104 -126 193 -291q139 79 258 168q-141 135 -326 135q-64 0 -125 -12z M1534 -141q19 26 33.5 94t9.5 98q-10 -24 -26.5 -89.5t-16.5 -102.5zM1561 1067q15 -52 30 -78q24 2 75 10.5t81 8.5q20 0 44.5 -2.5t42.5 -6t47.5 -9t43.5 -7.5q0 136 -84 266q-135 -123 -280 -182zM1618 897q58 -161 70 -319q88 50 147.5 130.5t81.5 180.5q-97 22 -170 22 q-60 0 -129 -14zM1876 -141q19 26 34 93t13 99q-12 -20 -29.5 -87t-17.5 -105zM2186.5 -206.5q0.5 -18.5 11.5 -51.5q19 4 41 53t26 125q2 42 -4.5 78t-19.5 39q-9 0 -19 -22t-18 -67.5t-9 -101.5q-9 -34 -8.5 -52.5zM2466 -348v-17q50 21 75 52t25 57q0 15 -7 23t-17 4 q-27 0 -51.5 -34.5t-24.5 -84.5z" />
<glyph unicode="5" horiz-adv-x="2224" d="M88 1540h1851l-172 -1892l-753 -209l-756 209zM432 1153l68 -698h798l-22 -303l-262 -68l-262 68l-15 192h-229l33 -373l473 -129l479 129l63 711h-849l-25 240h895l16 231h-1161z" />
<glyph unicode="6" horiz-adv-x="2289" d="M88 434q0 112 24.5 216.5t62 183t88.5 149t98.5 117.5t98 86.5t80.5 58t52 29.5q31 18 82 43.5t97 52t93 62.5q43 43 71.5 100t37.5 154q139 -172 231 -246q53 -34 162.5 -84t163.5 -82q25 -15 49 -31t76 -58.5t94.5 -88.5t94 -119t86.5 -151.5t59 -185t24 -220.5 q0 -207 -77 -384t-208 -296.5t-304.5 -186.5t-364.5 -67q-189 0 -366.5 72.5t-310.5 196.5t-213.5 302t-80.5 377zM436 252q-9 -150 96 -219q28 -18 47.5 -27.5t63.5 -17.5t107 -8q75 0 173 43.5t175 95t156 94t120 41.5q35 -1 87 -41t96 -88.5t90.5 -90t70.5 -44.5 q46 -1 78.5 21.5t71.5 80.5q36 59 56 137.5t20 135.5q0 29 -7 58.5t-22 58.5t-45 47t-70 18q-35 0 -95 -33.5t-115 -73t-116.5 -73t-99.5 -33.5q-35 -1 -83.5 24t-100.5 61.5t-110 73.5t-130.5 63t-144.5 26q-151 0 -259 -99.5t-110 -230.5zM911 -219q-7 -30 0 -41 q36 -33 83.5 -52t104 -24t95.5 -4.5t96 4.5q80 9 152.5 42.5t87.5 51.5q10 12 4 37q0 10 -7 12.5t-20 -6.5q-102 -69 -288 -69q-170 0 -250 59q-8 8 -19 8q-21 0 -39 -18zM1126 -115q11 -11 19.5 -8t31.5 21q3 3 5 4t4.5 3.5t5.5 4.5q24 21 35.5 29.5t40.5 19t65 10.5 q19 0 34.5 -3t25 -6.5t18.5 -11.5t12 -12t9.5 -14t7.5 -12q13 -24 15.5 -26.5t12.5 1.5q19 6 24 15t1 28q-2 3 -12.5 25t-19.5 34t-21 19q-28 21 -103 21q-8 0 -20.5 0.5t-18 0t-15 -1.5t-18.5 -4t-22 -8q-24 -7 -53 -28.5t-47 -44.5q-42 -31 -17 -56z" />
<glyph unicode="7" horiz-adv-x="2156" d="M158 213q0 -51 35 -85t81 -34q57 0 91 33t34 86v528q0 48 -35 83.5t-90 35.5q-44 0 -79 -35t-35 -80zM461 25v815h1130v-815q0 -55 -35 -88t-88 -33h-112v-307q0 -51 -33 -85t-82 -34q-47 0 -81 34.5t-34 84.5v307h-200v-307q0 -50 -34.5 -84.5t-82.5 -34.5q-51 0 -87 34 t-36 85v307h-111q-48 0 -81 33t-33 88zM465 907q0 148 78.5 265t212.5 180l-109 168l27 22l117 -174q111 43 229 43q130 0 240 -49l122 180l27 -22l-119 -172q135 -67 216 -183t81 -258h-1122zM700 1137q0 -23 18 -39.5t44 -16.5q23 0 39 16.5t16 39.5q0 27 -16 45t-39 18 q-26 0 -44 -18t-18 -45zM1229 1137q0 -24 15.5 -40t41.5 -16q24 0 42 16.5t18 39.5q0 27 -18 45t-42 18q-26 0 -41.5 -17.5t-15.5 -45.5zM1649 213q0 -51 35.5 -85t84.5 -34q47 0 81 34t34 85v532q0 46 -34.5 80.5t-80.5 34.5q-47 0 -83.5 -34.5t-36.5 -80.5v-532z" />
<glyph unicode="8" horiz-adv-x="4446" d="M123 612q0 98 37 188t104.5 159.5t170.5 111t227 41.5q89 0 200 -29q101 -28 176 -84l-110 -104l-47 -10l34 53q-125 125 -286 125q-159 0 -263 -109.5t-104 -283.5q0 -126 55.5 -235.5t164.5 -179t247 -69.5q91 0 174 31v215l-205 -12l107 61h285l-35 -35 q-13 -16 -13 -24q-4 -8 -4 -62v-161l-190 -43q-162 -25 -219 -25q-106 0 -193 30t-144 78.5t-96 112.5t-56 129t-17 131zM1128 481q0 143 105 245.5t262 102.5q151 0 245.5 -100t94.5 -235q0 -86 -41 -164.5t-125.5 -131.5t-193.5 -53q-82 0 -149.5 30t-109.5 79t-65 107.5 t-23 119.5zM1266 565q0 -57 14 -119.5t41 -121t75.5 -96.5t108.5 -38q42 0 82.5 20t63.5 54q43 53 43 156q0 53 -12.5 111t-38 116.5t-74 96.5t-111.5 38q-77 0 -127 -47q-65 -58 -65 -170zM1884 481q0 144 104.5 246t262.5 102q151 0 246.5 -100t95.5 -235 q0 -64 -25 -125.5t-70 -111.5t-115.5 -81t-154.5 -31q-81 0 -148 30t-109 79t-64.5 107.5t-22.5 119.5zM2021 565q0 -57 14.5 -119.5t42 -121t76.5 -96.5t109 -38q88 0 143 74q43 50 43 156q0 41 -7.5 86.5t-25.5 95.5t-44 89.5t-67 65t-91 25.5q-83 0 -127 -47 q-66 -57 -66 -170zM2580 -68q0 44 25.5 90.5t83.5 81.5q104 61 272 66q-43 49 -43 98q0 13 13 56q-20 -5 -43 -5q-108 0 -174 67t-66 155q0 107 94 192q97 80 254 80h293l-90 -55h-90q102 -77 102 -191q0 -49 -19.5 -89t-41 -60.5t-60.5 -50.5q-1 -1 -6 -6.5t-6 -7t-5 -6.5 t-5 -6.5l-4 -6t-4 -7.5t-3 -7t-3 -7.5t-1.5 -8t-0.5 -9.5q0 -33 34 -59l56 -43q38 -31 59 -52t39 -60t18 -87q0 -106 -100 -185t-274 -79q-145 0 -224.5 58.5t-79.5 143.5zM2703 -41q0 -77 68 -123.5t182 -46.5q100 0 155.5 42.5t55.5 109.5q0 52 -33 88.5t-122 97.5 q-12 4 -31 4q-78 0 -150 -22q-125 -48 -125 -150zM2773 612q0 -51 18.5 -108t62 -102.5t99.5 -45.5q42 0 99 41q34 38 34 105q0 39 -12 83.5t-33 85t-57 67t-78 26.5q-61 0 -102 -47q-31 -42 -31 -105zM3267 1118l104 49h203q-27 -16 -36 -22.5t-17 -20.5t-9 -37 q-12 -113 -12 -487v-328q0 -41 9.5 -52.5t45.5 -14.5q10 -2 22.5 -3t27 -1.5t22.5 -1.5l-53 -31h-248q4 5 10.5 13.5t8.5 11.5t6 8.5t5 8t3 7t2.5 8t1 7.5t0.5 10v233q0 255 4 414q2 37 2 229h-102zM3609 502q0 78 30 142.5t78 103.5t104 60t111 21q80 0 148 -43 q25 -17 44 -36t30 -40t16 -34t10 -31l-334 -133l-108 -6q26 -133 106.5 -209t185.5 -76q78 0 170 47l-73 -69q-41 -24 -47 -25q-57 -29 -136 -29q-117 0 -190 56q-73 51 -109 131.5t-36 169.5zM3729 584q0 -12 2.5 -37t2.5 -37l262 115q21 5 30 12t9 20q0 46 -42.5 85.5 t-99.5 39.5q-23 0 -49 -10t-53 -31.5t-44.5 -62t-17.5 -94.5z" />
<glyph unicode="9" horiz-adv-x="2490" d="M137 489q0 162 48 314.5t144 284.5t229 231.5t314.5 156t389.5 56.5t421 -62q38 -11 74 -23.5t63 -23t55.5 -24.5t46 -22.5t41 -22.5t33 -20t30 -19.5t24.5 -16.5l-227 -221l-101 -18l70 110q-4 4 -12 11q-42 39 -69 61.5t-86 62.5t-114.5 62.5t-139 40.5t-173.5 18 q-163 0 -304.5 -60t-244 -166t-161 -258.5t-58.5 -330.5q0 -157 43.5 -306.5t128.5 -277.5t202 -225t273.5 -152t333.5 -55q43 0 84 3.5t68.5 7.5t62 12.5t50 13t48.5 15.5t43 14v451l-421 -23l221 121h592l-74 -72q-11 -7 -15 -9.5t-9 -7.5t-6.5 -10t-2.5 -14 q-4 -18 -4 -129v-344l-393 -92q-20 -3 -78.5 -11.5t-81.5 -11.5t-71.5 -9t-78.5 -8.5t-70.5 -4.5t-76.5 -2q-160 0 -300 32.5t-246.5 89t-193.5 134.5t-146 167t-99 188.5t-58 197.5t-18 196z" />
<glyph unicode=":" d="M39 -268q9 20 31 22.5t43.5 -3.5t43.5 -0.5t31 28.5q9 16 -5.5 41.5t-33 49t-22.5 57t27 65.5q17 18 42 18t46 -9.5t46 -12t42 11.5q16 16 15 40.5t-11 45t-13.5 43t9.5 33.5q14 11 27.5 15.5t28.5 0.5t26 -9t30.5 -21.5t32 -28.5t39.5 -38.5t45 -43.5q65 -62 150 -193 q140 -216 120 -312q-12 -62 -96 -60q-17 0 -69 1t-74.5 1.5t-71 2t-74 4t-66 6t-66 8.5t-54.5 12t-50 16.5t-36 21.5q-92 70 -119.5 111.5t-13.5 75.5zM440 268q4 104 87.5 199.5t191.5 126.5q0 58 19 109.5t41.5 85t41.5 91.5t19 128l-13 213q-5 146 74 225.5t232 79.5 q156 0 243.5 -77t87.5 -214v-277q3 -49 27 -88.5t50.5 -59.5t59.5 -42t44 -35q40 -42 60 -122.5t22 -157t5.5 -168.5t14.5 -140q3 -13 -6.5 -34.5t-26.5 -39t-36.5 -28t-40 -1.5t-33.5 40l-5.5 11t-16 21t-27 20.5t-39.5 1.5t-52 -27q33 58 29 170t-31 157q-93 99 -168 123 q-11 3 -1 12q28 24 55 56q19 33 21 72t-13 67t-42.5 42t-66.5 -5q-24 -39 -66 -64t-88.5 -32.5t-88 -7t-76.5 7.5q-9 2 -17 5t-14 6.5t-11.5 7.5t-9 8t-7.5 8t-5.5 6.5t-3.5 5.5l-2 4q-1 3 -13 -5t-22.5 -25t-7.5 -34q13 -35 12.5 -90.5t-18.5 -62.5q-28 -12 -67 -42 t-77.5 -68.5t-64.5 -84t-25 -82.5q26 -40 85.5 -118t105.5 -136l47 -57q39 -51 71.5 -80.5t70.5 -42.5t68.5 -15.5t88.5 -0.5q46 3 85.5 22.5t63.5 45t41 50t24 41.5l7 17q21 9 42.5 3.5t33.5 -18.5q6 -43 -16.5 -154t-65.5 -213t-84 -108q-37 -2 -122.5 -2t-152.5 1l-67 1 q0 261 -317 598q-32 33 -67 65t-48 44t-21.5 27t-7.5 34zM864 846l15 -43q235 -49 376 94q4 4 -2 29.5t-14 49.5l-8 23q5 2 13.5 6.5t30 19.5t38 33t31 47.5t16.5 61.5q2 43 -2.5 77t-14.5 53.5t-22.5 33t-25.5 18.5t-23.5 7t-17.5 1l-7 -1q-52 0 -100 -70.5t-39 -191.5l6 1 l-74 1l5 74q2 172 -75 177q-23 1 -50 -12q-29 -14 -38.5 -43.5t-3 -62.5t18 -64t22.5 -51l11 -20q-19 -3 -28 -31t-8 -55l1 -27l2 -92q90 0 90 1q1 1 47 1q8 -1 22 0t59.5 24t92.5 68l13 12v-75q-46 -40 -133.5 -65.5t-223.5 -8.5zM903.5 1198q1.5 29 28.5 43q36 18 63 -18 t36 -81l9 -46q-35 0 -66.5 -2.5t-41.5 -1.5q0 3 -15 40t-13.5 66zM1112 1094q1 4 3.5 11t10.5 26t17 35t23.5 33t29.5 25.5t35 7t41 -17.5q16 -12 18.5 -31.5t-2.5 -35.5t-12.5 -33t-7.5 -20q-8 -1 -51 0.5t-105 -0.5zM1358 -446q46 47 69.5 152t24.5 186v81v11t3 25.5 t8.5 33t18 26.5t29.5 13q31 2 48 -19t22 -48.5t22 -52.5t48 -30q19 -2 48 22t54 52t52 44t44 1q24 -22 23 -55t-14 -62t-22.5 -56t-2.5 -36q3 -11 25.5 -17.5t52 -8.5t56.5 -11t42 -22.5t4.5 -43.5t-51.5 -75q-34 -44 -179.5 -112t-221.5 -68l-13 -2q-46 -1 -82.5 -1 t-65 17.5t-42.5 55.5z" />
<glyph unicode=";" horiz-adv-x="2463" d="M53.5 737.5q-2.5 16.5 13 25.5t48.5 9l712 2l121 633q9 54 32.5 91t51.5 46.5t55 1.5t46.5 -42.5t21.5 -86.5l37 -389q15 -105 71 -187.5t133.5 -129.5t171 -68.5t182.5 -13t168.5 45t129.5 97.5h86q50 0 60.5 -18.5t-5.5 -41t-35 -40.5l-20 -19l-578 -422l207 -622 q21 -55 21.5 -93t-17 -52.5t-49.5 -8t-71 34.5l-566 373l-489 -373q-94 -62 -121.5 -31.5t-1.5 150.5l123 620l-477 424q-28 25 -43.5 46.5t-18 38zM1315 1135q0 157 113 269t272 112q157 0 270 -112t113 -269q0 -160 -112.5 -272.5t-270.5 -112.5q-160 0 -272.5 112 t-112.5 273zM1520 1090h129v-142h102v142h131v86h-131v141h-102v-141h-129v-86z" />
<glyph unicode="&#x3c;" horiz-adv-x="2412" d="M2 383l490 330v-78l649 -336l-404 -326zM2 1044l735 490l416 -330v-80l-661 -327v-84zM492 63l256 -147l407 352v-782l-663 405v172zM528 657l7 115l587 297v-424l-227 -172zM1153 1124v80l410 330l733 -490l-406 -331zM1155 268l490 -356l157 102v-123l-647 -405v782z M1163 647v424l623 -358l-354 -224zM1204 297l686 416l406 -330l-656 -410z" />
<glyph unicode="&#x3e;" horiz-adv-x="3190" d="M0 1169v123l1397 107v-230h-441q113 -171 313 -486t220 -345q46 45 215 187.5t315 262.5l146 119q-36 1 -93.5 5t-182.5 21.5t-189 41.5v102h1274l-107 -102l-358 -49q-838 -656 -838 -695v-213v-108v-307h453v-115h-1381v115q4 0 39 -0.5t47.5 0t48.5 1.5t54.5 4 t51.5 7.5t54.5 12t47.5 18t47 25t38 32.5v207v108v213q-636 832 -745 938h-426z" />
<glyph unicode="@" horiz-adv-x="2463" d="M0 510q0 147 39 287t108.5 258.5t169 218.5t218 169.5t259 108.5t287.5 39q220 0 420 -86t345 -230.5t231 -344.5t86 -420t-86 -420.5t-231 -345t-345 -230t-420 -85.5t-420.5 85.5t-345 230t-230 345t-85.5 420.5zM553 981q0 -50 33.5 -80.5t87.5 -30.5q52 0 84.5 30.5 t32.5 80.5q0 43 -33 77t-84 34q-52 0 -86.5 -34t-34.5 -77zM561 -4h217v778h-217v-778zM942 -4h225v453q0 31 11 57q14 37 56 63.5t91 26.5q65 0 97 -45t32 -125v-430h219v463q0 166 -67.5 245.5t-190.5 79.5q-91 0 -160 -35t-102 -77h-2v102h-209v-778z" />
<glyph unicode="A" d="M80 506v104q7 182 89 330.5t206 226.5q126 83 276 83q26 0 54 -3q66 -10 163 -53q17 -5 51.5 -19t63 -22t55.5 -6q17 0 35 5.5t39.5 15.5t32.5 14q35 13 58 21t59 19.5t61 16t63 10.5q28 5 51 5q7 0 14 -1q27 -2 67 -4q254 -36 378 -225q-58 -39 -101.5 -82t-79 -100.5 t-51.5 -133.5q-13 -61 -14 -130q0 -17 1 -35q21 -292 309 -422v-8q-65 -182 -195 -367q-73 -101 -106 -136q-101 -106 -221 -106q-65 0 -181 48t-186 49q-48 0 -104.5 -17.5t-100.5 -37.5t-102 -34q-43 -10 -83 -9q-15 0 -30 1q-122 25 -233 166q-301 364 -338 836z M1014 1276q-1 16 -1 32q0 176 124 332q58 60 148 108.5t177 61.5h17q2 -22 2 -44q0 -181 -127 -332q-32 -34 -60.5 -59t-71.5 -51q-42 -28 -95 -40q-40 -9 -84 -9q-14 0 -29 1z" />
<glyph unicode="B" horiz-adv-x="2256" d="M117 -420v1864q0 35 28.5 63.5t63.5 28.5h1864q35 0 63.5 -28.5t28.5 -63.5v-1864q0 -35 -28.5 -63.5t-63.5 -28.5h-1864q-35 0 -63.5 28.5t-28.5 63.5zM502 117q0 -99 72.5 -172.5t170.5 -73.5h783q102 0 175 73.5t73 172.5v551h-234v231q0 102 -77 175t-185 73h-535 q-99 0 -171 -73t-72 -175v-782zM752 260q0 51 28 90t66 39h588q40 0 70 -39t30 -90q0 -56 -30 -96.5t-70 -40.5h-588q-38 0 -66 40t-28 97zM752 772q0 50 28.5 89.5t67.5 39.5h328q34 0 64 -40t30 -89q0 -48 -29.5 -84.5t-64.5 -36.5h-328q-40 0 -68 35.5t-28 85.5z" />
<glyph unicode="C" d="M109 518q0 309 172 565l428 -739q6 0 6 -6q54 -122 166 -198.5t249 -76.5q93 0 193 43l-322 -602q-249 33 -452.5 174.5t-321.5 363t-118 476.5zM332 1155q142 182 351 286.5t447 104.5q285 0 527 -146.5t373 -387.5l-840 -41q-20 4 -60 4q-180 0 -307.5 -119.5 t-144.5 -298.5zM780 518q0 148 102 252t248 104t250.5 -104t104.5 -252q0 -146 -104 -247t-251 -101q-146 0 -248 101t-102 247zM1087 -504l381 717q117 120 117 305q0 118 -54.5 219t-148.5 164l682 37q95 -201 95 -420q0 -139 -37 -271t-104 -244t-162 -206.5t-208 -160.5 t-246 -103t-272 -37h-43z" />
<glyph unicode="D" d="M0 -418v1854q0 41 27 70.5t67 29.5h1854q41 0 70.5 -29.5t29.5 -70.5v-1854q0 -40 -29.5 -67t-70.5 -27h-1854q-40 0 -67 27t-27 67zM322 471h385v320q0 60 -43.5 102.5t-104.5 42.5h-113q-59 0 -91.5 -41t-32.5 -104v-320zM369 23v-138q0 -6 5 -12t11 -6h244 q9 0 14.5 5.5t5.5 12.5v138q0 18 -20 18h-72v379h-92v-379h-80q-6 0 -11 -5.5t-5 -12.5zM723 905q41 -57 41 -114v-259h65v-677q0 -19 12.5 -32t32.5 -13h259v385h69v-385h277q19 0 31 13t12 32v677h147q20 0 32.5 14.5t12.5 33.5v282q0 19 -12.5 32t-32.5 13h-225v-202 q0 -21 -14 -34.5t-37 -13.5h-437q-19 0 -35 14t-16 34v200h-182zM958 745q0 -17 11 -27.5t30 -10.5h353q18 0 29.5 10.5t11.5 27.5v402q0 14 -12 25.5t-29 11.5h-353q-18 0 -29.5 -11.5t-11.5 -25.5v-402z" />
<glyph unicode="E" d="M0 -414v1852q0 40 29 69t69 29h1848q40 0 69 -29t29 -69v-1852q0 -40 -29 -69t-69 -29h-1848q-40 0 -69 29t-29 69zM125 547q0 -176 122.5 -298t295.5 -122q172 0 292.5 122t120.5 298q0 171 -121 293.5t-292 122.5q-172 0 -295 -123t-123 -293zM1090 547 q0 -176 120.5 -298t292.5 -122t291 121.5t119 298.5q0 171 -119.5 293.5t-290.5 122.5t-292 -122.5t-121 -293.5z" />
<glyph unicode="F" horiz-adv-x="2281" d="M0 -418v1854q0 40 27 67t67 27h1856q40 0 67 -27t27 -67v-1854q0 -40 -27 -67t-67 -27h-1856q-40 0 -67 27t-27 67zM963 522h153v-784h318v784h227l22 256h-249v123q0 25 1 38.5t6.5 30t16.5 24.5t31.5 14t50.5 6h139v272h-202q-361 0 -361 -350v-158h-153v-256z" />
<glyph unicode="G" d="M0 -412v1848q0 41 29.5 70.5t70.5 29.5h1848q41 0 70.5 -29.5t29.5 -70.5v-1848q0 -41 -29.5 -70.5t-70.5 -29.5h-1848q-41 0 -70.5 29.5t-29.5 70.5zM197 -14q0 -94 71.5 -163t189 -103.5t263.5 -34.5q119 0 218 31t161.5 82.5t96.5 116t34 132.5q0 115 -39.5 188.5 t-140.5 147.5q-49 32 -96.5 82.5t-47.5 83.5q0 42 19 71t80 78q149 115 149 265q0 104 -43.5 188t-124.5 113h166l119 77h-518q-116 0 -220.5 -51.5t-167.5 -138t-63 -182.5q0 -155 111.5 -264t281.5 -109h49q-28 -54 -28 -102q0 -61 67 -144h-84q-209 0 -356 -110.5 t-147 -253.5zM426 37q0 94 97 160.5t229 66.5q15 0 108 -12q30 -11 98 -70t84 -108q2 -12 2 -45q0 -102 -78 -166t-245 -64q-126 0 -210.5 71t-84.5 167zM532 958q-2 22 -2 43q0 83 37 143q45 73 121 73h8q76 -2 144 -82t80 -189q4 -27 4 -52q0 -77 -34 -134 q-46 -76 -126 -76h-2q-83 5 -150 83t-80 191zM1321 1024h215v-215h102v215h205v109h-205v204h-102v-204h-215v-109z" />
<glyph unicode="H" d="M0 -416v1854q0 40 27.5 69t68.5 29h1854q40 0 69 -29t29 -69v-1854q0 -41 -29 -68.5t-69 -27.5h-1854q-41 0 -68.5 27.5t-27.5 68.5zM256 -16h430q92 0 131 8q70 14 113 49q35 27 65 76q41 68 41 149q0 75 -37 144q-40 59 -112 82q35 16 74 55q47 56 47 141q0 89 -47 141 q-69 103 -240 103h-465v-948zM471 150v251h211q58 0 90 -16q62 -33 62 -102q0 -88 -62 -117q-23 -16 -94 -16h-207zM471 559v209h182q71 0 115 -12q22 -9 35.5 -32.5t13.5 -53.5q0 -61 -39 -86q-36 -25 -100 -25h-207zM1112 342q0 -185 105 -270q92 -82 241 -82 q172 0 260 98q59 59 68 123h-189q-15 -34 -36 -45q-36 -33 -99 -33q-53 0 -98 25q-70 43 -70 145h498q0 100 -4 135q-12 79 -57 140q-40 70 -117 104q-76 31 -164 31q-147 0 -242 -92q-96 -104 -96 -279zM1260 799h385v98h-385v-98zM1296 416q10 73 45 108q37 43 109 43 q64 0 104 -37q46 -40 52 -114h-310z" />
<glyph unicode="I" d="M184 -179v10q0 57 10 121q12 70 47 171t91.5 208.5t155.5 246.5t229 284q135 150 281.5 268.5t287.5 196t266 126t250 77.5q71 24 156 24q74 0 122.5 -28t70.5 -84q13 -33 13 -78q0 -32 -6 -69q-16 -91 -71 -208q2 5 5 14.5t10.5 37.5t13.5 55q4 26 8 64q2 22 3 42 q1 14 -1 28q-2 32 -13.5 64t-31.5 55t-55 37.5t-82 14.5q-40 0 -142 -24q-141 -44 -288.5 -132.5t-262 -184.5t-216.5 -200t-161.5 -177.5t-87.5 -118.5q-133 -201 -192 -300q-259 -438 -259 -647q0 -47 13 -83q37 -99 178 -99q164 0 465 129l-20 6q-354 83 -531 338 q93 202 357 608q2 2 3.5 5.5t4.5 9.5l6 12q29 44 91.5 118.5t157 173.5t222.5 204t254 178q272 -80 443 -305t171 -531q0 -69 -8 -100h-1184q0 -7 0.5 -18.5t5.5 -45t14.5 -64t31 -67.5t51 -63.5t78 -45t108.5 -18.5q64 0 115 18.5t82 49.5t49 63.5t25 67.5h606 q-77 -292 -320 -455t-575 -163q-120 0 -215 20l-19 2q-27 -20 -75 -47.5t-119.5 -62t-158.5 -57.5t-163 -23q-203 0 -274 208q-8 21 -14 51t-7 92zM301 479q0 259 125 462.5t336 313t467 109.5q42 0 69 -2q-5 -3 -11 -5t-7 -3q-337 -183 -578 -467q-245 -263 -395 -525 q-6 43 -6 117zM952 649h566v16t-5 39t-14 55.5t-29.5 58.5t-49 55t-76.5 39t-107 16q-58 0 -105 -15.5t-76 -40t-50.5 -54.5t-31.5 -59.5t-15.5 -54t-6.5 -40.5v-15z" />
<glyph unicode="J" horiz-adv-x="2416" d="M123 -244q0 99 60 170t155 90q-16 57 -16 115q0 60 16 120q33 120 119 206l10 8l192 -203l-8 -8q-43 -51 -43 -123.5t43 -118.5q49 -43 122 -43t124 43l37 39l203 203l211 211l204 -203l-209 -211l-206 -188l-41 -45q-84 -86 -202 -118q-61 -16 -120 -16q-58 0 -115 15 q-17 -98 -88.5 -158.5t-171.5 -60.5q-115 0 -195.5 80t-80.5 196zM125 1255q0 116 81.5 197.5t196.5 81.5q103 0 174.5 -67t86.5 -173q59 17 119 17q57 0 114 -16q116 -32 199 -121l8 -9l-203 -186l-4 2q-51 41 -124 41t-122 -41q-43 -47 -43 -121.5t43 -120.5l41 -39 l205 -204l207 -205l-203 -209l-209 215l-192 199l-43 39q-92 95 -121 218q-12 52 -12 104q0 70 22 138q-100 20 -160.5 90.5t-60.5 169.5zM721 731l213 211l203 193l41 39q91 91 214 122q57 15 115 15l131 -19q12 106 85.5 174t174.5 68q117 0 198 -81t81 -198 q0 -105 -67 -176.5t-175 -89.5q20 -64 20 -128q0 -56 -15 -113q-32 -122 -123 -213l-2 -9l-199 205l14 8q37 51 37 123t-37 119q-52 41 -124.5 41t-123.5 -41l-39 -39l-206 -205l-205 -211zM1174 -176l200 192l8 -4q51 -43 123.5 -43t124.5 43q37 46 37 118.5t-37 123.5 l-43 43l-207 199l-206 204l200 209l213 -209l191 -204l39 -39q90 -87 123 -203q15 -56 15 -112q0 -61 -18 -122q108 -15 177 -87t69 -177q0 -116 -81 -196t-201 -80q-100 0 -170.5 61.5t-90.5 165.5q-71 -25 -143 -25q-52 0 -103 13q-125 30 -216 123z" />
<glyph unicode="K" d="M0 -418v1856q0 39 28.5 68.5t65.5 29.5h1862q40 0 69 -29t29 -69v-1856q0 -37 -29.5 -65.5t-68.5 -28.5h-1862q-37 0 -65.5 28.5t-28.5 65.5zM252 891q0 -59 22 -121.5t56 -110.5q-15 -103 -15 -161q0 -200 94.5 -366t259 -261.5t361.5 -95.5q83 0 176 26q89 -61 197 -61 q156 0 269.5 116.5t113.5 274.5q0 114 -53 193q18 64 18 174q0 198 -94 362t-259.5 259t-367.5 95q-103 0 -156 -14q-104 74 -231 74q-158 0 -274.5 -113.5t-116.5 -269.5zM629 250q0 49 22 74q26 32 76 32q45 0 72 -24q31 -22 53 -49q42 -45 76 -68q48 -25 114 -25 q79 0 115 31q41 21 41 78q0 54 -43 72q-9 3 -46.5 13.5t-61.5 18.5l-148 37q-22 4 -56.5 15t-47.5 14q-18 7 -93 49q-27 24 -57 78q-16 41 -16 106q0 90 35 138q42 62 90 88q67 37 129 45q51 16 135 16q83 0 139 -16q72 -9 129 -33q41 -18 90 -63q29 -39 29 -78 q0 -51 -25 -82q-35 -31 -73 -31q-44 0 -64 16q-37 32 -49 39q-6 5 -18.5 16t-23.5 19.5t-22 14.5q-30 20 -100 20q-58 0 -106 -20q-41 -19 -41 -74q0 -45 41 -64q16 -5 49 -15.5t51 -16.5l106 -25q25 -7 107 -27q83 -33 111 -57q34 -17 73 -66q31 -47 31 -116 q0 -76 -33 -140q-34 -51 -90 -94q-63 -38 -135 -53q-58 -18 -139 -18q-96 0 -164 18q-80 16 -141 45q-45 23 -91 76q-30 33 -30 86z" />
<glyph unicode="L" d="M0 -420v1862q0 40 27 67t67 27h1860q40 0 67 -27t27 -67v-1862q0 -40 -27 -67t-67 -27h-1860q-40 0 -67 27t-27 67zM324 -190h286v952h-286v-952zM324 1016q0 -62 41 -100.5t108 -38.5q63 0 102 38.5t39 100.5q0 54 -40 94.5t-101 40.5q-65 0 -107 -40t-42 -95zM788 -190 h302v552q0 44 12 74q19 45 64 77t104 32q82 0 121 -55.5t39 -153.5v-526h290v567q0 203 -94 309.5t-244 106.5q-111 0 -196 -50t-127 -108h-2v127h-269v-952z" />
<glyph unicode="M" horiz-adv-x="2490" d="M82 -242l225 772q6 4 17 11t51.5 25.5t88.5 32t128.5 25t169.5 11.5q37 0 75 -6t69 -14.5t65.5 -22.5t57.5 -25t51.5 -27.5t41.5 -24.5t33 -22t21 -14l-230 -774q-10 6 -27.5 15.5t-70 34t-102.5 43.5t-115 34.5t-117 15.5q-80 0 -154 -9.5t-122 -22.5t-85 -26t-54 -22z M342 668l225 774q10 5 27.5 13.5t73 28.5t113 33t141.5 19q34 3 68 3q50 1 96 -5q80 -10 173.5 -45t176.5 -96l-226 -775q-10 7 -28.5 17.5t-72 38t-104.5 48.5t-116 38.5t-117 17.5q-72 0 -142.5 -11.5t-120 -27.5t-89 -32t-58.5 -27zM1061 -360l227 766q10 -6 27 -16.5 t68.5 -37t100 -47t112 -37t114.5 -16.5q74 0 147 10.5t123.5 25.5t90.5 30t59 26l20 10h2l-219 -766q-7 -4 -20.5 -11t-56 -25t-86.5 -32t-108.5 -25t-125.5 -11q-76 0 -162 22.5t-140.5 47.5t-111.5 55t-61 31zM1321 543l225 762q230 -150 432 -150q96 0 205.5 26.5 t170.5 52.5l61 26l-228 -773q-1 -1 -13.5 -7t-23 -11t-29.5 -13.5t-39.5 -15.5t-47 -15.5t-57 -15t-64.5 -12.5t-74.5 -10t-83.5 -6q-18 -1 -35 -1q-52 0 -106 11q-70 15 -121 39.5t-91 50t-60 43.5z" />
<glyph unicode="N" d="M0 -418v1854q0 41 27 70.5t67 29.5h1848q41 0 70.5 -29.5t29.5 -70.5v-1854q0 -38 -29.5 -66t-70.5 -28h-1848q-39 0 -66.5 27.5t-27.5 66.5zM502 649h198v-545q0 -101 25 -159q17 -48 78 -105q62 -53 145 -78q89 -26 166 -26q82 0 174 18q97 22 180 68v244 q-112 -76 -231 -76q-65 0 -123 24q-47 34 -57 74q-8 23 -8 162v399h360v279h-358v354h-222q-11 -107 -55 -197q-15 -37 -39 -65.5t-63 -65.5q-57 -44 -170 -84v-221z" />
<glyph unicode="O" horiz-adv-x="2658" d="M80 252v9q0 101 63 175q53 67 193 125q87 35 199 51v-94q-35 0 -109 -18q-72 -32 -94 -68q-10 -17 -11 -38q0 -24 13 -52q41 -81 274 -262q85 -212 215 -340q101 -125 267 -213q-6 0 -16 2t-13 2q-209 38 -369 109q-185 76 -315 180q-166 124 -219 211q-69 109 -78 221z M608 522q0 229 66 404q67 185 207 331q132 147 290 220q151 71 342 71q185 0 345 -71q156 -78 286 -220q145 -158 205 -331q64 -195 64 -404q0 -208 -64 -403q-56 -162 -201 -330q-151 -151 -286 -217q-168 -74 -349 -74q-191 0 -342 74q-149 66 -290 217q-143 152 -207 332 q-66 172 -66 401zM1149 522q0 -544 80 -733q44 -80 112 -119t172 -39q198 0 279 156q80 171 80 735q0 570 -80 735q-79 156 -279 156q-103 0 -171.5 -39t-112.5 -117q-80 -196 -80 -735zM1219 518v8q65 -12 135 -49q161 -65 315 -176q63 -54 123 -100q-22 -305 -70 -387 q0 -1 -6.5 -13t-7.5 -20q-39 60 -145.5 156t-276.5 215q-49 34 -59 43q-8 115 -8 323z" />
<glyph unicode="P" d="M0 -418v1854q0 41 27 70.5t67 29.5h1854q41 0 70.5 -29.5t29.5 -70.5v-1854q0 -40 -29.5 -67t-70.5 -27h-1854q-40 0 -67 27t-27 67zM322 510q0 -94 24 -182l629 565l-275 242q-171 -89 -274.5 -257t-103.5 -368zM373 248q89 -216 289 -342v612zM737 -129 q125 -61 287 -61q206 0 377.5 109.5t255.5 289.5h-920v-338zM784 1171l527 -483v461q-135 63 -287 63q-119 0 -240 -41zM1386 281h300q40 118 40 229q0 188 -92.5 349t-247.5 253v-831z" />
<glyph unicode="Q" horiz-adv-x="2457" d="M82 524q0 206 81 394.5t217.5 324.5t324.5 216.5t393 80.5q208 0 398 -80.5t327.5 -216.5t219 -324t81.5 -395q0 -291 -164 -555l180 -186v-305h-301l-188 184q-254 -160 -553 -160q-164 0 -319 51.5t-280 146.5t-219.5 220.5t-146 281.5t-51.5 322zM500 524 q0 -123 48 -235t128.5 -192.5t191 -128.5t230.5 -48q164 0 303.5 80.5t221 220t81.5 303.5q0 101 -34.5 199.5t-94.5 175.5l166 166l-96 100l-172 -168q-162 127 -375 127q-160 0 -298 -81t-219 -219.5t-81 -299.5zM952 524q0 63 43.5 107.5t102.5 44.5q1 0 49 -8l326 325 l102 -100l-328 -320q6 -21 6 -49q0 -65 -44.5 -109t-110.5 -44q-59 0 -102.5 44.5t-43.5 108.5zM1036 524q0 -30 17.5 -49.5t44.5 -19.5q31 0 50 19t19 50q0 20 -12 41l-12 10q-17 11 -45 11q-26 0 -44 -18t-18 -44z" />
<glyph unicode="R" horiz-adv-x="2048" d="M0 -412v1848q0 41 29.5 70.5t70.5 29.5h1848q41 0 70.5 -29.5t29.5 -70.5v-1848q0 -41 -29.5 -70.5t-70.5 -29.5h-1848q-41 0 -70.5 29.5t-29.5 70.5zM258 512q0 -208 102 -382.5t278 -276t386 -101.5q156 0 297.5 60t244 161.5t162.5 242t60 296.5q0 158 -60 300.5 t-162.5 245t-244 162.5t-297.5 60q-157 0 -299 -60t-244.5 -162.5t-162.5 -245t-60 -300.5zM381 487h92q328 0 576 97q4 -10 17 -42t21 -46q-161 -55 -297 -161t-239 -253q-155 172 -170 405zM391 612q23 152 113.5 277.5t226.5 191.5q165 -196 262 -381q-265 -92 -520 -92 q-14 0 -42 2t-40 2zM653 -4q85 134 207.5 232t267.5 147q76 -229 97 -465q-95 -33 -201 -33q-202 0 -371 119zM856 1130q107 29 168 29q124 0 238.5 -48t207.5 -134q-176 -149 -358 -227q-124 229 -256 380zM1169 633q216 102 381 241q111 -159 111 -356q-120 27 -240 27 q-123 0 -211 -19q-6 19 -22.5 60t-18.5 47zM1257 408q102 16 164 16q118 0 230 -33q-28 -137 -107 -247t-201 -177q-26 239 -86 441z" />
<glyph unicode="S" horiz-adv-x="2457" d="M106 516q0 327 187 592.5t489 376.5q-18 18 -30.5 45t-12.5 51q0 64 48.5 111t103.5 47q65 0 110.5 -46t45.5 -112q0 -3 -5 -33q15 0 48.5 3t50.5 3q211 0 403 -82t331.5 -221t221.5 -331t82 -404q0 -211 -82 -402.5t-221.5 -330t-331.5 -220t-403 -81.5t-403 81.5 t-330 220t-220 330t-82 402.5zM365 516q0 -80 6 -117l102 -26l-80 -64q65 -244 274.5 -405.5t473.5 -161.5q84 0 123 8l26 105l66 -84q243 66 401 274.5t158 470.5q0 58 -6 117l-103 26l84 64q-68 248 -276.5 407.5t-472.5 159.5q-33 0 -115 -4l-20 -104l-60 86 q-164 -43 -296 -151.5t-208.5 -266t-76.5 -334.5zM657 -8l291 446l-184 8l182 91q2 25 19 73l-76 82l106 -37q21 21 66 41l6 199l98 -188q7 0 15 -2l436 364l-293 -459l182 -8l-184 -104q0 -9 -6.5 -26t-7.5 -28l69 -73l-94 30q-32 -36 -63 -49l-7 -184l-90 164q-20 0 -32 2 zM829 1581q0 -53 43 -70q19 10 78 21q17 34 17 49q0 36 -22 58t-54 22q-27 0 -44.5 -22t-17.5 -58zM965 524q0 -24 8 -45l80 123l108 82h-26q-69 0 -119.5 -47.5t-50.5 -112.5zM1061 526q0 -30 25 -55t55 -25q33 0 57 31q21 15 21 49t-23 57t-55 23q-23 0 -60 -26 q-20 -23 -20 -54zM1108 354q8 -2 27 -2q68 0 116.5 51t48.5 121q0 9 -1 22t-1 17l-75 -114z" />
<glyph unicode="T" d="M0 -420v1862q0 40 27 67t67 27h1862q38 0 65 -27t27 -67v-1862q0 -38 -27 -65t-65 -27h-1862q-40 0 -67 27t-27 65zM446 334q0 -349 207 -506q120 -84 265 -84h16h6h502q54 0 90.5 43.5t36.5 106.5v67q0 54 -36.5 90.5t-90.5 36.5h-402q-81 0 -137.5 38t-87.5 93 q-31 47 -31 133v6v195h646q63 0 108 47.5t45 118.5q0 55 -46.5 101t-106.5 46h-646v271q0 63 -36.5 103t-94.5 40h-67q-58 0 -99 -40.5t-41 -102.5v-768v-35z" />
<glyph unicode="U" d="M0 0h766q138 0 236 97.5t98 232.5l-6 61q-4 38 -12.5 68.5t-35.5 68t-68.5 63t-116.5 43t-175 17.5q-37 0 -65.5 26.5t-28.5 65.5q0 36 28 61t66 25h578q21 0 39 -16.5t18 -36.5v-504q0 -63 49.5 -126.5t128.5 -104.5t160 -41h45q145 0 246.5 100t101.5 244v-756 q0 -41 -29.5 -70.5t-70.5 -29.5h-1852q-41 0 -70.5 29.5t-29.5 70.5v412zM0 242v1198q0 41 29.5 70.5t70.5 29.5h1723v-1188q0 -46 -33 -78t-78 -32h-59q-45 0 -78 32t-33 78v451q0 113 -76 192.5t-188 79.5h-74h-502q-138 0 -237.5 -101.5t-99.5 -242.5q0 -14 3.5 -39.5 t4.5 -34.5q27 -97 103.5 -162t176.5 -71h121q39 0 68.5 -27.5t29.5 -66.5q0 -36 -29.5 -62t-68.5 -26h-774z" />
<glyph unicode="V" d="M0 -418v1856q0 40 27.5 69t66.5 29h1856q40 0 69 -29t29 -69v-1856q0 -39 -29 -66.5t-69 -27.5h-1856q-40 0 -67 27t-27 67zM254 803l61 -80q5 4 13.5 10.5t32 21.5t43.5 23.5t42 9t33 -13.5q17 -22 69 -181.5t107.5 -340t71.5 -221.5q24 -59 69 -103q46 -42 108 -56 q15 -3 30 -4q49 0 100 34q50 32 118.5 87.5t161 150t172.5 198.5t146.5 239.5t89.5 266.5q8 44 8 82q0 121 -80 181q-59 45 -142 45q-35 0 -74 -8q-133 -28 -227 -129q-82 -90 -101 -206q48 29 90 33q6 1 13 0q33 0 55 -16q26 -20 38 -52q8 -21 8 -47q0 -15 -3 -31 q-7 -46 -33 -92q-60 -115 -121.5 -188.5t-93.5 -73.5q-27 0 -50.5 65t-66.5 228q-8 38 -19 108t-19 121.5t-25.5 111.5t-39.5 96q-21 36 -59 56q-25 14 -57 14q-15 0 -31 -3q-53 -10 -117.5 -48t-118.5 -85.5t-101 -94t-74 -77.5z" />
<glyph unicode="W" horiz-adv-x="2457" d="M119 510q0 207 81.5 397t219 328t327.5 220.5t398 82.5q207 0 397.5 -82.5t328.5 -220.5t220 -328t82 -397q0 -139 -37.5 -272t-104 -245.5t-161.5 -207.5t-208 -161t-245.5 -103t-271.5 -37q-208 0 -398 81.5t-327.5 219t-219 327.5t-81.5 398zM244 510q0 -264 138 -482 t370 -337l-435 1188q-73 -205 -73 -369zM391 1004h58q44 0 103.5 3.5t97.5 6.5l38 4q23 1 34 -17.5t3.5 -38.5t-29.5 -24q-49 -2 -104 -8l332 -973l194 590l-141 383l-92 8q-23 3 -32 23t1 39t33 18q149 -14 239 -14q43 0 101 3.5t95 6.5l36 4q27 1 39 -17.5t3 -38.5 t-34 -24q-47 -2 -96 -8l325 -965l86 303q72 167 72 287q0 51 -13.5 102t-25 75.5t-37.5 72.5q-7 13 -24 41.5t-25 43.5t-18 38.5t-14.5 45t-4.5 44.5q0 61 43 109.5t107 48.5h12q-120 113 -277.5 172t-330.5 59q-234 0 -431.5 -107.5t-322.5 -295.5zM895 -350 q134 -41 250 -41q108 0 299 43q-2 3 -4 7t-4 7l-277 766zM1599 -276q204 126 324.5 333.5t120.5 452.5q0 216 -105 434q9 -70 9 -96q0 -154 -74 -324z" />
<glyph unicode="X" horiz-adv-x="2256" d="M0 -418v1870q0 37 28.5 65.5t65.5 28.5h1864q40 0 67 -28t27 -66v-1870q0 -38 -27 -66t-67 -28h-1864q-37 0 -65.5 28.5t-28.5 65.5zM195 86l170 -139l-170 -131h71l133 100l138 -100h75l-176 131l176 139h-75l-138 -106l-133 106h-71zM381 236q24 16 68 41.5t63 37.5 q168 103 293.5 198t224.5 206q57 -50 130.5 -106.5t121 -90t148.5 -103.5t137 -95q51 -27 133 -80q-62 62 -287 307q-95 124 -221 305q97 92 375 385q-21 -17 -72 -45t-68 -39q-370 -154 -397 -164q-6 3 -168 76q-122 43 -190 78q-11 5 -39 19t-40 20.5t-32.5 17.5t-35.5 22 t-29 23q16 -21 47 -53t39 -41q35 -33 143 -145l160 -154q-109 -160 -182.5 -258t-147.5 -170q-76 -94 -174 -192zM594 -29v-47h43q3 -79 43 -108h283q39 26 49 108l-23 8v25l23 14q-9 78 -49 115h-283q-40 -32 -43 -115h-43zM680 -29q2 11 6.5 22.5t12 26t10.5 21.5h231 q20 -58 23 -70h-283zM680 -76h283q-8 -34 -23 -71h-231q-26 52 -29 71zM1044 -53q0 -101 50 -131h280q47 28 47 131q0 98 -47 139h-280q-50 -44 -50 -139zM1094 -53q0 42 20 94h236q26 -50 26 -94q0 -14 -16 -64l-10 -30h-236l-12 30q-8 33 -8 64zM1444 86l178 -139 l-178 -131h78l133 100l131 -100h78l-172 131l172 139h-78l-131 -106l-133 106h-78z" />
<glyph unicode="Y" d="M0 -412v1817q0 62 28.5 96.5t71.5 34.5h1848q41 0 70.5 -29.5t29.5 -70.5v-1848q0 -41 -29.5 -70.5t-70.5 -29.5h-1848q-36 0 -68 39.5t-32 60.5zM193 -104q0 -105 74 -179.5t177 -74.5h1155q105 0 180.5 74.5t75.5 179.5v589q0 104 -75.5 178t-180.5 74h-1155 q-103 0 -177 -74t-74 -178v-589zM334 467v100h342v-100h-119v-631h-111v631h-112zM457 1407l4 -4l117 -361v-213h114v220l115 358h-111l-65 -238l-64 238h-110zM672 -72v445h102v-408q0 -12 8 -28q9 -9 21 -9q9 0 22 13q26 15 35 28v404h103v-537h-103v62q-5 -5 -14 -14.5 t-14 -14.5t-12 -10.5t-13 -8.5q-38 -20 -59 -20q-42 0 -58 25q-18 21 -18 73zM836 942q0 -54 34 -88q35 -35 99 -35q52 0 94 31q33 33 33 92v203q0 43 -33 84q-50 33 -90 33q-49 0 -99 -33q-38 -27 -38 -84v-203zM936 934v213q0 18 8 22q2 9 25 9q15 0 24 -9q11 -11 11 -22 v-213q0 -4 -2 -7t-5 -7t-4 -7q-11 -8 -24 -8q-22 0 -25 8q-8 3 -8 21zM1055 -164v731h102v-229q29 29 47 37q18 14 43 14q48 0 76 -35q20 -42 20 -102v-299q0 -52 -20 -90q-23 -29 -74 -29q-30 0 -45 12q-29 13 -47 39v-49h-102zM1157 -59q9 -9 25 -17q20 -10 24 -10 q22 0 25 14q10 10 10 37v279q0 30 -10 45q-14 14 -33 14q-12 0 -20 -6q-10 -5 -21 -16v-340zM1208 907q0 -46 17 -61q16 -25 51 -25q6 0 55 17q21 14 45 32v-41h99v420h-99v-309q-16 -16 -24 -18q-16 -9 -29 -9q-10 0 -10 2q-8 8 -8 19v315h-97v-342zM1417 -10v246 q0 69 45 114q47 47 113 47q65 0 108 -43q35 -43 35 -118v-144h-192v-96q0 -47 8 -59q6 -17 37 -17q23 0 35 12q8 12 8 64v39h104v-45q0 -82 -41 -123q-36 -39 -110 -39q-76 0 -109 43q-41 41 -41 119zM1526 184h88v52q0 38 -10 51q-16 16 -33 16q-29 0 -37 -16 q-8 -10 -8 -51v-52z" />
<glyph unicode="Z" d="M0 -412v1848q0 41 29.5 70.5t70.5 29.5h1848q41 0 70.5 -29.5t29.5 -70.5v-1848q0 -41 -29.5 -70.5t-70.5 -29.5h-1848q-41 0 -70.5 29.5t-29.5 70.5zM195 383h315q59 0 101 43t42 102q0 60 -41.5 102t-101.5 42h-252zM274 809h316q60 0 103.5 42.5t43.5 102.5 q0 58 -43.5 100t-103.5 42h-246zM700 -61h316q62 0 103.5 40.5t41.5 102.5q0 58 -42 100.5t-103 42.5h-252zM772 383h320q58 0 99.5 44t41.5 103q0 60 -41 101t-100 41h-252zM856 809h313q60 0 102 42.5t42 102.5q0 59 -42 100.5t-102 41.5h-247zM1311 113h315 q61 0 104.5 41t43.5 98q0 63 -43 105t-105 42h-248zM1397 563h313q62 0 102.5 41.5t40.5 102.5q0 60 -40.5 101.5t-102.5 41.5h-248z" />
<glyph unicode="^" horiz-adv-x="2459" d="M117 -420v1864q0 35 28.5 63.5t63.5 28.5h1864q35 0 63.5 -28.5t28.5 -63.5v-1864q0 -35 -28.5 -63.5t-63.5 -28.5h-1864q-35 0 -63.5 28.5t-28.5 63.5zM593.5 785.5q-3.5 -70.5 19.5 -136.5t81.5 -128.5t147.5 -110.5v135q-62 52 -89.5 114t-21 120t41.5 113t90 94 t131.5 60t160.5 15q247 -13 337 -156q68 -109 24 -251q-38 -127 -143 -208q-129 -98 -279 -64q-13 3 -27 7q-13 3 -5.5 131.5t17.5 128.5q36 0 63.5 56.5t7.5 117t-103 68.5q-70 6 -110.5 -43t-35 -107.5t50.5 -78.5q-1 -7 -56.5 -343.5t-76.5 -517.5q57 -15 100.5 26 t66 112t36 143.5t20 127t9.5 56.5q138 -44 262.5 -7.5t216 117.5t141.5 189t41 207q-15 224 -164.5 337t-402.5 118q-89 1 -172.5 -22.5t-149.5 -65t-117 -98.5t-80 -121t-32.5 -134.5z" />
<glyph unicode="_" horiz-adv-x="2459" d="M2 510q0 147 39 287t108.5 258.5t169 218.5t218 169.5t259 108.5t287.5 39q220 0 420 -86t345 -230.5t231 -344.5t86 -420t-86 -420.5t-231 -345t-345 -230t-420 -85.5t-420.5 85.5t-345 230t-230 345t-85.5 420.5zM444 14q0 -84 58.5 -142t140.5 -58h940q84 0 143.5 58 t59.5 142v488q0 83 -59.5 140.5t-143.5 57.5h-940q-82 0 -140.5 -57.5t-58.5 -140.5v-488zM635 467v49h201v-49h-80v-473h-51v473h-70zM735 1280l4 -4l95 -285v-170h90v174l90 285h-88l-54 -188l-49 188h-88zM819 66v325h80v-307q0 -17 19 -23t36 0q5 3 31 11t29 14v305h78 v-397h-78v49q1 -25 -48 -41t-98 -1t-49 65zM1016 913q0 -43 28 -71q27 -27 78 -27q45 0 74 23q27 27 27 75v160q0 36 -27 66q-30 24 -72 24t-77 -24q-31 -28 -31 -66v-160zM1096 905v168q0 15 6 19q2 6 20 6q13 0 19 -6q8 -8 8 -19v-168q0 -4 -8 -16q-6 -6 -19 -6 q-18 0 -20 6q-6 3 -6 16zM1145 -6v553h72v-182q27 23 38 28q13 13 35 13q35 0 60 -29q14 -25 14 -80v-211q0 -47 -14 -72q-19 -22 -58 -22q-24 0 -37 10q-21 9 -38 31v-39h-72zM1217 76q9 -10 20 -13q9 -6 20 -6q16 0 19 9q8 8 8 32v193q0 27 -8 35q-12 12 -25 12 q-10 0 -18 -6q-3 0 -16 -13v-243zM1272 883q0 -37 12 -49q11 -17 33 -17q13 0 43 10q16 12 37 27v-33h76v334h-76v-244q-13 -13 -21 -16q-10 -6 -22 -6q-8 0 -8 2q-9 6 -9 14v250h-65v-272zM1407 90v193q0 30 0.5 44t5 32t14 25.5t27.5 13t45 5.5q77 0 96 -21t19 -99v-101 h-144v-90v-8.5t0.5 -3.5t1.5 -1t2 -1t3 -4q4 -20 22.5 -26.5t35.5 1.5t17 25v55l74 2v-41q0 -52 -21 -78t-79 -26q-59 0 -94 24q-15 17 -20 33t-5 47zM1470 242h93v41v41q0 8 -23.5 11.5t-47 0t-22.5 -11.5v-41v-41z" />
<glyph unicode="a" horiz-adv-x="2048" d="M262 215v1321h539h6l-14 -35zM268 -512h92l23 100h111l16 -100h88l-121 526h-84zM399 -324l35 195v4l37 -199h-72zM612 -317q0 -90 28 -146.5t85 -56.5h16q37 11 56 57v-49h75v526h-79v-170q-26 30 -39 35q-6 3 -13 4q-2 4 -16 4q-60 0 -86.5 -59.5t-26.5 -144.5z M696 -317q0 107 45 124q56 0 56 -124q0 -134 -56 -134q-45 5 -45 134zM776 485q4 0 17 27q40 91 133 308t90 214q174 -403 274 -641q12 -26 26.5 -57.5t23 -50.5t16.5 -36.5t11 -25.5t1 -8h-225l-115 270h-252zM926 -317q0 -94 33.5 -148.5t101.5 -54.5q65 0 96 54.5 t31 148.5q0 93 -31.5 148.5t-95.5 55.5q-68 0 -101.5 -55.5t-33.5 -148.5zM1008 -317q0 124 53 124t53 -124q0 -71 -13.5 -100t-39.5 -29q-53 0 -53 129zM1217 1536q32 -71 73 -182q70 -157 194 -442t213 -491l89 -206v1321h-569zM1241 14v-526h72v49h2q12 -28 22.5 -39.5 t30.5 -17.5h16q117 0 117 203q0 204 -117 204q-8 0 -16 -4q-33 -7 -47 -41v172h-80zM1315 -317q0 124 53 124q10 0 20 -8.5t19.5 -38t9.5 -77.5q0 -129 -49 -129q-53 0 -53 129zM1536 -317q0 -55 10 -95t24 -60t34 -31.5t34 -14t31 -2.5h4q106 0 123 119h-78 q-5 -28 -16 -36.5t-29 -8.5q-21 0 -34 20t-13 78h176v22q0 63 -11.5 107.5t-31.5 66t-39.5 30.5t-42.5 9h-4q-60 -3 -98.5 -57.5t-38.5 -146.5zM1626 -283q0 84 47 90q21 0 33.5 -18.5t15.5 -71.5h-96z" />
<glyph unicode="b" horiz-adv-x="2441" d="M113 -104v1232q0 169 117.5 288.5t287.5 119.5h848q168 0 289 -120t121 -288v-360h385v-872q0 -169 -118 -288.5t-288 -119.5h-1237q-170 0 -287.5 119.5t-117.5 288.5zM520 106q0 -88 43.5 -148t106.5 -60h940q61 0 103 60t42 148q0 85 -42 143t-103 58h-940 q-63 0 -106.5 -58t-43.5 -143zM520 932q0 -81 45.5 -138t110.5 -57h518q61 0 106.5 57t45.5 138t-45.5 137.5t-106.5 56.5h-518q-65 0 -110.5 -56.5t-45.5 -137.5z" />
<glyph unicode="c" horiz-adv-x="2390" d="M170 -418v1854q0 41 27 70.5t67 29.5h1854q41 0 69.5 -29.5t28.5 -70.5v-1854q0 -40 -28.5 -67t-69.5 -27h-1854q-40 0 -67 27t-27 67zM231 -350q0 -40 30.5 -70.5t70.5 -30.5h862v963h958v862q0 40 -28.5 69.5t-67.5 29.5h-862v-961h-963v-862z" />
<glyph unicode="d" horiz-adv-x="2408" d="M121 465v483q0 89 50 151t136 62h172q89 0 153 -64t64 -149v-483h-575zM193 -203q0 8 9.5 17.5t20.5 9.5h115v569h141v-569h109q11 0 18.5 -9t7.5 -18v-205q0 -10 -7.5 -18t-18.5 -8h-365q-12 0 -21 8.5t-9 17.5v205zM717 1118h276v-305q0 -28 22.5 -49t49.5 -21h659 q29 0 49.5 20.5t20.5 49.5v305h336q30 0 51 -18t21 -45v-432q0 -27 -21.5 -48.5t-50.5 -21.5h-225v-1008q0 -27 -19.5 -46t-46.5 -19h-407v569h-95v-569h-383q-27 0 -47 19t-20 46v1008h-103v395q0 45 -18.5 91t-48.5 79zM1073 874v599q0 24 17.5 42.5t39.5 18.5h531 q25 0 42 -18t17 -43v-599q0 -26 -17 -42.5t-42 -16.5h-531q-23 0 -40 17t-17 42z" />
<glyph unicode="e" horiz-adv-x="2506" d="M201 436q0 133 66 246.5t178.5 179.5t244.5 66q135 0 248 -66.5t178.5 -179.5t65.5 -246q0 -204 -143.5 -346.5t-348.5 -142.5q-132 0 -244.5 65t-178.5 177.5t-66 246.5zM1335 436q0 203 143.5 347.5t346.5 144.5q132 0 244.5 -66t178.5 -179.5t66 -246.5 q0 -134 -66 -246.5t-178.5 -177.5t-244.5 -65q-134 0 -246.5 65t-178 177.5t-65.5 246.5zM1446 436q0 -160 109.5 -268.5t269.5 -108.5q157 0 266 109t109 268q0 158 -109 268.5t-266 110.5q-159 0 -269 -110t-110 -269z" />
<glyph unicode="f" horiz-adv-x="1646" d="M309 530v332h217v219q0 225 115.5 340t364.5 115h270v-348h-191q-48 0 -77 -9.5t-42 -32.5t-16.5 -46t-3.5 -64v-174h328l-25 -332h-303v-1042h-420v1042h-217z" />
<glyph unicode="g" horiz-adv-x="2465" d="M152 -162q0 88 49 172.5t132 149t201.5 104t249.5 39.5h105q-28 34 -42 53t-29 55t-15 72q0 43 37 115h-62q-213 0 -349 134.5t-136 328.5q0 123 78 232.5t207 174t272 64.5h637l-144 -105h-200q97 -37 150 -139.5t53 -228.5q0 -96 -48 -183t-129 -151 q-75 -59 -98.5 -95.5t-23.5 -84.5q0 -39 52 -97t113 -108q125 -89 176.5 -183t51.5 -233q0 -86 -42.5 -167t-120.5 -146.5t-200.5 -105.5t-269.5 -40q-179 0 -327.5 45t-238 131.5t-89.5 196.5zM440 -90q0 -124 104.5 -210.5t262.5 -86.5q214 0 309.5 78.5t95.5 210.5 q0 6 -1.5 16t-3.5 21t-3 16q-13 61 -95 132.5t-124 90.5q-78 19 -137 19h-14q-152 0 -270 -83q-124 -87 -124 -204zM578 1051q15 -138 99 -238.5t187 -103.5h2q97 0 156 96q45 74 45 173q0 29 -4 60q-19 135 -103 234t-182 100h-12q-94 0 -148 -88q-45 -71 -45 -168 q0 -31 5 -65zM1554 1137v141h258v254h142v-254h266v-141h-266v-275h-142v275h-258z" />
<glyph unicode="h" horiz-adv-x="2818" d="M178 -190v1529h740q136 -3 235 -42.5t152 -110.5q43 -61 63.5 -118t20.5 -128q0 -137 -84 -215q-22 -43 -111 -96q125 -39 176 -135q60 -89 60 -220q0 -127 -70 -241q-23 -60 -103 -129q-9 -5 -32 -17.5t-36 -19t-32.5 -15.5t-38 -13.5t-37.5 -6.5q-96 -22 -219 -22h-684 zM532 80h322q106 0 154 26q98 55 98 183q0 131 -90 168q-66 37 -158 37h-326v-414zM532 735h322q106 0 166 41q57 41 57 127q0 118 -84 144q-61 28 -182 28h-279v-340zM1550 375q0 300 150 438q148 154 391 154q148 0 252 -52q123 -57 194 -163q71 -128 76 -228 q19 -89 19 -211h-797q0 -153 117 -235q75 -35 157 -35q100 0 156 47q37 29 59 74h285q0 -101 -102 -195q-156 -162 -412 -162q-213 0 -385 134q-160 127 -160 434zM1784 1102v158h606v-158h-606zM1841 500h494q-3 110 -80 174q-64 55 -164 55q-124 0 -172 -57 q-63 -77 -78 -172z" />
<glyph unicode="i" horiz-adv-x="2883" d="M203 186q-17 67 -17 135q0 125 58 253q90 200 293 368l-209 127l759 201q-2 -2 -6.5 -6t-8.5 -6.5t-9 -4.5q7 2 15.5 8.5t13.5 8.5q-308 -150 -460 -426q-102 -186 -102 -378q0 -93 23 -187q50 -189 190 -331t336 -212q167 -60 351 -59q31 0 63 1q-154 -25 -300 -25 q-79 0 -155 7q-218 21 -389.5 85.5t-289.5 179t-156 261.5zM946 424q0 154 86 287q82 148 240 223q97 41 170.5 62.5t152.5 21.5q107 0 197 -64q63 -46 63 -137q0 -80 -53 -149q-65 -80 -180 -133q-158 -57 -391 -95h-6l-8 -80q0 -47 15 -94t40 -78q43 -51 149 -51 q84 0 154 37q34 11 78 45.5t84 83.5q8 -2 26.5 -15.5t28.5 -25.5q-95 -100 -217 -158q-116 -49 -240 -49q-187 0 -286 90q-103 92 -103 279zM1231 494l20 4q180 30 248 98q63 54 91 109.5t28 125.5q0 64 -29 84q-26 33 -71 33q-81 0 -146 -88q-53 -60 -83.5 -143.5 t-53.5 -202.5zM1386 1356q174 26 334 26h34q176 -3 330.5 -43t275 -106.5t203 -164.5t112.5 -216q20 -72 20 -144q1 -124 -57 -248q-92 -198 -297 -362l209 -123l-758 -204q5 3 12.5 8t12.5 8q-19 -12 -31 -16q200 98 340 255q139 158 194 348q29 102 29 202q0 88 -22 174 q-51 193 -190 336.5t-335 213.5q-163 58 -343 58q-36 0 -73 -2z" />
<glyph unicode="j" horiz-adv-x="2156" d="M164 -12v960l239 -137v-958zM195 1004l870 534l850 -526l-242 -135l-608 378l-627 -387zM635 -297v977l295 -166l6 6v-786l129 -76l127 76v788l283 170v-989l-410 -262zM659 741l277 160v-313zM1192 596v305l254 -151zM1720 -154v979l232 133v-970z" />
<glyph unicode="k" horiz-adv-x="2390" d="M106 1028q0 108 43 206.5t115.5 169.5t171.5 113t207 42q179 0 303 -103q110 29 225 29q202 0 385.5 -78.5t317 -210.5t212.5 -316t79 -386q0 -128 -33 -236q70 -112 70 -260q0 -107 -42 -206t-113.5 -171t-171 -115t-208.5 -43q-146 0 -258 72q-118 -35 -238 -35 q-202 0 -385.5 79t-315.5 212.5t-210 317t-78 385.5q0 118 27 223q-103 127 -103 311zM623 166q0 -72 49 -121q31 -51 123 -98q78 -45 180 -70q100 -27 223 -27q103 0 195 27q69 20 176 78q63 43 123 129q41 75 41 180q0 86 -35 158q-7 10 -16.5 20.5t-15.5 17.5t-18.5 18 t-16.5 14t-19 16t-17 14q-64 42 -143 68q-61 24 -152 45l-147 33q-93 25 -135 45q-57 20 -57 88q0 50 57 94q56 20 153 20q92 0 136 -20q52 -36 79 -66q56 -40 70 -47q27 -24 82 -24t98 37q39 48 39 110q0 55 -47 105q-36 47 -119 80q-84 41 -170 59q-106 18 -192 18 q-76 0 -186 -18q-73 -19 -166 -72q-85 -52 -123 -121q-49 -76 -49 -180q0 -67 24 -149q51 -76 80 -101q61 -46 117 -61q52 -26 139 -47l207 -53q75 -20 149 -50q62 -23 62 -90q0 -63 -62 -102q-56 -39 -151 -39q-103 0 -162 35q-13 10 -34.5 26t-38 29t-29.5 25 q-44 41 -76 73q-27 27 -88 27q-72 0 -105 -41q-32 -43 -32 -92z" />
<glyph unicode="l" horiz-adv-x="2516" d="M195 -512v1470h446v-1470h-446zM201 1333q0 94 60 152.5t161 58.5q104 0 167.5 -58.5t63.5 -152.5q0 -90 -64.5 -150.5t-166.5 -60.5q-99 0 -160 60.5t-61 150.5zM911 -512v1470h412v-206h14q25 39 68 79t103 77t142.5 60t170.5 23q115 0 211 -39t167.5 -115.5 t111.5 -198t40 -278.5v-872h-461v811q0 151 -57 235t-176 84q-95 0 -165.5 -51.5t-92.5 -120.5q-21 -38 -21 -110v-848h-467z" />
<glyph unicode="m" horiz-adv-x="2156" d="M132 843v16q0 20 2 40q2 27 12.5 59t28 55.5t50 39.5t76.5 16q125 0 190 -1t70 -1q35 0 52.5 27.5t17.5 74.5q0 27 -2 106.5t-2 104.5q0 22 9.5 46.5t29.5 50t59.5 42.5t91.5 17q81 0 132.5 -1t94.5 -1q69 0 131.5 -51.5t81.5 -120.5h381q22 0 42.5 -1.5t59 -10t70 -23 t67.5 -44t60.5 -70t41 -105t16.5 -143.5q0 -199 -1.5 -312.5t-7.5 -293t-23 -324t-44 -264.5q-64 -293 -367 -293h-268q-51 0 -100.5 20.5t-86 65t-36.5 102.5q0 56 1 80.5t3.5 43t3.5 32.5q4 25 12.5 51t24 56t42 48.5t60.5 18.5q6 0 178 -8q26 -2 41.5 -15.5t17.5 -32 t-3.5 -36.5t-20 -30.5t-32.5 -12.5h-89q-25 0 -50 -13.5t-25 -37.5q0 -27 14 -64q6 -51 64 -51q192 0 249 8q42 5 64 30t22 81q0 93 -14 168q-9 52 -52 102.5t-99 50.5h-170q-27 0 -65.5 8.5t-74 30.5t-35.5 51v154q0 42 -22 54q-22 11 -35 -22q-10 -24 -10 -65 q0 -69 -2 -119t-2 -69q0 -41 -32.5 -70t-100.5 -29q-10 0 -109 -3t-169 -3t-159.5 12t-134.5 37q-58 33 -106.5 167.5t-73 267.5t-35.5 251q-1 6 -2.5 16t-2.5 39zM199 1145l340 2l8 319q-84 -54 -151 -107t-102 -90t-58.5 -66t-29.5 -43zM1460 553h226q0 55 -24 86t-99 31 q-30 0 -51.5 -12t-31 -29t-14.5 -34.5t-6 -29.5v-12z" />
<glyph unicode="n" horiz-adv-x="1714" d="M190 702v293q163 54 232 115q98 87 137 178q60 107 74 262h291v-477h483v-371h-483v-528q0 -188 14 -223q13 -48 80 -92q60 -37 160 -37q159 0 307 94v-322q-131 -65 -238 -88q-105 -24 -231 -24q-115 0 -230 37q-106 38 -180 106q-69 56 -110 139q-31 66 -31 213v725 h-275z" />
<glyph unicode="o" horiz-adv-x="3827" d="M127 14q0 56 210.5 108.5t578 86t786.5 33.5q423 0 791.5 -33.5t577 -86t208.5 -108.5q0 -60 -210 -110.5t-574 -80.5t-793 -30q-425 0 -788 30t-575 81t-212 110zM227 434l123 567h307l-69 -383q53 -4 143 -4q115 6 215 62q44 28 103 98q21 43 21 107q0 69 -32 110 q-37 37 -95.5 58.5t-115.5 21.5h-452l45 191h1227l163 -543l441 543h758q305 -34 409 -193q56 -80 56 -172q0 -87 -43 -163q-44 -78 -123 -136q-17 -19 -45 -36.5t-48.5 -26.5t-64.5 -27q-174 -74 -408 -74l-452 2l125 557h333l-94 -379h150q151 7 233 72q17 13 39 39t31 35 q42 63 42 122q0 75 -69 142q-67 45 -125 47l-504 -2l-741 -827l-303 829l-35 -2q38 -67 42 -135l2 -22q0 -56 -20 -106q-24 -58 -68 -114t-97.5 -99t-116.5 -79q-137 -71 -330 -90zM1278 -8q0 -30 110 -53t259 -23q157 0 269 23t112 53q0 38 -110 63t-271 25 q-153 0 -261 -25t-108 -63z" />
<glyph unicode="p" horiz-adv-x="2490" d="M94 537q0 300 153.5 546t409.5 377l394 -356l-922 -836q-35 123 -35 269zM172 147l432 402v-897q-148 85 -259.5 212.5t-172.5 282.5zM705 94h1355q-125 -266 -375.5 -428t-558.5 -162q-220 0 -421 95v495zM770 1509q161 64 356 64q220 0 426 -88v-678zM1653 199v1228 q232 -135 371 -371.5t139 -518.5q0 -176 -58 -338h-452z" />
<glyph unicode="q" horiz-adv-x="3276" d="M160 -139q10 9 31.5 41t41 65t37.5 63l17 29q7 3 19.5 19t21.5 16q24 0 69.5 1t78 1t52.5 -2h8q9 -1 16.5 -3t15.5 -8.5t8 -19t-7 -34.5q-18 -26 -40 -41.5t-36.5 -21.5t-15.5 -11h5.5t13 -1.5t14 -5t9.5 -9.5t-1 -15q-21 -33 -39 -53t-39.5 -28t-34 -10t-40.5 -3h-177 q-22 0 -28 7q-3 3 -3 9t3 15zM287 -115q-1 -2 -1 -3q0 -3 5 -3h59q50 0 62 35q4 10 -0.5 16t-9.5 6.5t-13 0.5h-47q-24 0 -27 -11q-13 -31 -28 -41zM365 -10q-7 -4 -7 -6t9 -2h30q54 0 64 34q16 35 -17 35h-41q-13 0 -16 -16q-20 -28 -22 -45zM518 750l4 16l2 14 q28 55 59.5 106t87 134t87.5 133q0 2 2.5 3t5.5 1h2h391v-4v-2q-133 -199 -174 -250q128 17 283 17q191 0 358.5 -18t280 -57.5t112.5 -92.5q0 -50 -111.5 -93.5t-284 -67.5t-355.5 -24q-325 0 -516 49t-230 103q-5 16 -5 26q0 4 1 7zM528 -137q1 2 30.5 48.5t54 86.5 t30.5 55q7 18 21 29.5t22 13.5t12 2h39q1 0 3.5 -7t2 -18t-5.5 -20q-4 -16 -58 -99.5t-63 -92.5q-1 -1 -8 -10.5t-15 -15t-18 -5.5h-43q-10 0 -10 11q0 8 6 22zM698 -121l70 109q3 6 7 11.5t7.5 8.5t7.5 6l3 2h30h9h8.5t7 -0.5t6.5 -1.5t4 -3t1.5 -5t-1.5 -7.5t-4 -10.5 l-63 -103q-5 -5 -4.5 -13.5t6.5 -8.5h49q7 0 16 10t12 12q38 52 56 103q3 2 12.5 11t17 15t11.5 6h39q17 0 21 -5t-5 -27l-59 -92q-3 -5 -2.5 -8.5t2 -5t2.5 -1.5h16q5 0 11 -7t-1 -13q-2 -3 -5 -8.5t-5 -9.5t-4 -5q-13 -8 -21 -8h-34q-4 0 -4.5 6t0.5 12l2 5 q-16 -23 -129 -23q-28 0 -42.5 1t-38.5 5q-21 4 -21 13q0 2 9 30zM907 750q0 -10 40.5 -21t127 -20t193.5 -9q104 0 191 9t129 20t42 21q0 16 -43 30t-127.5 23.5t-191.5 9.5q-110 0 -194 -9.5t-125.5 -23.5t-41.5 -30zM1028 -84q0 4 2 8q1 1 2.5 6.5t3.5 6.5q8 16 35 16h45 q8 0 12 -4.5t-4 -11.5q-4 -5 -7.5 -11.5t-6.5 -9.5q-2 -14 -27 -14h-51q-1 0 -2 4q-2 5 -2 10zM1032 216v1q0 2 2.5 5t3.5 3q255 0 476 22.5t384 62.5t290.5 92.5t206.5 114t121 126t46 129.5q1 8 1 16q0 77 -55 145q-59 75 -157.5 125t-224 86.5t-251 53t-239.5 16.5 q-6 0 -6 17q0 3 1.5 4.5t2.5 1.5h2q17 1 46 1q7 1 18 1q32 0 98 -1q89 -2 174.5 -7.5t201 -19t214.5 -34.5t199 -57t169.5 -82.5t111.5 -115.5q37 -61 37 -133q0 -8 -1 -17q-6 -103 -74 -188t-177.5 -141.5t-249.5 -100.5t-293.5 -68t-306 -40t-290.5 -20.5t-244 -5.5h-66 q-61 0 -103 1l-62 2q-3 0 -4.5 1.5t-1.5 3.5zM1124 -139q7 10 30 47t40 61q17 32 43 39.5t80 7.5q59 0 55 -20q0 -14 -35 -14h-37q-11 0 -26 -27l-68 -94q-12 -31 -43 -31h-28q-17 0 -17 12q0 7 6 19zM1312 -155q-4 5 -4 12q0 10 9 24l20 43q3 7 16 12t23 5h66h65 q19 6 29 14q6 27 -10 27h-131q-9 0 -11 1t-2 7q27 16 33 16q33 14 121 14q36 0 59 -3.5t28 -6.5l5 -4q5 -23 -4 -37l-55 -88q-7 -20 -31 -28q-47 -23 -133 -23q-79 0 -93 15zM1403 -115q-7 -11 -7 -17q0 -7 9 -7h22h29q7 0 18.5 6.5t16.5 17.5q9 7 8.5 18t-10.5 11h-47 q-6 0 -12.5 -4.5t-15 -13zM1546 -240q0 15 29 15h96h25q10 0 19.5 7t10.5 17l23 31h-41q-28 0 -41.5 1t-37 5.5t-20.5 14.5t9 28l57 103q15 17 35 34h33h7h9t7.5 -1t7 -3.5t3.5 -6t0.5 -9.5t-5.5 -14l-64 -97q-5 -3 -6.5 -8.5t1.5 -9.5t11 -4h37q6 0 20 8.5t17 13.5l57 97 q3 4 31 32q8 2 35 2h5h6.5t7 -0.5t6.5 -2t3.5 -4t0.5 -6t-4.5 -9t-10.5 -12.5l-41 -82q-8 -4 -8 -9l-66 -106q-21 -17 -26 -25q-47 -32 -129 -32h-19q-62 0 -80 12q-7 0 -10 7q-1 4 -1 7t1 6zM1956 -145l125 202q4 2 11.5 18.5t10.5 16.5q41 4 150 4q59 0 91 -25 q16 -13 16 -32t-15 -43q-25 -40 -33.5 -56.5t-21.5 -37.5q-21 -29 -34 -41t-53 -21.5t-112 -9.5l-129 2q-7 0 -7 13q0 4 1 10zM2076 -120q1 -1 7 -1h55q30 0 53 23q0 5 14.5 28.5t28.5 44.5l15 21q7 15 2 27t-21 12h-45q-3 0 -9 -3t-7 -3l-92 -144q-2 -3 -2 -5h1zM2322 -139 l76 127q19 23 30 27.5t34 4.5q9 0 14 -0.5t12.5 -3t5 -9.5t-15.5 -19l-70 -127q-9 -15 -18.5 -22t-15 -8t-15.5 -1h-26q-18 0 -18 12q0 7 7 19zM2447 59q7 2 11 15q0 30 20 30h57q14 0 9 -30q-3 -9 -11 -17q0 -4 -9.5 -8t-18.5 -4h-49q-10 0 -10 8q0 2 1 6zM2458 -155 q-1 4 -1 6q0 3 1 4q5 8 20 8h111q3 0 11 8.5t13 9.5q13 21 -10 21h-68q-24 0 -24 17t22 50q11 18 29 31q31 16 115 16q19 0 28.5 -0.5t27 -2t25 -7t5.5 -14.5q0 -17 -33 -17h-88q-28 0 -39 -20q-4 -6 -1 -10t11 -4h76q24 0 24 -16t-22 -46q-1 -9 -11 -23t-11 -16 q-33 -22 -121 -22q-22 0 -39.5 1.5t-25.5 3.5t-13.5 4t-6.5 3l-1 2q-3 4 -4 13zM2730 -147q0 4 14 26.5t31.5 50t22.5 39.5q26 47 135 47q40 0 62 -6t24 -9.5t2 -8.5q0 -15 -37 -15h-72q-19 0 -28 -24l-48 -68q-8 -5 -6 -13.5t11 -8.5h92q22 0 22 -2q0 -6 -9 -15t-43 -18.5 t-87 -9.5q-26 0 -44.5 2.5t-26.5 6t-13 7.5q-3 4 -3 8z" />
<glyph unicode="r" horiz-adv-x="2465" d="M168 502q0 170 52 328t147.5 285.5t222.5 223t284.5 147.5t325.5 52q212 0 404 -81.5t331 -220t221 -330.5t82 -404q0 -167 -52 -324.5t-148 -284.5t-223.5 -222.5t-286 -148t-328.5 -52.5q-140 0 -274 37.5t-247 104t-208.5 162t-162 208.5t-103.5 246.5t-37 273.5z M342 459q16 -308 229 -541q131 198 314.5 342t398.5 215q-12 63 -47 117q-381 -135 -778 -135q-13 0 -52 1t-65 1zM352 633q16 0 52 -1t55 -1q361 0 698 123q-131 255 -352 516q-182 -97 -301.5 -265t-151.5 -372zM700 -197q220 -159 500 -159q143 0 270 45 q-25 337 -122 620q-197 -65 -364 -195t-284 -311zM979 1331q211 -249 340 -516q253 116 483 305q-125 119 -278.5 181.5t-323.5 62.5q-78 0 -221 -33zM1399 659q33 -62 55 -139q176 33 285 33q161 0 325 -45q-3 268 -151 481q-236 -194 -514 -330zM1511 358 q101 -324 125 -598q163 98 270 246t140 328q-158 45 -307 45q-91 0 -228 -21z" />
<glyph unicode="s" horiz-adv-x="3067" d="M127 -133q-3 86 213 188l92 31l547 197l121 45v-271l-367 -129l-100 -39q-48 -23 -70 -32q-13 -15 -8 -31.5t27 -30.5q38 -18 105 -18q21 0 47 2q102 8 153 31q12 2 35 11t40 17l17 8l121 43v-235q-137 -25 -278 -25q-208 0 -423 54q-126 32 -195 79.5t-77 104.5z M1176 -487v2035q183 -36 634 -174q291 -97 404 -254q121 -130 121 -422q0 -263 -152 -368q-65 -51 -155.5 -51t-206.5 51v686q0 77 -22.5 125.5t-67.5 48.5q-47 0 -70 -37t-23 -78v-1702zM1722 113q240 81 492 94q11 0 21 1q257 0 472 -71q119 -41 178 -83.5t62 -94.5v-9 q-1 -54 -47 -96q-50 -46 -166 -87l-74 -37l-630 -224l-308 -104v262l607 215l139 58q41 12 58.5 26.5t13.5 32.5q-1 11 -23 24t-47 19q-44 8 -79 8q-31 0 -56 -6q-19 -4 -84.5 -24.5t-121.5 -38.5l-56 -19l-351 -123v277z" />
<glyph unicode="t" horiz-adv-x="2107" d="M254 276q0 32 2 48v1024q0 76 55.5 131t132.5 55h80q77 0 133 -55t56 -131v-365h846q86 0 147 -63t61 -148q0 -88 -61 -150.5t-147 -62.5h-846v-252v-2q0 -106 43 -192q86 -160 286 -160h535q77 0 132.5 -55t55.5 -131v-95q0 -77 -55.5 -130.5t-132.5 -53.5h-670h-2h-4 h-18q-27 0 -60.5 3.5t-83.5 14t-106.5 35t-106.5 60.5q-270 199 -272 675z" />
<glyph unicode="u" horiz-adv-x="3059" d="M115 -211h1085q52 0 88.5 32t36.5 81q0 52 -36.5 85t-88.5 33h-151q-131 12 -230.5 92.5t-134.5 206.5q-6 81 -6 95q0 178 128.5 305t307.5 127h639h88q141 0 240.5 -100t99.5 -242v-574q0 -59 41.5 -102t99.5 -43h70q60 0 99.5 42.5t39.5 102.5v1588q0 7 -1 14.5 t-1 15.5q137 -47 216 -154t79 -247v-1227q0 -180 -130 -308t-316 -128h-54q-102 0 -204 52t-167 133t-65 161v635q0 30 -17.5 51t-47.5 21h-729q-52 0 -87.5 -29.5t-35.5 -77.5q0 -50 36.5 -83.5t86.5 -33.5q91 0 165 -11.5t125 -30.5t90.5 -47.5t62.5 -57t38.5 -64 t21.5 -64.5t9 -63v-73q0 -173 -119 -293.5t-293 -120.5h-678q-141 0 -251 83t-150 218z" />
<glyph unicode="v" horiz-adv-x="2332" d="M90 846q14 17 39.5 45t100.5 102.5t146.5 133.5t164.5 114.5t168 69.5q21 4 41 4q28 0 52 -8q42 -14 71 -44t53 -79t39 -101.5t28.5 -119t22.5 -123.5t21.5 -123t23.5 -111q47 -210 83 -311.5t73 -101.5q42 0 126.5 103.5t176.5 266.5q44 85 46 161v10q0 69 -33 109 q-35 43 -100 51q-8 1 -17 0q-60 0 -140 -46q32 205 196 342q138 115 305 135q32 4 61 4q126 0 209 -70q104 -86 104 -249q0 -41 -7 -88q-2 -11 -4 -23q-26 -153 -95 -311t-160.5 -290.5t-192 -251.5t-201.5 -212.5t-177 -155.5t-130 -96q-72 -47 -140 -47q-22 0 -43 5 q-88 20 -152.5 81.5t-94.5 142.5q-25 60 -103 310t-151 473t-99 254q-19 19 -47 18.5t-60.5 -14.5t-60 -31t-45.5 -31l-18 -14z" />
<glyph unicode="w" horiz-adv-x="2766" d="M109 375v211q0 167 119 286t286 119h301q106 106 241 166t281 60q152 0 289 -60.5t234 -165.5h338q175 0 292 -118t117 -287v-211q0 -166 -117 -283t-292 -117h-363q-99 -94 -226 -147t-272 -53q-138 0 -265.5 53.5t-225.5 146.5h-332q-167 0 -286 118t-119 282zM317 762 l125 -553h158l41 219q11 48 18 160h5q2 -17 6 -55t8 -61.5t10 -43.5l37 -219h160l127 553h-146l-32 -189q-5 -31 -14.5 -97t-14.5 -97h-4q-3 88 -19 184l-34 199h-148l-41 -189q-3 -36 -11 -103.5t-11 -94.5q-17 71 -33 198l-31 189h-156zM1063 209h145v399h-145v-399z M1063 723q0 -28 21 -48t57 -20q33 0 52 20t19 48q0 33 -17.5 52.5t-49.5 19.5q-36 0 -59 -20t-23 -52zM1122 37h1076q146 0 247 99t101 239v211q0 140 -101.5 240t-246.5 100h-396q-149 0 -249.5 -99.5t-100.5 -240.5v-211q0 -52 -18 -98.5t-47.5 -79.5t-64.5 -61t-70 -46 t-64.5 -30.5t-47.5 -17.5zM1602 209h155v217h266v117h-266v98h281v125h-436v-557zM2116 723q0 -27 22.5 -47.5t54.5 -20.5q35 0 54.5 20t19.5 48q0 33 -18.5 52.5t-53.5 19.5q-33 0 -56 -20t-23 -52zM2120 209h141h4l-4 399h-141v-399z" />
<glyph unicode="x" horiz-adv-x="2641" d="M195 731q46 178 147 316h-8q1 14 3 38.5t12 90t24.5 119.5t42 107.5t61.5 74.5q2 -3 -0.5 -15t3 -39t15 -55t34.5 -62t61 -61l4 2q80 25 158 25q55 0 110 -12q5 -2 18 -6t24 -8.5t18 -8.5h4q56 46 123 74t106 33l39 4q-67 -41 -111 -100.5t-61 -117.5l4 -8q8 -12 8 -14 q14 -21 44 -43.5t57 -26.5q5 -12 20 -12l7 1q7 1 16.5 2.5t21.5 2t25.5 0t23.5 -3.5h6l2 -2h7q0 -6 6 -6q21 -10 21 -31q0 -24 -27 -61l-7 -6q-7 -5 -35.5 -21.5t-59 -36t-50.5 -37.5q-17 -10 -37 -24q0 -1 -1.5 -1.5t-3 -2t-1.5 -4.5q6 -2 21 -17q30 -38 42 -94 q10 -46 11 -79q0 -8 -1 -15l-3 -37q-15 25 -77 53.5t-130 34.5q-30 -57 -37 -66v-8l-3 -3q-3 -2 -3 -7v-8h6q0 -7 10 -12q63 -99 117 -138q37 -27 100 -37h8h17q54 5 117 35q10 0 22 9q21 12 48.5 18t45.5 6h17h16h2h6h2h7h8l2 -6h6h4h4q57 -15 90 -43v-4q6 0 6 -4l9 -6 l2 -5q8 -12 0 -28q-5 -14 -17 -17q-1 0 -5 -3t-5 -3q-6 0 -8 -2q-6 0 -23.5 2t-30.5 2t-18 -4l-36 -25q-36 -26 -77 -51.5t-103.5 -49t-117.5 -25.5h-59q18 -18 74 -52q160 -61 354 -61q69 0 100 2q224 135 307 285q2 -12 2 -24q0 -40 -22 -87q-4 -20 -10.5 -37t-10.5 -24 l-4 -8q52 45 82.5 116t36.5 140q6 64 7 123q-1 5 -1 9q0 62 -6 101l-6 39q21 -24 40.5 -62t28.5 -64l9 -26q26 68 36 140q6 44 6 82q0 24 -2 45q-6 54 -16 98.5t-20 68.5l-10 23q35 -16 65 -38.5t43 -36.5l13 -15q-12 71 -46 134.5t-77.5 107.5t-93.5 80.5t-97 58.5 t-86 37.5t-63 21.5l-23 6q57 12 111.5 12t79.5 -6l26 -6l-352 150q51 4 98 4q38 -1 74 -3q78 -6 142.5 -25t117 -45.5t93.5 -58t71.5 -63.5t51.5 -62t34 -53.5t19 -37.5l6 -14v10q-1 39 -7 85q-8 52 -14 84l-8 31q65 -72 105 -161t51.5 -164.5t13.5 -140.5v-31q0 -44 -4 -72 l-6 -37q12 25 27 72.5t23 82.5l9 34q4 -71 4 -136q0 -117 -12 -217v-6q0 -220 -85.5 -420.5t-230 -345t-345.5 -230t-423 -85.5q-147 0 -287.5 39t-259.5 108.5t-219.5 169t-170.5 218t-109 259t-39 287.5q0 88 20 205v14q-27 -12 -47.5 -26t-26.5 -22z" />
<glyph unicode="y" horiz-adv-x="2340" d="M170 -217v688q0 123 85 206t208 83h1343q123 0 210 -83.5t87 -205.5v-688q0 -122 -87.5 -208.5t-209.5 -86.5h-1343q-123 0 -208 86t-85 209zM334 446h131v-725h135v725h137v121h-403v-121zM483 1534l4 6l-4 -6v8h121l78 -276l70 276h131l-140 -407v-263h-122v246z M729 -176q0 -51 21 -86q25 -25 65 -25q38 0 68 17q53 42 69 61v-70h115v629h-115v-479q-20 -23 -39 -31l-12.5 -7.5t-12.5 -6.5t-9 -2q-16 0 -21 10q-8 12 -8 35v481h-121v-526zM920 1008v231q0 59 45 98q38 35 112 35q67 0 105 -35q43 -40 43 -102v-227q0 -76 -43 -111 q-40 -37 -107 -37q-71 0 -117 37q-38 45 -38 111zM1032 999q0 -16 8 -32q9 -9 35 -9q18 0 27 9q8 8 8 32v244q0 17 -8 23q-10 10 -27 10q-26 0 -31 -10q-12 -9 -12 -23v-244zM1178 -279h120v50q8 -16 48 -47q32 -11 61 -11q54 0 76 37q30 33 30 100v347q0 70 -30 118 q-26 39 -84 39q-19 0 -53 -12q-3 -3 -16 -13t-20 -17.5t-12 -16.5v272h-120v-846zM1298 -160v391l19 19q10 6 26 6q28 0 41 -16q7 -49 7 -52v-319q0 -34 -7 -43q-13 -16 -32 -16q-4 0 -9.5 1.5t-12 3.5t-9.5 3q-3 3 -11 10.5t-12 11.5zM1354 958v402h112v-361q0 -19 7 -28 q2 -4 16 -4q17 0 29 12q11 4 26 22v359h109v-6v6h8v-488h-117v50q-28 -32 -51 -41q-28 -17 -61 -17q-40 0 -56 25q-22 25 -22 69zM1602 -104q0 -94 40 -142q46 -49 127 -49q87 0 127 49q41 38 41 142v49h-116v-43q0 -62 -4 -70q-11 -16 -48 -16q-27 0 -36 16q-11 19 -11 70 v116h215v160q0 93 -41 137q-35 45 -118 45q-81 0 -127 -49q-49 -52 -49 -133v-282zM1722 117v63q0 35 11 60q16 16 41 16q23 0 43 -16q4 -36 4 -60v-63h-99z" />
<glyph unicode="z" horiz-adv-x="2408" d="M168 332l82 354h315q71 0 121.5 -50t50.5 -126q0 -73 -50.5 -125.5t-121.5 -52.5h-397zM262 858l86 356h316q72 0 127 -52.5t55 -127.5q0 -68 -56 -122t-126 -54h-402zM795 -223l88 360h309q72 0 124 -52.5t52 -127.5t-52 -127.5t-124 -52.5h-397zM885 332l84 354h311 q74 0 128 -50.5t54 -125.5q0 -73 -54.5 -125.5t-127.5 -52.5h-395zM989 858l76 356h311q78 0 129 -51.5t51 -128.5q0 -70 -52 -123t-128 -53h-387zM1548 -6l88 354h310q77 0 128.5 -50t51.5 -126q0 -75 -52 -126.5t-128 -51.5h-398zM1661 547l74 371h313q73 0 126.5 -56 t53.5 -131q0 -72 -54 -128t-126 -56h-387z" />
<glyph unicode="~" horiz-adv-x="2463" d="M0 510q0 147 39 287t108.5 258.5t169 218.5t218 169.5t259 108.5t287.5 39q220 0 420 -86t345 -230.5t231 -344.5t86 -420t-86 -420.5t-231 -345t-345 -230t-420 -85.5t-420.5 85.5t-345 230t-230 345t-85.5 420.5zM768 496h119v-693h256v693h256v206h-256v132 q0 4 0.5 11.5t6.5 26t16 33t33 26t54 11.5h146v207h-144q-171 0 -269.5 -86t-98.5 -246v-115h-119v-206z" />
<glyph unicode="&#x2000;" horiz-adv-x="905" />
<glyph unicode="&#x2001;" horiz-adv-x="1810" />
<glyph unicode="&#x2002;" horiz-adv-x="905" />
<glyph unicode="&#x2003;" horiz-adv-x="1810" />
<glyph unicode="&#x2004;" horiz-adv-x="603" />
<glyph unicode="&#x2005;" horiz-adv-x="452" />
<glyph unicode="&#x2006;" horiz-adv-x="301" />
<glyph unicode="&#x2007;" horiz-adv-x="301" />
<glyph unicode="&#x2008;" horiz-adv-x="226" />
<glyph unicode="&#x2009;" horiz-adv-x="362" />
<glyph unicode="&#x200a;" horiz-adv-x="100" />
<glyph unicode="&#x202f;" horiz-adv-x="362" />
<glyph unicode="&#x205f;" horiz-adv-x="452" />
<glyph unicode="&#xe000;" horiz-adv-x="1495" d="M0 0v1495h1495v-1495h-1495z" />
</font>
</defs>
</svg>
