<?xml version="1.0" standalone="no"?>
<!DOCTYPE svg PUBLIC "-//W3C//DTD SVG 1.1//EN" "http://www.w3.org/Graphics/SVG/1.1/DTD/svg11.dtd" >
<svg xmlns="http://www.w3.org/2000/svg">
<metadata></metadata>
<defs>
<font id="uicons__controls_and_navigaRg" horiz-adv-x="2254" >
<font-face units-per-em="2048" ascent="1536" descent="-512" />
<missing-glyph horiz-adv-x="1024" />
<glyph horiz-adv-x="2048" />
<glyph horiz-adv-x="2048" />
<glyph unicode="&#xd;" horiz-adv-x="2048" />
<glyph unicode=" "  horiz-adv-x="1024" />
<glyph unicode="&#x09;" horiz-adv-x="1024" />
<glyph unicode="&#xa0;" horiz-adv-x="1024" />
<glyph unicode="A" d="M-2 -352v1345h395v551h215v-569h86v-254l99 -80v432h-86v471h1187q68 0 115 -44t47 -109v-316h-80l-57 -321h137v-387l-559 2v-883h-465v557l-88 8v-565h-465v557q98 12 164 89.5t66 184.5q0 115 -79.5 195t-195.5 80t-199 -80t-83 -195q0 -107 71.5 -184.5t175.5 -89.5 v-557h-247q-66 0 -110 47t-44 115zM-2 1087v304q0 65 45.5 109t108.5 44h153v-457h-307zM887 1020q0 -139 64.5 -256t174 -184.5t236.5 -67.5q200 0 342.5 148.5t142.5 359.5v59h-960v-59zM887 1143h960q0 7 -12.5 63t-24.5 108l-12 52q-6 -46 -27 -78t-51.5 -47.5 t-58.5 -22t-57 -6.5q-213 0 -242 138q-5 -35 -23.5 -61t-42.5 -40t-56 -23t-58 -11.5t-54 -2.5q-26 0 -54 6.5t-60.5 21.5t-54.5 48t-25 78h-8q-39 -207 -39 -223zM1038 729v41l25 31q39 39 56.5 64.5t17.5 49.5q0 12 -8 21.5t-25 9.5q-33 0 -49 -16l-17 41q33 33 74 33 q36 0 58 -26t22 -63q0 -50 -64 -114l-16 -15v-8h80v-49h-154zM1290 801q0 40 39 65q-31 20 -31 58q0 36 22 58t58 22q34 0 53 -23t19 -51q0 -17 -9.5 -33.5t-21.5 -22.5q1 -1 8 -7.5t9.5 -9.5t8 -10t7.5 -12.5t4 -14.5t2 -19q0 -31 -23.5 -51.5t-64.5 -20.5q-40 0 -60 20 t-20 52zM1346 801q0 -12 6.5 -21.5t17.5 -9.5q17 0 25 9.5t8 21.5q0 18 -10 29.5t-23 11.5q-24 0 -24 -41zM1346 930q0 -11 5.5 -19t10.5 -11.5t16 -8.5q1 1 9 7.5t12 12.5t4 13q0 30 -33 30q-24 0 -24 -24zM1548 858q0 64 20.5 105t59.5 41q46 0 67 -39t21 -99 q0 -62 -23 -99.5t-65 -37.5q-39 0 -59.5 36t-20.5 93zM1591 264h465v-616q0 -68 -47 -115t-115 -47h-303v778zM1595 858q0 -40 10 -64t23 -24q18 0 25.5 22.5t7.5 73.5q0 88 -33 88q-13 0 -23 -25t-10 -71z" />
<glyph unicode="B" horiz-adv-x="2050" d="M520 -522v1835q0 91 62 157t147 66h713q70 0 125.5 -50t74.5 -124q-12 42 -50 69t-85 27q-56 0 -96.5 -42.5t-40.5 -102.5l-2 -176v-1659l-424 368zM1395 1321q0 50 31.5 81.5t80.5 31.5q40 0 70 -20.5t41 -51.5q8 -16 8 -41h-231z" />
<glyph unicode="C" d="M141 713q28 125 87 237.5t141 199.5t184.5 154.5t216.5 103.5q115 36 240 44q28 2 55 1q98 0 197 -23q292 -61 493 -278t246 -507q6 -32 6 -117t-6 -129q0 -28 -14 -82q-56 -254 -225.5 -440t-407.5 -263q-139 -45 -282 -45q-102 0 -206 23q-249 51 -434.5 221 t-263.5 410q-47 145 -47 294q0 97 20 196zM336 459q11 -242 169.5 -425.5t405.5 -238.5q74 -16 105 -16l45 172l51 -172q243 12 430 171t242 404q4 19 8 49.5t8 49.5l-172 51l172 53q-12 241 -172.5 428t-410.5 244q-68 14 -97 14l-53 -172l-51 172q-243 -11 -429 -170 t-237 -405q-14 -86 -14 -111l172 -45zM537 504q0 6 5 10t11 4q22 0 22 -14q0 -35 7 -51q0 -12 -15 -23h-8q-5 0 -9.5 4t-4.5 10q0 12 -4 30t-4 30zM545 602q0 10 4 29t4 31q14 14 22 6q5 0 10 -6t5 -17q-8 -14 -8 -43q-12 -16 -23 -16q-5 0 -9.5 5t-4.5 11zM567 348 q0 14 15 23q13 0 22 -9q4 -12 7.5 -28.5t6.5 -24.5q7 -5 -6 -22h-8q-8 0 -14 8q-4 8 -11.5 27t-11.5 26zM590 758q13 30 28 45q0 8 23 8q8 -8 8 -31q-19 -11 -31 -45q-6 -6 -14 -6h-8q-9 9 -9 18q0 6 3 11zM641 205q0 23 8 31q14 0 23 -9q4 -7 15 -18.5t15 -18.5 q8 -11 0 -22q0 -4 -2 -6t-4 -2h-2q-14 0 -14 8q-8 7 -19.5 18.5t-19.5 18.5zM657 571l215 31q3 2 23 29l-223 434l344 -344q7 0 18.5 4t18.5 4l90 223l22 -239q59 -36 74 -51l119 51l-88 -105q22 -36 22 -82l224 -90l-246 -28q-4 0 -6 -2.5t-5 -7t-6 -7.5l127 -246 q17 0 17 -8q10 -10 0 -20l82 -158l-127 127v-8h-9q-14 0 -14 8q-11 12 0 23l-194 194q-23 0 -31 -8l-96 -223l-31 245q-47 33 -51 37l-105 -45l68 90q-17 24 -31 90zM680 862q-6 6 -6 12t6 11l37 37q5 6 13.5 6t8.5 -6q5 -4 5 -13.5t-5 -9.5q-13 -24 -37 -37q0 -3 -2 -4.5 t-4 -1.5h-2q-8 0 -14 6zM748 109q0 9 6 14q11 11 22 0q19 -8 45 -23q8 -6 8 -22l-16 -15q-4 0 -5 1.5t-1 7.5q-34 9 -53 28q-6 0 -6 9zM799 961q-6 4 -6.5 9.5t6.5 12.5q7 3 25.5 11t25.5 10q8 8 22 -7q0 -14 -6 -22q-38 -19 -45 -23h-8q-14 0 -14 9zM887 35q-1 3 -1 6 q0 5 3 8q0 6 5 8.5t17 -2.5q7 0 22 -3t23 -3q15 -20 15 -22q0 -6 -5 -11.5t-10 -5.5h-8q-7 4 -26 8.5t-27 8.5q-5 0 -8 8zM895 580q-12 -33 -12 -65q1 -41 19 -81q34 -72 106 -102q31 -12 61 -12l43 6l-119 127l-82 155q-4 -3 -8 -14t-8 -14zM934 1020q0 6 4.5 14t9.5 8 q7 0 25.5 3.5t25.5 3.5t15 -4.5t8 -10.5q0 -8 -14 -22q-38 0 -52 -8h-8q-6 0 -10 5t-4 11zM1038 18q0 6 4.5 10.5t10.5 4.5h14h37q6 0 11 -4.5t5 -10.5t-16 -22h-37h-14q-15 0 -15 22zM1038 698l119 -118h8l74 -166q14 28 14 30q14 36 14 71q0 39 -18 77q-33 70 -106 98 q-33 13 -65 13q-20 0 -40 -5zM1081 1034q11 18 18 18q3 0 5 -3h53q14 -11 14 -23q0 -5 -4 -9.5t-10 -4.5h-8q-7 0 -22 4t-23 4q-23 0 -23 14zM1188 27q0 13 2 17.5t12 4.5q33 14 45 14q5 6 14 2t9 -10q0 -14 -8 -22l-25.5 -8.5t-28.5 -6.5h-6q-14 0 -14 9zM1231 1004 q8 16 31 16q26 -15 45 -23q14 -14 8 -22q0 -6 -5.5 -10t-11.5 -4t-6 6q-32 16 -45 16q-16 12 -16 21zM1366 938q6 4 15.5 4t15.5 -4q25 -14 37 -39q6 0 6 -8t-6 -14l-9 -7l-14 7q-7 8 -18.5 19t-18.5 19q-8 0 -8 23zM1442 205q7 8 28 45q6 6 15.5 6t15.5 -6q5 0 5 -8.5 t-5 -14.5q-3 -6 -15 -21t-16 -24q-4 0 -7.5 -3t-6.5 -3q-4 0 -6 1.5t-2 2.5v2q-8 12 -8 18q0 3 2 5zM1470 803q0 22 9 31q13 0 22 -9q17 -17 29 -45q9 -9 -6 -30h-8q-4 0 -7.5 2t-5.5 4l-2 2q-19 33 -31 45zM1524 332q0 20 14 45q0 14 23 14q6 0 9 -7.5t-1 -12.5 q0 -24 -17 -54q0 -8 -14 -8h-8q-8 12 -8 18q0 3 2 5zM1536 686q3 4 10 4q7 3 12 3q2 -1 4 -1q6 -2 7 -8q14 -37 14 -53q0 -23 -14 -23q-6 0 -11.5 5t-5.5 10q-3 8 -6.5 24.5t-7.5 28.5q-3 4 -3 7q0 1 1 3zM1552 475q9 16 9 51q0 6 4.5 10.5t9.5 4.5q7 0 14.5 -4.5t7.5 -10.5 q0 -13 -4 -29t-4 -22q0 -8 -2 -11.5t-4.5 -4t-7.5 -0.5q-10 0 -16.5 5t-6.5 11z" />
<glyph unicode="D" horiz-adv-x="2050" d="M215 745q0 217 106.5 400.5t290 290t400.5 106.5q161 0 307 -63t252 -169.5t168.5 -254t62.5 -310.5q0 -112 -43.5 -242.5t-113 -249t-154 -236t-169 -213t-154 -169.5t-112.5 -115l-44 -40q-17 15 -45.5 42t-111.5 112t-158 171.5t-167 210.5t-158 239t-111.5 246.5 t-45.5 243.5zM770 987q0 -98 71 -170t171 -72q96 0 164.5 72t68.5 170q0 97 -68 165.5t-165 68.5q-101 0 -171.5 -68.5t-70.5 -165.5z" />
<glyph unicode="E" horiz-adv-x="2080" d="M127 989l145 156h600v-307h-600zM295 1022h33v-88h16v88h33v16h-82v-16zM393 987q-1 -30 14.5 -45.5t41.5 -15.5q25 0 39 18t12 43q-2 23 -15 37t-36 14q-25 0 -39.5 -14t-16.5 -37zM416 987q0 35 33 35q25 0 28 -35q2 -15 -6 -30t-22 -15q-33 0 -33 45zM520 1038 l25 -104h24l19 67l20 -67h25l29 104h-25l-19 -71q-2 8 -18 71h-22l-19 -71l-14 71h-25zM686 934h23v33v32l45 -65h22v104h-22v-65l-45 65h-23v-104zM926 -520v1863h268v-1863h-268zM926 1384v72l133 88l135 -88v-72h-268zM1243 655v172h168l225 -221l-16 -151l-160 -25z M1243 881v268h539l143 -135l-143 -133h-539zM1366 1016q0 -28 17 -45t40 -17q26 0 35 9l-8 20q-15 -6 -23 -6q-18 0 -27.5 10.5t-8.5 28.5q3 37 36 37l25 -6l4 20q-15 8 -33 8q-27 0 -42 -16.5t-15 -42.5zM1483 958h18v113h-18v-113zM1530 1047h31v-89h20v89h31v24h-82v-24z M1632 1071l33 -72v-41h25v41l30 72h-22l-21 -53q-4 12 -20 53h-25z" />
<glyph unicode="F" horiz-adv-x="2138" d="M80 920l328 317h1538v-8l-179 -326l179 -328h-1538zM526 801h41v86h17q18 0 26.5 -7t14.5 -26q3 -12 5.5 -25.5t4 -19t4.5 -8.5h41q-4 3 -6 10.5t-4.5 23.5t-5.5 27q-16 33 -31 41q39 14 39 49q0 30 -17 47q-34 17 -71 17q-42 0 -58 -8v-207zM567 920v63h25q41 0 41 -31 q0 -32 -41 -32h-25zM729 903q0 -42 26.5 -72t67.5 -30q45 0 75 29t30 81q0 44 -29.5 74.5t-75.5 30.5q-41 0 -67.5 -31.5t-26.5 -81.5zM768 903q0 36 15.5 58t39.5 22q30 0 47 -20t17 -52q0 -37 -17 -58.5t-47 -21.5q-23 0 -39 20.5t-16 51.5zM961 496h223v-1008h-223v1008z M961 1296v152l112 88l111 -88v-152h-223zM993 895q0 -51 20.5 -72.5t59.5 -21.5q36 0 57 24t21 70v121h-39v-129q0 -56 -39 -56q-21 0 -35 14.5t-14 41.5v129h-31v-121zM1208 983h64v-182h33v182h65v33h-162v-33zM1423 801h129v30h-88v64h80v33h-80v55h80v33h-121v-215z" />
<glyph unicode="G" d="M129 -168v1528l563 -227v-1528zM164 850q5 -15 20 -21q5 -4 20.5 -20.5t24.5 -24.5q8 -8 43 -8q11 0 21 8q12 6 12 22.5t-12 22.5q-18 16 -82 54q-17 21 -47 -6q-3 -7 -3 -14t3 -13zM328 676q3 -5 17 -27t20 -39q14 -18 28 -18l19 8q27 15 8 45q-22 49 -37 66 q-14 25 -45 10q-15 -15 -15 -29q0 -8 5 -16zM438 490q-3 -5 -3 -12t3 -15q6 -6 21 -29.5t26 -32.5q11 -18 25 -18q5 0 10 4t10 4q23 14 9 45q-27 30 -37 66q-2 1 -7 3t-7.5 2.5t-7.5 2.5t-7.5 2h-6.5t-6.5 -1t-4.5 -3q-12 -5 -17 -18zM557 264q31 -55 35 -65q17 -17 29 -17 l18 6q25 14 10 48q-2 4 -9 19t-14 25.5t-16 18.5q-6 14 -18.5 16t-24.5 -6q-18 -9 -18 -24q0 -9 8 -21zM768 -395v1528l539 227v-1528zM813 80q-6 -13 -6 -23q0 -15 14 -22q34 -34 74 -45h10q27 0 27 26q7 8 0.5 18.5t-21.5 16.5q-8 5 -25.5 14.5t-25.5 14.5 q-16 12 -28 10.5t-19 -10.5zM985 16q0 -7 10 -12.5t19 -5.5h10q8 4 26 8.5t29 9.5q4 4 8 7t7 3l2 1q31 14 18 43q-16 33 -45 20l-10 -10q-30 -19 -55 -19q-22 -12 -22 -30q0 -7 3 -15zM1161 98q18 -18 25 -18q5 0 9.5 5t8.5 5q35 14 66 45q8 8 11 20t-3 27q-38 14 -45 6 q-16 -9 -36.5 -25t-27.5 -20q-15 -7 -15 -22q0 -9 7 -23zM1378 -168v1528l549 -227v-1528zM1406 291q0 -13 11 -19q0 -7 5.5 -12.5t13.5 -5.5q4 0 13 5t13 5q31 31 56 45q13 7 14.5 23t-6.5 22q-6 11 -23 13.5t-24 -2.5q-9 -10 -32 -24.5t-30 -21.5q-11 -11 -11 -28z M1571 401q10 -10 28 -10h17q40 36 65 45q20 16 11 47q-7 13 -23.5 15t-23.5 -6q-42 -26 -64 -48q-18 -7 -18 -21q0 -10 8 -22zM1737 528q16 -20 37 -20h8q40 27 63 39q14 6 20 19q3 5 3 11q0 7 -4 15q-10 18 -35 18q-30 -19 -76 -37q-20 -13 -20 -30q0 -7 4 -15z" />
<glyph unicode="H" horiz-adv-x="2320" d="M2 -147v1447l520 -217v-1448zM29 313q-4 -8 -4 -16q0 -14 12 -29h16q19 0 19 11l16 16q0 4 11.5 15.5t15.5 19.5q6 6 6 17.5t-6 17.5q-29 14 -43 0zM176 416q4 0 8 -2t6 -4l3 -2q4 0 13 4t13 4q4 8 9.5 14.5t17.5 15.5t16 13q19 12 8 35q-6 8 -17 11.5t-17 -1.5 q-51 -40 -60 -45q-8 -6 -8 -17t8 -26zM339 522q6 -10 19 -10q5 -2 23.5 -12t28.5 -15h16q18 0 18 9q14 31 -8 45q-3 0 -10 4t-22 10.5t-37 9.5q-8 0 -17.5 -6.5t-9.5 -17.5q-4 -4 -4 -8t3 -9zM592 -365v1448l510 217v-1447zM629 312.5q0 -11.5 6 -17.5q8 -8 30.5 -21.5 t30.5 -21.5h9q16 0 24 8q8 6 6.5 17.5t-14.5 17.5q-9 10 -26.5 23t-24.5 20q-6 7 -17.5 5t-17.5 -13q-6 -6 -6 -17.5zM778 192q2 -12 13 -18q10 -10 28 -23.5t25 -19.5q0 -10 16 -10q4 0 8.5 5t8.5 5q7 12 7 24.5t-7 18.5q-8 4 -52 43q-23 12 -43 -8q-5 -4 -5 -12q0 -2 1 -5 zM946 78q0 -6 6.5 -15.5t12.5 -9.5q16 -10 59 -10h18q11 0 19 10t8 17q0 12 -9.5 19t-17.5 7h-18q-25 0 -43 8q-21 0 -35 -26zM1171 -147v1447l287 -217v-1448zM1225 78q8 -8 16 -8l19 8q8 10 24 26q15 12 27 27q6 6 6 16.5t-6 18.5q-29 14 -43 0q0 -8 -6 -13.5t-13 -5.5 q-16 -16 -24 -26q-8 -6 -8 -17t8 -26zM1337 268q0 -24 9 -35q8 -8 16 -8q12 0 27 19q17 34 34 51q5 13 2 24t-10 11q-13 7 -24 5t-11 -13q-10 -10 -23 -28.5t-20 -25.5zM1536 -365v1448l512 217v-1447zM1579 563q0 -35 8 -43h19q16 0 26 8q15 34 35 54q16 32 -10 43 q-11 11 -35 -9q-6 -7 -19.5 -25t-23.5 -28zM1718 694h17q18 0 18 8q6 6 16 14t16.5 15t10.5 14q14 6 14 18.5t-14 24.5q-6 8 -17.5 8t-17.5 -8q-35 -35 -43 -51q-9 -4 -9 -14.5t9 -28.5zM1874 842q9 -11 27 -11h8q24 24 61 35q11 13 11 24q0 6 -3 11q-8 19 -34 19 q-6 -6 -15 -12t-14.5 -9t-18 -8t-14.5 -6q-14 -7 -14 -21q0 -10 6 -22z" />
<glyph unicode="I" d="M103 479q-26 100 -27 201q0 100 27 202q53 202 202 355q152 149 353 202q100 26 201 27l201 -27q201 -53 353 -202q125 -129 183 -297q44 -128 45 -260q-1 -40 -5 -80q-18 -173 -106 -324l457 -456q53 -54 53 -130t-53 -134q-59 -52 -136 -52t-129 52l-456 456 q-151 -88 -324 -106q-40 -4 -80 -5q-132 1 -260 45q-168 58 -297 183q-149 149 -202 350zM390 558q32 -124 124 -220q96 -92 220 -124q62 -16 124 -16t125 16q125 32 221 124q92 96 124 220q16 62 16 124q0 64 -16 126q-32 124 -124 220q-96 92 -221 124q-62 16 -124.5 16 t-124.5 -16q-124 -32 -220 -124q-92 -96 -124 -220q-16 -62 -16 -125t16 -125z" />
<glyph unicode="J" horiz-adv-x="2263" d="M88 602q-24 89 -24 179t24 179q47 180 180 314q134 133 314 180q89 24 179 24l179 -24q180 -47 313 -180q122 -123 173 -286q31 -103 31 -207q0 -61 -11 -123q-30 -167 -137 -300l200 -200q21 6 42 6t42 -6q43 -10 72 -39l326 -334q53 -46 53 -116.5t-53 -117.5 q-47 -53 -117.5 -53t-116.5 53l-325 326q-53 53 -53 116q0 19 5 40l-200 200q-134 -103 -300 -133q-64 -12 -127 -12q-102 0 -203 30q-163 49 -286 171q-133 133 -180 313zM322 666q31 -120 118 -207q134 -133 322 -133t321 133t133 325t-133 326q-88 88 -205 119 q-58 15 -116 15t-117 -15q-117 -31 -205 -119q-87 -87 -118 -206q-16 -60 -16 -119.5t16 -118.5zM388 844q21 120 106 205q94 92 225 109q27 4 54 4q101 0 194 -52q-59 15 -117.5 15t-115.5 -15q-115 -30 -202 -117q-73 -73 -104 -171q-21 -69 -21 -142q0 -28 3 -57 q-30 69 -30 145q0 37 8 76z" />
<glyph unicode="K" horiz-adv-x="2295" d="M0 334v307q0 41 29.5 67.5t66.5 26.5h801v412q0 43 39 65q22 12 42 12t38 -12l1005 -657q33 -33 33 -63q0 -35 -33 -64l-1005 -653q-20 -10 -40 -10t-40 10q-20 9 -29.5 28.5t-9.5 34.5v402h-801q-37 0 -66.5 27t-29.5 67z" />
<glyph unicode="L" d="M0 489q0 24 23 37l628 410q14 6 26 6t23 -6q25 -17 25 -39v-274h594v274q0 27 24 39q14 7 26 7t22 -7l637 -410q18 -14 18 -37q0 -25 -18 -40l-637 -406q-10 -7 -25 -7q-1 0 -2 -1q-14 0 -25 8q-20 17 -20 41v276h-594v-276q0 -27 -25 -41q-13 -8 -25.5 -7.5t-23.5 7.5 l-628 406q-23 14 -23 40z" />
<glyph unicode="M" d="M178 -162v1454q0 19 11 40t26 28q21 12 42.5 12t32.5 -6l11 -6l1137 -731q28 -25 28 -64q0 -36 -28 -69q-1127 -727 -1137 -727q-17 -15 -39 -17h-9q-15 0 -25 4l-13 6q-37 22 -37 76zM1669 -164v1450q0 33 21 53.5t57 20.5h106q34 0 55 -21t21 -53v-1450q0 -34 -21 -55 t-55 -21h-106q-36 0 -57 21t-21 55z" />
<glyph unicode="N" horiz-adv-x="2043" d="M414 -188v1437q0 18 10.5 36.5t28.5 27.5q18 12 40 12t35 -6l13 -6l1124 -715q23 -19 30 -33.5t7 -36.5q0 -43 -37 -65l-1124 -719q-17 -11 -39 -12h-7q-17 0 -29 4l-13 4q-39 28 -39 72z" />
<glyph unicode="O" d="M0 -416v1856q0 38 28 67t68 29h1856q40 0 68 -29t28 -67v-1856q0 -41 -27.5 -68.5t-68.5 -27.5h-1856q-41 0 -68.5 27.5t-27.5 68.5zM655 27q0 -39 23 -50q8 -6 33 -6q16 0 24 6l758 482q25 13 25 47q0 22 -25 47l-758 481q-8 8 -24 8q-25 0 -33 -8q-23 -12 -23 -49v-958 z" />
<glyph unicode="P" d="M0 -416v1856q0 38 28 67t68 29h1856q40 0 68 -29t28 -67v-1856q0 -41 -27.5 -68.5t-68.5 -27.5h-1856q-41 0 -68.5 27.5t-27.5 68.5zM467 -35q0 -37 27.5 -66.5t68.5 -29.5h201q41 0 68.5 29.5t27.5 66.5v1084q0 37 -27.5 66.5t-68.5 29.5h-201q-41 0 -68.5 -29.5 t-27.5 -66.5v-1084zM1198 -35q0 -37 27.5 -66.5t68.5 -29.5h197q41 0 68.5 29.5t27.5 66.5v1084q0 37 -27.5 66.5t-68.5 29.5h-197q-41 0 -68.5 -29.5t-27.5 -66.5v-1084z" />
<glyph unicode="Q" horiz-adv-x="2050" d="M453 -188v1394q0 39 27.5 69t70.5 30h178q41 0 71.5 -30.5t30.5 -68.5v-1394q0 -43 -30 -72t-72 -29h-178q-44 0 -71 28t-27 73zM1214 -188v1394q0 38 29 68.5t72 30.5h184q41 0 69.5 -30.5t28.5 -68.5v-1394q0 -44 -27.5 -72.5t-70.5 -28.5h-184q-44 0 -72.5 28.5 t-28.5 72.5z" />
<glyph unicode="R" horiz-adv-x="2304" d="M97 -50q-15 48 -15 99q0 75 31 158l163 276l-135 76l406 37l172 -367l-135 76l-164 -262q-2 -3 -6.5 -8t-14.5 -23t-17 -38t-12 -52q-4 -23 -3 -46v-19q4 -67 17 -114t24 -61l12 -14q-104 12 -195 89t-128 193zM426 -152q-1 14 -1 27q-1 50 9 85q12 45 24 57l13 12h195 h217q57 0 96 -51.5t39 -129.5q0 -74 -39 -127t-96 -53h-232h-180q-5 3 -12.5 12.5t-20 55t-12.5 112.5zM492 760q-13 30 -13 55q0 28 15 51l112 201l96 158q2 1 5.5 3t18.5 3t32.5 -2t48.5 -15.5t67 -33.5q38 -21 66 -42.5t40.5 -37.5t20 -29t8.5 -20l1 -7l-97 -163 l-104 -187q-29 -52 -97 -60q-12 -2 -24 -1q-54 0 -104 31q-66 34 -92 96zM725 1270q36 52 92.5 89.5t124.5 53.5q51 12 104 12q18 1 36 -1q70 -6 141 -45.5t125 -108.5l155 -277l135 74l-180 -358l-403 30l135 74l-143 277q-1 3 -4 9t-13.5 23.5t-24.5 33.5t-38.5 35.5 t-53.5 33.5q-60 29 -107 41q-35 9 -53 9q-6 0 -11 -1zM1114 -166l211 336l6 -150h316q4 -1 10.5 -1.5t27 1.5t41.5 7t50.5 18.5t56.5 34.5q54 36 85.5 72t36.5 54l5 17q34 -70 34 -155q0 -88 -34 -169q-33 -80 -111 -142t-188 -81l-313 -14l6 -149zM1392 510q22 64 83 108 q57 39 118 39q3 -1 7 -1q64 -2 98 -52l135 -186l98 -150q0 -6 -3.5 -17.5t-33.5 -48.5t-84 -77q-56 -36 -101 -51q-38 -12 -56 -12h-6l-17 4l-104 157l-127 178q-16 25 -16 57q0 24 9 52z" />
<glyph unicode="S" d="M-2 8q0 60 41.5 102t101.5 42h248q43 2 83.5 23.5t66 46.5t67.5 73q51 60 147.5 207t123.5 184q102 172 192 272q89 94 135 121q112 64 217 64h164v192q0 53 31 56h6q29 0 47 -17l367 -352q12 -10 12 -31t-12 -33l-367 -327q-20 -13 -38 -13q-12 0 -23 5q-23 9 -23 41 v190h-139q-63 0 -111 -39q-66 -53 -131 -151q-20 -30 -132 -206.5t-179 -267.5q-5 -7 -26 -33.5t-28 -35.5t-26 -32.5t-29 -34.5t-28.5 -31t-31.5 -31.5t-30.5 -26.5t-35 -27t-35.5 -22q-106 -53 -226 -53h-256q-60 0 -101.5 42.5t-41.5 102.5zM-2 999q0 60 41.5 102 t101.5 42h256q77 0 118 -11t99 -45q49 -29 99 -73.5t81 -78.5t83 -95q-53 -74 -168 -265q-115 167 -224 248q-48 31 -96 31h-248q-60 0 -101.5 42.5t-41.5 102.5zM973 168q130 187 176 264q44 -72 77 -118.5t86.5 -95.5t108.5 -66h164v192q0 26 23 39q22 11 61 -8l367 -328 q12 -12 12 -31.5t-12 -31.5l-359 -353q-25 -12 -43 -12q-10 0 -18 4q-31 18 -31 41v199h-164q-112 0 -217 65q-25 16 -66.5 51.5t-68.5 67.5q-17 20 -48.5 60.5t-47.5 60.5z" />
<glyph unicode="T" horiz-adv-x="2246" d="M181 471q0 60 44 100l142 140q40 46 99.5 46t100.5 -46l232 -234l706 715q41 40 101 40t100 -40l141 -148q44 -40 44 -99.5t-44 -100.5l-948 -946q-40 -40 -100.5 -40t-98.5 40l-475 473q-44 40 -44 100z" />
<glyph unicode="U" horiz-adv-x="2336" d="M-6 211q0 13 11.5 26t25.5 19q16 6 29 6q20 0 34 -14l193 -195l245 240l19 18q23 26 45 0l240 -239q22 -25 0 -45l-267 -256l193 -191q18 -18 18 -38q0 -13 -8 -27q-15 -27 -47 -27h-676q-26 0 -40.5 16t-14.5 39v668zM-6 805v676q0 22 16.5 38.5t38.5 16.5h668 q33 0 51 -39q5 -12 5 -23q0 -21 -19 -38l-195 -193l258 -264q13 -13 13 -23t-13 -22l-233 -246q-8 -13 -19 -16t-19 1t-14 11l-256 268l-190 -184q-31 -31 -55 -18q-37 10 -37 55zM1190 952q-10 13 -10 24.5t10 20.5l276 256l-192 183q-15 15 -15 36q0 12 5 27 q5 14 19.5 25.5t27.5 11.5h676q27 0 41 -17t14 -46v-660q0 -45 -39 -59q-7 -3 -15 -3q-21 0 -46 25l-193 185l-264 -259l-3.5 -3.5l-3.5 -3.5t-4 -3.5t-5 -3t-5.5 -0.5t-7 1.5t-7.5 4.5t-9 8zM1208 45q-10 10 -10 21.5t10 23.5l250 240q10 12 21.5 12t23.5 -12l256 -267 l191 193q11 13 28 15t27 -5q37 -21 37 -55v-678q0 -20 -18 -32.5t-46 -12.5h-659q-13 0 -26.5 12t-18.5 25q-6 16 -6 29q0 20 14 34l184 183z" />
<glyph unicode="V" d="M15 1242.5q0 3.5 1.5 7t4.5 7.5t8 9l250 250q13 10 24 10t21 -10l256 -277l182 193q15 15 36 15q12 0 27 -5q14 -5 25.5 -19.5t11.5 -27.5v-703q0 -27 -17 -41t-46 -14h-660q-45 0 -59 39q-3 7 -3 15q0 21 25 46l185 219l-258 265l-3.5 3.5l-3.5 3.5t-3.5 4t-3 5 t-0.5 5.5zM20 -178l277 256l-193 205q-15 15 -15 36q0 12 5 27q5 14 19.5 25.5t27.5 11.5h676q27 0 41 -17.5t14 -46.5v-681q0 -46 -38 -60q-7 -3 -14 -3q-22 0 -48 26l-192 184l-265 -258l-3.5 -3.5l-3.5 -3.5t-4 -3.5t-5 -3t-5.5 -0.5t-7 1.5t-7.5 4.5t-9 8l-250 250 q-10 13 -10 24t10 21zM1167 700v684q0 46 39 60q7 3 14 3q22 0 48 -26l192 -184l264 258l3.5 3.5l3.5 3.5t4 3.5t5 3t5.5 0.5t7 -1.5t7.5 -4.5t9 -8l250 -250q19 -26 0 -45l-276 -256l192 -209q15 -15 15 -37q0 -11 -4 -24q-5 -14 -20 -25.5t-28 -11.5h-675q-27 0 -41.5 17 t-14.5 46zM1184 328q0 27 17 41t46 14h660q45 0 59 -39q3 -7 3 -15q0 -21 -25 -46l-185 -215l258 -265l3.5 -3.5l3.5 -3.5t3.5 -4t3 -5t0.5 -5.5t-1.5 -7t-4.5 -7.5t-8 -9l-250 -250q-13 -10 -24 -10t-21 10l-256 277l-182 -193q-15 -15 -36 -15q-12 0 -27 5 q-14 5 -25.5 19.5t-11.5 27.5v699z" />
<glyph unicode="W" horiz-adv-x="2295" d="M4 530q0 16 12 27l342 336q6 11 21 14t27 -4q18 -9 18 -33v-198h442v432h-184q-36 0 -51 31q-6 6 -0.5 22t12.5 23l354 344q12 12 29 12t29 -12l334 -342q7 -7 10 -19.5t-2 -25.5q-13 -25 -39 -25h-178v-440h436v198q0 20 26 33q29 14 50 -10l344 -358q12 -12 12 -28.5 t-12 -27.5l-344 -336q-9 -10 -25.5 -13t-28.5 3q-22 11 -22 41v209h-436v-463h178q27 0 39 -24q9 -18 -8 -48l-359 -344q-12 -12 -28 -12t-27 12l-336 344q-17 30 -8 48q12 24 39 24h196v463h-434v-209q0 -22 -31 -37q-35 0 -43 15l-342 350q-12 12 -12 28z" />
<glyph unicode="X" horiz-adv-x="1746" d="M-8 844l735 698l737 -698h-366v-449h-762v449h-344zM336 4v318h762v-318h-762zM336 -70h762v-182h-762v182zM336 -309h762v-74h-762v74zM336 -444h762v-74h-762v74z" />
<glyph unicode="a" d="M6 47.5q0 63.5 41 110.5l467 458q41 41 104.5 41t112.5 -41l72 -79l-137 -129q-23 12 -44 12q-33 0 -61 -29l-264 -264q-25 -25 -25 -60.5t25 -60.5l217 -217q25 -25 60.5 -25t60.5 25l264 264q28 28 28 60q0 21 -12 45l129 137l80 -72q41 -50 41 -113t-41 -104 l-458 -467q-47 -41 -110.5 -41t-104.5 41l-404 402q-41 43 -41 106.5zM616 228.5q0 27.5 19 50.5l143 137l74 80l264 266l80 80l82 80q17 19 44 19t52 -19l56 -56q19 -25 19 -52t-19 -46l-80 -80l-162 -160l-402 -401q-17 -19 -47 -19t-49 19l-55 55q-19 19 -19 46.5z M874 913.5q0 63.5 41 104.5l459 459q47 47 110.5 47t106.5 -47l394 -396q47 -41 47 -104.5t-47 -110.5l-459 -458q-41 -41 -104 -41t-113 41l-72 71l160 162q24 -13 52 -10t44 26l274 265q23 25 23 60t-23 60l-217 218q-25 23 -60 23t-60 -23l-265 -275q-23 -16 -26 -44 t10 -52l-154 -160l-80 72q-41 49 -41 112.5z" />
<glyph unicode="b" d="M12 327.5q0 61.5 41 102.5l670 664q38 47 104 47q53 0 103 -47l110 -111l-135 -141l-31 30q-23 23 -55 23q-35 0 -55 -23l-498 -497q-23 -17 -23 -51.5t23 -59.5l285 -282q22 -25 55 -25q40 0 62 25l489 487q25 25 25 60.5t-25 58.5l-55 55l143 135l125 -127 q47 -41 47 -102.5t-47 -102.5l-661 -671q-56 -39 -103 -39q-63 0 -102 39l-451 450q-41 41 -41 102.5zM621 430q0 61 41 102l669 664q38 47 103 47q55 0 102 -47l442 -442q47 -41 47 -102.5t-47 -102.5l-663 -672q-39 -39 -103 -39q-71 0 -102 39l-119 119l127 127l39 -39 q25 -25 55 -25q39 0 64 25l489 489q23 23 23 58.5t-23 58.5l-284 285q-21 24 -56 24q-31 0 -55 -24l-496 -498q-25 -23 -25 -54t25 -56l56 -56l-127 -125l-141 142q-41 41 -41 102z" />
<glyph unicode="c" horiz-adv-x="2263" d="M0 487q0 141 68.5 260.5t188.5 190t263 70.5q234 0 438 -260l-127 -173l-10 19q-70 106 -172 172q-50 34 -129 39q-135 0 -226 -92t-91 -226t92 -229.5t225 -95.5q45 0 92 22.5t84 54t79 81.5t69.5 87.5t62.5 89.5q5 7 7.5 11t6.5 9.5t7 10.5l33 48q32 47 49 71 t48.5 66.5t51.5 65.5t53 57.5t60 53.5t64 43t72.5 37t79.5 23.5t91 14.5q140 0 260 -70.5t190 -190.5t70 -260q0 -145 -70 -266.5t-189.5 -191.5t-260.5 -70q-244 0 -440 277l122 163q163 -237 315 -237h3q134 3 225.5 96.5t91.5 228.5q0 132 -92 227q-88 91 -214 91h-11 q-58 -1 -115 -28.5t-100.5 -66.5t-90.5 -97.5t-79.5 -108t-74.5 -113t-69 -98.5q-93 -126 -144 -176q-42 -41 -83 -70q-118 -76 -254 -88q-218 0 -369 153.5t-151 374.5z" />
<glyph unicode="d" horiz-adv-x="2304" d="M0 -311v1644q0 85 57.5 144t141.5 59h944l149 -178l-114 -80h-920v-1536h1516v1092l254 -297v-848q0 -88 -47.5 -144.5t-129.5 -56.5h-1652q-85 0 -142 58t-57 143zM532 100v762q0 33 27 45q8 2 16 2q4 0 5.5 -0.5t2.5 -1.5t3 -3.5t4 -4.5l256 -252l18 -18l541 551 l274 -265l-551 -550h9l252 -230q12 -12 12 -24l-4 -21q-6 -12 -18.5 -19.5t-24.5 -7.5h-791q-18 0 -24.5 8t-6.5 29z" />
<glyph unicode="e" horiz-adv-x="2263" d="M0 -336v1522q0 80 55.5 139t137.5 59h821l137 -174l-104 -104h-768v-1360h1341v989l276 -258v-813q0 -76 -55.5 -127t-134.5 -51h-1513q-83 0 -138 50.5t-55 127.5zM965 735l508 506l-234 234q-16 16 -16 24q0 9 4 19q9 22 37 22h747q19 0 30 -11t11 -30v-723 q0 -20 -24 -37q-6 -4 -17 -4q-7 0 -24 17l-256 241l-517 -508z" />
<glyph unicode="f" horiz-adv-x="2246" d="M214 233v16q0 262 123 472q166 283 507 370q139 35 303 35v359q402 -231 895 -529q-125 -83 -346.5 -226t-381.5 -245l-159 -102l-8 373q-19 1 -38 1q-109 0 -205 -25q-112 -30 -192 -85t-142.5 -129.5t-98.5 -158t-55 -171.5q-20 -85 -20 -164q0 -83 18 -154 q16 -69 47 -116q-94 0 -164 124q-80 142 -83 355z" />
<glyph unicode="g" d="M110 576q-1 14 -1 29q0 86 45 165q52 93 157.5 165t299 119.5t458.5 59.5v365q391 -235 879 -525q-136 -84 -355.5 -227.5t-371.5 -244.5l-152 -101v367q-196 -4 -330.5 -41t-196 -97t-80.5 -137q-8 -31 -8 -64q0 -48 16 -99q29 -86 79 -174t123 -170.5t148 -151 t148 -117t128 -68.5q-93 10 -202.5 56t-218 117t-207.5 162.5t-179 193t-125 209t-54 209.5z" />
<glyph unicode="h" d="M-2 344q0 157 60 299t162 245.5t245 164.5t303 61h535v375l749 -533l-749 -530v373h-535q-121 0 -229 -62.5t-173 -168t-65 -224.5q0 -124 65.5 -226.5t172.5 -159t229 -56.5h825q45 0 81 -17t54 -45q20 -26 28 -60q4 -17 4 -34q0 -18 -4 -34q-8 -34 -27 -61t-55 -44 t-81 -17h-825q-129 0 -246.5 36.5t-212 104.5t-165 160t-108.5 208.5t-38 244.5z" />
<glyph unicode="i" d="M-4 180h283v889q0 100 36 186.5t97 141.5q131 119 305 119q164 0 295 -119q62 -55 98.5 -142t36.5 -186l-12 -1106q0 -104 69 -160q38 -32 69.5 -43.5t74.5 -11.5q82 0 137 55q22 22 40.5 64t18.5 96v897h-276l401 688l391 -688h-278q-6 0 -6 -899q0 -189 -140 -326 q-110 -110 -288 -110q-185 0 -295 110q-63 56 -101.5 143t-38.5 185v1106q0 118 -61 168q-63 51 -147 51q-40 0 -76.5 -15t-57.5 -36q-63 -63 -63 -168v-889h280l-401 -688z" />
<glyph unicode="j" horiz-adv-x="2385" d="M-4 254q0 12 10.5 22.5t22.5 10.5h553q17 0 24 -17t-8 -32l-188 -201q109 -137 278 -221t344 -84q151 0 290.5 58t248.5 167q150 150 201 354q12 41 49 69t80 28q37 0 67.5 -17t44.5 -49q11 -26 11 -55q0 -19 -5 -41q-53 -226 -201.5 -402t-367.5 -280q-199 -88 -418 -88 q-191 0 -368 63q-119 46 -230.5 129.5t-197.5 188.5l-191 -189q-7 -8 -18 -10t-15 2q-10 7 -12 11.5t-2 17.5zM29 743q54 224 203 401.5t366 274.5q199 97 418 97q182 0 370 -72q241 -86 418 -297l15 -17l186 193q19 19 33 12q14 -6 14 -37v-569q0 -11 -10 -17.5t-23 -6.5 h-553q-18 0 -24 16q-8 15 8 31l190 196q-64 82 -159.5 150.5t-198.5 111.5q-45 19 -122.5 33t-143.5 14q-156 0 -301.5 -62t-251.5 -177q-119 -127 -187 -338q-15 -48 -62 -78q-34 -21 -69 -21q-14 0 -28 3q-49 12 -75 58q-17 32 -17 67q0 17 4 34z" />
<glyph unicode="k" horiz-adv-x="2344" d="M-6 496q0 207 76.5 393t220.5 323q146 146 333.5 226t391.5 80q228 0 432 -99t358 -284l189 190q16 14 33 8q16 -6 16 -33v-563q0 -12 -10.5 -22t-22.5 -10h-547q-20 0 -28 14q-4 8 -2 18.5t8 16.5l186 194q-116 143 -271.5 227.5t-340.5 84.5q-152 0 -292 -58.5 t-247 -167.5q-109 -107 -167 -246.5t-58 -291.5q0 -157 58 -297.5t167 -247.5q106 -107 245 -162t294 -55q181 0 341.5 80.5t276.5 224.5l-200 192q-9 7 -11 18t2 15q10 15 31 15h572q24 0 24 -23v-555q0 -23 -14 -29q-22 -7 -35 4l-186 187l-15 -19q-145 -174 -351.5 -271 t-434.5 -97q-206 0 -393.5 76.5t-331.5 220.5t-220.5 331t-76.5 392z" />
<glyph unicode="l" horiz-adv-x="2279" d="M0 496q0 202 76 387.5t219 330.5q145 142 330.5 218.5t388.5 76.5q226 0 438 -102t356 -277l189 187q14 16 31 10q16 -6 16 -24v-568q0 -12 -10.5 -23.5t-22.5 -11.5h-543q-22 0 -30 19q-9 18 8 41l174 174l12 12q-108 139 -276.5 223t-341.5 84q-149 0 -288.5 -58 t-246.5 -165t-165 -246t-58 -288q0 -155 58 -295.5t165 -247.5t246.5 -165t288.5 -58q175 0 333.5 74.5t264.5 211.5q36 47 96 47q42 0 80 -30q44 -35 49 -80q1 -7 1 -14q0 -42 -26 -82q-145 -181 -355 -282t-443 -101q-202 0 -388 79t-331 224q-143 145 -219 330t-76 389z " />
<glyph unicode="m" horiz-adv-x="2336" d="M0 504q0 248 104 446q94 205 281 353q38 24 78 24q62 0 96 -49q25 -38 25 -79v-9q-3 -53 -41 -88q-137 -108 -212 -263.5t-75 -334.5q0 -152 57.5 -291t165.5 -248q109 -107 248 -165t289 -58q156 0 296 57.5t249 165.5q106 107 160.5 246t54.5 293q0 178 -74 334 t-207 264q-44 33 -47 88v10q0 46 25 78q40 49 104 49q41 0 78 -24q180 -151 278.5 -359t98.5 -440q0 -205 -76 -387.5t-221 -325.5q-143 -146 -329.5 -225.5t-389.5 -79.5t-389.5 79.5t-329.5 225.5q-145 143 -221 325.5t-76 387.5zM889 446v959q0 54 36.5 91.5t90.5 37.5 q49 0 88 -38t39 -91v-959q0 -53 -39 -91t-88 -38q-54 0 -90.5 37.5t-36.5 91.5z" />
<glyph unicode="n" horiz-adv-x="2287" d="M-4 514q0 207 81.5 397t218.5 328t328 220.5t400 82.5q140 0 274 -37.5t246.5 -104.5t207.5 -162t161 -208t102.5 -245.5t36.5 -270.5q0 -210 -81 -400.5t-218.5 -328t-328 -218.5t-400.5 -81t-400 81t-328 218.5t-219 328t-81 400.5zM254 514q0 -210 103 -387.5 t280.5 -281t386.5 -103.5q157 0 300 61t246.5 164.5t164.5 246.5t61 300q0 209 -103.5 386.5t-281 280.5t-387.5 103q-157 0 -299.5 -61t-245.5 -164t-164 -245.5t-61 -299.5zM494 526q0 57 40.5 85t104.5 28h762q65 0 105 -28t40 -85q0 -61 -42.5 -107t-102.5 -46h-762 q-59 0 -102 46t-43 107z" />
<glyph unicode="o" horiz-adv-x="2295" d="M4 510q0 165 52.5 320.5t147.5 282t221.5 221.5t282 147.5t320.5 52.5q209 0 399 -82t326.5 -220t217.5 -327t81 -395q0 -209 -81 -398.5t-218 -326.5t-326.5 -218t-398.5 -81q-206 0 -395 81t-327 217.5t-220 326.5t-82 399zM260 510q0 -209 103 -385.5t279.5 -279.5 t385.5 -103t385.5 103t279.5 279.5t103 385.5t-103 385.5t-279.5 279.5t-385.5 103t-385.5 -103t-279.5 -279.5t-103 -385.5zM508 526q0 58 40.5 90.5t102.5 32.5h234v238q0 60 41.5 101.5t101.5 41.5t101.5 -41.5t41.5 -101.5v-238h234q63 0 107 -33t44 -90 q0 -60 -45.5 -107.5t-105.5 -47.5h-234v-246q0 -60 -41.5 -101.5t-101.5 -41.5t-101.5 41.5t-41.5 101.5v246h-234q-59 0 -101 47t-42 108z" />
<glyph unicode="p" horiz-adv-x="2279" d="M0 510q0 139 36.5 271.5t102.5 245t160.5 207.5t206.5 161.5t246 103.5t274 37t274 -37t246 -103.5t206.5 -161.5t160.5 -207.5t102.5 -245t36.5 -271.5q0 -141 -36.5 -274t-102.5 -246t-160 -207t-207 -160t-246 -102.5t-274 -36.5t-274 36.5t-246 102.5t-207 160 t-160 207t-102.5 246t-36.5 274zM254 510q0 -208 104 -386t282 -282t386 -104t385 104t280 281.5t103 386.5t-103 385.5t-279.5 279.5t-385.5 103t-386.5 -103t-281.5 -280t-104 -385zM778 150v720q0 20 25 31q10 4 21.5 4t25.5 -4l600 -360q1 -1 6 -5.5t7 -7t4.5 -7 t2.5 -9.5q0 -20 -20 -33l-600 -360q-15 -9 -30 -9q-8 0 -17 3q-25 9 -25 37z" />
<glyph unicode="q" horiz-adv-x="2287" d="M-6 510q0 141 37 274.5t103.5 247t161 208.5t207 161.5t245.5 103.5t272 37q141 0 274.5 -37t247 -103.5t208.5 -161.5t161.5 -208.5t103.5 -247t37 -274.5q0 -139 -37 -272.5t-103.5 -247t-161.5 -209.5t-208.5 -163t-247.5 -104.5t-274 -37.5q-208 0 -398 82.5 t-327.5 222t-219 330.5t-81.5 399zM244 516q0 -160 61.5 -305t166 -249.5t249.5 -166t305 -61.5q158 0 301.5 61.5t247.5 166t165.5 249.5t61.5 305q0 158 -61.5 301.5t-165.5 247.5t-247.5 165.5t-301.5 61.5q-160 0 -305 -61.5t-249.5 -165.5t-166 -247.5t-61.5 -301.5z M651 184v645q0 30 20.5 52t45.5 22h129q24 0 43.5 -22t19.5 -52v-645q0 -25 -20 -45t-43 -20h-129q-25 0 -45.5 20t-20.5 45zM1147 184v645q0 32 17 53t46 21h127q31 0 52.5 -21.5t21.5 -52.5v-645q0 -25 -22 -45t-52 -20h-127q-28 0 -45.5 19.5t-17.5 45.5z" />
<glyph unicode="r" horiz-adv-x="2304" d="M-6 512q0 210 81.5 401t219 328.5t328.5 219t401 81.5q211 0 402.5 -81.5t329 -219t219 -328.5t81.5 -401q0 -208 -81.5 -399t-219 -329.5t-329 -221t-402.5 -82.5q-210 0 -401 82.5t-328.5 221t-219 329.5t-81.5 399zM260 373q47 -243 218.5 -410.5t414.5 -208.5v281 q0 55 41.5 96t95.5 41q60 0 99.5 -40t39.5 -97v-281q244 41 412 208t209 409h-289q-56 0 -96.5 40t-40.5 95q0 59 40.5 99t96.5 40h289q-41 244 -212 417t-413 214v-281q0 -62 -35 -99.5t-96 -37.5q-57 0 -103 39t-46 98v281q-242 -41 -413 -213t-212 -416h297q57 0 97 -38 t40 -97q0 -56 -41 -97.5t-96 -41.5h-297z" />
<glyph unicode="s" horiz-adv-x="2279" d="M2 514q0 205 81 394t217.5 326.5t326 219.5t397.5 82q209 0 399.5 -82t327.5 -219.5t218 -326.5t81 -394q0 -210 -81 -400t-218 -327t-327 -218t-400 -81q-208 0 -397.5 81t-326 218t-217.5 327t-81 400zM258 514q0 -209 103 -386.5t279 -280.5t384 -103q157 0 299.5 61 t245.5 164t164 245.5t61 299.5q0 208 -103 384t-280.5 279t-386.5 103q-155 0 -297 -61t-244.5 -163.5t-163.5 -244.5t-61 -297zM692 256v510q0 28 21 50t45 22h530q24 0 45 -22t21 -50v-510q0 -23 -21.5 -43t-44.5 -20h-530q-23 0 -44.5 20t-21.5 43z" />
<glyph unicode="t" d="M2 516q0 167 51.5 324t146.5 283t220.5 221t280.5 146.5t321 51.5q167 0 324 -51.5t283 -146.5t221 -221t146.5 -283t51.5 -324q0 -140 -37 -273.5t-103 -246t-160.5 -207.5t-207 -161t-245.5 -103t-273 -37q-207 0 -395.5 81.5t-325.5 218.5t-218 328t-81 400zM250 516 q0 -209 105.5 -387t284.5 -281.5t388 -103.5q157 0 300 61t246.5 164.5t164.5 246.5t61 300q0 209 -103.5 386t-281.5 280.5t-387 103.5q-156 0 -300 -61t-248.5 -164.5t-167 -246t-62.5 -298.5zM479 447.5q0 37.5 29 68.5l88 88q23 25 63.5 25t65.5 -25l152 -153l448 458 q25 23 62.5 23t66.5 -23l88 -98q29 -23 29 -60.5t-29 -66.5l-602 -602q-31 -30 -65 -30t-62 30l-305 303q-29 25 -29 62.5z" />
<glyph unicode="u" d="M2 510q0 168 51.5 324.5t145.5 282.5t219.5 220t282 145.5t323.5 51.5q210 0 399.5 -80.5t326.5 -217.5t217.5 -326.5t80.5 -399.5q0 -167 -51.5 -323.5t-145.5 -282t-220 -219.5t-282.5 -145.5t-324.5 -51.5q-167 0 -323.5 51.5t-282 145.5t-219.5 219.5t-145.5 282 t-51.5 323.5zM258 510q0 -155 61 -297t163.5 -244.5t244.5 -163.5t297 -61q156 0 298.5 61t245 163.5t163.5 244.5t61 297q0 209 -103 385.5t-279.5 279.5t-385.5 103q-155 0 -297 -61t-244.5 -163.5t-163.5 -245t-61 -298.5zM616 234.5q0 58.5 41 101.5l160 168l-160 160 q-41 41 -41 103t41 103t99.5 41t101.5 -41l166 -168l168 168q43 41 101.5 41t99.5 -41t41 -103t-41 -103l-168 -160l168 -168q41 -43 41 -101.5t-41 -99.5t-99.5 -41t-101.5 41l-168 160l-166 -160q-43 -41 -101.5 -41t-99.5 41t-41 99.5z" />
<glyph unicode="v" horiz-adv-x="2506" d="M3 564q6 156 60 304q71 196 218.5 350t343 239t405.5 85q41 -8 127 -8q203 -28 381 -131q149 -85 262 -216t176 -292q70 -178 70 -370.5t-62.5 -364t-187 -317.5t-293.5 -234q-207 -110 -445 -117h-32q-221 0 -420 90q-143 64 -259.5 168.5t-193 234.5t-116.5 276 q-35 127 -35 262q0 21 1 41zM262 514q0 -156 62 -299.5t166 -247t248 -163.5q135 -56 279 -56h19q152 3 292.5 65.5t243 165.5t163.5 243t61 292q0 156 -62.5 298.5t-167 245t-247.5 163.5t-299 61q-153 -3 -293 -65.5t-242 -165t-162.5 -243.5t-60.5 -294zM883 930 q0 65 39.5 109t101.5 44q66 0 111 -44t45 -109q0 -60 -46 -108t-110 -48q-61 0 -101 47.5t-40 108.5zM899 90v434q0 59 35 96t92 37q59 0 98 -37.5t39 -95.5v-434q0 -106 -139 -106q-125 0 -125 106z" />
<glyph unicode="&#x2000;" horiz-adv-x="774" />
<glyph unicode="&#x2001;" horiz-adv-x="1548" />
<glyph unicode="&#x2002;" horiz-adv-x="774" />
<glyph unicode="&#x2003;" horiz-adv-x="1548" />
<glyph unicode="&#x2004;" horiz-adv-x="516" />
<glyph unicode="&#x2005;" horiz-adv-x="387" />
<glyph unicode="&#x2006;" horiz-adv-x="258" />
<glyph unicode="&#x2007;" horiz-adv-x="258" />
<glyph unicode="&#x2008;" horiz-adv-x="193" />
<glyph unicode="&#x2009;" horiz-adv-x="309" />
<glyph unicode="&#x200a;" horiz-adv-x="86" />
<glyph unicode="&#x202f;" horiz-adv-x="309" />
<glyph unicode="&#x205f;" horiz-adv-x="387" />
<glyph unicode="&#xe000;" horiz-adv-x="1024" d="M0 0z" />
</font>
</defs>
</svg>
