<?xml version="1.0" standalone="no"?>
<!DOCTYPE svg PUBLIC "-//W3C//DTD SVG 1.1//EN" "http://www.w3.org/Graphics/SVG/1.1/DTD/svg11.dtd" >
<svg xmlns="http://www.w3.org/2000/svg">
<metadata></metadata>
<defs>
<font id="uicons__tools_and_gadgetsRg" horiz-adv-x="2048" >
<font-face units-per-em="2048" ascent="1536" descent="-512" />
<missing-glyph horiz-adv-x="1024" />
<glyph />
<glyph />
<glyph unicode="&#xd;" />
<glyph unicode=" "  horiz-adv-x="1024" />
<glyph unicode="&#x09;" horiz-adv-x="1024" />
<glyph unicode="&#xa0;" horiz-adv-x="1024" />
<glyph unicode="0" horiz-adv-x="2422" d="M137 516q0 205 80.5 393.5t216 325t324.5 218t397 81.5t397 -81.5t324.5 -218t216 -325t80.5 -393.5q0 -208 -80.5 -397t-216 -326.5t-324.5 -219t-397 -81.5t-397 81.5t-324.5 219t-216 326.5t-80.5 397zM350 516q0 -218 107.5 -402t293 -291.5t404.5 -107.5 q218 0 402.5 107.5t291.5 291.5t107 402q0 162 -63.5 310.5t-170 257t-255.5 173t-312 64.5q-110 0 -214.5 -29.5t-192.5 -82t-162.5 -127t-126 -163t-80.5 -192t-29 -211.5zM479 500q0 153 65 289t183 233l102 -129q-85 -71 -136.5 -175.5t-51.5 -217.5q0 -66 35 -181 l-156 -57q-41 125 -41 238zM782 1063q165 113 379 113q233 0 371 -111l-76 -133q-140 82 -295 82q-159 0 -291 -78zM967 485q-19 68 19 129t108 82q52 6 100 -11.5t80 -55.5l366 59q-37 116 -149 213l98 129q112 -101 181 -241.5t69 -288.5q0 -153 -43 -252l-145 57 q24 88 24 195q0 67 -8 102q-46 -12 -169.5 -52t-188.5 -58q-14 -53 -51.5 -92t-86.5 -46q-69 -20 -130.5 19.5t-73.5 111.5zM1085 508q11 -33 60 -33q21 8 31 23.5t4 33.5q-6 22 -23.5 32t-36.5 3q-35 -8 -35 -59z" />
<glyph unicode="1" horiz-adv-x="2578" d="M0 885v526q0 51 33 88t80 37h1130q50 0 83.5 -36.5t33.5 -88.5v-526q0 -51 -33 -84t-84 -33h-244q-53 -278 -98 -469q-10 -43 -35 -74t-53.5 -45.5t-55.5 -22.5t-45 -9l-18 -1l-39 -167h60q22 0 38.5 -15t16.5 -43v-364q0 -28 -16.5 -43t-38.5 -15h-652q-24 0 -40.5 15 t-16.5 43v364q0 28 16.5 43t40.5 15h99l162 788h-211q-48 0 -80.5 33t-32.5 84zM162 1278q0 -29 19 -47.5t48 -18.5q34 0 54 18.5t20 47.5q0 36 -20 57t-54 21q-30 0 -48.5 -21t-18.5 -57zM229 -10h275l172 768h-275zM987 328l86 393h68q35 0 50 -27t7 -57l-47 -236 q-8 -28 -35.5 -50.5t-60.5 -22.5h-68zM1417 885v526h195q51 0 84 -32t33 -83v-73h122l152 -195h-274v-84q0 -13 -2.5 -22.5t-5.5 -15.5t-11.5 -10.5t-13 -6.5t-18 -3t-19.5 -1h-23h-24h-195zM1946 1223h161l152 -195h-172zM2204 1223h151q30 0 76.5 -26.5t46.5 -61.5 q0 -44 -49 -75.5t-74 -31.5h-10z" />
<glyph unicode="2" horiz-adv-x="2236" d="M4 -30q0 20 14 32q38 50 99.5 127.5t197.5 241.5t209 237q77 78 190.5 157t187.5 119l75 40q39 178 57 188q8 6 58.5 -6.5t109.5 -30.5t70 -20q0 -10 8 -35l57 -154q-1 -1 -138.5 -67.5t-300 -160t-243.5 -169.5q-58 -61 -117.5 -147t-102 -157.5t-112.5 -160 t-151 -158.5q-12 -7 -31.5 -8t-34.5 8l-88 93q-14 11 -14 31zM352 -373.5q1 19.5 8 31.5q70 81 158.5 151t160 112.5t157.5 102t147 117.5q76 81 169.5 243.5t160 300t67.5 138.5l154 -57q11 -4 20 -8.5t12 -7.5l3 -2q1 -4 19.5 -62.5t31 -108t6.5 -57.5q-4 -8 -49.5 -22 t-88.5 -24l-44 -11q-6 -11 -17 -31t-45.5 -77.5t-70.5 -110.5t-88 -119t-101 -115q-73 -73 -224.5 -199.5t-266.5 -216.5l-115 -90q-12 -14 -32 -14t-31 14l-93 88q-9 15 -8 34.5zM1280 1020l115 117l10 -19q5 24 39 58q8 8 57 43l-14 22l63 68h9l385 221l24 -27l-178 -180 q-34 14 -92 -41q-25 -23 -29.5 -58.5t14.5 -54.5q7 -9 25.5 -11t42 7t39.5 29q63 48 39 82l188 188l27 -24l-229 -396h8l-76 -71l-14 20q-20 -40 -43 -63q-13 -13 -58 -33l19 -16l-117 -115l-154 57l88 88q-3 5 -7 8.5t-9 6t-8 4.5q-2 3 -7 8t-8.5 9t-3.5 7l-88 -88z M1380 823zM1462 1053.5q0 -43.5 31 -74.5q31 -23 74.5 -23t72.5 23q23 31 23 74.5t-23 72.5q-29 32 -72.5 32t-74.5 -32q-31 -29 -31 -72.5zM1507 1053q0 -22 19 -41t41 -19t41 19t19 41t-19 41t-41 19t-41 -19t-19 -41z" />
<glyph unicode="3" horiz-adv-x="2852" d="M2 -389v917q0 44 35 80.5t84 36.5h1562q49 0 83 -36t34 -81v-917q0 -52 -33 -85.5t-84 -33.5h-1562q-51 0 -85 33.5t-34 85.5zM2 1100q0 168 129 297q122 119 289 119q80 0 157 -33t132 -86q129 -129 129 -297q0 -82 -35 -160t-94 -129q-52 -58 -128.5 -89.5 t-160.5 -31.5q-180 0 -289 121q-59 51 -94 129t-35 160zM242 -268h987v661h-987v-661zM270 1100q0 -40 21 -78l10 -10h8l31 39q-10 18 -10 49q0 37 26 62.5t64 25.5q31 0 49 -10l51 41l-10 8q-57 22 -90 22q-62 0 -106 -42t-44 -107zM319 979h11q48 -31 90 -31 q59 0 104 46.5t45 105.5q0 58 -30 88v10l-50 -41l11 -8q10 -8 10 -49q0 -37 -26.5 -62.5t-63.5 -25.5q-31 0 -51 10l-9 8zM885 1100q0 162 121 297q140 119 299 119q79 0 155.5 -33t132.5 -86q117 -114 117 -297q0 -87 -29.5 -163.5t-87.5 -125.5q-53 -58 -129 -89.5 t-159 -31.5q-175 0 -299 121q-54 52 -87.5 130t-33.5 159zM1145 1100q0 -50 31 -78l10 -10h8l29 39q-2 5 -8 15t-8.5 17.5t-2.5 16.5q0 36 31 62t70 26q30 0 38 -10h11l39 41l-9 8q-37 22 -79 22q-68 0 -114 -42t-46 -107zM1204 979h10q28 -31 91 -31q59 0 104 46.5 t45 105.5q0 57 -31 88v10l-49 -41l10 -8q9 -9 9 -49q0 -37 -25.5 -62.5t-62.5 -25.5q-42 0 -52 10l-10 8zM1393 307q0 -44 34 -76t84 -32q45 0 78 32.5t33 75.5q0 51 -32.5 85t-78.5 34q-51 0 -84.5 -34t-33.5 -85zM1444 307q0 -24 19 -40.5t48 -16.5q25 0 48.5 17.5 t23.5 39.5q0 29 -23.5 48.5t-48.5 19.5q-29 0 -48 -18.5t-19 -49.5zM1862 -111v408q0 31 11 42t46 19l444 148q24 0 43 -16.5t19 -43.5v-725q0 -28 -19.5 -48.5t-42.5 -20.5l-444 168q-40 22 -48 33q-9 13 -9 36zM2484 -420q0 -12 24 -20.5t42 -8.5q19 0 39 7.5t20 19.5v995 q0 14 -21.5 27.5t-37.5 13.5t-41 -12.5t-25 -26.5v-995z" />
<glyph unicode="4" horiz-adv-x="2260" d="M-10 -403l256 256q-4 18 -6 36.5t-2 27.5v9l155 156l125 -131h8l123 -131l-147 -158q-50 0 -99 16l-247 -247q-14 -12 -30 -12t-20 12l-116 116q-25 22 0 50zM394 190.5q-4 29.5 14 49.5q18 19 51 17t57 -26l305 -288q24 -18 25.5 -49.5t-17.5 -49.5q-18 -19 -50 -17 t-50 26l-311 288q-20 20 -24 49.5zM498 326q7 50 19.5 126t45.5 218.5t58 175.5t106 119.5t149 156.5l68 70l850 -850q-331 -297 -364 -305q-9 -3 -58 -13.5t-167 -38.5t-261 -63zM979.5 1292.5q1.5 17.5 19.5 28.5l31 29q37 39 66 10l882 -885q13 -10 11.5 -27t-19.5 -30 l-37 -31q-11 -18 -28.5 -19.5t-30.5 11.5l-883 883q-13 13 -11.5 30.5zM1332 1218.5q0 10.5 5 16.5l340 340q6 5 16.5 5t16.5 -5l115 -117q6 -6 6 -16.5t-6 -16.5l-338 -338q-6 -6 -16.5 -6t-16.5 6l-117 115q-5 6 -5 16.5zM1671 872.5q0 10.5 6 16.5l338 338q6 6 16.5 6 t16.5 -6l123 -115q8 -6 6.5 -16.5t-14.5 -16.5l-338 -338q-14 -18 -25 -10l-123 125q-6 6 -6 16.5z" />
<glyph unicode="5" horiz-adv-x="2322" d="M4 -91q-6 65 2 128t29.5 113t42.5 88.5t37 59.5l16 21l414 416l721 -721q-396 -393 -416 -401q-2 -5 -23 -22.5t-60 -40.5t-88 -44t-112.5 -29.5t-128.5 -1t-141 46t-145 107.5q-67 67 -104.5 141t-43.5 139zM612 813q76 76 154 162q11 9 37.5 36t50 51t59 46.5t69 31 t75 -4.5t80.5 -52l206 -204l-403 -396zM1008 410l403 403q62 -62 201 -207q37 -39 48.5 -80.5t4 -74t-32 -69t-47 -58.5t-53 -50.5t-39.5 -37.5q-34 -35 -74 -71t-63 -55l-23 -18zM1454 932q14 141 81 233t181 123q106 36 152.5 81t46.5 118q0 20 17 35.5t42 15.5 t39.5 -16.5t14.5 -42.5q0 -40 -10 -76t-23.5 -61t-39 -49t-43 -37.5t-49.5 -29t-45 -20.5t-43.5 -15.5t-31.5 -10.5q-47 -12 -81 -41t-52.5 -67t-27 -74t-11.5 -74q0 -25 -19.5 -42t-40.5 -12q-30 0 -38 19q-19 15 -19 43z" />
<glyph unicode="6" horiz-adv-x="1634" d="M-4 182q0 40 17.5 157t41.5 226h332q-55 -242 -55 -291q0 -209 98 -321.5t242 -112.5h16q70 0 131 27t108 79.5t74 136.5t27 191q0 48 -51 291h334q57 -318 57 -383q0 -139 -54 -266t-145.5 -219.5t-217.5 -147.5t-263 -55h-16q-188 0 -343.5 93t-244 251t-88.5 344z M66 627q11 64 26 131.5t24 103.5l9 35h340q-27 -133 -62 -270h-337zM168 1309l270 352l-125 -285h170l-278 -356l127 289h-164zM827 1376l271 -356l-131 289h176l-277 352l125 -285h-164zM897 897h348q24 -125 51 -270h-340q-11 61 -26 128.5t-24 104.5z" />
<glyph unicode="7" horiz-adv-x="2895" d="M-2 369q0 129 66.5 230.5t164.5 141.5l250 461q26 49 74 96.5t92 47.5h1104q45 0 95 -37.5t85 -83.5l248 -484q90 -41 154.5 -143t64.5 -229l2 -254q0 -86 -85.5 -161t-213.5 -106q-121 -29 -503.5 -44t-780.5 -1t-522 60q-136 50 -214.5 110.5t-78.5 141.5zM61 -393 l2 284q191 -130 375 -145v-139q0 -50 -39 -84.5t-90 -34.5h-114q-59 0 -96.5 33.5t-37.5 85.5zM172 322l2 -27q1 -3 4 -7t15 -17t30.5 -23t50 -24t73 -20t101 -11.5t132.5 2.5q-12 45 -22.5 75t-27.5 65.5t-36 58t-48 45.5t-65 36t-85.5 21t-109.5 8q-11 -52 -14 -104t0 -78 zM389 782q-5 -5 5.5 -8t35 -4t41.5 -1.5t45 -0.5h1370q131 0 131 14l-194 338q-32 103 -127 105h-985q-29 5 -58 -12.5t-43.5 -36t-34.5 -47.5q-1 -2 -2 -3t-2 -3t-2 -3zM672 379q0 -10 1 -25.5t8 -56t19 -71t39 -56t64 -25.5h338h65h336q39 0 67 24t39 58.5t16.5 69 t5.5 58.5l-1 24h-450h-93h-454zM741 330h86h25h754q-12 -131 -39 -131h-715h-12h-62q-12 0 -21 32.5t-13 65.5zM1827 199q98 -7 174.5 1t115.5 24t63.5 33.5t31.5 30.5l6 13q8 92 0 209q-85 0 -148 -15.5t-102.5 -40.5t-68 -67.5t-43.5 -84.5t-29 -103zM1982 -242 q92 0 192.5 41.5t176.5 108.5l-2 -291q0 -50 -37 -89.5t-82 -39.5h-131q-49 0 -83 38.5t-34 90.5v141z" />
<glyph unicode="8" horiz-adv-x="4296" d="M-2 631h72q0 -73 53 -140t119 -67h24q70 0 123 54.5t53 125.5v635v115v8q15 75 56 121q52 47 124 47t119 -47l1055 -895v751q0 36 26 62t66 26q36 0 66.5 -26.5t30.5 -61.5v-1130h61v928q0 55 28 103t78 48h181q113 0 217.5 -24.5t182 -64t144 -89.5t111 -101t76.5 -98.5 t46.5 -81.5t14.5 -51q145 -27 268 -118t179 -205v-246h67v-324h-282q-15 67 -46.5 123t-80 100t-118.5 69t-155 26q-137 1 -247 -91t-148 -227h-1298q-35 134 -146 228t-250 94t-248.5 -93.5t-144.5 -228.5h-233v379h1071l-793 942v-602q0 -100 -76.5 -177t-177.5 -77h-24 q-97 0 -170.5 89t-73.5 192zM543 -213q0 132 93 225.5t224 93.5q136 0 232 -93.5t96 -225.5q0 -129 -96 -222t-232 -93q-130 0 -223.5 93t-93.5 222zM711 -213q0 -64 44.5 -105.5t104.5 -41.5q67 0 112.5 41t45.5 106q0 64 -46 109t-112 45q-59 0 -104 -45t-45 -109z M2165 1145q0 -381 2 -381h790q15 3 13.5 19t-11.5 35l-10 18q-5 13 -30.5 45t-73.5 76t-106 84.5t-135.5 70.5t-154.5 33h-284zM2214 610q0 -19 11 -30t28 -11h147q19 0 30 11t11 30t-11 30t-30 11h-147q-17 0 -28 -11t-11 -30zM2650 -207q0 131 93 222t223 91 q135 0 230 -90.5t95 -222.5q0 -129 -95 -222t-230 -93q-129 0 -222.5 93t-93.5 222zM2814 -207q0 -64 45 -105.5t107 -41.5q67 0 113 41t46 106q0 64 -46 106t-113 42q-61 0 -106.5 -42.5t-45.5 -105.5z" />
<glyph unicode="9" horiz-adv-x="2457" d="M-4 510v6l67 -6l17 147l-74 5q17 117 78 272l68 -35l69 125l-63 37q66 109 180 217l49 -59l113 92l-45 53q130 88 252 125l20 -72l141 39l-20 70q83 14 178 14q85 0 145 -14l-16 -70l150 -35l14 74q123 -32 256 -117l-47 -53l114 -86l46 57q109 -90 190 -209l-59 -34 l69 -129l68 34q60 -130 84 -266l-70 -10l17 -145l67 10v-37q0 -122 -31 -246l-63 25l-49 -142l76 -18q-50 -122 -142 -246l-57 47l-100 -110l61 -45q-107 -101 -231 -170l-27 65l-131 -61l29 -68q-124 -43 -279 -59v74l-145 -7l4 -67q-131 6 -279 51l29 72l-131 53l-33 -66 q-130 67 -231 162l59 49l-104 109l-54 -49q-86 102 -145 239l67 21l-45 141l-71 -26q-35 154 -35 272zM403 510q0 -161 76 -301l277 237q-11 49 -11 64q0 8 3.5 27t3.5 30l-164 140l28 -25q-34 -72 -34 -172q0 -105 34 -180l-71 -62q-56 122 -56 242q0 102 52 235l-66 60 q-72 -147 -72 -295zM475 805q2 2 4 6t4 6q-2 -2 -4 -6t-4 -6zM500 166q86 -125 220 -199.5t290 -77.5l-66 349q-69 30 -96 57l-195 -74l23 10q54 -68 132 -113t167 -55l20 -94q-125 7 -231.5 69.5t-175.5 158.5zM500 840l82 -31q67 103 176.5 167t236.5 71l-16 -93 q-93 -12 -174 -57.5t-135 -116.5l174 -63q32 30 100 63l66 348q-162 -4 -295.5 -81t-214.5 -207zM885 510q0 -60 42.5 -102.5t102.5 -42.5t103 42.5t43 102.5q0 57 -43 99t-103 42t-102.5 -42t-42.5 -99zM1061 -111q152 7 281.5 83.5t213.5 199.5l-94 37l6 -4 q-64 -97 -169 -160t-224 -70l15 93q89 12 164.5 56.5t125.5 113.5l-163 57q-45 -34 -89 -53zM1061 1128l59 -354q62 -18 101 -57l335 119q-79 128 -210.5 206.5t-284.5 85.5zM1075 1047q122 -10 226 -75t172 -167l-89 -31q-50 72 -127 118t-167 56zM1309 451l272 -234 q66 135 66 293q0 150 -66 285l-68 -62q54 -108 54 -223q0 -118 -58 -234l-71 64q35 86 35 170q0 86 -29 162l-135 -115q6 -16 6 -47q0 -9 -3 -29t-3 -30zM1567 193q8 8 8 24q0 -16 -8 -24zM1567 817q1 -1 5.5 -7.5t8.5 -8.5q-4 2 -8.5 8.5t-5.5 7.5z" />
<glyph unicode="A" horiz-adv-x="2260" d="M-4 109v6l119 121q1 0 31 1t77 2t101 2t114 2t105 1l424 424l-820 319q-6 0 -6 5.5t6 11.5l177 178q0 2 10 2q16 0 56 -6q66 -10 175 -29l56 55q19 19 45 19t43 -19q18 -17 19.5 -39t-11.5 -39q62 -16 190 -32l74 71q19 19 45 19t43 -19q19 -19 19 -44.5t-19 -45.5l-8 -8 q64 -9 128.5 -20.5t96.5 -18.5l33 -8l352 352q39 39 105 78q64 39 130 57q24 6 44 6q35 0 57 -20q18 -18 18 -50q0 -41 -28 -105q-50 -114 -119 -181l-344 -344q19 -114 39 -266l8 8q20 25 45.5 25t44.5 -25q19 -17 19 -43t-19 -43l-72 -72q4 -38 17 -101t16 -85 q17 13 42.5 11.5t35.5 -19.5q25 -17 25 -44t-25 -50l-55 -60l41 -231l-187 -185h-16l-319 820l-433 -424v-412l-120 -127h-15l-80 457v-8q-20 -12 -41 -12t-32 12q-19 17 -19 39t19 42h8q-4 0 -6 2t-2 4v3z" />
<glyph unicode="B" horiz-adv-x="2193" d="M-4 63q72 64 117 64q42 0 303 -100q232 282 499 565l-10 8l-618 737q-34 34 -34 77.5t34 78.5q28 34 74 34t81 -34l738 -584l8 -8q27 27 52 54.5t39 43.5t17 19q105 105 246 119l-108 118l34 27l138 -137q28 4 53 6.5t36 2.5l11 1q4 -22 4 -49.5t-4 -58.5l145 -146 l-36 -37l-119 119q-14 -142 -117 -248q-4 -2 -20 -17t-44 -40.5t-55 -48.5l590 -738q29 -35 29 -82t-29 -81q-34 -34 -81 -34t-81 34l-729 618l-8 8q-362 -310 -563 -499q90 -253 90 -293q0 -24 -16 -53t-32 -47l-16 -17l-245 246l-172 -56q45 148 53 175z" />
<glyph unicode="C" horiz-adv-x="3678" d="M55 1284l29 47h1284v70h92v-70h1313l-25 -47h-1288v-113h80q10 0 23.5 -18.5t30 -36.5t34.5 -18h393l74 -62h-180q31 -21 83.5 -78.5t57.5 -62.5l961 66l159 325h197l-166 -403l101 -256h-195l-78 159l-602 -153l-377 -144q-91 -115 -245.5 -192t-340.5 -84l-36 -152h491 v-65h-1253q-33 0 -79.5 42t-76.5 84l-31 42h86q10 -12 25.5 -29t55 -45.5t67.5 -28.5h223l88 162q-91 12 -165 31t-142 50.5t-114.5 73t-73.5 101t-27 133.5q0 91 78 171.5t201 134.5t272 81q104 37 172 37l88 135h49v113h-1313zM598 584q0 -19 11 -50t22 -47l297 15v16 l243 414q-114 -10 -216 -37t-182.5 -70t-127.5 -105t-47 -136zM1006 61h362l39 142q-44 -4 -91 -4q-97 0 -208 18zM1135 590h155l170 323h-170z" />
<glyph unicode="D" horiz-adv-x="3569" d="M-20 68v176h362q-1 -22 -7 -66t-12 -77l-6 -33h-337zM20 328v424h1344q18 7 33 12t19.5 6t4.5 4v447q1 19 6.5 30t19 15.5t21.5 5t29 0.5h531q25 -25 116.5 -151.5t171 -238.5t82.5 -112q179 -2 729 -49l86 -8q74 -26 99 -78v-297l-13 -10h-245q-57 69 -134.5 102 t-158.5 33q-215 0 -320 -135h-1429q-31 53 -84 87q-53 33 -114 45q-45 9 -92 9q-16 0 -34 -1q-64 -4 -125 -24q-79 -34 -151 -116h-392zM389 106q0 115 96 199t230 84q125 0 211 -84t86 -199q0 -123 -86 -212t-211 -89q-134 0 -230 89.5t-96 211.5zM547 106q0 -69 48 -115 t120 -46q64 0 116 47t52 114q0 60 -52.5 106t-115.5 46q-71 0 -119.5 -45t-48.5 -107zM1065 244h1313q-4 -14 -9.5 -80t-11.5 -96h-1249q-1 1 -12 45t-21.5 87.5t-9.5 43.5zM1548 752h553l-205 381h-305q-21 0 -32 -9.5t-11 -21.5v-350zM1985 1145l235 -383l102 26l-292 357 h-45zM2454 106q0 114 91 198.5t216 84.5q126 0 212.5 -83.5t86.5 -199.5q0 -123 -86.5 -212t-212.5 -89t-216.5 89.5t-90.5 211.5zM2593 106q0 -67 51 -114t117 -47q64 0 110.5 46.5t46.5 114.5q0 61 -47 106.5t-110 45.5q-65 0 -116.5 -45.5t-51.5 -106.5zM3103 244h264 v-176h-232q0 22 -10.5 82t-21.5 94z" />
<glyph unicode="E" horiz-adv-x="3551" d="M72 178v266q0 76 57.5 129.5t136.5 53.5h166q28 0 86.5 48.5t128.5 117.5t144.5 138.5t150 118t129.5 48.5h744q66 0 165 -46.5t198 -113t192.5 -133.5t170.5 -113.5t111 -46.5q53 0 207 -32t313.5 -89t186.5 -110q9 -9 11 -30q1 -10 1 -23q1 -13 -1 -29 q-2 -31 -5.5 -56.5t-9 -63.5t-7.5 -54q-8 -40 -17.5 -69.5t-23.5 -48t-27.5 -29t-35.5 -15.5t-39 -6.5t-47 -1.5h-170q8 25 8 63q0 141 -98 235.5t-246 94.5q-141 0 -243.5 -95.5t-102.5 -234.5v-63h-1120q0 12 7 30.5t7 32.5q0 140 -102 235t-248 95q-142 0 -249 -96 t-107 -234q0 -14 6 -32.5t6 -30.5h-240q-78 0 -136 57t-58 133zM596 31q0 96 74.5 167.5t179.5 71.5q99 0 172.5 -71.5t73.5 -167.5q0 -93 -73.5 -166.5t-172.5 -73.5q-104 0 -179 73t-75 167zM696 31q0 -58 44.5 -96.5t109.5 -38.5q60 0 100.5 38.5t40.5 96.5q0 59 -40 97 t-101 38q-65 0 -109.5 -38t-44.5 -97zM774 690q0 -22 6 -36t17.5 -19.5t20 -6.5t22.5 -1h1364q31 0 45 14.5t14 48.5q0 24 -107 87.5t-221.5 116t-138.5 52.5h-715q-32 0 -106.5 -50t-137.5 -112.5t-63 -93.5zM2415 31q0 97 68.5 169t168.5 72q98 0 172 -73t74 -168 q0 -93 -74.5 -166.5t-171.5 -73.5q-99 0 -168 72.5t-69 167.5zM2517 31q0 -57 40 -96t95 -39q63 0 103.5 38t40.5 97q0 60 -40.5 98.5t-103.5 38.5q-55 0 -95 -39t-40 -98z" />
<glyph unicode="F" horiz-adv-x="3315" d="M92 406q46 130 145 233t232 158q-4 14 -4.5 37.5t4.5 56t22.5 64.5t45 59.5t77.5 45t115 17.5h217q59 0 120 -12.5t123.5 -40.5t113 -68t86 -101.5t45.5 -135.5l720 307l-67 172q-31 0 -199 21q-24 5 -39 34t-6 60q0 25 21 37q12 7 26 8q10 0 21 -4q67 -10 128 -19.5 t85.5 -13.5t29.5 -4q16 -3 24.5 -12t8.5 -19l176 -475q47 20 160 20q172 0 316.5 -86t228.5 -227h-109q-75 100 -191.5 160.5t-244.5 60.5q-23 0 -65 -8t-56 -8l43 -115h78q168 0 287 -116t119 -289q0 -167 -120 -284.5t-286 -117.5q-172 0 -288.5 117t-116.5 285 q0 122 56 214.5t157 149.5l-45 113q-134 -64 -212.5 -191t-78.5 -286v-41l-84 -49q-6 23 -6 90q0 191 93 342t253 225l-51 133q-39 -27 -78.5 -59.5t-94 -90.5t-94.5 -119t-69 -144.5t-29 -167.5q0 -90 -1 -133.5t-6.5 -98t-18.5 -76.5t-35 -22h-254q-47 0 -166 213h-248 q-22 -166 -139 -285t-269 -119q-168 0 -287.5 117.5t-119.5 284.5q0 173 119 289t288 116q133 0 240 -77t149 -199h107q-29 131 -121 232q-91 102 -223 146q-78 26 -157 26q-55 0 -111 -13q-129 -24 -228.5 -102.5t-152.5 -194.5zM414 203q0 -113 84 -192t200 -79 q106 0 188 81t101 192h-350h-28.5t-20.5 2.5t-18 7t-8.5 14t-4.5 23.5q0 33 21.5 56.5t58.5 23.5h309q-31 72 -98 117t-150 45q-117 0 -200.5 -84t-83.5 -207zM2234 203q0 -114 84.5 -192.5t204.5 -78.5q115 0 199 79t84 192q0 123 -83.5 207t-199.5 84h-43l98 -242 q3 -28 -9 -49.5t-32 -26.5h-24q-40 0 -59 39l-76 238q-65 -35 -104.5 -103.5t-39.5 -146.5z" />
<glyph unicode="G" horiz-adv-x="2740" d="M-6 328q0 146 71.5 268t194.5 192t268 70q108 0 203 -45l68 141l-51 60l12 6h100l37 -62h758l-41 267l-213 8q-16 0 -32 16.5t-13 36.5q0 23 16 44.5t37 21.5l283 -11l65 -321l10 -96l52 -99q122 33 184 33q143 0 265.5 -70t195.5 -192.5t73 -267.5q0 -150 -73 -272.5 t-195 -190.5t-266 -68q-145 0 -267.5 68t-196 190.5t-73.5 272.5q0 143 73.5 268t193.5 190l51 -122q-81 -56 -134 -150t-53 -186q0 -164 118.5 -280t287.5 -116q163 0 281 117t118 279q0 161 -118 277t-281 116q-57 0 -125 -14l133 -293q35 -8 58.5 -34.5t23.5 -60.5 q0 -36 -28.5 -64t-61.5 -28q-37 0 -66.5 28t-29.5 64q0 17 18 48l-233 469l-379 -572h-252q-22 -202 -175 -334.5t-358 -132.5q-146 0 -268.5 68t-194 190.5t-71.5 272.5zM129 328q0 -163 117 -279.5t282 -116.5q157 0 269 90.5t125 241.5h-394q-29 0 -38 24.5t-0.5 59 t28.5 66.5l152 293q-96 14 -142 14q-165 0 -282 -115.5t-117 -277.5zM455 319q0 36 25.5 63.5t60.5 27.5t61.5 -27.5t26.5 -63.5t-26 -61t-62 -25t-61 25t-25 61zM598 1085q0 25 13.5 43.5t33.5 18.5h270q16 0 32 -19.5t16 -44.5q0 -19 -16 -33t-32 -14h-270 q-20 0 -33.5 14.5t-13.5 34.5zM612 332l574 -2l-332 510zM756 657l59 111q93 -57 162 -181.5t84 -254.5h-139q-7 95 -50 179.5t-112 143.5zM958 844l322 -430h2l328 430h-652zM1980 414zM1989 414zM2003 414h8h-8z" />
<glyph unicode="H" horiz-adv-x="2381" d="M-10 -182q80 -79 186.5 -125.5t224.5 -46.5q216 0 363 118q159 -118 360 -118q109 0 204.5 31t158.5 87q150 -118 368 -118q115 0 221 43.5t181 120.5v-146q-74 -75 -179.5 -115.5t-222.5 -40.5q-218 0 -368 115q-63 -54 -159 -84.5t-204 -30.5q-200 0 -360 115 q-147 -115 -363 -115q-121 0 -227 43t-184 121v146zM100 72h738v1728q0 18 25 26q12 4 25 4l25 -4q25 -8 25 -26v-1728h1262q-52 -72 -230 -293q-18 0 -22 -4h-174q-164 20 -287 114q-63 -54 -158.5 -84t-204.5 -30q-202 0 -360 114q-146 -114 -363 -114h-30q-16 0 -27 14 q-79 51 -145 131q-99 96 -99 152zM172 176l602 1415v-1415h-602zM1018 176v1600l1116 -1600h-1116z" />
<glyph unicode="I" horiz-adv-x="2301" d="M106 127v18l175 275h18h8l213 -256v-10q-4 0 -8.5 -4.5t-9.5 -4.5l-140 -10q140 -248 504 -307q15 -4 30 -4q19 0 38 6q35 11 35 39l45 1165h-494v121h393q28 0 50 8.5t32 20t14.5 21t4.5 14.5v63q-83 28 -138 102.5t-55 163.5q0 122 83.5 208.5t199.5 86.5 q124 0 210.5 -86t86.5 -209q0 -91 -56 -164.5t-147 -101.5l10 -63q0 -8 7.5 -21t35 -28t68.5 -15h393v-121h-504q43 -1102 43 -1165q0 -48 62 -48q24 0 57 7q379 77 488 307h-146l-10 10v19l219 256h10h8l175 -275q6 -7 6 -9.5t-6 -8.5h-7l-122 8v-16q0 -190 -171 -337.5 t-444 -203.5q-56 -13 -119.5 -36t-98.5 -40l-36 -16q-139 63 -250 92q-276 48 -453 198.5t-177 342.5v16l-119 -8h-11zM969 1548q0 -54 41.5 -96.5t93.5 -42.5q62 0 104.5 42t42.5 97q0 62 -42 105t-105 43q-53 0 -94 -43.5t-41 -104.5z" />
<glyph unicode="J" horiz-adv-x="2598" d="M76 29v489q0 8 16 62q20 30 37 47q12 10 31.5 16t32.5 8.5t45 6t43 4.5q12 20 28 62t41 110t47 120q80 200 133 293q1 2 5.5 11.5t8 14.5t9.5 12.5t14 14t19 11.5q27 8 80 8h159v207q0 7 5.5 12.5t11.5 5.5h757q8 0 13.5 -5.5t5.5 -12.5v-207h151q107 0 160 -115 q13 -22 26.5 -50t21.5 -46.5t22 -52.5t20 -47q18 -37 50 -120t49 -120q0 -9 4 -27t4 -26q13 -34 37 -45q8 -2 31.5 -6t49 -10.5t48.5 -18.5q18 -10 37 -29q34 -44 34 -98v-488q0 -50 -47 -90q-62 -45 -104 -45h-17l-6 -268q0 -60 -63 -106q-35 -35 -98 -35q-62 0 -107 35 q-63 38 -63 98v276h-1264v-268q0 -24 -37 -80q-50 -61 -129 -61q-29 0 -65.5 13t-55.5 32q-53 41 -53 96l2 268q-71 0 -119 37q-61 47 -61 107zM272 367q0 -71 54 -125q45 -45 116 -45q55 0 117 45q53 41 53 116q0 62 -53 115q-44 53 -117 53q-63 0 -116 -53 q-26 -19 -40 -48.5t-14 -57.5zM477 713h1497q-73 195 -162 411q-27 45 -96 45h-981q-22 0 -54 -10.5t-42 -34.5q-1 -3 -32.5 -64t-47.5 -114q-18 -50 -38 -109t-30 -88t-14 -36zM842 170q0 -11 9.5 -19t16.5 -8h697q26 0 26 27t-26 27h-697q-8 0 -17 -7.5t-9 -19.5zM842 295 q0 -12 9 -19.5t17 -7.5h697q26 0 26 27t-26 27h-697q-7 0 -16.5 -8t-9.5 -19zM842 424q0 -11 9.5 -19t16.5 -8h697q26 0 26 27t-26 27h-697q-8 0 -17 -7.5t-9 -19.5zM940 1462h35v-106h37v106h43v29h-115v-29zM1092 1356h34l11 35h34l11 -35h45l-45 135h-56zM1145 1417v19 q8 10 8 26q0 -4 5 -12.5t5 -13.5l8 -19h-26zM1272 1356h43l10 26q8 8 8 19q8 -11 19 -19l8 -26h45l-45 71l45 64h-45l-8 -18q-11 -11 -11 -27q-4 4 -8 13t-8 14l-10 18h-43l43 -64zM1466 1356h35v135h-35v-135zM1831 358q0 -60 45 -108q53 -53 125 -53q55 0 117 45 q45 45 45 116q0 70 -45 115q-56 53 -117 53q-72 0 -125 -53q-45 -45 -45 -115z" />
<glyph unicode="K" horiz-adv-x="2019" d="M113 -499.5q0 -10.5 6 -16.5h143q11 0 17 14l344 434h-168l-336 -415q-6 -6 -6 -16.5zM162 895v14v418q0 59 41 101t100 42h72q44 64 104 64h944q36 0 65.5 -17.5t39.5 -46.5h74q58 0 100.5 -42t42.5 -101v-418v-8v-782q0 -36 -26.5 -63.5t-63.5 -40.5t-66 -19t-45 -6 h-1177q-21 0 -46.5 3.5t-64 15t-63.5 40t-25 70.5q-6 466 -6 776zM326 721q0 -40 25.5 -68t62.5 -28h1073q38 0 68 28.5t30 67.5v528q0 39 -30 65.5t-68 26.5h-1073q-37 0 -62.5 -26.5t-25.5 -65.5v-528zM350 342q0 -55 36.5 -91t92.5 -36q53 0 91 36t38 91q0 52 -38 89.5 t-91 37.5q-55 0 -92 -37t-37 -90zM438 -483q0 11 11.5 20.5t29.5 9.5h953q16 0 27 -9.5t11 -20.5v-9q0 -8 -11 -16t-27 -8h-953q-18 0 -29.5 8t-11.5 16v9zM575 -348q0 12 11 21.5t28 9.5h680q18 0 29.5 -9t11.5 -22q0 -11 -11.5 -21t-29.5 -10h-680q-16 0 -27.5 10 t-11.5 21zM672 -217q0 12 10.5 21.5t28.5 9.5h499q16 0 26.5 -10t10.5 -21q0 -13 -10.5 -23t-26.5 -10h-499q-18 0 -28.5 10t-10.5 23zM766 172q0 -22 25 -22h327q25 0 25 22q0 13 -5.5 18t-19.5 5h-327q-25 0 -25 -23zM766 293q0 -25 25 -25h327q25 0 25 25q0 12 -5.5 16 t-19.5 4h-327q-25 0 -25 -20zM766 403q0 -22 25 -22h327q25 0 25 22q0 27 -25 27h-327q-25 0 -25 -27zM1288 -68h162l342 -415q5 -4 5 -10q0 -9 -11 -23h-139q-7 0 -15 14zM1294 342q0 -55 37 -91t92 -36t92 36t37 91q0 53 -37.5 90t-91.5 37t-91.5 -37t-37.5 -90z" />
<glyph unicode="L" horiz-adv-x="2078" d="M84 18v1481q0 104 77.5 181t180.5 77l643 84l682 -84q109 0 183.5 -76t74.5 -182v-1481q0 -77 -38.5 -144.5t-106.5 -102.5l10 -242q0 -45 -47 -45h-148q-47 0 -47 45v223h-1032v-223q0 -21 -16.5 -33t-38.5 -12h-142q-23 0 -39 12t-16 33v242q-74 27 -127 97t-53 150z M197 866q0 -63 46 -109t109 -46h1297q61 0 108 46.5t47 108.5v467q0 63 -47.5 110.5t-107.5 47.5h-1297q-63 0 -109 -47.5t-46 -110.5v-467zM242 221q0 -55 36.5 -92t90.5 -37q50 0 85 37t35 92q0 48 -35.5 83.5t-84.5 35.5q-53 0 -90 -35.5t-37 -83.5zM555 1636 q0 -26 21 -39.5t51 -13.5h764q73 0 73 53q0 54 -73 54h-764q-30 0 -51 -14.5t-21 -39.5zM700 152q0 -12 18 -29t30 -17h534q12 0 28.5 17t16.5 29q0 20 -15.5 34.5t-29.5 14.5h-534q-14 0 -31 -14.5t-17 -34.5zM700 348q0 -19 17 -33t31 -14h534q14 0 29.5 14t15.5 33 q0 20 -15.5 32.5t-29.5 12.5h-534q-15 0 -31.5 -12.5t-16.5 -32.5zM1540 221q0 -51 37.5 -90t91.5 -39q53 0 90 39t37 90q0 55 -36.5 91t-90.5 36q-56 0 -92.5 -36t-36.5 -91z" />
<glyph unicode="M" horiz-adv-x="2463" d="M88 -270h240v2013q0 43 29 72.5t77 29.5h1008q40 0 69 -30.5t29 -71.5v-1086l166 -24q47 -16 47 -66v-340q0 -52 36.5 -90.5t92.5 -38.5q58 0 89.5 37t31.5 92v746q-51 0 -89 13t-60.5 33.5t-37 53t-19.5 64.5q-5 33 -6 75v23q-1 29 1 53q2 34 5 78t3 72l-129 123v6 l64 67h6l147 -155q39 -38 107.5 -114.5t87.5 -96.5q13 -17 22 -40.5t13 -45.5q3 -20 4 -44v-22v-18q-1 -16 -2.5 -29t-1.5 -14v-828q0 -106 -68 -182t-168 -76q-115 0 -183.5 75t-68.5 183v277l-90 16v-790h277v-240h-1729v240zM449 1133h976v596h-976v-596zM500 844 q0 -8 6 -18.5t18 -10.5h158q4 0 15.5 12t11.5 17v110q0 7 -10.5 12t-16.5 5h-158q-24 0 -24 -17v-110zM829 844q0 -5 10 -17t17 -12h158q9 0 17.5 11.5t8.5 17.5v110q0 17 -26 17h-158q-9 0 -18 -5t-9 -12v-110zM1161 844q0 -5 10.5 -17t18.5 -12h145q6 0 17.5 12t11.5 17 v110q0 7 -10.5 12t-18.5 5h-145q-10 0 -19.5 -5t-9.5 -12v-110zM1876 1261q0 -94 6 -141q13 -42 61 -58q18 -6 33 -6q25 0 41 17q19 18 19 48q0 7 -1 15q-6 40 -25.5 79t-45.5 69q-3 -10 -3 -20q0 -32 30 -62q0 -17 -9 -28l-8 -7q-4 0 -8.5 1.5t-7.5 3.5l-2 2 q-43 50 -43 117q0 19 4 40q-25 19 -35 39q-6 -15 -6 -109z" />
<glyph unicode="N" horiz-adv-x="3098" d="M76 504v475q0 135 65 248.5t178.5 179.5t249.5 66h1436q134 0 249 -66t183 -180t68 -248v-348v-127v-371h213q24 0 42.5 -18.5t18.5 -42.5q0 -26 -19 -48t-42 -22h-213h-500h-6h-211h-55q0 143 -100 243.5t-234 100.5q-148 0 -251.5 -100t-103.5 -244h-475 q-135 0 -249 68.5t-179 184t-65 249.5zM465 932q0 -44 37 -78.5t90 -34.5h698q45 0 83 35.5t38 77.5v121q0 44 -38 78t-83 34h-698q-53 0 -90 -33.5t-37 -78.5v-121zM1122 2q0 113 79 195t198 82q106 0 182 -83t76 -194q0 -110 -76 -190t-182 -80q-119 0 -198 79.5 t-79 190.5zM1212 2q0 -69 52.5 -121.5t134.5 -52.5q66 0 114 53t48 121q0 77 -47.5 131.5t-114.5 54.5q-83 0 -135 -54t-52 -132zM1298 2q0 36 29.5 63t71.5 27q30 0 55 -27.5t25 -62.5q0 -38 -24.5 -61t-55.5 -23q-44 0 -72.5 22.5t-28.5 61.5zM1606 932q0 -45 36 -79 t91 -34h278q45 0 86 35.5t41 77.5v121q0 43 -40.5 77.5t-86.5 34.5h-278q-55 0 -91 -33t-36 -79v-121zM2675 -88q0 19 13 32t36 13q27 0 41 -12.5t14 -32.5q0 -47 -55 -47q-23 0 -36 12.5t-13 34.5z" />
<glyph unicode="O" horiz-adv-x="1366" d="M-10 365v235h106v-227q0 -170 120.5 -289t287.5 -119q170 0 287.5 118t117.5 290v227h107v-235q0 -194 -129.5 -342t-319.5 -173v-219h285v-145h-690v145h284v219q-190 25 -323 173t-133 342zM184 365v235v16l11 9l-11 8v57l33 -41l49 49l-49 41l-33 -41v58l11 8l-11 8 v55l33 -32l49 41l-49 41l-33 -33v57l11 8l-11 9v57l33 -41l49 49l-49 41l-33 -41v57l11 9l-11 8v55l33 -31l49 39l-49 41l-33 -33v58l11 8l-11 8v41v17l33 -41l49 49l-49 41l-33 -41q21 87 27 106l6 -8l49 41l-24 23q16 16 24 32l25 -24l41 41l-17 24q17 17 33 17l17 -17 l41 49q12 4 35.5 8.5t35.5 8.5l-14 -17l41 -49l47 41l-16 25q13 -4 36.5 -8.5t36.5 -8.5v-8l41 -41l17 17q15 0 32 -17l-24 -24l49 -41l25 24q8 -16 24 -32l-24 -23l38 -41l17 8q1 -2 26 -106l-43 41l-38 -41l38 -49l43 41v-17v-41l-10 -8l10 -8v-58l-43 33l-38 -41l38 -39 l43 31v-55l-10 -8l10 -9v-57l-43 41l-38 -41l38 -49l43 41v-57l-10 -9l10 -8v-57l-43 33l-38 -41l38 -41l43 32v-55l-10 -8l10 -8v-58l-43 41l-38 -41l38 -49l43 41v-57l-10 -8l10 -9v-16v-235q0 -134 -95 -226t-230 -92q-131 0 -225.5 92.5t-94.5 225.5zM250 625l16 -25h49 l17 25l-41 41zM250 764l41 -41l41 41l-41 47zM250 909l41 -41l41 41l-41 41zM250 1049l41 -41l41 41l-41 38zM250 1194l41 -41l41 41l-41 41zM250 1333l41 -41l41 41l-41 41zM324 698l41 -49l41 49l-41 41zM324 836l41 -41l41 41l-41 41zM324 983l41 -49l41 49l-41 41z M324 1120l41 -39l41 39l-41 41zM324 1268l41 -49l41 49l-41 41zM324 1407l41 -41l41 41l-41 39zM389 625l25 -25h49l14 25l-39 41zM389 764l49 -41l39 41l-39 47zM389 909l49 -41l39 41l-39 41zM389 1049l49 -41l39 41l-39 38zM389 1194l49 -41l39 41l-39 41zM389 1333 l49 -41l39 41l-39 41zM389 1479l49 -41l39 41l-39 41zM463 698l41 -49l47 49l-47 41zM463 836l41 -41l47 41l-47 41zM463 983l41 -49l47 49l-47 41zM463 1120l41 -39l47 39l-47 41zM463 1268l41 -49l47 49l-47 41zM463 1407l41 -41l47 41l-47 39zM535 625l16 -25h49l16 25 l-41 41zM535 764l40 -41l41 41l-41 47zM535 909l40 -41l41 41l-41 41zM535 1049l40 -41l41 41l-41 38zM535 1194l40 -41l41 41l-41 41zM535 1333l40 -41l41 41l-41 41zM535 1479l40 -41l41 41l-41 41zM608 698l41 -49l41 49l-41 41zM608 836l41 -41l41 41l-41 41zM608 983 l41 -49l41 49l-41 41zM608 1120l41 -39l41 39l-41 41zM608 1268l41 -49l41 49l-41 41zM608 1407l41 -41l41 41l-41 39zM674 625l24 -25h50l16 25l-41 41zM674 764l49 -41l41 41l-41 47zM674 909l49 -41l41 41l-41 41zM674 1049l49 -41l41 41l-41 38zM674 1194l49 -41l41 41 l-41 41zM674 1333l49 -41l41 41l-41 41z" />
<glyph unicode="P" horiz-adv-x="2498" d="M8 662v104q0 54 34.5 87.5t88.5 33.5h10q7 59 22 106t27 65l11 17h790q-7 -16 -17 -45t-27 -121t-17 -186q0 -95 15 -185.5t31 -133.5l15 -44h-131q8 -25 8 -77q0 -8 1 -24t0.5 -24t-4.5 -24t-13 -35q-30 -64 -34 -146q-1 -15 0 -29q0 -66 13 -125q16 -72 36 -134.5 t37 -99.5l18 -37q8 -14 -2.5 -30.5t-32.5 -25.5l-228 -59q-14 0 -29.5 11t-23.5 24q-1 23 -4 62t-15 140.5t-26.5 181t-40 150.5t-55.5 84q-71 38 -101 88t-30 129h-133q-5 6 -12.5 19t-24 58.5t-23.5 99.5h-10q-54 0 -88.5 35t-34.5 90zM1012 723q0 59 7 117t17 98.5 t20.5 72.5t17.5 48l7 16q95 0 195 22.5t183 58t161.5 79t137.5 87t104 79t68 57.5l24 23q-9 -11 -23.5 -32.5t-52 -95.5t-66 -156t-52 -211.5t-23.5 -264.5q0 -115 12 -219.5t31 -179.5t42.5 -139t46.5 -105t42 -69.5t31 -40.5l12 -13q-9 8 -24.5 23t-66.5 57t-105.5 80 t-136.5 85t-163 80.5t-181.5 56.5t-195.5 23q-8 17 -19.5 47.5t-30.5 125.5t-19 190zM1972 -47q7 8 18 24.5t40 81t51.5 143.5t40.5 217t18 296q0 160 -17.5 297.5t-42 219.5t-49 141t-41.5 83l-18 23q54 -7 104.5 -66.5t89.5 -157.5t62 -237.5t23 -296.5q0 -189 -36 -360 t-100.5 -282.5t-142.5 -125.5z" />
<glyph unicode="Q" horiz-adv-x="2379" d="M102 532q18 127 101 222.5t191 136.5q81 31 172 31q31 0 62 -4q126 -14 224 -91h586q79 62 176 85q53 12 104 12q43 0 86 -9q92 -19 173 -67t137.5 -131t72.5 -185q6 -34 6 -69q0 -37 -7 -76q-13 -76 -45 -173t-42 -146q-16 -73 -35.5 -182t-19.5 -124 q-17 -78 -55.5 -137t-87 -91t-105.5 -44q-30 -6 -60 -6q-26 0 -52 4q-54 11 -104.5 42.5t-86.5 80.5q-35 47 -52.5 120t-35.5 141t-55 110q-13 13 -28.5 20t-25 7.5t-28.5 0.5h-244q-20 0 -29.5 -0.5t-24.5 -7t-28 -20.5q-30 -34 -49.5 -84.5t-27 -95.5t-25 -99t-43.5 -92 q-35 -49 -85.5 -80.5t-105.5 -42.5q-25 -4 -51 -4q-30 0 -60 6q-57 12 -105.5 44t-86.5 91t-55 137q0 19 -55 306q-10 52 -41.5 147t-46.5 172q-8 43 -8 83q0 32 5 62zM227 680v6q35 30 114 55t173 35q30 4 59 4q66 0 135 -16q98 -24 158 -84v6q-51 90 -144 129 q-63 27 -131 27q-32 0 -65 -6q-88 -6 -170 -49t-129 -107zM326 418q0 -32 25 -56t59 -24t61 24t27 56q0 33 -27 57.5t-61 24.5t-59 -24t-25 -58zM473 287q0 -35 23 -56.5t59 -21.5q33 0 57.5 22t24.5 56q0 33 -24.5 55.5t-57.5 22.5q-35 0 -58.5 -22t-23.5 -56zM473 559 q0 -35 24 -61.5t58 -26.5q32 0 57 27t25 61q0 33 -25 59.5t-57 26.5q-34 0 -58 -26.5t-24 -59.5zM608 418q0 -32 24 -56t56 -24q34 0 58 24t24 56q0 34 -24 58t-58 24q-32 0 -56 -24t-24 -58zM897 764q35 -19 55 -74h189h10h188h11q7 24 18.5 42.5t19.5 25.5l7 6h-244h-10 h-244zM974 1164q-5 32 -5 63q0 94 47 180q61 108 61 179q0 69 -53 126q-22 22 -22 50.5t22 43.5q17 19 43 19t45 -19q47 -49 69 -105.5t24 -102.5v-12q0 -40 -11 -86q-13 -53 -25 -81.5t-29 -63.5l-7 -14q-39 -61 -39 -125q0 -104 102 -217q19 -20 15.5 -47t-25.5 -41 q-6 -7 -17 -12.5t-18 -5.5q-32 0 -55 29q-101 114 -122 242zM1430 686q53 44 136 66q79 21 157 21q6 0 11 -1q84 -1 160 -13t125 -32.5t52 -40.5q-62 80 -173 124q-80 31 -157 31q-30 0 -60 -5q-76 -6 -144 -46t-107 -104zM1565 395q0 -10 1.5 -16t6 -8t8.5 -2t13.5 1 t15.5 1h92v-121q0 -25 8 -39t33 -14t39 15.5t14 37.5v121h105q8 0 18.5 -1t15 -1t9.5 2t6.5 8t1.5 16q0 22 -13 36.5t-38 14.5h-105v95q0 22 -14 37.5t-39 15.5t-33 -14t-8 -39v-95h-92q-21 0 -33 -15t-12 -36z" />
<glyph unicode="R" horiz-adv-x="2123" d="M140 238q0 8 -1 15q-1 65 11 113q12 54 36.5 100.5t52 76.5t61.5 53.5t61 36t55 20.5q32 -372 190 -686q-31 -20 -57.5 -63t-40.5 -94q-10 -41 -10 -82v-16q2 -48 12 -87q5 -23 5 -44q-1 -13 -3 -26q-6 -32 -33 -49q-9 -4 -20 -4q-12 0 -26 5q-26 9 -61 45.5t-69.5 98.5 t-72.5 172.5t-70 254.5q-18 86 -20 160zM468 894q2 61 13.5 148.5t32.5 169t61.5 175t96 174t141 159t191.5 135.5h8q106 -57 191 -134.5t140 -160t95 -173t60 -176.5q18 -86 30 -168q11 -79 12 -144v-6q0 -68 -2.5 -119.5t-7.5 -80.5l-4 -29q-15 -138 -51 -277t-76 -238.5 t-78 -179t-63 -119.5l-25 -40h-459q-9 15 -25 42t-59.5 116t-80 182.5t-74.5 234.5t-56 279q-2 11 -4 29.5t-5 78.5q-2 40 -2 81v41zM829 1350q0 -76 49.5 -128.5t125.5 -52.5q68 0 120 53.5t52 127.5q0 69 -52.5 122.5t-119.5 53.5q-75 0 -125 -52.5t-50 -123.5zM901 874 q0 -41 30 -69.5t73 -28.5q42 0 76 29t34 69q0 48 -33.5 78.5t-76.5 30.5q-44 0 -73.5 -30t-29.5 -79zM920 -246h194q-9 -109 -37.5 -178.5t-64.5 -69.5q-34 0 -59 68.5t-33 179.5zM1397 -43q156 334 202 696q24 -8 49.5 -21t57 -37t58.5 -55t50.5 -77t36 -100t12.5 -128 t-16 -157q-32 -144 -70 -254.5t-73 -172.5t-70 -98.5t-61 -45.5q-14 -5 -26 -5q-11 0 -21 4q-32 17 -38 49q-3 13 -2 27q0 20 6 43q10 39 13 87q1 14 1 27q0 35 -7 71q-32 107 -102 147z" />
<glyph unicode="S" horiz-adv-x="2355" d="M35 514q0 155 31 264q62 221 209 390t344.5 258.5t416.5 89.5q147 0 271 -33q218 -58 386.5 -203.5t259.5 -345t91 -420.5q0 -125 -39 -262q-58 -219 -203.5 -388t-345 -260t-420.5 -91q-156 0 -262 30q-220 63 -388.5 208t-259.5 343.5t-91 419.5zM117 514 q0 -151 48.5 -294.5t136 -261t215.5 -205.5t280 -128q138 -31 239 -31q202 0 384.5 83t317 238.5t189.5 358.5q33 115 33 240q0 202 -84 385t-239 316.5t-355 189.5q-115 33 -246 33q-202 0 -383 -84t-312 -239t-185 -355q-39 -127 -39 -246zM332 468q10 58 28.5 104.5 t33.5 68t22 25.5q19 30 55 30q45 0 115 -49q59 -41 125 -66q52 -20 85 -20q9 0 17 2q-5 -25 -6 -50q-1 -63 35 -119q48 -78 137 -103q18 -6 63 -6q-45 -307 -196 -385q-32 -15 -72 -20q-14 -2 -28 -2q-30 0 -64 7q-52 10 -103 38t-103.5 88t-92.5 147q-37 87 -49 170 q-6 45 -6 83q0 31 4 57zM616 999q2 36 16.5 75t49 80t83.5 70.5t128 42.5q41 7 86 7q42 0 88 -6q92 -11 169.5 -43t122 -66.5t78.5 -75t45 -61.5t15 -33q4 -11 4 -23q1 -22 -15 -46q-24 -36 -91 -64q-70 -35 -128.5 -83.5t-72.5 -82.5v-10q-46 46 -94 55q-31 8 -61 8 q-45 0 -87 -17q-70 -28 -106 -93q-38 29 -73 63t-75 83t-63 107q-20 49 -20 96q0 9 1 17zM813 578q29 90 113 136q54 30 111 30q31 0 63 -9q90 -23 136 -106q30 -54 29 -113q0 -32 -8 -65q-23 -91 -105 -137q-55 -31 -114 -31q-29 0 -59 8q-95 25 -142 108q-32 56 -32 117 q0 30 8 62zM948 539q-3 -12 -3 -24q0 -23 12 -45q19 -32 55 -44q13 -4 26 -4q24 0 46 12q34 20 40 55q3 13 3 25q-1 24 -13 47q-20 35 -53 41q-12 3 -24 3q-23 0 -45 -12q-32 -19 -44 -54zM1116 291v8q51 20 91 60.5t50 91.5q11 38 11 73q0 54 -25 103q39 17 86.5 31 t108.5 24q34 6 68 6q28 0 56 -4q63 -8 111 -37q28 -21 53 -53t43 -83q17 -51 19 -109q0 -3 1 -6q1 -56 -25 -128q-26 -76 -83 -153q-45 -59 -96 -104t-95.5 -67.5t-89 -38.5t-76.5 -17q-32 -2 -58 -4q-10 -1 -17 -1q-12 0 -17 2h-5q-37 6 -57 46q-16 33 -16 90q0 12 1 24 q5 35 5 69q0 40 -7 82q-12 76 -37 95z" />
<glyph unicode="T" horiz-adv-x="1630" d="M-2 178q0 212 117.5 387.5t308.5 255.5v131q2 -3 7.5 -7.5t27 -16t49 -20.5t77.5 -16t109 -7q61 0 112 7t81 16.5t51 19.5t29 17l8 7v-131q191 -81 310.5 -256.5t119.5 -386.5q0 -143 -57 -274.5t-152.5 -227t-227 -152t-274.5 -56.5q-141 0 -270 56.5t-222 152 t-148.5 227t-55.5 274.5zM424 1006q0 30 65.5 53t161.5 24q-4 -17 -6.5 -34.5t-2.5 -26.5l-1 -8q0 -29 10 -33q10 -10 33 -10h10h6h13q39 0 39 35q8 20 8 59v18q94 -8 149.5 -28t55.5 -49q0 -27 -81 -49.5t-190 -22.5q-106 0 -188 22.5t-82 49.5zM473 1622l250 -18l-23 251 l134 -223l217 121l-131 -213l233 -131l-252 18l19 -251l-111 188q4 10 12.5 32.5t16 39.5t16.5 30v9q8 14 4 36.5t-24 36.5h-25q-47 0 -57 -30q0 -3 -7.5 -24.5t-23 -63.5t-27.5 -76l-119 -66l119 207zM670 1006q0 6 3 46t9 99t12 96q8 39 29.5 104.5t38.5 111.5l18 46 q0 9 29 9h4q9 -4 11 -12l2 -8q0 -3 -1 -6l-2 -7q-9 -16 -17.5 -37t-15 -40.5t-13 -46.5t-11 -45.5t-9.5 -49t-7.5 -46t-6 -46t-5 -40.5t-4.5 -38.5t-3 -30.5q0 -17 -2 -32t-4 -21l-2 -6v-6t-1 -3.5t-3 -1.5h-6h-19h-10q-14 0 -14 11zM670 1006q0 38 10 77h14h37v-18 q0 -17 -2 -32t-4 -21l-2 -6v-6t-1 -3.5t-3 -1.5h-6h-19h-10q-14 0 -14 11z" />
<glyph unicode="U" horiz-adv-x="2308" d="M184 -389v1442q84 -31 203 -31q53 0 101 8t70 16l22 7v-1442q0 -29 -5 -50t-19.5 -34t-26.5 -20t-39.5 -10.5t-46 -4t-56.5 -0.5q-39 0 -57.5 0.5t-47 3.5t-42.5 10.5t-29 20.5t-21 34t-6 50zM184 1141q0 -30 55.5 -51t147.5 -21q88 0 145.5 21t57.5 51q0 28 -60.5 59 t-142.5 31q-87 0 -145 -30.5t-58 -59.5zM348 1133q0 181 83.5 295t201.5 114q78 0 146.5 -51.5t109.5 -140.5q35 89 101.5 140.5t144.5 51.5q80 0 150 -50t104 -142q34 92 103.5 142t149.5 50q112 0 196.5 -113t90.5 -288h-63q-4 151 -72 243.5t-152 92.5t-147.5 -68.5 t-73.5 -202.5v-65h-8v-8h-55v73q-11 134 -75 202.5t-148 68.5q-79 0 -141.5 -69t-73.5 -202v-65h-9v-8h-63q0 7 4 36t4 37q-11 134 -74.5 202.5t-148.5 68.5q-84 0 -153.5 -94.5t-69.5 -249.5h-62zM690 1141q0 -31 53 -51.5t146 -20.5q87 0 141.5 21t54.5 51q0 29 -57 59.5 t-139 30.5q-88 0 -143.5 -30.5t-55.5 -59.5zM696 252q96 -320 379 -342v-299q0 -29 -4.5 -50t-18 -34t-25 -20t-38 -10.5t-44.5 -4t-56 -0.5q-39 0 -57 0.5t-45.5 4t-40 10.5t-26.5 20t-19 34t-5 50v641zM696 522v531q72 -31 193 -31q53 0 99.5 8t66.5 16l20 7v-189 q-137 -12 -236 -103.5t-143 -238.5zM721 387q0 173 124 297.5t296 124.5q175 0 299.5 -124.5t124.5 -297.5q0 -172 -125 -296t-299 -124q-172 0 -296 124t-124 296zM1079 387q0 -23 20 -43t42 -20q5 0 13 4t13 4l142 -56l10 15l-121 96q0 34 -24 49l-33 285h-15l-14 -285 q-33 -21 -33 -49zM1194 1141q0 -30 54 -51t141 -21q92 0 148 21t56 51q0 29 -58.5 59.5t-145.5 30.5q-82 0 -138.5 -30.5t-56.5 -59.5zM1200 864v189q70 -31 189 -31q54 0 103 8t71 16l22 7v-523q-42 143 -147 235.5t-238 98.5zM1202 -90q149 6 244.5 95t138.5 241v-635 q0 -29 -5 -50t-19.5 -34t-27 -20t-40.5 -10.5t-46.5 -4t-57.5 -0.5q-38 0 -56 0.5t-44.5 4t-38.5 10.5t-25.5 20t-18 34t-4.5 50v299zM1708 1141q0 -31 49.5 -51.5t140.5 -20.5q90 0 157 21.5t67 50.5q0 27 -70 58.5t-154 31.5q-86 0 -138 -30t-52 -60zM1716 -389v1442 q61 -31 182 -31q53 0 106 8t80 16l27 7v-1442q0 -29 -6.5 -50t-23 -34t-31.5 -20.5t-45 -10.5t-49 -3.5t-58 -0.5q-33 0 -48.5 0.5t-40 2.5t-35 6.5t-24.5 13t-19.5 21t-10 31.5t-4.5 44z" />
<glyph unicode="V" horiz-adv-x="3043" d="M106 422v534q0 25 13.5 40.5t32.5 15.5h368q18 0 28.5 -15t10.5 -41v-534q0 -15 -11 -25t-28 -10h-368q-19 0 -32.5 10t-13.5 25zM223 565h244v80h-244v-80zM223 690h244v82h-244v-82zM223 825h244v80h-244v-80zM258 303h164v-819h-164v819zM258 1081v451h164v-451h-164z M823 692v549q0 15 14 27t29 12h361q17 0 29 -12t12 -27v-549q0 -43 -41 -43h-361q-18 0 -30.5 10t-12.5 33zM926 817h254v72h-254v-72zM926 944h254v82h-254v-82zM926 1083h254v84h-254v-84zM963 -516v1096h176v-1096h-176zM963 1348v184h176v-184h-176zM1528 -141v551 q0 12 11.5 26.5t23.5 14.5h368q16 0 26.5 -13.5t10.5 -27.5v-551q0 -13 -10.5 -25t-26.5 -12h-368q-12 0 -23.5 12.5t-11.5 24.5zM1630 8v-82h236v82h-236zM1630 66h236v77h-236v-77zM1630 186h236v80h-236v-80zM1667 -254h170v-262h-170v262zM1667 528v1004h170v-1004h-170 zM2220 186v545q0 17 12.5 28t30.5 11h352q26 0 41 -11t15 -28v-545q0 -18 -15.5 -30.5t-40.5 -12.5h-352q-17 0 -30 13t-13 30zM2322 252h234v72h-234v-72zM2322 381h234v80h-234v-80zM2322 514h234v80h-234v-80zM2367 72h164v-588h-164v588zM2367 852v680h164v-680h-164z " />
<glyph unicode="W" horiz-adv-x="2881" d="M31 1034q-4 -4 -4 -8q0 -11 26 -27l887 -741l670 371l178 559q1 2 2 5t2 10t0 13t-7.5 10.5t-17.5 4.5q-20 0 -451 -47.5t-852 -95.5l-421 -48zM225 -119q0 165 112 277t277 112q85 0 162.5 -33t132.5 -94l-139 -82q-68 62 -156 62q-102 0 -172.5 -70.5t-70.5 -171.5 q0 -98 70.5 -167.5t172.5 -69.5q93 0 164.5 70.5t71.5 166.5v39l133 78q21 -69 21 -117q0 -159 -116 -276t-274 -117q-164 0 -276.5 116.5t-112.5 276.5zM498 -119q0 52 35 89.5t81 37.5q5 0 15.5 -5t15.5 -5l1122 610l154 498q20 38 43 51l571 316q37 22 72 22q34 0 67 -21 q51 -33 58 -91q1 -8 1 -16q0 -60 -63 -98l-10 -5l-536 -285q-10 -10 -29 -10q-23 0 -33 10l-161 -455q0 -9 -3.5 -16.5t-7 -10.5t-11.5 -9t-9 -7l-221 -127l139 -456q2 -10 2 -20q0 -41 -37 -73l-168 -114q-12 -10 -41 -10q-23 0 -63 20l-361 369l-393 -224q-15 -34 -46 -59 t-67 -25q-46 0 -81 35t-35 84zM1268 154l284 -285l58 41l-109 360z" />
<glyph unicode="X" horiz-adv-x="2392" d="M2 506q0 208 81.5 398t218.5 328.5t328 221t400 82.5q210 0 401 -82.5t328.5 -221t219 -328.5t81.5 -398q0 -210 -81.5 -400t-219 -328t-328.5 -219t-401 -81t-400 81t-328 219t-219 328t-81 400zM219 506q0 -221 108.5 -407.5t295 -295t407.5 -108.5q167 0 318 64 t260 172.5t173 258.5t64 316q0 219 -108.5 406.5t-296.5 298t-410 110.5q-165 0 -315.5 -65.5t-259 -175t-172.5 -260t-64 -314.5zM252 299zM307 522l131 -8v33h-131v-25zM356 244l9 -25l129 47l-17 25zM381 819l121 -55l8 24l-113 64zM573 1069l80 -102l25 16l-80 102z M856 299q0 107 102 160l41 747h64q33 -538 41 -747q102 -53 102 -160q0 -73 -51.5 -125.5t-124.5 -52.5q-72 0 -123 53t-51 125zM856 1206l31 -129l22 8l-30 129zM983 299q0 -18 14.5 -32.5t32.5 -14.5q19 0 34 14t15 33t-15 33t-34 14q-18 0 -32.5 -14.5t-14.5 -32.5z M1137 1085h30l25 129l-25 9zM1376 989l25 -14l74 102l-25 17zM1546 805l15 -25l114 64l-8 24zM1585 283l121 -47l8 24l-121 47zM1626 -47q10 20 41 47q-31 -27 -41 -47zM1626 530l129 9v32l-129 -8v-33zM1739 104q4 8 12 29t12 29q-4 -8 -12 -29t-12 -29zM1780 195 q4 8 12 28.5t12 28.5q-4 -8 -12 -28.5t-12 -28.5zM1804 260q0 2 4 12t4 19q0 -9 -4 -19t-4 -12z" />
<glyph unicode="Y" horiz-adv-x="2066" d="M-2 1257h225v-112h-127l6 -379l1039 -55l10 -299h72q17 6 32 -13.5t15 -44.5v-805q0 -25 -13 -44t-36 -19l-269 -8q-20 0 -30.5 15.5t-10.5 39.5v813q-6 23 7 40t32 17l82 9l-4 200l-1014 58zM319 1049v337q0 60 46 107t106 47h920q65 0 109 -46t44 -108v-337 q0 -60 -44 -102t-109 -42h-920q-61 0 -106.5 42.5t-45.5 101.5zM1579 1184v123h145v-115z" />
<glyph unicode="Z" horiz-adv-x="1847" d="M4 492v106v39v618v144v104l6 -18l25 35l8 -17l10 -30v-43v43l31 30v-192l8 143v55l25 -69l16 39v-80v86l25 10l20 -31l19 45l30 -30q19 24 19 30v-174l6 144v30l41 -69l39 55v-65v65l63 -65l-8 90q8 -18 20 -30t23.5 -18t13.5 -8v-98v98l25 56v-146l6 135q11 -3 27.5 -20 t27.5 -33l11 -16v55l24 -16l15 30l24 -61v-143v135v14l25 55l30 -36l9 55v-137l10 118v25l39 -25v-86v86h6l18 -69l31 63q2 -3 4.5 -8t8.5 -15t11 -14.5t7 -1.5q4 7 3 16t-5 23t-4 17q7 6 17.5 -2.5t17.5 -20.5l6 -12l32 24l13 -69v-185l10 185l39 63q33 -30 43 -30 q1 0 4 35q2 18 6 17q2 -1 4 -5q10 -10 41 -66v-80v80v-6q31 62 39 72v-179l6 144v35q4 0 13 -6t16 -12l6 -7l20 14v-36l35 -25v-129v129l15 47l24 -41l49 88l27 -127v-16v-367v-395v-39v-106q0 -19 -15 -34.5t-32 -15.5h-475q-2 -8 -5 -22.5t-8 -58t-5 -85.5q0 -3 -1 -5 q-1 -39 7 -91q8 -54 26 -100q28 -80 41.5 -139t13.5 -134q0 -156 -54 -238.5t-138 -82.5q-88 0 -143.5 82.5t-55.5 238.5q0 76 14 135t44 138q27 80 31 170q1 28 1 52q0 54 -6 90l-10 50h-457q-19 0 -34 15.5t-15 34.5zM61 637q120 12 578 12t578 -12v410q-1 0 -11 8 t-13 9.5t-16 5.5t-24.5 3.5t-32 -2.5t-45.5 -8q6 -82 21.5 -125t15.5 -59q0 -36 -16 -71.5t-45 -35.5q-28 0 -52 37.5t-24 69.5q0 18 7 32.5t16.5 25.5t19 42.5t12.5 77.5q-78 -19 -129 -19v-6q0 -25 4 -42t8.5 -22.5t8.5 -12t4 -13.5q0 -17 -12 -28t-31 -11 q-10 0 -20.5 11.5t-10.5 27.5q0 5 9 26t9 64q-71 -8 -141 -8q-360 0 -668 213v-600zM565 -315q0 -24 21.5 -44t48.5 -20q25 0 46 20.5t21 43.5q0 31 -20.5 52t-46.5 21q-29 0 -49.5 -21t-20.5 -52zM858 942q0 -9 6.5 -15.5t12.5 -6.5q2 1 0.5 2.5t-4.5 7.5t-3 12q0 7 3 13 t4.5 7.5t-0.5 2.5q-6 0 -12.5 -6t-6.5 -17zM989 879q0 -22 10 -36t21 -14q2 1 2 2t-1 2q-3 2 -9 15.5t-6 30.5q0 13 6 27q6 12 9 16q1 2 1 3q0 2 -2 3q-11 0 -21 -15.5t-10 -33.5z" />
<glyph unicode="a" horiz-adv-x="2482" d="M-2 -332v1043q0 23 16 39t41 16h1438q4 9 17.5 19t15.5 14l-869 491q-16 -14 -39.5 -16.5t-50.5 8.5q-29 18 -38 51t10 60q15 31 47 41q12 4 24 4q20 0 39 -11q47 -24 47 -69l926 -527q42 0 75.5 -18t45.5 -47h299q25 0 44 -16.5t19 -38.5v-1043q0 -24 -18.5 -39.5 t-44.5 -15.5h-1987q-26 0 -41.5 15t-15.5 40zM106 27l52 -45l90 88l-94 96l-48 -31v-108zM106 -170v-109h132l20 37l-100 113zM106 311l48 -32l84 90l-95 98l-37 -18v-138zM106 602l37 -22l80 67h-117v-45zM199 520l96 -96l88 92l-94 86zM207 223l98 -94l86 86l-96 96z M215 -76l96 -94l90 88l-96 98zM352 369l94 -97l93 88l-101 99zM352 647l86 -76l92 76h-178zM360 70l95 -95l90 86l-99 97zM367 -242l16 -37h162l6 11l-96 131zM498 516l96 -100l86 90l-96 96zM506 215l96 -94l86 84l-94 98zM512 -82l96 -98l88 90l-94 94zM645 647l92 -88 l88 80l-6 8h-174zM649 360l99 -96l86 88l-97 97zM657 61l97 -94l86 88l-92 97zM668 -268l6 -11h176l-96 132zM793 506l98 -96l88 86l-94 96zM803 205l94 -94l90 90l-96 94zM811 -90l94 -117l90 111l-98 94zM936 639l100 -86l92 63l-16 31h-164zM948 352l96 -94l93 88 l-101 94zM954 55l97 -96l94 86l-101 98zM963 -279h182l-94 125zM1098 496l55 -47v104zM1104 201l49 -43v92zM1112 -96l41 -41v69zM1276 68q0 -150 103.5 -251.5t252.5 -101.5q144 0 247 102t103 251q0 145 -103 246.5t-247 101.5q-148 0 -252 -101t-104 -247zM1374 68 q0 -106 76.5 -181t181.5 -75q102 0 175 74.5t73 181.5q0 104 -73 176.5t-175 72.5q-105 0 -181.5 -73t-76.5 -176zM1618 559q0 -25 18.5 -44t44.5 -19q22 0 42 19.5t20 43.5q0 26 -20 47t-42 21q-26 0 -44.5 -20.5t-18.5 -47.5zM1858 559q0 -25 19 -44t44 -19 q22 0 41.5 19.5t19.5 43.5q0 26 -19.5 47t-41.5 21q-25 0 -44 -21t-19 -47z" />
<glyph unicode="b" horiz-adv-x="2717" d="M97 570q0 124 26 251q32 145 100.5 276t163.5 232.5t214 181t252 121.5t278 54q39 3 77 3q107 0 215 -24q170 -38 319 -125.5t258.5 -208t181.5 -269.5t95 -310q11 -38 13 -140v-39q0 -73 -6 -112q-12 -81 -17 -96q-27 -126 -81.5 -241t-130 -209t-170 -172.5 t-201.5 -131t-225.5 -84t-241.5 -31.5q-2 0 -5 -1q-121 0 -245 26q-126 27 -241 81.5t-209.5 129.5t-173 169t-131 201t-84 225.5t-31.5 242.5zM338 647l207 -59l-199 -60q15 -281 200.5 -495t469.5 -279q25 -6 62.5 -10t49.5 -6l62 207l57 -207q141 10 269 62.5t230 139 t174.5 209t102.5 265.5q17 63 17 106l-199 64l207 55q-7 185 -93.5 349t-239.5 279t-345 154q-13 2 -36 8t-40.5 8.5t-36.5 2.5l-63 -199l-55 199q-282 -14 -498.5 -200t-273.5 -470q-9 -19 -14 -38.5t-9 -47.5t-6 -37zM580 584q0 -46 12 -64q0 -12 4 -15t14 -3q18 0 21 11 q1 4 -4 7v64q0 10 -27 10q-6 0 -13 -3.5t-7 -6.5zM592 698q0 -10 0.5 -15t5 -9t12.5 -4q4 0 10.5 6.5t6.5 11.5q4 6 6 14t3 14.5t2.5 18t2.5 17.5q0 18 -14 18q-7 6 -17 2t-10 -10q0 -16 -4 -36t-4 -28zM616 397q21 -34 25 -59q10 -10 18 -10h11q1 2 4 4.5t4 4.5t2.5 4 t1.5 4t-1 4.5t-3 4.5q-19 38 -19 60q-17 17 -22 8q-21 0 -21 -25zM641 858q3 -8 10 -8l8 -10q7 0 13 5t6 9q16 28 24 53q12 12 0 27q-15 11 -32 -10q-5 -8 -14.5 -26t-14.5 -26q-2 -3 -2 -6.5t2 -7.5zM702 242q10 -10 24.5 -28.5t18.5 -23.5q11 -8 21 -8q8 0 8 8q14 11 0 25 q-6 12 -39 45q-9 22 -24 10q-11 -14 -11 -22q0 -3 2 -6zM721 655l254 33q30 65 85 104t124 48l98 258l18 -277q5 -3 19.5 -10.5t21 -11.5t17 -10.5t17 -13t11.5 -13.5l138 59l-90 -123q20 -36 20 -94l264 -102l-284 -25q-69 -117 -195 -133l-111 -268l-32 289q-47 28 -62 41 l-121 -52l78 107q-13 25 -35 102zM735 1241l565 -577l377 -719l-563 575h-8zM745 995q0 -4 2.5 -6t5.5 -2h3q18 0 18 8q8 8 20.5 22.5t22.5 24.5q7 3 7 10t-7 13q-16 13 -26 0q-33 -16 -46 -43q-8 -8 -8 -15t8 -12zM830 124.5q0 -7.5 4 -13.5q18 -15 55 -35h8q17 0 25 10 q0 14 -9 25q-26 13 -53 34q-26 0 -26 -10q-4 -3 -4 -10.5zM879 1108q4 -4 8.5 -6.5t6.5 -3.5h3h16q4 4 13 9t22.5 11t18.5 8q8 8 8 25q-8 16 -25 16q-44 -12 -61 -32q-10 0 -10 -27zM981 51q0 -5 2.5 -9.5t7.5 -9.5t6 -7q8 -4 19.5 -7t25.5 -5t19 -3q5 0 8.5 0.5t6.5 2 t4.5 2.5t4.5 4.5t5 5.5q0 7 -7 16.5t-14 9.5q-8 0 -16 2t-23.5 8t-23.5 9q-4 0 -7.5 -3t-9 -8t-8.5 -8zM997 664q-14 -36 -14 -73q0 -46 22 -94q39 -85 123 -116q40 -14 78 -14q47 -1 93 21q82 40 114 132q14 37 14 74q0 46 -22 92q-39 84 -123 109q-40 15 -79 15 q-46 0 -90 -20q-82 -38 -116 -126zM1042 1178q0 -8 6 -13.5t13 -5.5h8q9 4 28 9t31 10q21 0 21 16q-10 20 -27 20q-43 0 -61 -10q-8 0 -13.5 -7t-5.5 -19zM1159 14q0 -11 25 -22h10q4 0 19.5 4t25.5 4q6 0 12 5.5t6 8.5q0 7 -6 13t-12 6h-45h-10q-25 0 -25 -19zM1212 1194 q0 -16 19 -16q44 0 59 -11h10q3 0 10 6.5t7 10.5q0 7 -7 18.5t-10 11.5q-40 0 -61 7q-27 0 -27 -27zM1333 33q0 -6 8 -12.5t15 -6.5h8q8 6 25.5 11t23.5 8q21 6 21 26q-11 17 -29 17q-5 -2 -16.5 -7t-21.5 -7.5t-21 -2.5q-16 -11 -16 -19q0 -4 3 -7zM1386 1167q0 -9 1 -14 t5 -8.5t13 -3.5q21 -7 49 -23h10q19 0 19 8q7 7 -8 25q-8 3 -27.5 12t-34.5 15q-3 3 -7 3q-9 0 -20 -14zM1493 110q0 -12 6 -16q9 -8 17 -8l8 8q31 8 57 37q11 8 0 23q-10 8 -29 8q-24 -24 -53 -31q-6 -9 -6 -21zM1542 1071q1 -3 2 -4.5t4 -5t4 -4.5q4 -6 19.5 -20t23.5 -25 h11h18q6 8 6 20t-6 15q-34 19 -43 43q-28 0 -35 -9q-3 -3 -4 -5v-2v-3zM1626 223.5q0 -10.5 6 -16.5h15q10 0 18 8q19 13 37 45q13 21 -10 35q-15 0 -27 -10q-20 -36 -33 -43q-6 -8 -6 -18.5zM1664 946q-1 -2 -1 -5q0 -6 2 -17q22 -14 37 -45q0 -5 4.5 -10t11.5 -5q0 8 8 8 q11 0 11 27q-3 5 -17.5 23.5t-17.5 27.5q-11 11 -25 11q-11 -9 -13 -15zM1718 381q0 -16 19 -27h8q8 11 16 11q10 46 17 57q5 15 1.5 22t-12.5 7q-11 6 -16.5 2t-5.5 -11q-14 -35 -27 -61zM1745 778q0 -8 4 -30.5t4 -30.5q13 -19 25 -19q18 14 18 29q-5 9 -9.5 30.5 t-8.5 28.5q0 6 -9 11.5t-16 5.5q-11 -11 -11 -18q0 -4 3 -7zM1761 547q0 -7 5 -13t12 -6h8q7 0 13.5 6.5t6.5 12.5v57q0 10 -6 17.5t-14 7.5q-6 0 -12.5 -7.5t-6.5 -17.5q0 -7 -3 -24.5t-3 -32.5z" />
<glyph unicode="c" horiz-adv-x="2390" d="M22 698q35 202 148 373q89 138 216.5 239.5t273.5 154.5t302 64q33 2 66 2q124 -1 248 -33q158 -42 295 -132q138 -92 240 -219.5t155.5 -274t63.5 -301.5q2 -31 3 -62q0 -123 -34 -249q-42 -156 -133 -294.5t-218.5 -240.5t-274 -155.5t-301.5 -63.5q-31 -2 -62 -3 q-124 0 -250 34q-157 42 -295 133q-172 111 -285.5 280.5t-153.5 357.5q-21 100 -20 203q0 92 16 187zM219 -20q110 -170 270 -269q158 -116 355 -143l65 584q-51 12 -96 43q-62 43 -80 69zM688 444q30 -134 148 -211q74 -51 164 -55q8 0 17 -1q81 0 155 37q81 40 131 114 q56 85 56 180q0 38 -9 78q-31 138 -150 209q-74 51 -164 57q-11 1 -22 0q-78 0 -150 -35q-82 -40 -131 -117q-54 -86 -54 -180q0 -37 9 -76zM769 462q-6 27 -6 53q0 71 42 138q59 88 162 109q27 5 52 5q72 0 134 -44q88 -51 111 -155q7 -31 6 -61q0 -70 -37 -132 q-60 -89 -164 -110q-27 -6 -54 -6q-74 0 -141 44q-84 61 -105 159zM857 482q14 -64 75 -107q38 -25 82 -25q18 0 37 4q65 14 102 70q27 43 27 91q0 17 -3 35q-13 68 -73 103q-38 27 -84 27q-16 0 -34 -4q-66 -14 -103 -72q-30 -44 -30 -90q0 -16 4 -32zM1120 883 q53 -10 105 -49q54 -34 86 -78l514 291q-107 158 -277 276q-167 106 -370 143z" />
<glyph unicode="d" horiz-adv-x="2463" d="M12 221v242q0 90 76 156.5t174 66.5h17v107q0 172 68 315.5t184.5 239t272 148t331.5 52.5t329 -52.5t266.5 -148.5t178.5 -239t65 -315v-107h17q100 0 176 -66.5t76 -156.5v-242q0 -92 -76 -159.5t-176 -67.5h-146v780q0 199 -93 343t-252 215t-365 71 q-153 0 -279.5 -41.5t-218 -119.5t-141.5 -198t-50 -270v-780h-184q-98 0 -174 68t-76 159zM502 2q8 -8 18 -8h103v692h-103h-18v-684zM1659 2v684h18h105v-692h-105q-10 0 -18 8z" />
<glyph unicode="e" horiz-adv-x="2392" d="M-4 223v240q0 90 76 157.5t172 67.5h16v100q0 170 65.5 312t178.5 237t265 147t325 52q174 0 326 -52t264.5 -147t177.5 -236.5t65 -312.5v-100h17q91 0 168 -68t77 -157v-240q0 -89 -76.5 -156t-168.5 -67h-148v772q0 148 -53 266t-147 194t-222 116.5t-280 40.5 q-151 0 -278 -40.5t-221.5 -116.5t-148 -194t-53.5 -266v-772l185 -352h198q-8 -10 -8 -35q0 -4 4 -17t4 -18h-239l-224 422h-69q-97 0 -172.5 66.5t-75.5 156.5zM449 0v688h14h92v-688h-92h-14zM768 -387q0 -41 32.5 -81t69.5 -40h248q40 0 72.5 39.5t32.5 81.5 q0 46 -32 82.5t-73 36.5h-248q-38 0 -70 -37t-32 -82zM1620 0v688h20h95v-688h-95h-20z" />
<glyph unicode="f" horiz-adv-x="2301" d="M0 1036q0 193 130.5 326t318.5 133q104 0 198 -45t164 -123q-241 -51 -429 -208t-276 -380q-106 128 -106 297zM160 397q0 162 61 309.5t164.5 256t245.5 177.5t299 81v106q-26 12 -41 39t-15 61q0 51 32.5 83t86.5 32q50 0 81.5 -32t31.5 -83q0 -33 -15.5 -60.5 t-39.5 -39.5v-106q157 -12 299 -81t245.5 -177.5t164.5 -256t61 -309.5q0 -213 -98.5 -392.5t-270.5 -299.5l119 -111q19 -19 19 -43t-19 -36q-17 -17 -39 -17q-32 0 -41 17l-135 137q-182 -90 -363 -90q-191 0 -366 90l-138 -137q-9 -17 -40 -17q-22 0 -41 17 q-17 12 -17 36t17 43l120 111q-172 120 -270 299.5t-98 392.5zM354 381h166v25h-166v-25zM362 397q0 -174 83.5 -319.5t229 -229.5t318.5 -84q128 0 243.5 49.5t199 134t133 202t49.5 247.5q0 168 -83.5 312t-227.5 228.5t-314 84.5q-129 0 -246.5 -50t-201.5 -134 t-133.5 -199.5t-49.5 -241.5zM866 406l240 -232q20 -20 40 -20l40 20q19 9 19 34t-19 42l-160 156l266 264q18 18 18 38t-18 40q-20 19 -42.5 19t-39.5 -19zM979 -76v-168h22v168h-22zM979 862h22v160h-22v-160zM1178 1319q70 80 163 128t197 48q123 0 228.5 -60.5 t168 -166.5t62.5 -232q0 -178 -129 -313q-85 231 -267 389t-423 207zM1460 381h166v25h-166v-25z" />
<glyph unicode="g" horiz-adv-x="2029" d="M-6 -457v1221q0 29 19.5 47t45.5 18h80q0 145 55.5 276t150 226t225.5 151t276 56q195 0 362 -94.5t266 -258t99 -356.5h82q63 0 63 -65v-1221q0 -26 -17 -45.5t-46 -19.5h-1596q-25 0 -45 20t-20 45zM348 829h995q0 134 -66.5 249t-181.5 183t-249 68t-249 -68 t-182 -183t-67 -249zM711 -121h272l-80 332q38 18 63 53t25 76q0 60 -42.5 101.5t-102.5 41.5q-59 0 -97 -41t-38 -102q0 -42 22 -76.5t58 -52.5z" />
<glyph unicode="h" horiz-adv-x="1974" d="M2 -436v1202q0 26 16.5 43.5t40.5 17.5h113q-30 102 -30 198q0 193 122 357q110 152 274 226q131 59 270 59q36 0 73 -4q179 -19 329 -129l-114 -160q-104 76 -230 88q-23 2 -45 2q-101 0 -195 -43q-115 -52 -192 -155q-92 -119 -93 -247q0 -94 50 -192h1211 q26 0 42.5 -17.5t16.5 -43.5v-1202q0 -27 -17 -47.5t-42 -20.5h-1543q-23 0 -40 20.5t-17 47.5zM680 315q0 -37 23.5 -70.5t58.5 -43.5l-72 -324h262l-90 324q39 10 64.5 43.5t25.5 70.5q0 58 -40 98t-97 40t-96 -40t-39 -98z" />
<glyph unicode="i" horiz-adv-x="3151" d="M0 829q0 190 95 352t257.5 256.5t352.5 94.5q142 0 272.5 -56.5t226 -151.5t154 -225.5t61.5 -273.5h-211q0 135 -68 248.5t-183.5 178.5t-251.5 65q-98 0 -188 -38t-156.5 -103t-106 -155.5t-39.5 -191.5h-215zM901 -449v1209q0 25 19.5 45t44.5 20h1593q23 0 41 -20 t18 -45v-1209q0 -29 -18 -51t-41 -22h-1593q-25 0 -44.5 22t-19.5 51zM1626 336q0 -38 26.5 -72t65.5 -49l-86 -334h281l-92 334q40 15 66 49t26 72q0 62 -41.5 102.5t-102.5 40.5q-63 0 -103 -40t-40 -103z" />
<glyph unicode="j" horiz-adv-x="2119" d="M10 344q0 175 67.5 333.5t181.5 273t272.5 182t332.5 67.5q175 0 333.5 -67.5t273 -182t182 -273t67.5 -333.5q0 -172 -67.5 -330t-182 -273t-273 -183t-333.5 -68q-232 0 -429 115.5t-311 312t-114 426.5zM217 319q9 -30 36.5 -48.5t57.5 -18.5q72 0 95 67h-189z M217 379h189q-11 32 -36.5 54t-58.5 22q-29 0 -57 -23t-37 -53zM631 600q0 -75 39 -135.5t102 -85.5l-133 -508h453l-134 508q63 25 102.5 85.5t39.5 135.5q0 95 -68.5 164.5t-167.5 69.5q-97 0 -165 -69.5t-68 -164.5zM1286 322q9 -31 34 -49.5t58 -18.5q31 0 58 19t37 49 h-187zM1286 393h187q-11 29 -37.5 48.5t-57.5 19.5q-33 0 -58 -19t-34 -49z" />
<glyph unicode="k" horiz-adv-x="2990" d="M0 268q0 179 85 329.5t233.5 238.5t326.5 88q196 0 356 -95t244 -264h1370q117 0 201 -88.5t84 -208.5q0 -5 -6 -24.5t-6 -32.5q-23 0 -35 -12l-125 -103l-68 60q-19 9 -42 9t-38 -9q-135 -127 -170 -127q-10 0 -30 23t-34 46l-15 23q-15 7 -32 7t-24 -7q-54 -58 -77 -58 q-6 0 -26 17t-37 34l-17 17q-20 11 -41 11l-41 -11q-86 -102 -111 -102q-11 0 -31 29t-34 58l-15 29q-21 17 -55 0l-68 -147h-477q-87 -173 -248 -279t-352 -106q-177 0 -326 90.5t-234 241t-85 323.5zM182 268q0 -130 95.5 -224.5t230.5 -94.5v649q-136 0 -231 -97 t-95 -233zM1290 412q0 -17 13 -32t22 -15h1368q35 0 35 47q0 17 -9 31t-26 14h-1368q-8 0 -21.5 -15.5t-13.5 -29.5z" />
<glyph unicode="l" horiz-adv-x="2318" d="M54 970q-1 11 -1 22q1 62 17 120q20 68 57.5 128t97 106t131.5 71q85 32 169 32q94 -1 184 -41q172 -78 241 -263q32 -84 32 -168q0 -44 -8 -88q-26 -129 -116 -225l338 -908h-10q14 -39 14 -77q0 -13 -2 -25q-6 -50 -41 -92t-88 -58q-4 -4 -20 -8.5t-25 -9.5q0 4 -2 8.5 t-4 7.5l-2 2l-101 60l19 65q10 30 -19 43q-118 68 -118 84q-3 8 5.5 27t18.5 34l10 15q11 24 -8 43q-61 17 -67 33l24 76q15 27 -18 45q-82 45 -92 51q0 7 15 28t29 38l15 18q0 21 -16 33l-117 10l-121 321q-129 8 -238 90t-153 209q-26 69 -30 143zM262 1001l434 164 q-32 89 -120 128q-49 21 -98 21q-40 0 -81 -14q-88 -38 -127 -124q-22 -48 -22 -97q0 -39 14 -78zM408 1206q0 190 127 322q88 88 209 123q68 20 136 20q52 -1 106 -13q122 -28 208 -114q65 -65 98.5 -140t33.5 -164.5t-38 -186.5l672 -678q56 -55 56 -133.5t-56 -135.5 q-12 -12 -37 -26q-8 10 -16 10l-109 6l-8 68q0 13 -11 23t-24 10q-137 10 -145 18q-7 8 -7 31t3 42l4 19q0 7 -10 17t-17 10q-19 -3 -33 -3q-28 0 -34 11q-4 4 -6 23t-2 36l-1 17q0 12 -10.5 23.5t-21.5 11.5q-103 0 -109 8q-4 7 -0.5 28t10.5 43l6 23q0 6 -9.5 14.5 t-16.5 8.5l-111 -39l-235 235q-66 -25 -140 -25q-51 0 -104 12q-132 29 -231 122q-127 133 -127 323zM564 1271.5q0 -95.5 65 -159.5l321 324q-64 63 -158 63t-163 -63q-65 -69 -65 -164.5zM721 555l338 -917q11 -9 43 -9q14 6 22 17.5t2 17.5l-338 907q0 17 -40 17 q-27 -15 -27 -33zM1212 893l678 -670q5 -5 13 -5h4q10 2 16 15q14 7 18 21q1 4 1 6q0 9 -9 14l-671 668q-3 5 -11 5h-5q-12 -2 -23 -13q-14 -23 -14 -34q0 -5 3 -7z" />
<glyph unicode="m" horiz-adv-x="2975" d="M25 -317q0 53 29.5 92.5t74.5 48.5v1053q0 61 42.5 101t96.5 40h1071q52 0 95 -40.5t43 -100.5v-1125q0 -58 -43 -98.5t-95 -40.5h-1048l-25.5 -25.5t-30 -28.5t-27 -17t-34.5 -9q-58 0 -103.5 45.5t-45.5 104.5zM109 -317q0 -28 17 -49t48 -21q27 0 49.5 32t22.5 60 q0 49 -72 49q-32 0 -48.5 -20.5t-16.5 -50.5zM274 -106q0 -42 30.5 -67.5t74.5 -25.5h848q45 0 74.5 25.5t29.5 67.5v819q0 45 -30 76.5t-74 31.5h-848q-43 0 -74 -32t-31 -76v-819zM369 2q0 -35 22.5 -57.5t57.5 -22.5h698q37 0 59.5 22.5t22.5 57.5v625q0 34 -23 58 t-59 24h-698q-35 0 -57.5 -24t-22.5 -58v-625zM379 1069v12q0 60 42.5 100t98.5 40h289q63 0 101 -39t38 -101v-12h-569zM1540 72h66v-324h69v324h121v-205h64v205h125v-205h63v205h131v-324h59v324h140v-205h49v205h139v-205h53v205h138v-324h63v324h66v-445h-1346v445z " />
<glyph unicode="n" horiz-adv-x="3033" d="M0 1155l-2 8q0 7 4 17l158 645q12 18 35 24l55 -12q17 -17 12 -45l-160 -647q-6 -29 -32 -21l-60 21q-6 0 -10 10zM164 1174l147 569q2 3 3.5 6.5t2 4.5t3 2.5t5.5 2.5t9 2l385 -86q10 -10 10 -35l-147 -563q-3 -17 -5.5 -20t-15.5 -6l-383 88q-14 14 -14 35zM666 1135 q-1 3 -2 8q0 8 4 18l90 373q25 25 37 25l1357 -355q7 -1 10.5 -5.5t3.5 -8.5t-0.5 -12t-0.5 -9l-92 -376q-3 -2 -8.5 -6t-9 -6.5t-8.5 -4.5t-9 -2l-203 43q10 27 10 47q0 100 -71 170t-166 70q-83 0 -147 -45.5t-79 -114.5l-704 182q-8 0 -12 9zM1075 -496l295 1086 q0 35 33 35h59q35 0 35 -35l-295 -1086q0 -15 -12 -23.5t-21 -8.5h-69q-25 0 -25 32zM1415 864q0 84 54.5 137.5t138.5 53.5q79 0 135.5 -54t56.5 -137q0 -78 -57.5 -135t-134.5 -57q-82 0 -137.5 56.5t-55.5 135.5zM1540 -496v1086q0 19 8 27t27 8h55q18 0 25.5 -8t7.5 -27 v-1086q0 -18 -7.5 -25t-25.5 -7h-55q-35 0 -35 32zM1722 590q0 35 33 35h57q33 0 33 -35l295 -1086q0 -16 -6.5 -24t-15.5 -8h-68q-12 0 -23.5 8.5t-11.5 23.5zM2134 915l29 119q3 16 9 19.5t23 -0.5l381 -99q15 -4 16.5 -13.5t-3.5 -20.5l-31 -113q-7 -24 -29 -21l-383 97 q-16 5 -16 17q0 7 4 15zM2583 784l55 203q4 18 24 12l80 -22l15 43q-5 2 -13 4t-12.5 3.5t-9 3.5t-6.5 5t-2 6l14 48q1 4 3 10q2 8 8 10l3 2l33 -8l6 16q1 1 2 4q6 10 15 11l69 -21q8 -3 10.5 -4t5.5 -5t-1 -9l-5 -25l11 -2q5 -1 8 -3q2 0 4 -2t3 -8l-2 -8q-1 -4 -1 -6 l-12 -49q-7 -17 -21 -12l-20 6l-11 -39l33 -8q14 -4 8 -22l-47 -201q-4 -12 -19 -12q-6 0 -13 2l-193 53q-23 5 -23 19q0 3 1 5z" />
<glyph unicode="o" horiz-adv-x="2318" d="M-4 88v18l252 1031h71h521v-756q0 -30 -22 -50t-52 -20h-49v-172v-33v-544q0 -28 -23.5 -50t-48.5 -22h-577q-29 0 -50.5 21.5t-21.5 50.5v526zM406 1237v283q0 14 10 14h415q9 0 9 -14v-283q0 -14 -9 -14h-415q-10 0 -10 14zM473 391q0 -4 9.5 -9t17.5 -5h266 q11 0 18 4.5t7 9.5v27q0 24 -25 24h-266q-9 0 -18 -7t-9 -17v-27zM905 463v643q0 31 6 31h230q6 0 6 -31v-643q0 -31 -6 -31h-230q-6 0 -6 31zM1204 381v756h518h74l252 -1031v-40v-504q0 -29 -22.5 -50.5t-51.5 -21.5h-567q-30 0 -51 21t-21 51v544v33v172h-57 q-30 0 -52 20t-22 50zM1212 1237v283q0 5 5.5 9.5t13.5 4.5h397q4 0 9 -5t5 -9v-283q0 -6 -4.5 -10t-9.5 -4h-397q-19 0 -19 14zM1253 401q0 -24 25 -24h244q24 0 24 24v25q0 6 -7.5 15.5t-16.5 9.5h-244q-12 0 -18.5 -9t-6.5 -16v-25z" />
<glyph unicode="p" horiz-adv-x="2410" d="M2 31v757q0 71 48.5 118.5t117.5 47.5h287v422q0 66 48.5 110t117.5 44h882q70 0 117 -43.5t47 -110.5v-422h291q70 0 117 -47t47 -119v-757q0 -67 -47.5 -111.5t-116.5 -44.5h-301v3q2 57 2 435h-1190v-438h-301q-69 0 -117.5 44.5t-48.5 111.5zM578 211h968v-608 q0 -49 -39 -83t-94 -34h-704q-53 0 -92 34t-39 83v608zM578 768h968v516q0 57 -39 95t-94 38h-704q-54 0 -92.5 -38t-38.5 -95v-516zM672 25h774v43h-774v-43zM672 -68v-43h774v43h-774zM672 -207v-43h774v43h-774zM672 -344v-43h774v43h-774z" />
<glyph unicode="q" horiz-adv-x="1531" d="M0 -444v1910q0 31 21.5 52.5t50.5 21.5h1142q31 0 52.5 -21.5t21.5 -52.5v-1910q0 -29 -21.5 -50.5t-52.5 -21.5h-1142q-29 0 -50.5 21.5t-21.5 50.5zM242 72q0 -81 20.5 -150t50 -107.5t56 -59.5t43.5 -21h483q17 0 44 21t56 59.5t49.5 107t20.5 150.5q0 79 -20.5 145 t-49.5 102.5t-56 56t-44 19.5h-483q-17 0 -43.5 -19.5t-56 -56t-50 -102.5t-20.5 -145zM242 952q0 -66 14 -123.5t34.5 -95t44.5 -64.5t44 -39t33 -12h483q17 0 44 20.5t56 58t49.5 105.5t20.5 150q0 79 -20.5 147.5t-49.5 107.5t-56 61t-44 22h-483q-13 0 -33 -13t-44 -41 t-44.5 -66.5t-34.5 -96t-14 -121.5zM453 63q0 -12 9 -21t21 -9q18 0 29.5 9t11.5 21v187q0 22 -41 22q-30 0 -30 -22v-187zM453 944q0 -12 9 -22.5t21 -10.5q18 0 29.5 10t11.5 23v184q0 9 -12 18t-29 9q-11 0 -20.5 -9.5t-9.5 -17.5v-184zM596 -49q0 20 15.5 34.5 t39.5 14.5t42 -15t18 -34v-80h-115v80zM596 758v78q0 20 15.5 35.5t39.5 15.5t42 -16t18 -35v-78h-115zM770 944v184q0 9 11.5 18t27.5 9q13 0 23 -9.5t10 -17.5v-184q0 -12 -10 -22.5t-23 -10.5q-17 0 -28 10t-11 23zM774 63v187q0 22 39 22q33 0 33 -22v-187 q0 -12 -10 -21t-23 -9q-17 0 -28 9t-11 21z" />
<glyph unicode="r" horiz-adv-x="2263" d="M-18 514q0 207 80 395.5t216 325.5t324.5 218t396.5 81q207 0 395.5 -81t325.5 -218t218 -325.5t81 -395.5q0 -208 -81 -397t-218 -324.5t-325.5 -216t-395.5 -80.5q-208 0 -396.5 80t-324.5 216.5t-216 325t-80 396.5zM82 492q4 -178 72.5 -339.5t193.5 -289.5 q130 -127 291.5 -196.5t337.5 -69.5v337q-111 0 -212 44.5t-179 121.5q-75 76 -118.5 177t-47.5 215h-338zM82 530h338q0 142 67 252q-22 22 -22 64q0 36 26 64t66 28q3 0 14 -4t15 -4q171 157 391 166v340q-179 -6 -340.5 -74.5t-288.5 -194.5q-124 -125 -192.5 -290.5 t-73.5 -346.5zM451 492q10 -218 159 -367q76 -76 171 -118t196 -42v289q-92 6 -162 74.5t-76 163.5h-288zM451 530h288q6 98 76.5 169.5t161.5 76.5v289q-208 -9 -359 -160q23 -23 23 -59q0 -40 -25 -67t-59 -27q-18 0 -47 18q-59 -121 -59 -240zM457 -43q0 28 20 48t49 20 q28 0 49 -20t21 -48q0 -30 -21 -50t-49 -20q-30 0 -49.5 19.5t-19.5 50.5zM770 492q6 -80 67 -140.5t140 -66.5v153q-17 4 -32.5 20.5t-20.5 33.5h-154zM770 530h160q15 37 47 48v167q-80 -5 -140.5 -67t-66.5 -148zM1016 -35q218 0 375 160q149 149 159 367h-288 q-4 -96 -75.5 -164t-170.5 -74v-289zM1016 -66v-337q182 0 345.5 69.5t291.5 196.5q125 127 193.5 288t74.5 341h-338q-12 -236 -168 -392q-78 -76 -182 -121t-217 -45zM1016 285q86 6 148 66.5t67 140.5h-160q-7 -45 -55 -54v-153zM1016 578q8 -1 16 -5t12 -8l3 -4l147 76 q-63 99 -178 108v-167zM1016 776q125 -8 209 -121l250 136q-5 5 -9 16.5t-6 15.5q-23 -10 -53 -10q-44 0 -75.5 32.5t-31.5 76.5q0 29 9 47q-119 86 -293 96v-289zM1016 1096q158 -8 315 -97q35 31 76 31q40 0 74.5 -34t34.5 -74q0 -41 -31 -76q11 -30 22 -41l297 153 q-79 137 -151 209q-126 126 -289 194.5t-348 74.5v-340zM1059 545q8 -4 8 -17l164 2q0 40 -25 84zM1231 631q1 -3 7 -15t7.5 -16.5t6 -15.5t6 -18t3 -17t1.5 -19h288q0 131 -59 240zM1516 782q67 -142 67 -252h338q0 218 -111 414z" />
<glyph unicode="s" horiz-adv-x="1097" d="M-6 -184v401h260v973q-84 19 -140.5 73.5t-56.5 118.5v127q186 23 260 23q35 0 102 -6t117 -12l50 -5v-127q0 -65 -56.5 -119t-146.5 -73v-973h266v-401q0 -55 -34 -108.5t-83 -91t-98 -66.5t-83 -44l-34 -14q-13 5 -35 15t-77.5 42.5t-98 67.5t-77.5 89.5t-35 109.5z M162 1389q0 -48 45.5 -82.5t109.5 -34.5q72 0 121 34.5t49 82.5q1 35 -81 49q-41 7 -81.5 7.5t-81.5 -7.5q-81 -14 -81 -49z" />
<glyph unicode="t" horiz-adv-x="2859" d="M0 -225v1339q0 63 42 105.5t105 42.5h2335q64 0 110 -43t46 -105v-1339q0 -77 -45 -121.5t-111 -44.5h-145l-117 475h31q49 0 82.5 28t33.5 74v793q0 44 -34 73t-82 29h-1897q-45 0 -77.5 -29t-32.5 -73v-793q0 -46 32 -74t78 -28h76l-131 -475h-152q-65 0 -106 44 t-41 122zM328 -391l116 442h1745l115 -442h-1976zM434 262v621q0 25 21.5 44t50.5 19h1614q29 0 44 -18t15 -45v-621q0 -33 -15 -53.5t-44 -20.5h-1614q-29 0 -50.5 21.5t-21.5 52.5zM528 -176v-21q0 -28 29 -28h23q16 0 23 6t7 22v21q0 10 -8.5 21.5t-21.5 11.5h-23 q-7 0 -18 -12.5t-11 -20.5zM569 569q0 -84 54 -155h10q39 -61 153 -84h11h10h10h8h11h12q93 18 153 84q52 65 52 155q0 76 -52 144q-58 73 -153 94h-12h-11h-8h-10h-10h-11q-116 -27 -153 -94h-10q-54 -75 -54 -144zM641 -176v-21q0 -28 29 -28h22q33 0 33 28v21 q0 9 -10.5 21t-22.5 12h-22q-7 0 -18 -12.5t-11 -20.5zM692 549h10h33q29 0 29 20q0 19 -29 19h-33h-10q3 5 9.5 21t12 26t11.5 14q15 13 22 18.5t20.5 11t29.5 5.5v-45q0 -8 6.5 -14.5t13.5 -6.5q6 0 12.5 7t6.5 14v45q26 0 61 -35q16 -7 24.5 -25.5t8.5 -35.5h-41 q-21 0 -21 -19q0 -20 21 -20h41q0 -51 -33 -68q-26 -21 -61 -39v39q0 33 -19 33q-20 0 -20 -33v-39q-33 12 -72 39q-18 15 -33 68zM1217 -176v-21q0 -15 10.5 -21.5t21.5 -6.5h185q18 0 25 5.5t7 22.5v21q0 10 -8.5 21.5t-23.5 11.5h-185q-7 0 -19.5 -12.5t-12.5 -20.5z M1548 588q-3 -16 -3 -32q0 -63 46 -132l11 -10v-11h10v-10h10q0 -11 1 -12.5t9 -1.5q1 0 13 -8q29 -23 77 -35q31 -8 57 -9q15 0 29 3h11q24 0 48.5 10t40.5 21t42 32q32 28 47 61.5t26 82.5q3 16 3 31q0 71 -52 145v8h-12v12h-12v10h-11v13h-8q-73 53 -145 53q-15 0 -31 -2 q-98 -27 -143 -74q-64 -58 -64 -135v-10zM1661 569q0 20 20 60l33 -31h31q7 8 7 21t-7 20l-23 20q-4 0 -6 2.5t-2 5.5v3q31 22 72 22q25 0 74 -22l-13 -11l-18 -20q-7 -7 -7 -20t7 -21h31l30 31q19 -48 19 -60q0 -27 -19 -75h-10l-20 34q-9 6 -20 6t-11 -6q-13 -18 0 -34 l18 -29q-41 -23 -61 -23q-26 0 -72 23l31 29q13 16 0 34q-17 14 -31 0l-33 -34q-20 40 -20 75zM1898 -176v-21q0 -17 7.5 -22.5t25.5 -5.5h19q19 0 25.5 5.5t6.5 22.5v21q0 11 -8 22t-24 11h-19q-15 0 -24 -11.5t-9 -21.5zM2011 -176v-21q0 -28 33 -28h20q18 0 25.5 5.5 t7.5 22.5v21q0 10 -9 21.5t-24 11.5h-20q-14 0 -23.5 -12t-9.5 -21z" />
<glyph unicode="u" horiz-adv-x="2283" d="M11 -313.5q0 41.5 26 75.5l514 533q32 25 73.5 25t73.5 -25l93 -88q25 -35 25 -77.5t-25 -76.5l-517 -528q-32 -28 -73.5 -28t-75.5 28l-88 88q-26 32 -26 73.5zM105 994q-11 49 -11 98q0 52 12 104l72 64l242 -302l141 -8l121 97l10 141l-248 291l72 63q11 1 21 1 q89 -1 179 -39q100 -42 169 -120q57 -70 79 -158q14 -58 14 -115q0 -30 -4 -60q-12 -87 -52 -164l151 -178l-233 -222l-158 197q-71 -25 -146 -25q-55 0 -113 13q-137 32 -228 135q-67 87 -90 187zM110 -280.5q0 -12.5 7 -18.5q16 0 24 8l469 486q13 16 0 26q-16 0 -26 -8 l-467 -475q-7 -6 -7 -18.5zM215 -395q12 -18 27 0l465 487q14 6 14 25q-23 13 -39 0l-459 -488q-11 -11 -11 -18q0 -3 3 -6zM707 283l911 921l22 72l166 98l56 -55l-99 -158l-71 -28l-912 -920zM965 338l221 229l612 -725q50 -56 50 -124q0 -67 -58 -113q-45 -36 -97 -36 q-13 1 -27 3q-68 12 -114 66zM1629 -269q0 -19 18 -38q13 -15 35 -19q7 -1 13 -1q14 0 23 8q20 21 22 45v8q0 19 -11 28q-13 20 -37 22h-8q-20 0 -37 -11q-18 -20 -18 -42z" />
<glyph unicode="v" horiz-adv-x="1611" d="M16 410q0 36 29.5 62t65.5 26l145 -2q36 0 60 -25.5t24 -62.5v-826q0 -38 -22 -63t-58 -25l-156 2q-36 0 -62 26t-26 62v826zM84 387v-780q0 -17 8 -17q11 0 20 6t9 11v780q0 6 -8.5 11t-20.5 5q-8 0 -8 -16zM86 1382l41 150l106 -2l39 -150l-30 -57v-827l-123 2v827z M221 385v-780q0 -5 5 -11t12 -6q5 0 14.5 6.5t9.5 10.5v780q0 5 -9 10.5t-15 5.5q-7 0 -12 -5t-5 -11zM528 -195q0 97 65.5 183t160.5 129v786q-95 43 -160.5 128.5t-65.5 182.5q0 98 65.5 182t160.5 122v-328l71 -72h76l70 72l14 328q94 -38 157.5 -122t63.5 -182 q0 -96 -69 -181.5t-166 -129.5v-786q97 -44 166 -130t69 -182q0 -98 -63 -182t-158 -127l-14 326l-70 80h-76l-71 -80v-326q-96 44 -161 128t-65 181z" />
<glyph unicode="w" horiz-adv-x="2951" d="M57 242q0 69 37.5 138.5t110.5 121.5t179 57h16q100 0 227 -55q73 41 311 125q-57 78 -122 172t-68 98q-106 26 -186.5 76t-123.5 108.5t-63 122.5q-15 48 -15 92q0 14 2 28q6 57 33 99q68 105 208 126q29 4 57 4q108 0 204 -64q84 -52 134 -133q50 -80 52 -162 q0 -3 -1 -6q0 -79 -43 -150q-10 -26 -33 -45q10 -33 52 -103t79 -124l37 -53q117 31 297.5 76.5t531.5 121.5t459 76q71 0 130.5 -9.5t94.5 -22.5t59.5 -26t34.5 -23l9 -9l-1454 -364l1173 -797q-10 -2 -28 -4q-20 -2 -74 -4q-20 -1 -39 -1q-34 1 -66 3q-51 4 -116.5 18.5 t-116.5 40.5q-63 39 -304.5 203.5t-451.5 309.5l-211 145q-27 -10 -68 -26t-120 -54.5t-103 -63.5v-51v-16q0 -117 -98 -202q-104 -91 -258 -91q-153 0 -259 85t-106 212zM154 -303q0 -24 12.5 -39.5t30.5 -15.5h237q17 0 34 16t17 39q0 14 -17.5 27.5t-33.5 13.5h-237 q-17 0 -30 -13t-13 -28zM254 233q0 -57 52 -93q40 -28 87 -28q14 0 29 3q72 0 149.5 58t77.5 116q0 39 -38 67.5t-88 40t-101 11.5q-69 0 -118.5 -54t-49.5 -121zM544 1208q16 -76 70 -116q49 -28 98 -43q35 -11 68 -11q13 0 27 2q46 6 65 43q18 24 18 60q0 33 -15 75 q-32 89 -97 132q-59 34 -122 34t-97 -43q-21 -38 -21 -83q0 -24 6 -50zM731 -303q0 -23 19 -39t38 -16h238q15 0 29 16t14 39q0 15 -14.5 28t-28.5 13h-238q-18 0 -37.5 -13.5t-19.5 -27.5zM1036 629q-15 -26 -15 -49q0 -29 23 -56l97 150q-15 3 -28 3q-53 0 -77 -48z M1081 504q34 -15 60 -5t43 36q19 26 17.5 59t-25.5 57zM1313 -303q0 -23 18.5 -39t38.5 -16h234q19 0 33 15.5t14 39.5q0 15 -14.5 28t-32.5 13h-234q-19 0 -38 -13t-19 -28z" />
<glyph unicode="x" horiz-adv-x="1775" d="M24 -237q-5 29 -4 59q0 54 15 112q35 128 142 198q74 49 152 50q34 0 70 -10q19 0 39 -20q24 16 73.5 73.5t87.5 106.5l38 49q-44 93 -110 236t-186 428t-140 382q-10 58 -10 113q0 42 6 82q14 91 41 153l26 62l492 -1266l583 1274q2 -5 5.5 -13.5t13 -35.5t17 -55 t15.5 -68q8 -39 12 -77q3 -25 3 -53q0 -14 -1 -28q-2 -43 -11 -81q-16 -64 -143.5 -327.5t-247.5 -494.5l-119 -231q145 -184 198 -219q32 16 47 16q41 12 80 12q74 0 144 -42q108 -66 149 -195q19 -61 19 -119q0 -68 -26 -132q-50 -120 -165 -153q-29 -8 -62 -8h-7 q-37 1 -76.5 12.5t-76.5 35t-69 59.5t-54 86q-22 48 -30 112q-4 31 -5 66q0 36 5 76q-15 16 -43.5 49.5t-70.5 85t-76 90.5q-31 -42 -74 -95.5t-68.5 -86.5t-37.5 -54q1 -16 0 -31q0 -54 -8 -102q-10 -62 -32 -108.5t-51.5 -85.5t-64.5 -62q-34 -22 -70 -38q-35 -15 -70 -16 h-2q-36 0 -67 9q-76 17 -128.5 78t-66.5 142zM180 -223q19 -59 66 -72q15 -4 31 -4q41 0 87 27q62 37 82 96q7 44 9 89v10q0 40 -14 75q-16 40 -50 53q-11 3 -22 3q-45 0 -99 -42q-67 -52 -88 -116q-11 -32 -11 -63q0 -28 9 -56zM674 387q0 -27 18 -50.5t45 -29.5 q28 -6 57.5 4.5t43.5 30.5zM692 422l156 -41q0 26 -19 49t-45 31q-16 7 -31 7q-12 0 -23 -5q-24 -11 -38 -41zM1076 -78q2 -46 16 -90q22 -60 84 -94q39 -21 74 -21q21 0 42 7q52 14 69 72q7 25 7 50q0 33 -12 68q-20 63 -91 111q-57 38 -103 38q-12 0 -23 -2 q-35 -14 -51 -54q-13 -34 -13 -73q1 -6 1 -12z" />
<glyph unicode="y" horiz-adv-x="2283" d="M-6 383q-6 61 -6 125t6 131l276 80q3 8 10.5 31t11.5 34.5t11.5 30t15.5 34t17 30.5l-135 251q13 18 41.5 51.5t38.5 47.5q74 69 94 84l264 -135q98 52 149 65l86 277q64 6 128 6l128 -6l89 -277q61 -18 149 -65l254 135q53 -30 96 -84q56 -56 86 -99l-135 -251 q41 -78 66 -160l278 -80q5 -67 5 -131t-5 -125l-278 -88q-20 -65 -66 -156l135 -256q-18 -26 -86 -94q-26 -37 -96 -80l-254 135q-50 -35 -149 -73l-89 -271q-64 -10 -128 -10l-128 10l-86 271q-78 25 -157 73l-256 -135q-8 6 -23 18t-24.5 19.5t-22.5 19t-24 23.5 q-11 15 -39.5 45.5t-40.5 48.5l135 256q-29 46 -66 156zM463 1042q0 8 1 9.5t7 1.5h-8v-11zM532 510q0 -196 137.5 -331.5t334.5 -135.5q126 0 233.5 61.5t171.5 169.5t64 236q0 191 -139 327t-330 136q-196 0 -334 -135.5t-138 -327.5z" />
<glyph unicode="z" horiz-adv-x="2355" d="M2 178v43v17v30l152 80q0 34 16 66l-88 143q0 11 16 43q10 5 25 39l170 -18q17 29 47 59l-8 160q15 15 33 24l16 6q4 4 15.5 8.5t15.5 8.5l137 -88q13 4 36.5 8t35.5 8l71 152h43h17h39l71 -152q13 -4 37 -8t37 -8l135 88q5 -3 19.5 -11.5t23.5 -11.5q30 -20 39 -24 l-10 -160q34 -30 51 -59l168 18q0 -19 16 -35l6 -12q3 -7 7.5 -14.5t7 -12.5t2.5 -8l-88 -143q16 -32 16 -66l152 -80v-30v-25v-35l-152 -72q0 -21 -16 -71l88 -137q-3 -6 -8 -20.5t-9 -18.5q-11 -30 -22 -41l-168 8q-15 -15 -51 -47l10 -170q-21 -17 -35 -17l-12 -16 q-19 0 -35 -16l-135 96q-12 -4 -37 -12.5t-37 -12.5l-71 -143h-39h-17h-43l-71 143q-12 4 -35.5 12.5t-36.5 12.5l-137 -96q-5 3 -17.5 11.5t-21.5 12.5q-8 4 -20.5 12.5t-20.5 12.5l8 170l-47 47l-170 -8q-2 2 -17 32l-8 17q-16 16 -16 31l88 137q-16 50 -16 71zM356 229 q0 -164 111.5 -275.5t275.5 -111.5q157 0 270 112t113 275q0 155 -114 269t-269 114q-163 0 -275 -113t-112 -270zM1161 1042v111l129 33q0 11 4 22.5t10 25.5t9 23l-56 113q11 23 33 39q27 31 47 41l113 -55q10 5 63 22l43 123q28 6 56 6t55 -6l41 -123q13 -4 32.5 -11 t31.5 -11l112 55q29 -15 39 -41q26 -10 41 -39l-55 -113q4 -13 11 -36t11 -35l123 -33q6 -32 6.5 -59.5t-6.5 -51.5l-123 -43q-4 -12 -11 -35t-11 -36l55 -113q-25 -25 -41 -39q-3 -7 -8.5 -13.5t-15.5 -14.5t-15 -13l-112 64q-15 -15 -64 -31l-41 -121h-111l-43 121 q-47 15 -63 31l-113 -64q-7 7 -23 19.5t-24 21.5q-8 14 -33 39l56 113q-3 9 -9 23t-10 25.5t-4 22.5zM1370 1329v8v-8zM1401 1098q0 -86 62.5 -148.5t148.5 -62.5q85 0 147 62.5t62 148.5q0 84 -61.5 142t-147.5 58q-87 0 -149 -58t-62 -142z" />
<glyph unicode="~" horiz-adv-x="3426" d="M-6 -508q15 82 44.5 159t56.5 125.5t67.5 100.5t57 69.5t46.5 47.5q-24 49 17 84l86 92q20 28 48.5 30.5t49.5 -18.5l16 15l56 51q0 33 14 47l457 500q-52 113 116 215l334 176q55 25 78.5 23t46.5 -23q7 0 14.5 1.5t11.5 2.5t10.5 4.5t8 4.5t8.5 6l7 5q35 16 61 21 t44 -2.5t28 -16.5t24 -26q2 14 35.5 18t66.5 -0.5t33 -11.5q39 8 140.5 37t191 49t144.5 20q84 0 213.5 -22t217.5 -44l87 -22q6 -3 13 -16t11 -37t2.5 -53t-15 -68t-38.5 -78q-15 2 -68 16.5t-135 30t-182 23.5q-63 5 -147.5 -13t-139.5 -38t-147 -56q-17 -7 -25 -10 q6 -6 -6.5 -21t-30.5 -21.5t-36 3.5q0 -4 -1 -12q-3 -41 -14 -52q-9 -11 -63 -36l-1 -1h-1l-1 -1h-1l-1 -1h-1h-1l-1 -1q19 -13 19 -56t-10 -80l-9 -36l-43 -88q-102 -169 -156 -227q-5 -7 -14 -18.5t-37.5 -48t-57 -71.5t-68 -83t-74.5 -89t-73.5 -83t-69 -71.5t-56 -48 t-38.5 -18.5q-232 88 -491 311l-51 -53q10 -19 6.5 -49.5t-23.5 -50.5l-92 -101q-9 -23 -41.5 -23t-38.5 9q-44 -42 -100 -126.5t-74 -160.5q1 -14 -26 -14h-289zM539 236v12v-12zM856 248l215 -187q10 36 39.5 143t46.5 163q12 44 39 74.5t56.5 43t57.5 18.5t46 5h18 l78 -19q-106 68 -135 97l-103 69zM1200 37q20 0 62.5 7t64.5 7l189 230q-6 0 -20 15t-30 34t-22 24q-32 15 -57.5 20.5t-54 -5.5t-48.5 -43q-6 -7 -17 -43t-32 -116.5t-35 -129.5zM2763 686q0 30 32.5 98t65.5 121l33 53q16 -23 39.5 -58.5t62.5 -109.5t39 -104 q0 -66 -39.5 -105.5t-101.5 -39.5q-59 0 -95 39t-36 106z" />
<glyph unicode="&#x2000;" horiz-adv-x="927" />
<glyph unicode="&#x2001;" horiz-adv-x="1855" />
<glyph unicode="&#x2002;" horiz-adv-x="927" />
<glyph unicode="&#x2003;" horiz-adv-x="1855" />
<glyph unicode="&#x2004;" horiz-adv-x="618" />
<glyph unicode="&#x2005;" horiz-adv-x="463" />
<glyph unicode="&#x2006;" horiz-adv-x="309" />
<glyph unicode="&#x2007;" horiz-adv-x="309" />
<glyph unicode="&#x2008;" horiz-adv-x="231" />
<glyph unicode="&#x2009;" horiz-adv-x="371" />
<glyph unicode="&#x200a;" horiz-adv-x="103" />
<glyph unicode="&#x202f;" horiz-adv-x="371" />
<glyph unicode="&#x205f;" horiz-adv-x="463" />
<glyph unicode="&#xe000;" horiz-adv-x="1843" d="M0 0v1843h1843v-1843h-1843z" />
</font>
</defs>
</svg>
